<svg xmlns="http://www.w3.org/2000/svg" width="453.007" height="423.235" viewBox="0 0 453.007 423.235">
  <g id="_1ptPerspective" data-name="1ptPerspective" transform="translate(0 101.866)">
    <g id="layer3" transform="translate(23.471 -101.867)">
      <g id="g4675" transform="translate(0 0)">
        <rect id="rect3215" width="20.631" height="86.85" transform="translate(129.695 240.829)" fill="#fff" stroke="#000" stroke-width="0.433"/>
        <path id="path3217" d="M333.737,311.537l2.895,3.939-.062,80.585-2.836,1.775,0-86.3Z" transform="translate(-183.463 -70.564)" fill="#fff" stroke="#000" stroke-width="0.433" fill-rule="evenodd"/>
        <rect id="rect3167" width="53.001" height="228.284" transform="translate(8.604 147.655)" fill="#fff" stroke="#000" stroke-width="1.299"/>
        <path id="path3191" d="M176.047,145.106l17.111,18.554.074,202.291-16.647,8.791-.538-229.636Z" transform="translate(-114.496 2.227)" fill="#fff" stroke="#000" stroke-width="1.039" fill-rule="evenodd"/>
        <path id="path3203" d="M427.945,71.718V-116.756" transform="translate(-224.668 116.756)" fill="none" stroke="#000" stroke-width="0.671" fill-rule="evenodd"/>
        <rect id="rect3211" width="29.078" height="125.959" transform="translate(96.173 215.174)" fill="#fff" stroke="#000" stroke-width="1.039"/>
        <path id="path3213" d="M289.409,266.012l6.1,6.16.13,115.486-6.234,4.384,0-126.03Z" transform="translate(-164.076 -50.653)" fill="#fff" stroke="#000" stroke-width="0.866" fill-rule="evenodd"/>
        <path id="path3815" d="M338.605,274.5s-1.31-28.6,19.528-44.081c19.779-14.694,30.985-12.016,30.985-12.016m50.116,56.1s1.31-28.6-19.528-44.081c-19.779-14.694-30.6-11.942-30.6-11.942V218.4" transform="translate(-185.586 -29.747)" fill="none" stroke="#000" stroke-width="0.433" fill-rule="evenodd"/>
        <path id="path3822" d="M333.707,253.419s-3.826-52.912,53.238-74.54m53.034,74.629s4.057-53.044-53.008-74.672" transform="translate(-183.428 -12.525)" fill="none" stroke="#000" stroke-width="0.433" fill-rule="evenodd"/>
        <path id="path3827" d="M334.762,291.77l2.96,3.949" transform="translate(-183.912 -61.918)" fill="none" stroke="#000" stroke-width="0.433" fill-rule="evenodd"/>
        <path id="path3829" d="M325.066,277.642l-3.2-5.108H300.4" transform="translate(-168.882 -53.505)" fill="none" stroke="#000" stroke-width="0.433" fill-rule="evenodd"/>
        <path id="path3831" d="M346.554,250.885l3.6,6.892" transform="translate(-189.07 -44.037)" fill="none" stroke="#000" stroke-width="0.443" fill-rule="evenodd"/>
        <path id="path3833" d="M358.235,231.17l3.307,9.22" transform="translate(-194.179 -35.414)" fill="none" stroke="#000" stroke-width="0.433" fill-rule="evenodd"/>
        <path id="path3835" d="M331.462,260.662,334.753,273" transform="translate(-158.309 -75.348)" fill="none" stroke="#000" stroke-width="0.433" fill-rule="evenodd"/>
        <path id="path3837" d="M389.947,199.163l2.884,15.343" transform="translate(-208.048 -21.416)" fill="none" stroke="#000" stroke-width="0.433" fill-rule="evenodd"/>
        <path id="path3839" d="M408.89,187.648l1.471,18.267" transform="translate(-216.334 -16.379)" fill="none" stroke="#000" stroke-width="0.433" fill-rule="evenodd"/>
        <path id="path3857" d="M300.118,232.456c-.375-47.817,39.609-64.207,72.123-55.27" transform="translate(-168.759 -10.783)" fill="none" stroke="#000" stroke-width="0.866" fill-rule="evenodd"/>
        <path id="path3859" d="M289.168,170.75s2.08-88.771,78.362-122.355" transform="translate(-163.971 44.525)" fill="none" stroke="#000" stroke-width="1.039" fill-rule="evenodd"/>
        <path id="path3861" d="M292.024,237.92l5.8,7.667" transform="translate(-165.22 -38.366)" fill="none" stroke="#000" stroke-width="0.909" fill-rule="evenodd"/>
        <path id="path3863" d="M298.154,210.128l6.5,9.738" transform="translate(-167.902 -26.211)" fill="none" stroke="#000" stroke-width="1.03" fill-rule="evenodd"/>
        <path id="path3865" d="M308.916,176.6l8.5,16.438" transform="translate(-172.609 -11.547)" fill="none" stroke="#000" stroke-width="0.866" fill-rule="evenodd"/>
        <path id="path3867" d="M324.2,144.566,334.14,169.8" transform="translate(-179.295 2.463)" fill="none" stroke="#000" stroke-width="0.866" fill-rule="evenodd"/>
        <path id="path3869" d="M347.377,111.144l10.2,38.4" transform="translate(-189.43 17.081)" fill="none" stroke="#000" stroke-width="0.866" fill-rule="evenodd"/>
        <path id="path3871" d="M370.057,86.534l8.72,49.875" transform="translate(-199.35 27.844)" fill="none" stroke="#000" stroke-width="0.866" fill-rule="evenodd"/>
        <path id="path3873" d="M398.812,64.392l4.77,62.442" transform="translate(-211.926 37.528)" fill="none" stroke="#000" stroke-width="0.866" fill-rule="evenodd"/>
        <path id="path3923" d="M163.951,159.661c-.67-71.077,62.012-108.747,124.582-73.581" transform="translate(-85.043 6.847)" fill="none" stroke="#000" stroke-width="1.039" fill-rule="evenodd"/>
        <path id="path3925" d="M132.573,128.914s2.722-58.1,11.706-83.516" transform="translate(-71.322 18.801)" fill="none" stroke="#000" stroke-width="1.299" fill-rule="evenodd"/>
        <path id="path3927" d="M32.42,128.914S33.781,75.173,23.708,45.4" transform="translate(-23.708 18.801)" fill="none" stroke="#000" stroke-width="1.299" fill-rule="evenodd"/>
        <path id="path3929" d="M180.13,95.124l17.675,22.258" transform="translate(-116.282 24.087)" fill="none" stroke="#000" stroke-width="1.299" fill-rule="evenodd"/>
        <path id="path3931" d="M187.264,34.728,209.022,67.94" transform="translate(-119.402 50.502)" fill="none" stroke="#000" stroke-width="1.299" fill-rule="evenodd"/>
        <path id="path3933" d="M219.742-1l17.592,35.057" transform="translate(-133.607 66.13)" fill="none" stroke="#000" stroke-width="1.299" fill-rule="evenodd"/>
        <path id="path3935" d="M258.137-33.266,273.3,6.971" transform="translate(-150.4 80.241)" fill="none" stroke="#000" stroke-width="1.299" fill-rule="evenodd"/>
        <path id="path3937" d="M304.8-41.165,315-2.763" transform="translate(-170.808 83.695)" fill="none" stroke="#000" stroke-width="0.866" fill-rule="evenodd"/>
        <path id="path3939" d="M343.177-62.333l8.6,49.391" transform="translate(-187.593 92.953)" fill="none" stroke="#000" stroke-width="0.866" fill-rule="evenodd"/>
        <path id="path3941" d="M387.684-78.173l4.77,62.441" transform="translate(-207.059 99.881)" fill="none" stroke="#000" stroke-width="0.866" fill-rule="evenodd"/>
        <path id="path3943" d="M93.366,143.047H38.3" transform="translate(-30.089 -23.907)" fill="none" stroke="#000" stroke-width="1.125" fill-rule="evenodd"/>
        <path id="path3945" d="M95.429,82.975H32.979" transform="translate(-27.763 2.366)" fill="none" stroke="#000" stroke-width="0.75" fill-rule="evenodd"/>
        <path id="path3947" d="M186.49,245.575S187.5,193.93,176.014,158" transform="translate(-90.321 -30.447)" fill="none" stroke="#000" stroke-width="1.039" fill-rule="evenodd"/>
        <path id="path3949" d="M224.911,286.526H194.046" transform="translate(-98.208 -86.659)" fill="none" stroke="#000" stroke-width="0.75" fill-rule="evenodd"/>
        <path id="path3951" d="M227.857,258.4h-35.1" transform="translate(-97.643 -74.36)" fill="none" stroke="#000" stroke-width="0.75" fill-rule="evenodd"/>
        <path id="path3953" d="M232.591,225.119H189.743" transform="translate(-96.326 -59.802)" fill="none" stroke="#000" stroke-width="0.75" fill-rule="evenodd"/>
        <path id="path3955" d="M238.927,192.693H184.581" transform="translate(-94.068 -45.62)" fill="none" stroke="#000" stroke-width="0.75" fill-rule="evenodd"/>
        <path id="path3957" d="M248.4,158.258H176.62" transform="translate(-90.587 -30.56)" fill="none" stroke="#000" stroke-width="0.75" fill-rule="evenodd"/>
        <path id="path3959" d="M266.658,133.58H189.314" transform="translate(-96.138 -19.767)" fill="none" stroke="#000" stroke-width="0.75" fill-rule="evenodd"/>
        <path id="path3961" d="M290.31,111.485h-84" transform="translate(-103.571 -10.103)" fill="none" stroke="#000" stroke-width="0.75" fill-rule="evenodd"/>
        <path id="path3963" d="M314.957,96.277H225.025" transform="translate(-111.757 -3.451)" fill="none" stroke="#000" stroke-width="0.75" fill-rule="evenodd"/>
        <path id="path3965" d="M308.287,82.118H250.909" transform="translate(-123.078 2.741)" fill="none" stroke="#000" stroke-width="0.75" fill-rule="evenodd"/>
        <path id="path3967" d="M276.585,339.712H257.137" transform="translate(-125.802 -109.921)" fill="none" stroke="#000" stroke-width="0.375" fill-rule="evenodd"/>
        <path id="path3969" d="M284.389,299.115H259.74" transform="translate(-126.94 -92.165)" fill="none" stroke="#000" stroke-width="0.375" fill-rule="evenodd"/>
        <path id="path3971" d="M336.466,231.181H308.521" transform="translate(-172.436 -35.419)" fill="none" stroke="#000" stroke-width="0.376" fill-rule="evenodd"/>
        <path id="path3973" d="M307.05,260.4H276.067" transform="translate(-134.081 -75.233)" fill="none" stroke="#000" stroke-width="0.375" fill-rule="evenodd"/>
        <path id="path3975" d="M320.939,247.191H287.781" transform="translate(-139.204 -69.456)" fill="none" stroke="#000" stroke-width="0.375" fill-rule="evenodd"/>
        <path id="path3977" d="M381.9,187.383H347.392" transform="translate(-189.436 -16.263)" fill="none" stroke="#000" stroke-width="0.378" fill-rule="evenodd"/>
        <path id="path2587" d="M401.534,178.994H367.641" transform="translate(-198.293 -12.594)" fill="none" stroke="#000" stroke-width="0.388" fill-rule="evenodd"/>
        <rect id="rect3359" width="20.631" height="86.85" transform="translate(277.441 327.472) rotate(180)" fill="#fff" stroke="#000" stroke-width="0.433"/>
        <path id="path3361" d="M520.933,311.17l-2.895,3.939.062,80.585,2.836,1.775,0-86.3Z" transform="translate(-264.071 -70.403)" fill="#fff" stroke="#000" stroke-width="0.433" fill-rule="evenodd"/>
        <rect id="rect3363" width="53.001" height="228.284" transform="translate(398.533 375.732) rotate(180)" fill="#fff" stroke="#000" stroke-width="1.299"/>
        <path id="path3365" d="M667.518,144.739l-17.111,18.554-.074,202.291,16.647,8.791.538-229.636Z" transform="translate(-321.932 2.388)" fill="#fff" stroke="#000" stroke-width="1.039" fill-rule="evenodd"/>
        <rect id="rect3367" width="29.078" height="125.959" transform="translate(310.964 340.926) rotate(180)" fill="#fff" stroke="#000" stroke-width="1.039"/>
        <path id="path3369" d="M562.668,265.645l-6.1,6.16-.13,115.486,6.234,4.384,0-126.03Z" transform="translate(-280.865 -50.492)" fill="#fff" stroke="#000" stroke-width="0.866" fill-rule="evenodd"/>
        <path id="path3371" d="M519.86,291.4l-2.96,3.949" transform="translate(-263.573 -61.758)" fill="none" stroke="#000" stroke-width="0.433" fill-rule="evenodd"/>
        <path id="path3373" d="M512.679,277.276l3.2-5.108H537.35" transform="translate(-261.727 -53.345)" fill="none" stroke="#000" stroke-width="0.433" fill-rule="evenodd"/>
        <path id="path3375" d="M507.57,250.519l-3.6,6.892" transform="translate(-257.918 -43.877)" fill="none" stroke="#000" stroke-width="0.443" fill-rule="evenodd"/>
        <path id="path3377" d="M496.117,230.8l-3.308,9.22" transform="translate(-253.037 -35.254)" fill="none" stroke="#000" stroke-width="0.433" fill-rule="evenodd"/>
        <path id="path3379" d="M479.961,212.246l-3.291,12.333" transform="translate(-245.978 -27.138)" fill="none" stroke="#000" stroke-width="0.433" fill-rule="evenodd"/>
        <path id="path3381" d="M464.735,198.8l-2.884,15.343" transform="translate(-239.497 -21.255)" fill="none" stroke="#000" stroke-width="0.433" fill-rule="evenodd"/>
        <path id="path3383" d="M446.89,187.282l-1.471,18.267" transform="translate(-232.31 -16.219)" fill="none" stroke="#000" stroke-width="0.433" fill-rule="evenodd"/>
        <path id="path3385" d="M500.739,232.089c.375-47.817-39.609-64.207-72.123-55.269" transform="translate(-224.961 -10.623)" fill="none" stroke="#000" stroke-width="0.866" fill-rule="evenodd"/>
        <path id="path3387" d="M506.841,170.384s-2.08-88.771-78.362-122.355" transform="translate(-224.901 44.685)" fill="none" stroke="#000" stroke-width="1.039" fill-rule="evenodd"/>
        <path id="path3389" d="M560.392,237.554l-5.8,7.667" transform="translate(-280.059 -38.206)" fill="none" stroke="#000" stroke-width="0.909" fill-rule="evenodd"/>
        <path id="path3391" d="M553.717,209.762l-6.5,9.738" transform="translate(-276.833 -26.051)" fill="none" stroke="#000" stroke-width="1.03" fill-rule="evenodd"/>
        <path id="path3393" d="M541.4,176.234l-8.5,16.438" transform="translate(-270.568 -11.387)" fill="none" stroke="#000" stroke-width="0.866" fill-rule="evenodd"/>
        <path id="path3395" d="M524.995,144.2l-9.936,25.235" transform="translate(-262.768 2.624)" fill="none" stroke="#000" stroke-width="0.866" fill-rule="evenodd"/>
        <path id="path3397" d="M501.619,110.778l-10.2,38.4" transform="translate(-252.429 17.241)" fill="none" stroke="#000" stroke-width="0.866" fill-rule="evenodd"/>
        <path id="path3399" d="M480.088,86.167l-8.72,49.875" transform="translate(-243.659 28.005)" fill="none" stroke="#000" stroke-width="0.866" fill-rule="evenodd"/>
        <path id="path3401" d="M454.4,64.025l-4.77,62.441" transform="translate(-234.153 37.689)" fill="none" stroke="#000" stroke-width="0.866" fill-rule="evenodd"/>
        <path id="path3403" d="M553.182,111.245C553.852,40.168,491.171,2.5,428.6,37.664" transform="translate(-224.954 55.058)" fill="none" stroke="#000" stroke-width="1.039" fill-rule="evenodd"/>
        <path id="path3405" d="M672.309,80.5S669.586,22.4,660.6-3.02" transform="translate(-326.424 67.012)" fill="none" stroke="#000" stroke-width="1.299" fill-rule="evenodd"/>
        <path id="path3407" d="M774.739,80.5s-1.361-53.741,8.711-83.516" transform="translate(-376.316 67.012)" fill="none" stroke="#000" stroke-width="1.299" fill-rule="evenodd"/>
        <path id="path3409" d="M663.053,94.758l-17.675,22.258" transform="translate(-319.765 24.248)" fill="none" stroke="#000" stroke-width="1.299" fill-rule="evenodd"/>
        <path id="path3411" d="M652.745,34.362,630.987,67.574" transform="translate(-313.471 50.663)" fill="none" stroke="#000" stroke-width="1.299" fill-rule="evenodd"/>
        <path id="path3413" d="M623.506-1.37,605.914,33.686" transform="translate(-302.505 66.29)" fill="none" stroke="#000" stroke-width="1.299" fill-rule="evenodd"/>
        <path id="path3415" d="M587-33.633,571.835,6.6" transform="translate(-287.6 80.401)" fill="none" stroke="#000" stroke-width="1.299" fill-rule="evenodd"/>
        <path id="path3417" d="M544.2-41.532,534-3.13" transform="translate(-271.051 83.856)" fill="none" stroke="#000" stroke-width="0.866" fill-rule="evenodd"/>
        <path id="path3419" d="M507.062-62.7l-8.6,49.391" transform="translate(-255.51 93.114)" fill="none" stroke="#000" stroke-width="0.866" fill-rule="evenodd"/>
        <path id="path3421" d="M465.532-78.539,460.762-16.1" transform="translate(-239.02 100.041)" fill="none" stroke="#000" stroke-width="0.866" fill-rule="evenodd"/>
        <path id="path3423" d="M677.809,94.63h55.068" transform="translate(-333.949 24.303)" fill="none" stroke="#000" stroke-width="1.125" fill-rule="evenodd"/>
        <path id="path3425" d="M670.008,34.559h62.45" transform="translate(-330.537 50.576)" fill="none" stroke="#000" stroke-width="0.75" fill-rule="evenodd"/>
        <path id="path3427" d="M619.33,197.158s-1.011-51.645,10.476-87.574" transform="translate(-308.363 17.763)" fill="none" stroke="#000" stroke-width="1.039" fill-rule="evenodd"/>
        <path id="path3429" d="M565.077,238.109h30.865" transform="translate(-284.644 -38.449)" fill="none" stroke="#000" stroke-width="0.75" fill-rule="evenodd"/>
        <path id="path3431" d="M558.839,209.988h35.1" transform="translate(-281.916 -26.15)" fill="none" stroke="#000" stroke-width="0.75" fill-rule="evenodd"/>
        <path id="path3433" d="M548.082,176.7H590.93" transform="translate(-277.211 -11.592)" fill="none" stroke="#000" stroke-width="0.75" fill-rule="evenodd"/>
        <path id="path3435" d="M532.808,144.276h54.347" transform="translate(-270.531 2.59)" fill="none" stroke="#000" stroke-width="0.75" fill-rule="evenodd"/>
        <path id="path3437" d="M509.789,109.842h71.776" transform="translate(-260.463 17.65)" fill="none" stroke="#000" stroke-width="0.75" fill-rule="evenodd"/>
        <path id="path3439" d="M487.2,85.164h77.344" transform="translate(-250.584 28.443)" fill="none" stroke="#000" stroke-width="0.75" fill-rule="evenodd"/>
        <path id="path3441" d="M458.374,63.069h84" transform="translate(-237.976 38.107)" fill="none" stroke="#000" stroke-width="0.75" fill-rule="evenodd"/>
        <path id="path3443" d="M429.115,47.86h89.932" transform="translate(-225.179 44.759)" fill="none" stroke="#000" stroke-width="0.75" fill-rule="evenodd"/>
        <path id="path3445" d="M461.092,33.7H518.47" transform="translate(-239.165 50.951)" fill="none" stroke="#000" stroke-width="0.75" fill-rule="evenodd"/>
        <path id="path3447" d="M522.279,291.3h19.448" transform="translate(-265.926 -61.711)" fill="none" stroke="#000" stroke-width="0.375" fill-rule="evenodd"/>
        <path id="path3449" d="M510.432,250.7h24.649" transform="translate(-260.744 -43.955)" fill="none" stroke="#000" stroke-width="0.375" fill-rule="evenodd"/>
        <path id="path3451" d="M498.734,230.815h27.945" transform="translate(-255.628 -35.259)" fill="none" stroke="#000" stroke-width="0.376" fill-rule="evenodd"/>
        <path id="path3453" d="M482.846,211.983h30.983" transform="translate(-248.679 -27.023)" fill="none" stroke="#000" stroke-width="0.375" fill-rule="evenodd"/>
        <path id="path3455" d="M467.267,198.775h33.158" transform="translate(-241.866 -21.246)" fill="none" stroke="#000" stroke-width="0.375" fill-rule="evenodd"/>
        <path id="path3457" d="M448.19,187.016H482.7" transform="translate(-233.522 -16.103)" fill="none" stroke="#000" stroke-width="0.378" fill-rule="evenodd"/>
        <path id="path3459" d="M429.042,178.628h33.894" transform="translate(-225.147 -12.434)" fill="none" stroke="#000" stroke-width="0.388" fill-rule="evenodd"/>
      </g>
    </g>
    <g id="layer1" transform="translate(0 196.002)">
      <path id="path2383" d="M167.879,462.68h450.9" transform="translate(-167.879 -462.68)" fill="blue" stroke="#0000c7" stroke-width="0.866" fill-rule="evenodd"/>
    </g>
    <g id="layer2" transform="translate(2.237 -42.347)">
      <path id="path3158" d="M171.855,39.052,396.086,277.494" transform="translate(-171.855 -39.052)" fill="none" stroke="red" stroke-width="0.799" fill-rule="evenodd"/>
      <path id="path3160" d="M790.909,47.514,571.376,281.219" transform="translate(-346.591 -42.753)" fill="none" stroke="red" stroke-width="0.783" fill-rule="evenodd"/>
      <path id="path3162" d="M571.408,463.436h0C793.87,585.274,778.559,584.005,778.559,584.005" transform="translate(-346.605 -224.662)" fill="none" stroke="red" stroke-width="0.919" fill-rule="evenodd"/>
      <path id="path3164" d="M403.816,463.21h0C173.7,589.113,189.538,587.8,189.538,587.8" transform="translate(-179.487 -224.563)" fill="none" stroke="red" stroke-width="0.95" fill-rule="evenodd"/>
      <path id="path3209" d="M571.874,463.075,797.418,554.7" transform="translate(-346.809 -224.504)" fill="none" stroke="red" stroke-width="0.856" fill-rule="evenodd"/>
    </g>
  </g>
</svg>
