<svg xmlns="http://www.w3.org/2000/svg" width="147.909" height="147" viewBox="0 0 147.909 147">
  <g id="Grupo_31549" data-name="Grupo 31549" transform="translate(-660 -2897)">
    <circle id="Elipse_1070" data-name="Elipse 1070" cx="67.5" cy="67.5" r="67.5" transform="translate(660 2897)" fill="#e0f2f9"/>
    <g id="ratio_1_" data-name="ratio (1)" transform="translate(700 2936.091)">
      <path id="Trazado_28892" data-name="Trazado 28892" d="M96.283,0H11.627A11.64,11.64,0,0,0,0,11.627V73.436A11.641,11.641,0,0,0,11.627,85.064H45.714v6.365H28.558a8.241,8.241,0,0,0,0,16.481H79.351a8.241,8.241,0,1,0,0-16.481H62.2V85.064H96.283a11.64,11.64,0,0,0,11.626-11.627V11.627A11.64,11.64,0,0,0,96.283,0ZM81.27,99.668a1.92,1.92,0,0,1-1.918,1.918H28.558a1.918,1.918,0,0,1,0-3.836H79.351A1.92,1.92,0,0,1,81.27,99.668Zm-25.4-8.24H52.037V85.063h3.836Zm45.714-17.992a5.31,5.31,0,0,1-5.3,5.3H11.627a5.311,5.311,0,0,1-5.3-5.3V11.627a5.31,5.31,0,0,1,5.3-5.3H96.283a5.31,5.31,0,0,1,5.3,5.3Zm0,0" fill="#0f395a"/>
      <path id="Trazado_28893" data-name="Trazado 28893" d="M142.164,108.441a3.161,3.161,0,0,0-6.078,1.742l.351,1.224L77.511,70.588h.077a3.161,3.161,0,1,0,0-6.323H67.428A3.162,3.162,0,0,0,64.389,68.3l2.8,9.766a3.161,3.161,0,0,0,6.078-1.742L72.916,75.1l58.927,40.818h-.077a3.161,3.161,0,1,0,0,6.323h10.158a3.161,3.161,0,0,0,3.039-4.032Zm0,0" transform="translate(-50.722 -50.721)" fill="#0f395a"/>
    </g>
  </g>
</svg>
