<svg xmlns="http://www.w3.org/2000/svg" width="149.52" height="146.693" viewBox="0 0 149.52 146.693">
  <g id="Grupo_31599" data-name="Grupo 31599" transform="translate(-974 -3119)">
    <circle id="Elipse_1072" data-name="Elipse 1072" cx="67.5" cy="67.5" r="67.5" transform="translate(974 3119)" fill="#e0f2f9"/>
    <g id="frame" transform="translate(1019 3161.767)">
      <path id="Trazado_29006" data-name="Trazado 29006" d="M101.475,0H4.045A3.045,3.045,0,0,0,1,3.045v97.837a3.045,3.045,0,0,0,3.045,3.045h97.431a3.045,3.045,0,0,0,3.045-3.045V3.045A3.045,3.045,0,0,0,101.475,0ZM7.089,81.6V22.328H98.431V81.6Zm91.341-65.36H88.282V6.089H98.431Zm-16.238,0H72.043V6.089H82.192Zm-16.238,0H55.8V6.089H65.954Zm-16.238,0H39.566V6.089H49.715Zm-16.238,0H23.328V6.089H33.477ZM7.089,6.089H17.238V16.238H7.089Zm0,81.6H17.238V97.837H7.089Zm16.238,0H33.477V97.837H23.328Zm16.238,0H49.715V97.837H39.566Zm16.238,0H65.954V97.837H55.8Zm16.238,0H82.192V97.837H72.043ZM98.431,97.837H88.282V87.688H98.431Z" fill="#0f395a"/>
      <path id="Trazado_29007" data-name="Trazado 29007" d="M304.492,140H274.045A3.045,3.045,0,0,0,271,143.045v41a3.045,3.045,0,0,0,3.045,3.045h30.447a3.045,3.045,0,0,0,3.045-3.045v-41A3.045,3.045,0,0,0,304.492,140Zm-3.045,41H277.089V146.089h24.358Z" transform="translate(-215.195 -111.583)" fill="#0f395a"/>
      <path id="Trazado_29008" data-name="Trazado 29008" d="M94.492,140H64.045A3.045,3.045,0,0,0,61,143.045v41a3.045,3.045,0,0,0,3.045,3.045H94.492a3.045,3.045,0,0,0,3.045-3.045v-41A3.045,3.045,0,0,0,94.492,140Zm-3.045,41H67.089V146.089H91.447Z" transform="translate(-47.821 -111.583)" fill="#0f395a"/>
    </g>
  </g>
</svg>
