<svg xmlns="http://www.w3.org/2000/svg" width="147.212" height="148" viewBox="0 0 147.212 148">
  <g id="Grupo_31548" data-name="Grupo 31548" transform="translate(-445 -2893)">
    <circle id="Elipse_1066" data-name="Elipse 1066" cx="67.5" cy="67.5" r="67.5" transform="translate(445 2893)" fill="#e0f2f9"/>
    <g id="fields" transform="translate(467 2915.788)">
      <path id="Trazado_28878" data-name="Trazado 28878" d="M216,17.119A17.119,17.119,0,1,0,233.119,0,17.138,17.138,0,0,0,216,17.119ZM233.119,4.891a12.228,12.228,0,1,1-12.228,12.228A12.242,12.242,0,0,1,233.119,4.891Z" transform="translate(-163.176)" fill="#0f395a"/>
      <path id="Trazado_28879" data-name="Trazado 28879" d="M122.766,96c-19.326,0-29.385,9.671-39.113,19.024-.971.934-1.969,1.892-2.968,2.833a77.608,77.608,0,0,1-25.375-6.081,2.446,2.446,0,1,0-1.867,4.521A82.9,82.9,0,0,0,75.719,122.3c-6.78,5.651-14.989,10.38-27.787,10.38H4.891V100.925a75.693,75.693,0,0,1,28.5,6.29,2.445,2.445,0,0,0,1.883-4.514A80.528,80.528,0,0,0,2.446,96,2.446,2.446,0,0,0,0,98.446v96.844a2.446,2.446,0,0,0,2.446,2.446H122.766a2.446,2.446,0,0,0,2.446-2.446V98.446A2.446,2.446,0,0,0,122.766,96Zm-2.446,62.446-15.24-20.872h15.24Zm-33.277-39.9c8.991-8.645,17.508-16.833,33.277-17.6v31.734H69.037C76.071,129.063,81.357,124.018,87.044,118.55Zm-7.6,74.293L72.7,137.574h10.7l20.67,55.269Zm-58.311,0L41.8,137.574h10.7l-6.74,55.269Zm36.3-55.269H67.777l6.74,55.269H50.695Zm-52.544,0h15.24L4.891,158.446Zm0,29.166,21.3-29.166H36.581l-20.67,55.269H4.891Zm104.409,26.1L88.63,137.574H99.025l21.3,29.166v26.1Z" transform="translate(0 -72.523)" fill="#0f395a"/>
      <ellipse id="Elipse_1063" data-name="Elipse 1063" cx="2.5" cy="2" rx="2.5" ry="2" transform="translate(42 35.212)" fill="#0f395a"/>
    </g>
  </g>
</svg>
