<svg xmlns="http://www.w3.org/2000/svg" width="425.398" height="273.8" viewBox="0 0 425.398 273.8">
  <g id="Grupo_13566" data-name="Grupo 13566" transform="translate(-8.299 -32.016)">
    <path id="Trazado_12656" data-name="Trazado 12656" d="M433.449,269.463l.133-.221-39.868-24.153,13.8-18.682h.013v-57.98H407.5l-.4-.9-30.264-4.3L426.474,151.4v24.68h.517V79.047h-.517v42.446L359.231,93.927h.065V81.663l16.786,8.79V100.6h1.033V90.14H376.6l.242-.456L334.764,67.3v-.138h-.259l-5.864-3.12,37.8-27.836-.307-.416-38,27.983-18.779-9.991v-.137H309.1l-7.38-3.926V32.24H301.2v17.2l-14.134-7.52H285L263.581,75.895H210.165L206.13,55.488h-2.067l-32.237,11.9L159.386,49.4V32.24h-.517V48.657l-4.661-6.737h-1.55L100.173,70.711l-66.987-38.7-.258.447L99.644,71,74.89,84.581,8.484,59.008,8.3,59.49l66,25.416L29.182,109.655V97.446h-.517V151.48h.517V137.1l10.575-.705v67.3h.517l-.359.371L58.338,221.9,28.81,236.347l-.4.232V275.6l.037.192,11.4,28.449.959-.384L29.441,275.5V238.574l31.744,57.15v7.336h2.067v-7.254l1.708-1.639v8.892h.517v-9.388l3.229-3.1v12.618h.517V290.077l3.229-3.1v16.081h.517V286.483l3.924-3.765v20.473h.517V282.222l4.471-4.291v25.26H82.4V277.435l5.166-4.958v30.581h.517V271.982l6.07-5.825V300.4l-3.575,4.447.619.5.185.149h0l.4.323,37.752-46.963L177.2,295.259v7.267h2.067V259.559h2.325v41.989h.517V259.559h7.4V302.2h.517V259.559h10.161V302.5h.517V259.559h13.08v42.8h.517v-42.8h26.185v42.546H241V259.559h9.127V301.9h.517V259.559h6.294v42.5h.517v-42.5h3.571V304.05h2.067V258.526l-8.6-24.87,9.544-3.871,36.725,75.883.708-.343.222-.106h0l.465-.225-36.99-76.432h.172V184.154L224.7,143.809l93.745,64.974v93.743h2.067V208.783l1.124-.521v94.913h.517V208.023l1.766-.818V302.6h.517V206.965l2.144-.993V302.38h.517V205.733l.369-.172,2.722,1.649v93.735h.517V207.523l3.714,2.25V300.9h.517V210.086l3.6,2.179v88.249h.517V212.579l4.761,2.884v85.5h.517V215.776l4.133,2.5V303.4h.517V218.592l5.279,3.2v74.7h.216l-4.311,5.839.831.614,42.411-57.432,39.74,24.075-9.461,32.873.5.144,9.516-33.064ZM406.49,226.049l-13.663,18.5-2.4-1.451V176.389l7.556-3.5v63.751h.517v-63.99l7.986-3.7Zm-46.782-35.425v33.864l-4.933-2.988V192.91Zm.517-.24,5.948-2.755V228.4l-5.948-3.6Zm20.425-9.464v56.254l-6.718-4.07v-49.07Zm-7.235,51.871-6.726-4.075V187.39l6.726-3.116Zm-7.243-3.783v51.639l-5.948,8.054v-63.3Zm.517.313,6.726,4.075V270.84l-6.726,9.108Zm7.243,4.388,6.718,4.071v23.263l-6.718,9.1Zm7.235,4.383,8.749,5.3V247.8h.512l-9.261,12.54Zm0-.6V180.682l8.749-4.053v66.16Zm24.7-69.407-67.077,30.212h-.258v.116l-3.856,1.737h-.258v.116l-3.971,1.789h-.259v.117l-4.2,1.893-99.116-60.045-.752-.514,94.744,32.573h2.067l52.08-12.413Zm-340.266-3.66v1.814l-7.75-2.2V124.895l81.844-14.8,18.395,7.084v15.937l-26.046.972.019.516,26.027-.971V166l-40.219,15.1L66.638,166.529v-2.108ZM171.8,69.31l32.268,46.538v14.565l-20.613-11.6-24.314-14.045h0l-26.3-15.194V83.193Zm-10.677-15.4V71.336l-1.732.639V51.412Zm5.554,15.376V61.92l2.2,3.166v3.389Zm-.517.191-2,.739V58.288l2,2.887Zm-2.519.929-2,.739V54.655l2,2.887Zm-4.768,1.759-1.368.5V48.695l1.368,1.973Zm-1.884.7-1.292.476V46.087l1.292,1.862ZM308.84,55.243V77.979l-7.379,5.434V51.378ZM325.2,65.932l-7.638,5.625V59.809l7.9,4.135H325.2Zm0,.642v13.4l-2.267-.929h-2.067l-3.3,2.089V72.2Zm11.851,20.32v47.073l-4.835.319V84.963ZM255.174,208.657l-4.527-9.4V189.25h-.259l4.786-1.042Zm.258-20.5,4.032-.877v30.287l-3.773-7.833V188.152Zm-5.3,10.035-3.872-8.038,3.872-.843ZM241,191.293l4.2-.915v17.394L241,195.31Zm-.517,2.487-.747-2.212.747-.163Zm5.238-3.514.015,0,4.391,9.115v22.982L245.724,209.3Zm-6.649-.668-14.832-43.955,20.574,42.706ZM223.7,192.945V179.324l-.74-35.882,15.612,46.266Zm-75.6,31V213.677l5.338-5.122v9.484Zm-38.828,26.986.52-.5.085,15.837-.6.67ZM70.3,168.755v30.213l-1.908.717V168.2Zm.517.151,2.436.713v28.239l-2.436.914Zm2.953.864,2.644.774v26.127l-2.644.993Zm3.161.926,2.748.8v23.945l-2.748,1.032Zm3.265.956,3.521,1.031V193.93l-3.521,1.322Zm4.038,1.183,3.351.981v18.661l-3.351,1.258Zm3.868,1.132,3.578,1.048v15.925L88.1,192.283Zm4.095,1.2,4.144,1.214v12.809L92.2,190.745Zm4.661,1.365,3.622,1.06v10.044L96.856,189Zm18.65,5.461-14.512,5.449v-9.7Zm.825.242,14.423,4.223-14.239,6.968-14.963-5.642Zm41.763-65.61-17.416-6.707,17.416-3.15Zm132.633-16.6h.016v-.01l30.121-18.741v53.763L224.221,141.4Zm4.717-4.9V88.486l5.5-4.05v7.209Zm57.409,64.693-8.524-1.21v-24.6l8.524-.562Zm.517-26.407,9.124-.6v28.378l-9.124-1.3Zm-9.558,25.123-6.247-.887V134.451l6.247-.412Zm-6.764-.96-4.835-.687V134.8l4.835-.319Zm-5.351-.76-3.384-.48v-21.27l3.384-.223Zm-3.9-.554-2.083-.3V135.232l2.083-.137Zm-2.6-.369-2.267-.322v-20.15l2.267-.149ZM192.573,221.562l16.509-43.384,12.546,2.022v52.31Zm-32.079-11.553v-8.229l28.045-26.911,3.388.546-31.292,34.649ZM118.3,256.938V242.265l2.153-2.066v14.355Zm91.453-80.526,12.618-33.16-.723,35.036Zm-15.589-2.459,22.259-24.84L196.2,174.274Zm.733,1.938-28.718,35.726-4.31-1.624,30.87-34.45ZM181.5,162.2v10.465l-7.29,5.53V165.765Zm-7.29,2.992V160.5l7.29-2.738v3.86Zm7.806-3.245,9.954-4.871v7.647l-9.954,7.55Zm10.47-5.123,11.317-5.539v4.463l-11.317,8.584Zm11.833-1.468v-4.324l15.375-7.524-3.571,2.894Zm17.166-13.3-1.247.61-15.919,5.977V134.98l17.553,6.76Zm-6.094,2.983-11.071,5.418v-1.261ZM203.8,150.707l-11.317,5.538v-2.608l11.317-4.25ZM191.971,156.5l-9.954,4.871v-3.8l9.954-3.738Zm-9.954.518V132.739l9.954-.371v20.911Zm-.517.194-7.29,2.737V133.03l7.29-.272Zm-7.806,2.931-4.859,1.825V133.231l4.859-.181Zm0,.552v4.749l-4.859,2.378v-5.3Zm0,5.324v12.566l-4.859,3.686V168.4Zm0,13.214V180.8l-4.859,3.939v-1.817Zm.517-.392,7.29-5.53v1.073h.1l-7.393,5.993Zm7.806-5.922,9.954-7.55v.611l-9.954,8.069Zm10.47-7.941,11.2-8.493-11.2,9.077Zm11.833-30.551v-2.52l.135-.005,14.9,8.313Zm-.517-.2-5.448-2.1,5.448-.2Zm0,.554v14.055l-11.317,4.249V132.348l4.558-.17Zm-11.317-2.949v-1.408l3.334,1.284Zm-.517.019-9.954.371v-5.831l9.954,3.833Zm-10.47.391-7.29.272v-9.129l7.29,2.807Zm-7.806.291-4.859.181v-11.4l4.859,1.871Zm-4.859-11.772v-8.738l4.859,2.712v7.9Zm-.517-.2-3.433-1.322v-9.421l3.433,1.916Zm0,.554v11.618l-3.433.128V119.793Zm0,12.135v28.91l-3.433,1.289V133.378Zm0,29.462v5.362l-3.433,1.68V164Zm0,5.937v14.013l-3.433,2.6V170.329Zm0,14.661v1.844l-3.433,2.782v-2.022Zm-3.949,5.045-2.412,1.955v-2.175l2.412-1.83Zm-2.929,2.374-1.28,1.037V189.5l1.28-.971Zm-13.863,8.961v5.448l-4.8-1.809Zm.517-.392,5.338-4.049v12.1l-5.338-2.013Zm5.855-4.441,1.53-1.16,3.5,1.026.474-.1.521-.43v7.364l-6.028,5.784Zm2.729-2.719,1.416-1.074v1.477Zm3.809,1.635,25.532-21.082-1.792,1.48,3.673.592-27.406,26.3v-7.289Zm25.555-21.1,28.94-23.9L189.51,173.22Zm31.592-25.724L193.36,173.827l-3.209-.506Zm4.2-3.747L209.233,176.33l-12.447-1.963Zm-18.251-11.784-6.455.241-4.646-1.789v-4.647Zm-11.617-1.747-9.954-3.833v-6.458l9.954,5.555Zm-10.47-4.032-7.29-2.807v-7.808l7.29,4.068ZM164.37,109.53v9.511l-2.412-.929v-9.928Zm0,10.065v13.286l-2.412.09V118.665Zm0,13.8v30.246l-2.412.906V133.487Zm0,30.8v5.811l-2.412,1.181V165.1Zm0,6.386v15.075l-2.412,1.829V171.762Zm-2.929,17.3-1.28.971V172.641l1.28-.626Zm-3.347,2.538-2.038,1.546L133.684,185.6l24.41-11.946Zm-40.309,31.871v19.757l-1.98,1.9V223.79Zm-6.716,5.095v21.107l-.772.741-.113-21.177Zm.517-.392,1.464-1.11v20.709l-1.464,1.4Zm1.98-1.5,1.722-1.307v20.259l-1.722,1.652Zm1.722,19.668v15.118l-1.722,1.907V246.809Zm.517-.5,1.98-1.9V257.51L115.8,259.7Zm2.5-3.112V221.9l2.153-1.633v19.22Zm2.669-21.677,2.5-1.894v18.614l-2.5,2.4Zm3.014-2.286,2.5-1.895V233.7l-2.5,2.4ZM127,215.3l3.789-2.874v17.142L127,233.2Zm4.306-3.266,4.816-3.653v16.07l-4.816,4.622Zm5.333-4.045,5.172-3.923v14.927l-5.172,4.962Zm5.689-4.279,5.253,1.981v7.766l-5.253,5.04Zm5.769,2.176,5.293,2-5.293,5.08Zm11.883-3.611v7.539l-5.641-2.127Zm35.508-26.288,13.077,2.107L192.09,221.38l-25.4-9.571Zm125.379-20.714L226.039,141.8l94.825-6.25Zm2.067-20.375V81.255l2.267.906v52.587Zm-105.288,3.156v-2.619l2.977,4.294Zm-.517-.291-2.825-1.589v-5.559l2.825,4.075Zm-3.342-1.88-2.618-1.473v-8.316l2.618,3.776Zm-3.134-1.763-1.679-.945V122.927l1.679,2.421Zm-50.49-26.939,1.28.714v10.018l-1.28-.493Zm1.28,11.286V132.99l-1.28.048V117.973Zm0,15.04v31.237l-1.28.48v-31.67Zm0,31.789v6.144l-1.28.626v-6.29Zm-3.347,7.782-25.153,12.31-14.229-4.047,39.383-14.789Zm-26.6,13.6,22.139,6.483-12.561,9.528-23.888-9.008Zm-22.224,42.077.4-.305.114,21.28-.517.5Zm1.119,36.955-.084-15.762.768-.737v15.741Zm1.2-16.995,1.464-1.4v15.449l-1.464,1.621Zm9.935,6.311v11.327l-9.29,11.557V265.388Zm.258-.288.959-1.07,5.564,4.25-6.265,7.793V254.732Zm-.808-.751V239.7l2.5-2.4v13.91Zm3.014-17.17,2.5-2.4V247.88l-2.5,2.765ZM127,233.92l3.789-3.636v12.829l-3.789,4.2Zm4.306-4.132,4.816-4.621v12.041l-4.816,5.333Zm5.333-5.117,5.172-4.963v11.2l-5.172,5.727Zm5.689-5.458,5.253-5.04v10.348l-5.253,5.816Zm11.624-11.12,6.028,2.273v.426l-6.028,6.674Zm166.915-52.185v18.238L225.909,142.31Zm2.067.3,2.267.324v17.1l-2.267.521Zm2.784.4,2.083.3v16.126l-2.083.479Zm2.6.372,3.384.485V172.13l-3.384.778Zm3.9.559,4.835.692V170.9l-4.835,1.112Zm5.351.766,6.247.895v10.149l-6.247,1.437Zm6.764.969,8.524,1.221v6.775l-8.524,1.961Zm9.041,1.295,9.124,1.307v3.178l-9.124,2.1Zm9.64,1.38,8,1.145-8,1.84Zm0-.684V132.774l8.7-.573V162.5Zm0-29V97.263l8.7,3.474v30.945Zm-.517.034-9.124.6V93.413l9.124,3.644Zm-9.64.635-8.524.562V89.8l8.524,3.4Zm-9.041.6-6.247.412V87.1l6.247,2.495Zm-12.115.8-3.384.223V83.405l3.384,1.352Zm-3.9.257-2.083.137V82.367l2.083.832ZM317.043,81.463l-7.687,4.862V78.241l7.687-5.661Zm-8.2,5.189-7.379,4.667V84.056l7.379-5.434Zm-7.9-2.858-5.5,4.05V48.229l5.5,2.88Zm-6.016-35.7V88.225l-4.185,3.082V45.767l4.443,2.326Zm0,40.773v6.486h.154L290.744,98.1V91.948Zm-4.7,9.557-3.158,2V94.655l3.158-2.326Zm-5.2,3.289-53.4,33.774L285,96.177v5.536ZM217.643,133.6v-13.9l4.01,19.694Zm-.517-.747-2.825-4.083V103.291l2.825,13.877Zm-3.342-4.83-2.618-3.784V87.895l2.618,12.859Zm-3.134-4.53-1.679-2.427V77.11l1.679,8.247Zm-2.2-3.174-1.135-1.64V69l1.135,5.575Zm0,1.858v10.7l-1.135-.639v-11.7Zm-1.652,9.773-.673-.379V118.829l.673.971Zm-48.446-27.037L137.766,108.8l-4.933-1.9V90.175ZM136.8,108.977l-3.967.747v-2.275ZM67.875,168.044v31.833l-1.236.464v-32.66Zm32.945,20.014,15.059,5.678-34.115,16.7-14.676-9.708Zm15.723,5.929,24.038,9.064-32.6,24.725-25.72-17.013ZM107.2,229.306v22.9l-8.064,7.738L59.72,221.8l21.21-10.38Zm0,23.612v14.826L99.507,260.3Zm.29,16.545H108.6l.667-.767h0l2.448-2.732v12.583l-9.213,11.46V264.636Zm15.595-16.187,26.885-30,4.958,2.341-25.89,32.208Zm27.244-30.4,10.43-11.639,4.4,1.657-9.9,12.311Zm15.336-9.791,25.389,9.565L184.7,239.1l-28.958-13.674Zm49.248,18.554,1.115.42h-.252v15.072l-.863.35Zm1.38.52.946.356v14.022l-.946.384Zm1.463.551,2.388.9h-.256v11.853l-2.133.865Zm2.649,1,1.983.747.106-.059V244.4l-2.09.848Zm2.606.4.684-.379V195.059l1.288-.28v48.614l-1.972.8Zm2.23-39.384,3.534-.769v47.882h.05l-3.325,1.348V194.723Zm3.793-.826,3.874-.843v47.125l-3.616,1.467V193.9Zm4.391-.955,2.928-.638v46.478l-2.928,1.187Zm3.444-.75,2.362-.514,1.254,3.717v41.712l-3.616,1.466ZM241,196.926l4.2,12.461v25.8L241,236.9Zm4.721,13.991,4.406,13.057v9.22l-4.406,1.787Zm4.923,14.588,2.22,6.58-2.22.9Zm0-1.616V200.449l4.527,9.4v21.3l-1.828.741Zm5.044-12.97,3.773,7.832V229.41l-3.773,1.53Zm4.29,8.9,3.293,6.836v1.2l-3.293,1.335Zm3.293,5.645-3.293-6.836V187.219h-.259l3.552-.773Zm-17.938-37.235-21.622-44.881,39.167,41.062Zm126.891-25.666v-30.4l4.39-.289-.035-.516-4.355.287v-30.7l11.817,4.72V160.09l-11.173,2.57Zm24.516-5.4-12.183,2.8v-54.1l12.183,4.866Zm.517-46.227,13.335,5.326v37.716l-13.335,3.067Zm29.214,39.39-15.363,3.533v-37.39l15.363,6.136ZM358.78,93.742l-13.934-5.712V74.1l13.934,7.3Zm-14.45-19.916V87.819L334.764,83.9V68.817Zm-10.082-5.279V83.686l-8.533-3.5V66.194l1.679-1.236Zm-8.533-2.995V64.079l1.169.612ZM317.3,59.674h-.258V71.938L309.356,77.6V55.513ZM290.485,45.631h-.258V91.687l-3.158,2.326V43.842ZM285,95.535,225.453,139.39l-1.112.7L285,44.962ZM263.255,76.411l-40.338,63.982L210.266,76.411ZM206.8,66.46v51.476l-.673-.973V63.153Zm-2.74-8.647v56.164L172.889,68.92ZM169.384,68.285V65.832l1.354,1.953ZM155.177,45.341V73.528l-.969.358V43.944Zm-2.519-1.732V74.458l-21.375,7.888v6.337l-29.8-17.213Zm-51.7,28.15,30.33,17.52V106.3L76.362,85.148ZM29.182,110.834,75.766,85.472l55.518,21.38v3.163l-74.041,13.94-.42.507v9.759l-27.64,1.843Zm11.608,92.643V136.327l16.032-1.069v29.163l.371.5,8.411,2.463V200.7l.231.431,14.6,9.945L59.325,221.414Zm-11.273,33.1,29.216-14.3L98.018,260.3,62.49,294.388Zm65.149,29.084,4.467-4.286,2.853,2.76V290.65l-7.32,9.106Zm34.782-7.525,25.96-32.294,29.105,13.743-7.314,18.94v36.083Zm50.006-.644,13.052-34.3,20.341,7.663v18.155l1.421.957,38.782-15.727,7.846,23.251Zm139-50.967-83.708-57.14,90.676,54.933-4.9,2.208Zm9.585-1.226,2.157-1v2.306Zm2.674,1.62v-2.859l3.714-1.721v6.829Zm4.231,2.563V202.1l3.6-1.667v11.228Zm4.114,2.492v-11.78l4.761-2.206v16.87Zm5.277,3.2V197.75l4.133-1.915v21.841Zm4.65,2.817V195.6l5.279-2.446v28.038Zm5.8,4.116,4.933,2.988V289.4l-4.933,6.68ZM390.431,247.8V243.7l2.087,1.264Z" fill="#595651"/>
    <rect id="Rectángulo_2735" data-name="Rectángulo 2735" width="0.517" height="42.82" transform="translate(228.775 259.559)" fill="#595651"/>
  </g>
</svg>
