<svg xmlns="http://www.w3.org/2000/svg" width="441.638" height="197.707" viewBox="0 0 441.638 197.707">
  <g id="_2-punktperspektive" data-name="2-punktperspektive" transform="translate(-0.038 -40.853)">
    <path id="path1888" d="M.038,190.524l441.438-.008" transform="translate(0 15.517)" fill="none" stroke="blue" stroke-width="1.016" fill-rule="evenodd"/>
    <path id="path1890" d="M127.469,211.424l300.787-10.129" transform="translate(13.261 16.638)" fill="none" stroke="red" stroke-width="1" fill-rule="evenodd"/>
    <path id="path1886" d="M295.087,215.849l-282.4-25.421L186.992,220.8" transform="translate(1.316 15.508)" fill="none" stroke="green" stroke-width="1" fill-rule="evenodd"/>
    <path id="path1894" d="M179.5,220.666l243.342-13.031" transform="translate(18.675 17.298)" fill="none" stroke="red" stroke-width="1" fill-rule="evenodd"/>
    <path id="path1873" d="M127.355,227.831,127.5,92.384l57.463-50.975L311.842,76.854l.034,154.542L297.588,232.6l-14.425-1.274c-.127-69.845.094-61.393-.376-75.369-.509-14.858-10.966-25.453-21.794-33.9-23.549,18.315-22.051,19.9-21.9,103.763l-12.2.113-8.861-1.144c.052-67.774,2.225-70.313-11.144-86.328l-1,98.444-21,1.154-9.945-1.189c.095-108.782-.924-98.613-2.12-111.625-26.98,17.5-21.464,29.678-22.1,103.95l-16.593.068Z" transform="translate(13.249)" fill="#fff" stroke="#000" stroke-width="1" fill-rule="evenodd"/>
    <path id="path1878" d="M179.456,238.1l.055-196.69" transform="translate(18.671 0.001)" fill="none" stroke="#000" stroke-width="1" fill-rule="evenodd"/>
    <path id="path1880" d="M252.757,115.483c-11.29-9.075-30.008-12.051-46.276-10.751,16.192,31.482,11.484,48.842,12.178,114.518" transform="translate(21.483 6.559)" fill="none" stroke="#000" stroke-linejoin="bevel" stroke-width="1" fill-rule="evenodd"/>
    <path id="path1882" d="M133.533,223.723c-.025-13.683.272-25.152.1-49.782-.179-25.327.479-46.766,5.632-61.592,8.562-24.638,28.494-27.61,32.918,7.514" transform="translate(13.892 5.438)" fill="none" stroke="#000" stroke-width="1" fill-rule="evenodd"/>
    <path id="path1892" d="M179.473,41.538l243.4,67.252" transform="translate(18.673 0.013)" fill="none" stroke="red" stroke-width="1" fill-rule="evenodd"/>
    <path id="path1896" d="M127.5,87.5l300.784,52.439" transform="translate(13.264 4.796)" fill="none" stroke="red" stroke-width="1" fill-rule="evenodd"/>
    <g id="g5546" transform="translate(147.449 91.272)">
      <g id="g5535" transform="translate(0 8.832)">
        <path id="path1898" d="M133.555,148.532l17.029.878" transform="translate(-133.555 -88.955)" fill="none" stroke="#000" stroke-width="1" fill-rule="evenodd"/>
        <path id="path1900" d="M133.6,141.505l17.81,1.122" transform="translate(-133.55 -89.687)" fill="none" stroke="#000" stroke-width="1" fill-rule="evenodd"/>
        <path id="path1902" d="M134.483,133.417l19.81,1.27" transform="translate(-133.458 -90.528)" fill="none" stroke="#000" stroke-width="1" fill-rule="evenodd"/>
        <path id="path1904" d="M135.5,124.446l24.348,2.342" transform="translate(-133.353 -91.462)" fill="none" stroke="#000" stroke-width="1" fill-rule="evenodd"/>
        <path id="path1906" d="M137.444,116.359l30.838,3.513" transform="translate(-133.15 -92.303)" fill="none" stroke="#000" stroke-width="1" fill-rule="evenodd"/>
        <path id="path1908" d="M139.565,108.359l30.789,4.587" transform="translate(-132.93 -93.136)" fill="none" stroke="#000" stroke-width="1" fill-rule="evenodd"/>
        <path id="path1910" d="M142.394,102.216l26.347,4.343" transform="translate(-132.635 -93.775)" fill="none" stroke="#000" stroke-width="1" fill-rule="evenodd"/>
        <path id="path1912" d="M146.194,97.664l19.274,3.22" transform="translate(-132.24 -94.249)" fill="none" stroke="#000" stroke-linecap="round" stroke-width="1" fill-rule="evenodd"/>
        <path id="path1914" d="M150.746,94.571c.293.1,10.979,2,10.979,2" transform="translate(-131.766 -94.571)" fill="none" stroke="#000" stroke-linecap="round" stroke-width="1" fill-rule="evenodd"/>
      </g>
      <g id="g5514" transform="translate(72.75 0)">
        <path id="path1916" d="M268.325,145.928c.121.025,14.516-2.39,14.516-2.39" transform="translate(-192.28 -80.644)" fill="none" stroke="#000" stroke-width="1" fill-rule="evenodd"/>
        <path id="path1918" d="M266.933,137.689l15.614-3.122" transform="translate(-192.425 -81.577)" fill="none" stroke="#000" stroke-width="1" fill-rule="evenodd"/>
        <path id="path1920" d="M263.176,130.2l18.054-4.732" transform="translate(-192.816 -82.525)" fill="none" stroke="#000" stroke-width="1" fill-rule="evenodd"/>
        <path id="path1922" d="M257.343,122.64l20.4-6.149" transform="translate(-193.423 -83.458)" fill="none" stroke="#000" stroke-width="1" fill-rule="evenodd"/>
        <path id="path1924" d="M249.167,115.673l24.884-8.2" transform="translate(-194.274 -84.396)" fill="none" stroke="#000" stroke-width="1" fill-rule="evenodd"/>
        <path id="path1926" d="M239.7,110.475l28.9-9.85" transform="translate(-195.259 -85.109)" fill="none" stroke="#000" stroke-width="1" fill-rule="evenodd"/>
        <path id="path1928" d="M228.219,107.09,262.13,94.306" transform="translate(-196.454 -85.767)" fill="none" stroke="#000" stroke-linecap="round" stroke-linejoin="round" stroke-width="1" fill-rule="evenodd"/>
        <path id="path1930" d="M217.391,106.077l37.717-16.1" transform="translate(-197.581 -86.218)" fill="none" stroke="#000" stroke-width="1" fill-rule="evenodd"/>
        <path id="path1932" d="M207.226,106.441l40.938-19.029" transform="translate(-198.639 -86.484)" fill="none" stroke="#000" stroke-width="1" fill-rule="evenodd"/>
        <path id="path1934" d="M213.59,97.6l24.4-11.027" transform="translate(-197.976 -86.572)" fill="none" stroke="#000" stroke-width="1" fill-rule="evenodd"/>
        <path id="path1936" d="M230.437,155.824l-12.15-1.414-8.807,1.537" transform="translate(-198.404 -79.512)" fill="none" stroke="#000" stroke-width="1" fill-rule="evenodd"/>
        <path id="path1938" d="M209.436,149.817l8.807-1.44,12.735,1.561" transform="translate(-198.409 -80.14)" fill="none" stroke="#000" stroke-width="1" fill-rule="evenodd"/>
        <path id="path1940" d="M232.132,142.912l-14.3-1.805-10.344,2.367" transform="translate(-198.611 -80.897)" fill="none" stroke="#000" stroke-width="1" fill-rule="evenodd"/>
        <path id="path1942" d="M204.575,137.121l12-3.659,17.711,2.293" transform="translate(-198.914 -81.692)" fill="none" stroke="#000" stroke-width="1" fill-rule="evenodd"/>
        <path id="path1944" d="M237.627,128.967l-21.567-3.416-15.418,5.562" transform="translate(-199.324 -82.515)" fill="none" stroke="#000" stroke-width="1" fill-rule="evenodd"/>
        <path id="path1946" d="M199.448,124.173l14.54-5.074,28.252,4.342" transform="translate(-199.448 -83.187)" fill="none" stroke="#000" stroke-width="1" fill-rule="evenodd"/>
        <path id="path1948" d="M247.753,118.763l-35.912-6.294-10.978,4.441" transform="translate(-199.301 -83.877)" fill="none" stroke="#000" stroke-width="1" fill-rule="evenodd"/>
        <path id="path1950" d="M203.249,110.4l6.1-2.878,42.6,8.295" transform="translate(-199.052 -84.392)" fill="none" stroke="#000" stroke-width="1" fill-rule="evenodd"/>
        <path id="path1952" d="M246.082,111.339c-.244,0-35.762-6.869-35.762-6.869" transform="translate(-198.317 -84.709)" fill="none" stroke="#000" stroke-width="1" fill-rule="evenodd"/>
      </g>
    </g>
    <path id="path1955" d="M290.106,227.893c.045-19.766-.231-46.14.045-77.229.155-17.466-5.768-35.114-15.978-47.117-17.415-20.474-45.814-26.021-67.011,2.943-7.306,11.714-7.656,19.163-7.758,27.519" transform="translate(20.747 4.689)" fill="none" stroke="#000" stroke-width="1" fill-rule="evenodd"/>
    <path id="path1884" d="M139.556,88.991,12.312,202.745,323.848,73.5" transform="translate(1.277 3.34)" fill="none" stroke="green" stroke-width="1" fill-rule="evenodd"/>
  </g>
</svg>
