<svg xmlns="http://www.w3.org/2000/svg" width="146.716" height="151" viewBox="0 0 146.716 151">
  <g id="Grupo_31548" data-name="Grupo 31548" transform="translate(-453 -2912)">
    <circle id="Elipse_1068" data-name="Elipse 1068" cx="67.5" cy="67.5" r="67.5" transform="translate(453 2912)" fill="#e0f2f9"/>
    <g id="portrait" transform="translate(467.569 2939.788)">
      <path id="Trazado_28880" data-name="Trazado 28880" d="M214.127,193.8a2.406,2.406,0,1,0-1.937-2.358A2.409,2.409,0,0,0,214.127,193.8Z" transform="translate(-148.046 -143.543)" fill="#0f395a"/>
      <path id="Trazado_28881" data-name="Trazado 28881" d="M281.747,193.8a2.406,2.406,0,1,0-1.937-2.358A2.408,2.408,0,0,0,281.747,193.8Z" transform="translate(-199.394 -143.545)" fill="#0f395a"/>
      <path id="Trazado_28882" data-name="Trazado 28882" d="M231.295,261.6a8.387,8.387,0,0,0,10.543,0,2.406,2.406,0,1,0-3.037-3.733,3.554,3.554,0,0,1-4.467,0,2.407,2.407,0,0,0-3.038,3.733Z" transform="translate(-161.879 -195.404)" fill="#0f395a"/>
      <path id="Trazado_28883" data-name="Trazado 28883" d="M36.667,0H26.342a9.126,9.126,0,0,0-9.115,9.115V19.44a2.406,2.406,0,0,0,4.813,0V9.115a4.307,4.307,0,0,1,4.3-4.3H36.667a2.406,2.406,0,0,0,0-4.813Z" transform="translate(-0.001 0)" fill="#0f395a"/>
      <path id="Trazado_28884" data-name="Trazado 28884" d="M416.724,0H406.4a2.406,2.406,0,1,0,0,4.813h10.324a4.307,4.307,0,0,1,4.3,4.3V19.44a2.406,2.406,0,1,0,4.813,0V9.115A9.126,9.126,0,0,0,416.724,0Z" transform="translate(-293.692 0)" fill="#0f395a"/>
      <path id="Trazado_28885" data-name="Trazado 28885" d="M423.432,421.219a2.406,2.406,0,0,0-2.406,2.406V433.95a4.307,4.307,0,0,1-4.3,4.3H406.4a2.406,2.406,0,1,0,0,4.813h10.324a9.126,9.126,0,0,0,9.115-9.115V423.625A2.406,2.406,0,0,0,423.432,421.219Z" transform="translate(-293.691 -319.853)" fill="#0f395a"/>
      <path id="Trazado_28886" data-name="Trazado 28886" d="M36.666,438.253H26.342a4.307,4.307,0,0,1-4.3-4.3V423.626a2.406,2.406,0,0,0-4.813,0v10.324a9.126,9.126,0,0,0,9.116,9.115H36.666a2.406,2.406,0,1,0,0-4.813Z" transform="translate(0 -319.854)" fill="#0f395a"/>
      <path id="Trazado_28887" data-name="Trazado 28887" d="M174.4,51.318h.006a2.409,2.409,0,1,0-.006,0Z" transform="translate(-117.526 -35.314)" fill="#0f395a"/>
      <path id="Trazado_28888" data-name="Trazado 28888" d="M177.483,48.9V46.708A28.72,28.72,0,0,0,159.82,20.192a6.772,6.772,0,0,0-6.05-3.744c-3.742.215-9.774-.859-17.8,2.375a2.406,2.406,0,1,0,1.8,4.464c6.974-2.81,12.143-1.819,16-2.027a1.948,1.948,0,0,1,1.878,1.43c.112.4.069.415.075,3.495A20.822,20.822,0,0,1,136.6,46.913c-1.021.082-15.353.069-16.354.067a27.975,27.975,0,0,1,4.417-12.89,2.406,2.406,0,1,0-4.036-2.621,32.8,32.8,0,0,0-5.285,17.342,9.243,9.243,0,0,0-.01,14.835V83.632a10.6,10.6,0,0,0,10.583,10.583h11.942q-.048.307-.1.617c-8.548,2.81-8.193,2.675-8.841,2.916a19.928,19.928,0,0,0-13.027,18.725v6.986a8.282,8.282,0,0,0,8.272,8.272h44.4a8.282,8.282,0,0,0,8.272-8.272v-7.091a19.964,19.964,0,0,0-13.6-18.927h0l-8.3-2.8q-.037-.215-.071-.429H166.9a10.6,10.6,0,0,0,10.583-10.583V63.566a9.238,9.238,0,0,0,0-14.667Zm-7.109,11.773c.086-1.639.026-1.9.048-8.878h1.429a4.439,4.439,0,0,1,1.741,8.522A7.935,7.935,0,0,1,170.374,60.672Zm2.3-13.691h-4.3A47.815,47.815,0,0,1,155.8,41.026a26.068,26.068,0,0,0,4.738-14.84V25.9c12.911,7.339,12.123,21.046,12.135,21.086Zm-20.037-2.3a50.949,50.949,0,0,0,12.976,6.466v7.709a30.37,30.37,0,0,1-12,24.132c-2.263,1.714-4.037,2.847-6.988,2.928a11.068,11.068,0,0,1-6.842-2.423A30.374,30.374,0,0,1,127.1,58.859V51.794C134.146,51.791,143.937,53.005,152.633,44.684Zm3.185,55.34,4.768,1.606a47.135,47.135,0,0,1-8.028,14.536,8.145,8.145,0,0,1-12.4,0,47.07,47.07,0,0,1-7.991-14.434l4.743-1.556c.424,4.76,4.8,7.511,9.45,7.511C151.15,107.686,155.49,104.771,155.818,100.024Zm-6.134-9.665a33.087,33.087,0,0,0,1.217,8.268,2.955,2.955,0,0,1-1.4,3.428c-2.535,1.4-5.6.8-6.9-.449a3,3,0,0,1-.787-2.98,33.23,33.23,0,0,0,1.216-8.267A14.934,14.934,0,0,0,149.684,90.359Zm-27.4-38.565c.024,5.062-.046,7.084.048,8.878H120.86a4.439,4.439,0,1,1,0-8.878ZM125.915,89.4a5.777,5.777,0,0,1-5.771-5.771V65.457c.672.053,1.506.017,2.779.028A35.969,35.969,0,0,0,138.2,88.271c.013.408.018.758.018,1.131Zm46.1,26.966v7.091a3.463,3.463,0,0,1-3.459,3.459h-3.092v-4.975a2.406,2.406,0,1,0-4.813,0v4.975H132.062v-4.975a2.406,2.406,0,0,0-4.813,0v4.975h-3.092a3.463,3.463,0,0,1-3.459-3.459v-6.986a15.124,15.124,0,0,1,7.048-12.809,51.587,51.587,0,0,0,8.749,15.628,12.958,12.958,0,0,0,19.723,0A51.637,51.637,0,0,0,165,103.58a15.146,15.146,0,0,1,7.018,12.788Zm.656-50.92V83.632A5.777,5.777,0,0,1,166.9,89.4H154.491c0-.373,0-.724.018-1.131a35.917,35.917,0,0,0,15.279-22.786C171.712,65.482,172.084,65.5,172.67,65.448Z" transform="translate(-71.669 -12.484)" fill="#0f395a"/>
    </g>
  </g>
</svg>
