<svg xmlns="http://www.w3.org/2000/svg" width="149.092" height="146.693" viewBox="0 0 149.092 146.693">
  <g id="Grupo_31586" data-name="Grupo 31586" transform="translate(-725 -3119)">
    <circle id="Elipse_1072" data-name="Elipse 1072" cx="67.5" cy="67.5" r="67.5" transform="translate(725 3119)" fill="#e0f2f9"/>
    <path id="edicion-de-videos" d="M104.3,12.669V53.856a19.944,19.944,0,0,0-8.148-3.809V12.669a4.156,4.156,0,0,0-4.074-4.223H12.222a4.156,4.156,0,0,0-4.074,4.223V95.443a4.156,4.156,0,0,0,4.074,4.223H48.281a21.392,21.392,0,0,0,3.675,8.446H12.222A12.466,12.466,0,0,1,0,95.443V12.669A12.466,12.466,0,0,1,12.222,0H92.075A12.466,12.466,0,0,1,104.3,12.669Zm0,58.068A12.466,12.466,0,0,1,92.075,83.407a12.279,12.279,0,0,1-11.521-8.446H72.315V83.5a12.667,12.667,0,0,1,8.148,11.943,12.23,12.23,0,1,1-24.445,0A12.667,12.667,0,0,1,64.167,83.5v-8.54H49.7a8.3,8.3,0,0,1-8.148-8.446H64.167V43.076a8.3,8.3,0,0,1,8.148,8.446V66.515h8.238a12.279,12.279,0,0,1,11.521-8.446A12.466,12.466,0,0,1,104.3,70.738ZM72.315,95.443a4.077,4.077,0,1,0-4.074,4.223A4.156,4.156,0,0,0,72.315,95.443ZM96.149,70.738a4.077,4.077,0,1,0-4.074,4.223A4.156,4.156,0,0,0,96.149,70.738ZM72.315,16.681H64.167v8.446h8.148Zm-48.278,0H15.889v8.446h8.148Zm16.093,0H31.982v8.446H40.13Zm48.278,0H80.26v8.446h8.148Zm-64.167,66.3H16.093v8.446h8.148Zm7.537,8.446h8.148V82.985H31.778Zm16.3-74.75v8.446h8.148V16.681Zm0,0" transform="translate(769.795 3157.58)" fill="#0f395a"/>
  </g>
</svg>
