<svg xmlns="http://www.w3.org/2000/svg" width="149.431" height="146.774" viewBox="0 0 149.431 146.774">
  <g id="Grupo_31570" data-name="Grupo 31570" transform="translate(-239 -3119)">
    <g id="Grupo_31566" data-name="Grupo 31566">
      <g id="Grupo_31565" data-name="Grupo 31565">
        <g id="Grupo_31564" data-name="Grupo 31564">
          <circle id="Elipse_1072" data-name="Elipse 1072" cx="67.5" cy="67.5" r="67.5" transform="translate(239 3119)" fill="#e0f2f9"/>
          <g id="focus" transform="translate(280 3157.344)">
            <path id="Trazado_28908" data-name="Trazado 28908" d="M414.237,0h-19.06a3.177,3.177,0,1,0,0,6.353H411.06V22.237a3.177,3.177,0,0,0,6.353,0V3.177A3.177,3.177,0,0,0,414.237,0Z" transform="translate(-308.983)" fill="#0f395a"/>
            <path id="Trazado_28909" data-name="Trazado 28909" d="M22.237,0H3.177A3.177,3.177,0,0,0,0,3.177v19.06a3.177,3.177,0,0,0,6.353,0V6.353H22.237a3.177,3.177,0,0,0,0-6.353Z" fill="#0f395a"/>
            <path id="Trazado_28910" data-name="Trazado 28910" d="M22.237,411.06H6.353V395.177a3.177,3.177,0,1,0-6.353,0v19.06a3.177,3.177,0,0,0,3.177,3.177h19.06a3.177,3.177,0,0,0,0-6.353Z" transform="translate(0 -308.983)" fill="#0f395a"/>
            <path id="Trazado_28911" data-name="Trazado 28911" d="M414.237,392a3.177,3.177,0,0,0-3.177,3.177V411.06H395.177a3.177,3.177,0,0,0,0,6.353h19.06a3.177,3.177,0,0,0,3.177-3.177v-19.06A3.177,3.177,0,0,0,414.237,392Z" transform="translate(-308.983 -308.983)" fill="#0f395a"/>
          </g>
        </g>
      </g>
    </g>
    <g id="Grupo_31569" data-name="Grupo 31569" transform="translate(-153)">
      <path id="Trazado_28946" data-name="Trazado 28946" d="M140.328,231.376a5.836,5.836,0,0,0-9.341-.641l-7.235,8.446a3.142,3.142,0,0,1-5.091-.444L105.6,216.67a5.836,5.836,0,0,0-9.658-.573l-17.479,22.86a1.347,1.347,0,1,0,2.14,1.636l17.479-22.861a3.142,3.142,0,0,1,5.2.309l13.055,22.066a5.836,5.836,0,0,0,9.454.825l7.235-8.445a3.142,3.142,0,0,1,5.06.393l.053.085,17.384,20.6a1.347,1.347,0,1,0,2.059-1.737Z" transform="translate(369.115 2988.939)" fill="#0f395a"/>
      <path id="Trazado_28947" data-name="Trazado 28947" d="M245.525,169.129a9.037,9.037,0,1,0-9.037-9.037A9.037,9.037,0,0,0,245.525,169.129Zm0-15.381a6.344,6.344,0,1,1-6.344,6.344,6.344,6.344,0,0,1,6.344-6.344Z" transform="translate(246.348 3037.606)" fill="#0f395a"/>
      <path id="Trazado_28948" data-name="Trazado 28948" d="M78.19,88v65.945a5.84,5.84,0,0,0,5.825,5.836c.5,0,50.671.391,70.461.421h.006a3.528,3.528,0,0,0,3.527-3.587l-1.191-68.72a5.864,5.864,0,0,0-5.836-5.73H84.026A5.843,5.843,0,0,0,78.19,88Zm75.935-.058,1.192,68.718a.835.835,0,0,1-.835.848h0c-19.782-.029-69.939-.417-70.455-.421a3.146,3.146,0,0,1-3.142-3.142V88a3.146,3.146,0,0,1,3.142-3.142h66.956A3.158,3.158,0,0,1,154.125,87.937Z" transform="translate(369.115 3091.036)" fill="#0f395a"/>
    </g>
  </g>
</svg>
