<svg xmlns="http://www.w3.org/2000/svg" width="1024" height="500" viewBox="0 0 1024 500">
  <defs>
    <style>
      .cls-1 {
        isolation: isolate;
      }

      .cls-2 {
        fill: #ebded0;
      }

      .cls-3 {
        opacity: 0.5;
      }

      .cls-4 {
        fill: #b5bfe2;
      }

      .cls-5 {
        fill: #ccd5ed;
      }

      .cls-6 {
        fill: #eef2ff;
      }

      .cls-7 {
        fill: #5b9ba7;
      }

      .cls-8 {
        fill: #cbd3f4;
      }

      .cls-9 {
        fill: #dee3fc;
      }

      .cls-10, .cls-52, .cls-64 {
        fill: none;
        stroke: #fff;
        stroke-miterlimit: 10;
      }

      .cls-10 {
        stroke-width: 0.9px;
      }

      .cls-11 {
        fill: #f0f4ff;
      }

      .cls-12 {
        fill: #2f3da3;
      }

      .cls-13 {
        fill: #122668;
      }

      .cls-14 {
        fill: #3945ba;
      }

      .cls-15 {
        fill: #fff;
      }

      .cls-16 {
        fill: #c1ccf4;
      }

      .cls-17 {
        fill: #97a9dd;
      }

      .cls-18 {
        fill: #142775;
      }

      .cls-19 {
        fill: #467cdb;
      }

      .cls-20 {
        fill: #0c1e51;
      }

      .cls-21 {
        fill: #2d3dad;
        opacity: 0.33;
      }

      .cls-22 {
        fill: #f5f6ff;
      }

      .cls-23 {
        fill: #7e89fd;
      }

      .cls-24 {
        fill: #a1acff;
      }

      .cls-25 {
        fill: #29394a;
      }

      .cls-26 {
        fill: #ffafac;
      }

      .cls-27 {
        fill: #002c54;
      }

      .cls-28 {
        fill: #00293d;
      }

      .cls-29 {
        fill: #005272;
      }

      .cls-30 {
        fill: #192c51;
      }

      .cls-31, .cls-51 {
        fill: #cc6362;
      }

      .cls-31 {
        opacity: 0.32;
      }

      .cls-32 {
        fill: #e8e9ed;
      }

      .cls-33 {
        fill: #1f2b38;
      }

      .cls-34 {
        fill: #2b435d;
      }

      .cls-35 {
        fill: #eaab37;
      }

      .cls-36 {
        fill: #d4d4d4;
      }

      .cls-37 {
        fill: #b5b5b5;
      }

      .cls-38 {
        fill: #c4c4c4;
      }

      .cls-39 {
        fill: #a5a5a5;
      }

      .cls-40 {
        fill: #bababa;
      }

      .cls-41 {
        fill: #9c9c9c;
      }

      .cls-42 {
        fill: #d86666;
      }

      .cls-43 {
        fill: #dd6e6b;
      }

      .cls-44 {
        fill: #e1746c;
      }

      .cls-45 {
        fill: #f2d286;
      }

      .cls-46, .cls-47 {
        fill: #5b5b5b;
      }

      .cls-47 {
        opacity: 0.2;
        mix-blend-mode: color-burn;
      }

      .cls-48 {
        fill: #e19d31;
      }

      .cls-49 {
        fill: #efc24e;
      }

      .cls-50 {
        fill: #1e2a36;
      }

      .cls-52 {
        stroke-width: 1.31px;
      }

      .cls-53 {
        fill: #c3d2f4;
      }

      .cls-54 {
        fill: #f5f7ff;
      }

      .cls-55 {
        fill: #ebf3ff;
      }

      .cls-56 {
        fill: #a4afff;
      }

      .cls-57 {
        fill: #2d3a70;
      }

      .cls-58 {
        fill: #1d2a33;
      }

      .cls-59 {
        fill: #e9bc93;
      }

      .cls-60, .cls-62 {
        fill: #db9567;
      }

      .cls-61 {
        fill: #2e63af;
      }

      .cls-62 {
        opacity: 0.51;
      }

      .cls-63 {
        fill: #e59d76;
      }

      .cls-64 {
        stroke-linecap: round;
        stroke-width: 1.11px;
      }
    </style>
  </defs>
  <g class="cls-1">
    <g id="OBJECTS">
      <rect class="cls-2" width="1024" height="500"/>
      <g>
        <g class="cls-3">
          <g>
            <path class="cls-4" d="M282,418.33l21.49-5.28A1.72,1.72,0,0,0,304.7,411L268,261.44a1.7,1.7,0,0,0-2.07-1.26l-21.49,5.27a1.72,1.72,0,0,0-1.25,2.08l36.73,149.54A1.71,1.71,0,0,0,282,418.33Z"/>
            <g>
              <path class="cls-5" d="M278.14,410l.36,1.44,7.56-1.86a.74.74,0,1,0-.35-1.43Z"/>
              <path class="cls-5" d="M279.26,414.51l.35,1.44,7.57-1.86a.74.74,0,1,0-.36-1.44Z"/>
              <path class="cls-5" d="M243.59,269.32l.36,1.43,7.56-1.86a.74.74,0,1,0-.35-1.43Z"/>
              <path class="cls-5" d="M244.71,273.85l.35,1.44,7.57-1.86a.74.74,0,0,0,.54-.9.73.73,0,0,0-.9-.53Z"/>
              <path class="cls-5" d="M245.82,278.39l.36,1.44,7.56-1.86a.74.74,0,1,0-.35-1.44Z"/>
              <path class="cls-5" d="M246.94,282.93l.35,1.43,7.56-1.85a.74.74,0,0,0,.55-.9.75.75,0,0,0-.9-.54Z"/>
              <path class="cls-5" d="M248.05,287.47l.35,1.43L256,287a.74.74,0,0,0,.54-.9.73.73,0,0,0-.89-.53Z"/>
              <path class="cls-5" d="M249.17,292l.35,1.44,7.56-1.86a.74.74,0,1,0-.35-1.43Z"/>
              <path class="cls-5" d="M250.28,296.54l.35,1.44,7.57-1.86a.74.74,0,0,0-.35-1.44Z"/>
              <path class="cls-5" d="M251.4,301.08l.35,1.43,7.56-1.85a.75.75,0,0,0,.55-.91.74.74,0,0,0-.9-.53Z"/>
              <path class="cls-5" d="M252.51,305.62l.35,1.43,7.57-1.86a.74.74,0,0,0,.54-.9.73.73,0,0,0-.9-.53Z"/>
              <path class="cls-5" d="M253.63,310.15l.35,1.44,7.56-1.86a.74.74,0,1,0-.35-1.43Z"/>
              <path class="cls-5" d="M254.74,314.69l.35,1.44,7.57-1.86a.74.74,0,1,0-.36-1.44Z"/>
              <path class="cls-5" d="M255.85,319.23l.36,1.43,7.56-1.86a.74.74,0,1,0-.35-1.43Z"/>
              <path class="cls-5" d="M257,323.77l.35,1.43,7.57-1.86a.74.74,0,1,0-.36-1.43Z"/>
              <path class="cls-5" d="M258.08,328.3l.36,1.44,7.56-1.86a.74.74,0,1,0-.35-1.44Z"/>
              <path class="cls-5" d="M259.2,332.84l.35,1.43,7.56-1.85a.74.74,0,0,0,.55-.9.75.75,0,0,0-.9-.54Z"/>
              <path class="cls-5" d="M260.31,337.38l.35,1.43,7.57-1.86a.73.73,0,0,0,.54-.9.73.73,0,0,0-.89-.53Z"/>
              <path class="cls-5" d="M261.43,341.91l.35,1.44,7.56-1.86a.74.74,0,1,0-.35-1.43Z"/>
              <path class="cls-5" d="M262.54,346.45l.35,1.44,7.57-1.86a.74.74,0,0,0-.35-1.44Z"/>
              <path class="cls-5" d="M263.66,351l.35,1.43,7.56-1.85a.75.75,0,0,0,.55-.91.74.74,0,0,0-.9-.53Z"/>
              <path class="cls-5" d="M264.77,355.53l.35,1.43,7.57-1.86a.74.74,0,0,0,.54-.9.73.73,0,0,0-.9-.53Z"/>
              <path class="cls-5" d="M265.88,360.06l.36,1.44,7.56-1.86a.74.74,0,1,0-.35-1.43Z"/>
              <path class="cls-5" d="M267,364.6l.35,1.44,7.57-1.86a.74.74,0,0,0-.36-1.44Z"/>
              <path class="cls-5" d="M268.11,369.14l.36,1.43,7.56-1.86a.74.74,0,1,0-.35-1.43Z"/>
              <path class="cls-5" d="M269.23,373.68l.35,1.43,7.57-1.86a.74.74,0,1,0-.36-1.43Z"/>
              <path class="cls-5" d="M270.34,378.21l.36,1.44,7.56-1.86a.74.74,0,1,0-.35-1.44Z"/>
              <path class="cls-5" d="M271.46,382.75l.35,1.43,7.56-1.85a.74.74,0,0,0,.55-.9.75.75,0,0,0-.9-.54Z"/>
              <path class="cls-5" d="M272.57,387.29l.35,1.43,7.57-1.86a.74.74,0,1,0-.35-1.43Z"/>
              <path class="cls-5" d="M273.69,391.82l.35,1.44,7.56-1.86a.74.74,0,1,0-.35-1.43Z"/>
              <path class="cls-5" d="M274.8,396.36l.35,1.44,7.57-1.86a.74.74,0,0,0-.35-1.44Z"/>
              <path class="cls-5" d="M275.92,400.9l.35,1.43,7.56-1.85a.74.74,0,1,0-.35-1.44Z"/>
              <path class="cls-5" d="M277,405.44l.35,1.43L285,405a.74.74,0,0,0,.54-.9.73.73,0,0,0-.9-.53Z"/>
            </g>
          </g>
          <g>
            <path class="cls-6" d="M331.34,291.46h0a6.53,6.53,0,0,1,4.89,7.83l-.89,3.89-12.73-2.93.9-3.89A6.53,6.53,0,0,1,331.34,291.46Z"/>
            <path class="cls-6" d="M335.34,303.18,311.43,407.07a37.49,37.49,0,0,1-3,8.46,62.15,62.15,0,0,1-7,11.37l-.9,3.91a1.15,1.15,0,0,1-2.25-.52l.9-3.91c-1-3.83-1.3-9.32-1.36-13.29a37.93,37.93,0,0,1,1-8.95l23.9-103.89Z"/>
          </g>
          <g>
            <path class="cls-7" d="M309.72,409.26h0a6.53,6.53,0,0,1-7.15-5.84l-.4-4,13-1.31.4,4A6.54,6.54,0,0,1,309.72,409.26Z"/>
            <path class="cls-8" d="M294.22,401.67,283.48,295.61a38.09,38.09,0,0,1,.16-9,80.12,80.12,0,0,1,2-10,18.08,18.08,0,0,0,.64-6.74l0-.28a1.14,1.14,0,0,1,1-1.27,1.17,1.17,0,0,1,1.27,1l0,.29a18,18,0,0,0,2,6.47,76.59,76.59,0,0,1,3.95,9.39,37.72,37.72,0,0,1,2,8.78L307.2,400.36Z"/>
          </g>
          <path class="cls-4" d="M290.81,402.07l14.59-105.6a38,38,0,0,1,2.29-8.7,77.69,77.69,0,0,1,4.29-9.24,18,18,0,0,0,2.21-6.4l0-.28a1.16,1.16,0,0,1,2.29.32l0,.28a18.12,18.12,0,0,0,.4,6.76,78,78,0,0,1,1.62,10.05,37.64,37.64,0,0,1-.16,9l-14.6,105.59Z"/>
          <path class="cls-6" d="M280.06,288.94a6.54,6.54,0,0,1,6.91,6.13L293,395a37.52,37.52,0,0,1-.54,9,61.78,61.78,0,0,1-3.53,12.89l.24,4a1.16,1.16,0,0,1-2.31.14l-.24-4a61.46,61.46,0,0,1-5.05-12.36,37.57,37.57,0,0,1-1.6-8.86l-6-99.89a6.52,6.52,0,0,1,6.12-6.91Z"/>
          <path class="cls-9" d="M275.7,440h39.59a7.91,7.91,0,0,0,7.88-7.26l7.3-88.49a2.49,2.49,0,0,0-2.48-2.7H263a2.5,2.5,0,0,0-2.48,2.7l7.31,88.49A7.91,7.91,0,0,0,275.7,440Z"/>
        </g>
        <g>
          <path class="cls-10" d="M302.07,169.06h53.06a6.16,6.16,0,0,1,6.16,6.16v12.53a6.16,6.16,0,0,1-5.38,6.11.89.89,0,0,0-.78.88v6.86a.41.41,0,0,1-.74.24l-5.4-7.56a.91.91,0,0,0-.73-.37H302.07a6.16,6.16,0,0,1-6.16-6.16V175.22A6.16,6.16,0,0,1,302.07,169.06Z"/>
          <g>
            <path class="cls-10" d="M347,181.47a2,2,0,1,0,2-2A2,2,0,0,0,347,181.47Z"/>
            <path class="cls-10" d="M336.78,181.47a2,2,0,1,0,2-2A2,2,0,0,0,336.78,181.47Z"/>
            <path class="cls-10" d="M326.57,181.47a2,2,0,1,0,2-2A2,2,0,0,0,326.57,181.47Z"/>
            <path class="cls-10" d="M316.36,181.47a2,2,0,1,0,2-2A2,2,0,0,0,316.36,181.47Z"/>
            <path class="cls-10" d="M306.15,181.47a2,2,0,1,0,2-2A2,2,0,0,0,306.15,181.47Z"/>
          </g>
        </g>
        <g>
          <path class="cls-11" d="M687,404.61h-12.5a1.37,1.37,0,0,1-1.37-1.37h0a1.37,1.37,0,0,1,1.37-1.38H687a1.38,1.38,0,0,1,1.37,1.38h0A1.38,1.38,0,0,1,687,404.61Z"/>
          <path class="cls-11" d="M699.62,410.69H674.53a1.37,1.37,0,0,1-1.37-1.37h0a1.37,1.37,0,0,1,1.37-1.37h25.09a1.37,1.37,0,0,1,1.37,1.37h0A1.37,1.37,0,0,1,699.62,410.69Z"/>
          <path class="cls-11" d="M677.49,416.77h-3a1.37,1.37,0,0,1-1.37-1.37h0a1.37,1.37,0,0,1,1.37-1.37h3a1.37,1.37,0,0,1,1.37,1.37h0A1.37,1.37,0,0,1,677.49,416.77Z"/>
          <path class="cls-11" d="M699.62,416.77H682.15a1.37,1.37,0,0,1-1.37-1.37h0a1.37,1.37,0,0,1,1.37-1.37h17.47A1.38,1.38,0,0,1,701,415.4h0A1.37,1.37,0,0,1,699.62,416.77Z"/>
          <path class="cls-11" d="M699.62,404.61H692a1.37,1.37,0,0,1-1.37-1.37h0a1.37,1.37,0,0,1,1.37-1.38h7.58a1.38,1.38,0,0,1,1.37,1.38h0A1.38,1.38,0,0,1,699.62,404.61Z"/>
        </g>
        <g>
          <path class="cls-11" d="M411.12,111.29h-12.5a1.37,1.37,0,0,1-1.37-1.37h0a1.37,1.37,0,0,1,1.37-1.37h12.5a1.37,1.37,0,0,1,1.37,1.37h0A1.37,1.37,0,0,1,411.12,111.29Z"/>
          <path class="cls-11" d="M423.71,117.37H398.62a1.37,1.37,0,0,1-1.37-1.37h0a1.37,1.37,0,0,1,1.37-1.37h25.09a1.37,1.37,0,0,1,1.37,1.37h0A1.37,1.37,0,0,1,423.71,117.37Z"/>
          <path class="cls-11" d="M401.58,123.45h-3a1.37,1.37,0,0,1-1.37-1.37h0a1.37,1.37,0,0,1,1.37-1.37h3a1.37,1.37,0,0,1,1.37,1.37h0A1.37,1.37,0,0,1,401.58,123.45Z"/>
          <path class="cls-11" d="M423.71,123.45H406.24a1.37,1.37,0,0,1-1.37-1.37h0a1.37,1.37,0,0,1,1.37-1.37h17.47a1.37,1.37,0,0,1,1.37,1.37h0A1.37,1.37,0,0,1,423.71,123.45Z"/>
          <path class="cls-11" d="M423.71,111.29h-7.58a1.38,1.38,0,0,1-1.37-1.37h0a1.37,1.37,0,0,1,1.37-1.37h7.58a1.37,1.37,0,0,1,1.37,1.37h0A1.37,1.37,0,0,1,423.71,111.29Z"/>
        </g>
        <g>
          <path class="cls-11" d="M760.3,131.81H747.8a1.37,1.37,0,0,1-1.37-1.37h0a1.37,1.37,0,0,1,1.37-1.38h12.5a1.38,1.38,0,0,1,1.37,1.38h0A1.38,1.38,0,0,1,760.3,131.81Z"/>
          <path class="cls-11" d="M772.89,137.89H747.8a1.37,1.37,0,0,1-1.37-1.37h0a1.37,1.37,0,0,1,1.37-1.37h25.09a1.37,1.37,0,0,1,1.37,1.37h0A1.37,1.37,0,0,1,772.89,137.89Z"/>
          <path class="cls-11" d="M750.76,144h-3a1.37,1.37,0,0,1-1.37-1.37h0a1.37,1.37,0,0,1,1.37-1.37h3a1.37,1.37,0,0,1,1.37,1.37h0A1.37,1.37,0,0,1,750.76,144Z"/>
          <path class="cls-11" d="M772.89,144H755.42a1.37,1.37,0,0,1-1.37-1.37h0a1.37,1.37,0,0,1,1.37-1.37h17.47a1.38,1.38,0,0,1,1.37,1.37h0A1.37,1.37,0,0,1,772.89,144Z"/>
          <path class="cls-11" d="M772.89,131.81h-7.58a1.38,1.38,0,0,1-1.37-1.37h0a1.38,1.38,0,0,1,1.37-1.38h7.58a1.38,1.38,0,0,1,1.37,1.38h0A1.38,1.38,0,0,1,772.89,131.81Z"/>
        </g>
        <g>
          <polygon class="cls-12" points="617 427.97 544.71 427.97 514.94 258.88 587.23 258.88 617 427.97"/>
          <polygon class="cls-13" points="605.49 427.97 533.21 427.97 503.44 258.88 575.72 258.88 605.49 427.97"/>
          <path class="cls-14" d="M743.08,155.69l-10.61-9-2.84,10H430a9.47,9.47,0,0,0-9.39,8.3L395.75,364.12l-13.17,6.77,10.85,9.17a6.75,6.75,0,0,0,.65.55h0a6.61,6.61,0,0,0,3.9,1.27H709.88a9.47,9.47,0,0,0,9.39-8.29l26.42-211.8A6.58,6.58,0,0,0,743.08,155.69Z"/>
          <path class="cls-15" d="M734.75,152.54l-26.42,211.8a9.46,9.46,0,0,1-9.4,8.29H387a6.59,6.59,0,0,1-6.54-7.41l26.42-211.79a9.47,9.47,0,0,1,9.39-8.3H728.2A6.6,6.6,0,0,1,734.75,152.54Z"/>
          <path class="cls-16" d="M726.7,157.47,703.08,346.82a9.33,9.33,0,0,1-9.26,8.18H395.57a5.62,5.62,0,0,1-5.58-6.31l23.74-190.37a9,9,0,0,1,9-7.91H720.46A6.28,6.28,0,0,1,726.7,157.47Z"/>
          <path class="cls-17" d="M427,150.41a9,9,0,0,0-9,7.91L394.28,348.69a5.61,5.61,0,0,0,5.57,6.31h-4.29a5.61,5.61,0,0,1-5.57-6.31l23.74-190.37a9,9,0,0,1,9-7.91Z"/>
          <path class="cls-12" d="M516,428H650.66a4.93,4.93,0,0,1,4.93,4.93v6.79a0,0,0,0,1,0,0H511.09a0,0,0,0,1,0,0V432.9A4.93,4.93,0,0,1,516,428Z"/>
          <path class="cls-18" d="M492.35,428H627a4.93,4.93,0,0,1,4.93,4.93v6.79a0,0,0,0,1,0,0H487.42a0,0,0,0,1,0,0V432.9A4.93,4.93,0,0,1,492.35,428Z"/>
          <ellipse class="cls-19" cx="682.79" cy="363.59" rx="5.94" ry="5.16" transform="translate(-64.58 563.21) rotate(-42.99)"/>
        </g>
        <g>
          <path class="cls-13" d="M724.39,128.08a17.53,17.53,0,0,1-.18,2.47L723,139l-.86,6.13H687.07l.86-6.13,1.19-8.45c1.37-9.69,10.32-17.55,20-17.55A14.79,14.79,0,0,1,724.39,128.08Z"/>
          <polygon class="cls-20" points="722.83 140.37 722.16 145.13 687.07 145.13 687.74 140.37 722.83 140.37"/>
          <path class="cls-15" d="M709.13,113a20.91,20.91,0,0,0-20,17.55l-2,14.58L657.54,381.89l0,.16,0,.18a27.12,27.12,0,0,1-2.84,8.6l0,.09a12.66,12.66,0,0,1-11.06,6.33H392.17c8.76-1.46,10.78-13.28,11.05-15.12l0-.24h0l29.53-236.76,2-14.58a20.89,20.89,0,0,1,20-17.55Z"/>
          <polygon class="cls-21" points="668.6 372.63 696.98 145.13 687.07 145.13 658.7 372.63 668.6 372.63"/>
          <path class="cls-22" d="M709.13,113a20.23,20.23,0,0,0-14,6H440.8a20.25,20.25,0,0,1,14.05-6Z"/>
          <g>
            <path class="cls-23" d="M505.32,225.6h-68a.57.57,0,0,1-.58-.66l6.79-53a.77.77,0,0,1,.75-.66h68a.56.56,0,0,1,.57.66l-6.78,53A.77.77,0,0,1,505.32,225.6Z"/>
            <g>
              <g>
                <path class="cls-15" d="M451.9,181.37h-6.55a.5.5,0,0,1-.5-.58l.67-5.22a.67.67,0,0,1,.65-.58h6.54a.5.5,0,0,1,.51.58l-.67,5.22A.67.67,0,0,1,451.9,181.37Z"/>
                <path class="cls-15" d="M450.86,189.48h-6.55a.5.5,0,0,1-.5-.58l.67-5.22a.67.67,0,0,1,.65-.58h6.54a.5.5,0,0,1,.51.58l-.67,5.22A.67.67,0,0,1,450.86,189.48Z"/>
                <path class="cls-15" d="M449.82,197.59h-6.54a.5.5,0,0,1-.51-.58l.67-5.22a.67.67,0,0,1,.65-.58h6.55a.5.5,0,0,1,.5.58l-.67,5.22A.67.67,0,0,1,449.82,197.59Z"/>
                <path class="cls-15" d="M448.78,205.7h-6.54a.5.5,0,0,1-.51-.58l.67-5.22a.67.67,0,0,1,.65-.58h6.55a.5.5,0,0,1,.5.58l-.67,5.22A.67.67,0,0,1,448.78,205.7Z"/>
                <path class="cls-15" d="M447.74,213.81H441.2a.5.5,0,0,1-.51-.58l.67-5.22a.67.67,0,0,1,.65-.58h6.55a.49.49,0,0,1,.5.58l-.66,5.22A.68.68,0,0,1,447.74,213.81Z"/>
                <path class="cls-15" d="M446.7,221.91h-6.54a.5.5,0,0,1-.51-.58l.67-5.21a.68.68,0,0,1,.66-.58h6.54a.5.5,0,0,1,.51.58l-.67,5.21A.68.68,0,0,1,446.7,221.91Z"/>
              </g>
              <g>
                <path class="cls-15" d="M508.43,181.37h-6.55a.49.49,0,0,1-.5-.58l.66-5.22a.69.69,0,0,1,.66-.58h6.54a.5.5,0,0,1,.51.58l-.67,5.22A.67.67,0,0,1,508.43,181.37Z"/>
                <path class="cls-15" d="M507.39,189.48h-6.55a.5.5,0,0,1-.5-.58l.67-5.22a.67.67,0,0,1,.65-.58h6.54a.5.5,0,0,1,.51.58L508,188.9A.67.67,0,0,1,507.39,189.48Z"/>
                <path class="cls-15" d="M506.35,197.59H499.8a.5.5,0,0,1-.5-.58l.67-5.22a.67.67,0,0,1,.65-.58h6.54a.5.5,0,0,1,.51.58L507,197A.67.67,0,0,1,506.35,197.59Z"/>
                <path class="cls-15" d="M505.31,205.7h-6.54a.5.5,0,0,1-.51-.58l.67-5.22a.67.67,0,0,1,.65-.58h6.55a.5.5,0,0,1,.5.58l-.67,5.22A.67.67,0,0,1,505.31,205.7Z"/>
                <path class="cls-15" d="M504.27,213.81h-6.54a.5.5,0,0,1-.51-.58l.67-5.22a.67.67,0,0,1,.65-.58h6.55a.5.5,0,0,1,.5.58l-.66,5.22A.69.69,0,0,1,504.27,213.81Z"/>
                <path class="cls-15" d="M503.23,221.91h-6.54a.5.5,0,0,1-.51-.58l.67-5.21a.67.67,0,0,1,.65-.58h6.55a.49.49,0,0,1,.5.58l-.66,5.21A.68.68,0,0,1,503.23,221.91Z"/>
              </g>
              <path class="cls-15" d="M493.08,221.91H450.54a.35.35,0,0,1-.35-.4l5.91-46.12a.47.47,0,0,1,.45-.4h42.54a.35.35,0,0,1,.35.4l-5.91,46.12A.47.47,0,0,1,493.08,221.91Z"/>
            </g>
            <path class="cls-23" d="M512.43,168.81H444.79a.71.71,0,0,1-.72-.83l.88-6.85a1,1,0,0,1,.93-.83h67.64a.71.71,0,0,1,.72.83l-.88,6.85A1,1,0,0,1,512.43,168.81Z"/>
            <path class="cls-24" d="M504.41,230.23H437.07a.84.84,0,0,1-.85-1h0a1.14,1.14,0,0,1,1.1-1h67.34a.84.84,0,0,1,.85,1h0A1.14,1.14,0,0,1,504.41,230.23Z"/>
            <path class="cls-24" d="M503.88,234.36H436.54a.83.83,0,0,1-.85-1h0a1.15,1.15,0,0,1,1.1-1h67.34a.84.84,0,0,1,.85,1h0A1.13,1.13,0,0,1,503.88,234.36Z"/>
            <path class="cls-24" d="M484.26,238.5H436a.84.84,0,0,1-.85-1h0a1.14,1.14,0,0,1,1.1-1h48.25a.83.83,0,0,1,.85,1h0A1.14,1.14,0,0,1,484.26,238.5Z"/>
          </g>
          <g>
            <path class="cls-23" d="M585.44,225.6h-68a.56.56,0,0,1-.58-.66l6.79-53a.76.76,0,0,1,.75-.66h68a.56.56,0,0,1,.58.66l-6.79,53A.76.76,0,0,1,585.44,225.6Z"/>
            <g>
              <g>
                <path class="cls-15" d="M532,181.37h-6.54a.5.5,0,0,1-.51-.58l.67-5.22a.68.68,0,0,1,.66-.58h6.54a.5.5,0,0,1,.51.58l-.67,5.22A.68.68,0,0,1,532,181.37Z"/>
                <path class="cls-15" d="M531,189.48h-6.55a.49.49,0,0,1-.5-.58l.66-5.22a.68.68,0,0,1,.66-.58h6.54a.5.5,0,0,1,.51.58l-.67,5.22A.67.67,0,0,1,531,189.48Z"/>
                <path class="cls-15" d="M529.94,197.59h-6.55a.5.5,0,0,1-.5-.58l.66-5.22a.69.69,0,0,1,.66-.58h6.54a.5.5,0,0,1,.51.58l-.67,5.22A.67.67,0,0,1,529.94,197.59Z"/>
                <path class="cls-15" d="M528.9,205.7h-6.55a.5.5,0,0,1-.5-.58l.67-5.22a.67.67,0,0,1,.65-.58h6.54a.5.5,0,0,1,.51.58l-.67,5.22A.67.67,0,0,1,528.9,205.7Z"/>
                <path class="cls-15" d="M527.86,213.81h-6.55a.5.5,0,0,1-.5-.58l.67-5.22a.67.67,0,0,1,.65-.58h6.55a.5.5,0,0,1,.5.58l-.67,5.22A.67.67,0,0,1,527.86,213.81Z"/>
                <path class="cls-15" d="M526.82,221.91h-6.54a.5.5,0,0,1-.51-.58l.67-5.21a.67.67,0,0,1,.65-.58h6.55a.5.5,0,0,1,.5.58l-.67,5.21A.67.67,0,0,1,526.82,221.91Z"/>
              </g>
              <g>
                <path class="cls-15" d="M588.54,181.37H582a.5.5,0,0,1-.51-.58l.67-5.22a.68.68,0,0,1,.66-.58h6.54a.5.5,0,0,1,.51.58l-.67,5.22A.68.68,0,0,1,588.54,181.37Z"/>
                <path class="cls-15" d="M587.5,189.48H581a.5.5,0,0,1-.51-.58l.67-5.22a.68.68,0,0,1,.66-.58h6.54a.5.5,0,0,1,.51.58l-.67,5.22A.68.68,0,0,1,587.5,189.48Z"/>
                <path class="cls-15" d="M586.47,197.59h-6.55a.49.49,0,0,1-.5-.58l.66-5.22a.68.68,0,0,1,.66-.58h6.54a.5.5,0,0,1,.51.58l-.67,5.22A.67.67,0,0,1,586.47,197.59Z"/>
                <path class="cls-15" d="M585.43,205.7h-6.55a.5.5,0,0,1-.5-.58l.66-5.22a.69.69,0,0,1,.66-.58h6.54a.5.5,0,0,1,.51.58l-.67,5.22A.67.67,0,0,1,585.43,205.7Z"/>
                <path class="cls-15" d="M584.39,213.81h-6.55a.5.5,0,0,1-.5-.58L578,208a.67.67,0,0,1,.65-.58h6.54a.5.5,0,0,1,.51.58l-.67,5.22A.67.67,0,0,1,584.39,213.81Z"/>
                <path class="cls-15" d="M583.35,221.91H576.8a.5.5,0,0,1-.5-.58l.67-5.21a.67.67,0,0,1,.65-.58h6.55a.5.5,0,0,1,.5.58l-.67,5.21A.67.67,0,0,1,583.35,221.91Z"/>
              </g>
              <path class="cls-15" d="M573.19,221.91H530.66a.35.35,0,0,1-.35-.4l5.91-46.12a.47.47,0,0,1,.45-.4H579.2a.35.35,0,0,1,.35.4l-5.9,46.12A.48.48,0,0,1,573.19,221.91Z"/>
            </g>
            <path class="cls-23" d="M592.55,168.81H524.91a.71.71,0,0,1-.72-.83l.88-6.85a1,1,0,0,1,.93-.83h67.64a.71.71,0,0,1,.72.83l-.88,6.85A1,1,0,0,1,592.55,168.81Z"/>
            <path class="cls-24" d="M584.53,230.23H517.19a.84.84,0,0,1-.85-1h0a1.14,1.14,0,0,1,1.1-1h67.34a.84.84,0,0,1,.85,1h0A1.14,1.14,0,0,1,584.53,230.23Z"/>
            <path class="cls-24" d="M584,234.36H516.66a.83.83,0,0,1-.85-1h0a1.14,1.14,0,0,1,1.1-1h67.34a.84.84,0,0,1,.85,1h0A1.14,1.14,0,0,1,584,234.36Z"/>
            <path class="cls-24" d="M564.38,238.5H516.13a.84.84,0,0,1-.85-1h0a1.14,1.14,0,0,1,1.1-1h48.25a.83.83,0,0,1,.85,1h0A1.14,1.14,0,0,1,564.38,238.5Z"/>
          </g>
          <g>
            <path class="cls-23" d="M665.55,225.6h-68a.56.56,0,0,1-.58-.66l6.78-53a.78.78,0,0,1,.75-.66h68a.57.57,0,0,1,.58.66l-6.79,53A.77.77,0,0,1,665.55,225.6Z"/>
            <g>
              <g>
                <path class="cls-15" d="M612.13,181.37h-6.54a.5.5,0,0,1-.51-.58l.67-5.22a.67.67,0,0,1,.65-.58H613a.5.5,0,0,1,.5.58l-.66,5.22A.69.69,0,0,1,612.13,181.37Z"/>
                <path class="cls-15" d="M611.09,189.48h-6.54a.5.5,0,0,1-.51-.58l.67-5.22a.68.68,0,0,1,.66-.58h6.54a.49.49,0,0,1,.5.58l-.66,5.22A.68.68,0,0,1,611.09,189.48Z"/>
                <path class="cls-15" d="M610.05,197.59h-6.54A.5.5,0,0,1,603,197l.67-5.22a.68.68,0,0,1,.66-.58h6.54a.5.5,0,0,1,.51.58l-.67,5.22A.68.68,0,0,1,610.05,197.59Z"/>
                <path class="cls-15" d="M609,205.7h-6.54a.5.5,0,0,1-.51-.58l.67-5.22a.68.68,0,0,1,.66-.58h6.54a.5.5,0,0,1,.51.58l-.67,5.22A.68.68,0,0,1,609,205.7Z"/>
                <path class="cls-15" d="M608,213.81h-6.55a.5.5,0,0,1-.5-.58l.66-5.22a.69.69,0,0,1,.66-.58h6.54a.5.5,0,0,1,.51.58l-.67,5.22A.67.67,0,0,1,608,213.81Z"/>
                <path class="cls-15" d="M606.94,221.91h-6.55a.5.5,0,0,1-.5-.58l.67-5.21a.67.67,0,0,1,.65-.58h6.54a.5.5,0,0,1,.51.58l-.67,5.21A.67.67,0,0,1,606.94,221.91Z"/>
              </g>
              <g>
                <path class="cls-15" d="M668.66,181.37h-6.54a.5.5,0,0,1-.51-.58l.67-5.22a.67.67,0,0,1,.65-.58h6.55a.5.5,0,0,1,.5.58l-.67,5.22A.67.67,0,0,1,668.66,181.37Z"/>
                <path class="cls-15" d="M667.62,189.48h-6.54a.5.5,0,0,1-.51-.58l.67-5.22a.67.67,0,0,1,.65-.58h6.55a.5.5,0,0,1,.5.58l-.66,5.22A.69.69,0,0,1,667.62,189.48Z"/>
                <path class="cls-15" d="M666.58,197.59H660a.5.5,0,0,1-.51-.58l.67-5.22a.68.68,0,0,1,.66-.58h6.54a.49.49,0,0,1,.5.58l-.66,5.22A.68.68,0,0,1,666.58,197.59Z"/>
                <path class="cls-15" d="M665.54,205.7H659a.5.5,0,0,1-.51-.58l.67-5.22a.68.68,0,0,1,.66-.58h6.54a.5.5,0,0,1,.51.58l-.67,5.22A.68.68,0,0,1,665.54,205.7Z"/>
                <path class="cls-15" d="M664.5,213.81H658a.5.5,0,0,1-.51-.58l.67-5.22a.68.68,0,0,1,.66-.58h6.54a.5.5,0,0,1,.51.58l-.67,5.22A.68.68,0,0,1,664.5,213.81Z"/>
                <path class="cls-15" d="M663.47,221.91h-6.55a.5.5,0,0,1-.5-.58l.66-5.21a.69.69,0,0,1,.66-.58h6.54a.5.5,0,0,1,.51.58l-.67,5.21A.67.67,0,0,1,663.47,221.91Z"/>
              </g>
              <path class="cls-15" d="M653.31,221.91H610.78a.34.34,0,0,1-.35-.4l5.9-46.12a.47.47,0,0,1,.46-.4h42.53a.35.35,0,0,1,.35.4l-5.91,46.12A.47.47,0,0,1,653.31,221.91Z"/>
            </g>
            <path class="cls-23" d="M672.67,168.81H605a.71.71,0,0,1-.71-.83l.87-6.85a1,1,0,0,1,.93-.83h67.65a.72.72,0,0,1,.72.83L673.6,168A1,1,0,0,1,672.67,168.81Z"/>
            <path class="cls-24" d="M664.65,230.23H597.31a.84.84,0,0,1-.85-1h0a1.14,1.14,0,0,1,1.1-1H664.9a.84.84,0,0,1,.85,1h0A1.14,1.14,0,0,1,664.65,230.23Z"/>
            <path class="cls-24" d="M664.12,234.36H596.78a.83.83,0,0,1-.85-1h0a1.14,1.14,0,0,1,1.1-1h67.34a.84.84,0,0,1,.85,1h0A1.14,1.14,0,0,1,664.12,234.36Z"/>
            <path class="cls-24" d="M644.5,238.5H596.25a.84.84,0,0,1-.85-1h0a1.14,1.14,0,0,1,1.1-1h48.25a.84.84,0,0,1,.85,1h0A1.15,1.15,0,0,1,644.5,238.5Z"/>
          </g>
          <g>
            <path class="cls-23" d="M493.52,324.1h-68a.57.57,0,0,1-.58-.66l6.79-53a.77.77,0,0,1,.75-.67h68a.57.57,0,0,1,.58.67l-6.79,53A.77.77,0,0,1,493.52,324.1Z"/>
            <g>
              <g>
                <path class="cls-15" d="M440.09,279.87h-6.54a.5.5,0,0,1-.51-.58l.67-5.22a.68.68,0,0,1,.66-.58h6.54a.5.5,0,0,1,.51.58l-.67,5.22A.68.68,0,0,1,440.09,279.87Z"/>
                <path class="cls-15" d="M439.06,288h-6.55a.49.49,0,0,1-.5-.58l.66-5.22a.68.68,0,0,1,.66-.58h6.54a.5.5,0,0,1,.51.58l-.67,5.22A.67.67,0,0,1,439.06,288Z"/>
                <path class="cls-15" d="M438,296.09h-6.55a.5.5,0,0,1-.5-.58l.67-5.22a.67.67,0,0,1,.65-.58h6.54a.5.5,0,0,1,.51.58l-.67,5.22A.67.67,0,0,1,438,296.09Z"/>
                <path class="cls-15" d="M437,304.2h-6.55a.5.5,0,0,1-.5-.59l.67-5.21a.67.67,0,0,1,.65-.58h6.54a.5.5,0,0,1,.51.58l-.67,5.21A.67.67,0,0,1,437,304.2Z"/>
                <path class="cls-15" d="M435.94,312.3H429.4a.5.5,0,0,1-.51-.58l.67-5.21a.67.67,0,0,1,.65-.58h6.55a.5.5,0,0,1,.5.58l-.67,5.21A.67.67,0,0,1,435.94,312.3Z"/>
                <path class="cls-15" d="M434.9,320.41h-6.54a.5.5,0,0,1-.51-.58l.67-5.21a.67.67,0,0,1,.65-.58h6.55a.5.5,0,0,1,.5.58l-.67,5.21A.67.67,0,0,1,434.9,320.41Z"/>
              </g>
              <g>
                <path class="cls-15" d="M496.62,279.87h-6.54a.5.5,0,0,1-.51-.58l.67-5.22a.68.68,0,0,1,.66-.58h6.54a.5.5,0,0,1,.51.58l-.67,5.22A.68.68,0,0,1,496.62,279.87Z"/>
                <path class="cls-15" d="M495.58,288H489a.5.5,0,0,1-.51-.58l.67-5.22a.68.68,0,0,1,.66-.58h6.54a.5.5,0,0,1,.51.58l-.67,5.22A.68.68,0,0,1,495.58,288Z"/>
                <path class="cls-15" d="M494.55,296.09H488a.49.49,0,0,1-.5-.58l.66-5.22a.68.68,0,0,1,.66-.58h6.54a.5.5,0,0,1,.51.58l-.67,5.22A.67.67,0,0,1,494.55,296.09Z"/>
                <path class="cls-15" d="M493.51,304.2H487a.5.5,0,0,1-.5-.59l.67-5.21a.67.67,0,0,1,.65-.58h6.54a.5.5,0,0,1,.51.58l-.67,5.21A.67.67,0,0,1,493.51,304.2Z"/>
                <path class="cls-15" d="M492.47,312.3h-6.55a.5.5,0,0,1-.5-.58l.67-5.21a.67.67,0,0,1,.65-.58h6.54a.5.5,0,0,1,.51.58l-.67,5.21A.67.67,0,0,1,492.47,312.3Z"/>
                <path class="cls-15" d="M491.43,320.41h-6.54a.5.5,0,0,1-.51-.58l.67-5.21a.67.67,0,0,1,.65-.58h6.55a.5.5,0,0,1,.5.58l-.67,5.21A.67.67,0,0,1,491.43,320.41Z"/>
              </g>
              <path class="cls-15" d="M481.27,320.41H438.74a.35.35,0,0,1-.35-.4l5.91-46.12a.47.47,0,0,1,.45-.4h42.53a.34.34,0,0,1,.35.4L481.73,320A.48.48,0,0,1,481.27,320.41Z"/>
            </g>
            <path class="cls-23" d="M500.63,267.3H433a.7.7,0,0,1-.72-.82l.88-6.85a1,1,0,0,1,.93-.83h67.64a.71.71,0,0,1,.72.83l-.88,6.85A1,1,0,0,1,500.63,267.3Z"/>
            <path class="cls-24" d="M492.61,328.73H425.27a.84.84,0,0,1-.85-1h0a1.14,1.14,0,0,1,1.1-1h67.34a.84.84,0,0,1,.85,1h0A1.14,1.14,0,0,1,492.61,328.73Z"/>
            <path class="cls-24" d="M492.08,332.86H424.74a.83.83,0,0,1-.85-1h0a1.14,1.14,0,0,1,1.1-1h67.34a.84.84,0,0,1,.85,1h0A1.14,1.14,0,0,1,492.08,332.86Z"/>
            <path class="cls-24" d="M472.46,337H424.21a.84.84,0,0,1-.85-1h0a1.14,1.14,0,0,1,1.1-1h48.25a.83.83,0,0,1,.85,1h0A1.14,1.14,0,0,1,472.46,337Z"/>
          </g>
          <g>
            <path class="cls-23" d="M573.63,324.1h-68a.57.57,0,0,1-.58-.66l6.79-53a.77.77,0,0,1,.74-.67h68a.58.58,0,0,1,.58.67l-6.79,53A.78.78,0,0,1,573.63,324.1Z"/>
            <g>
              <g>
                <path class="cls-15" d="M520.21,279.87h-6.54a.5.5,0,0,1-.51-.58l.67-5.22a.67.67,0,0,1,.65-.58H521a.5.5,0,0,1,.5.58l-.66,5.22A.69.69,0,0,1,520.21,279.87Z"/>
                <path class="cls-15" d="M519.17,288h-6.54a.5.5,0,0,1-.51-.58l.67-5.22a.68.68,0,0,1,.66-.58H520a.5.5,0,0,1,.51.58l-.67,5.22A.68.68,0,0,1,519.17,288Z"/>
                <path class="cls-15" d="M518.13,296.09h-6.54a.5.5,0,0,1-.51-.58l.67-5.22a.68.68,0,0,1,.66-.58H519a.5.5,0,0,1,.51.58l-.67,5.22A.68.68,0,0,1,518.13,296.09Z"/>
                <path class="cls-15" d="M517.09,304.2h-6.54a.5.5,0,0,1-.5-.59l.66-5.21a.68.68,0,0,1,.66-.58h6.54a.5.5,0,0,1,.51.58l-.67,5.21A.68.68,0,0,1,517.09,304.2Z"/>
                <path class="cls-15" d="M516.06,312.3h-6.55a.5.5,0,0,1-.5-.58l.66-5.21a.69.69,0,0,1,.66-.58h6.54a.5.5,0,0,1,.51.58l-.67,5.21A.67.67,0,0,1,516.06,312.3Z"/>
                <path class="cls-15" d="M515,320.41h-6.55a.5.5,0,0,1-.5-.58l.67-5.21a.67.67,0,0,1,.65-.58h6.54a.5.5,0,0,1,.51.58l-.67,5.21A.67.67,0,0,1,515,320.41Z"/>
              </g>
              <g>
                <path class="cls-15" d="M576.74,279.87H570.2a.5.5,0,0,1-.51-.58l.67-5.22a.67.67,0,0,1,.65-.58h6.55a.5.5,0,0,1,.5.58l-.67,5.22A.67.67,0,0,1,576.74,279.87Z"/>
                <path class="cls-15" d="M575.7,288h-6.54a.5.5,0,0,1-.51-.58l.67-5.22a.67.67,0,0,1,.65-.58h6.55a.49.49,0,0,1,.5.58l-.66,5.22A.69.69,0,0,1,575.7,288Z"/>
                <path class="cls-15" d="M574.66,296.09h-6.54a.5.5,0,0,1-.51-.58l.67-5.22a.68.68,0,0,1,.66-.58h6.54a.5.5,0,0,1,.51.58l-.67,5.22A.68.68,0,0,1,574.66,296.09Z"/>
                <path class="cls-15" d="M573.62,304.2h-6.54a.51.51,0,0,1-.51-.59l.67-5.21a.68.68,0,0,1,.66-.58h6.54a.5.5,0,0,1,.51.58l-.67,5.21A.68.68,0,0,1,573.62,304.2Z"/>
                <path class="cls-15" d="M572.58,312.3H566a.49.49,0,0,1-.5-.58l.66-5.21a.68.68,0,0,1,.66-.58h6.54a.5.5,0,0,1,.51.58l-.67,5.21A.68.68,0,0,1,572.58,312.3Z"/>
                <path class="cls-15" d="M571.55,320.41H565a.5.5,0,0,1-.5-.58l.66-5.21a.69.69,0,0,1,.66-.58h6.54a.5.5,0,0,1,.51.58l-.67,5.21A.67.67,0,0,1,571.55,320.41Z"/>
              </g>
              <path class="cls-15" d="M561.39,320.41H518.86a.34.34,0,0,1-.35-.4l5.9-46.12a.48.48,0,0,1,.46-.4H567.4a.35.35,0,0,1,.35.4L561.84,320A.47.47,0,0,1,561.39,320.41Z"/>
            </g>
            <path class="cls-23" d="M580.75,267.3H513.1a.7.7,0,0,1-.71-.82l.87-6.85a1,1,0,0,1,.93-.83h67.65a.72.72,0,0,1,.72.83l-.88,6.85A1,1,0,0,1,580.75,267.3Z"/>
            <path class="cls-24" d="M572.73,328.73H505.39a.84.84,0,0,1-.85-1h0a1.14,1.14,0,0,1,1.1-1H573a.84.84,0,0,1,.85,1h0A1.14,1.14,0,0,1,572.73,328.73Z"/>
            <path class="cls-24" d="M572.2,332.86H504.86a.83.83,0,0,1-.85-1h0a1.14,1.14,0,0,1,1.1-1h67.34a.84.84,0,0,1,.85,1h0A1.14,1.14,0,0,1,572.2,332.86Z"/>
            <path class="cls-24" d="M552.58,337H504.33a.84.84,0,0,1-.85-1h0a1.14,1.14,0,0,1,1.1-1h48.25a.84.84,0,0,1,.85,1h0A1.15,1.15,0,0,1,552.58,337Z"/>
          </g>
          <g>
            <path class="cls-23" d="M653.75,324.1h-68a.57.57,0,0,1-.57-.66l6.78-53a.78.78,0,0,1,.75-.67h68a.57.57,0,0,1,.57.67l-6.78,53A.78.78,0,0,1,653.75,324.1Z"/>
            <g>
              <g>
                <path class="cls-15" d="M600.33,279.87h-6.55a.5.5,0,0,1-.5-.58l.67-5.22a.67.67,0,0,1,.65-.58h6.55a.5.5,0,0,1,.5.58l-.67,5.22A.67.67,0,0,1,600.33,279.87Z"/>
                <path class="cls-15" d="M599.29,288h-6.54a.5.5,0,0,1-.51-.58l.67-5.22a.67.67,0,0,1,.65-.58h6.55a.5.5,0,0,1,.5.58l-.67,5.22A.67.67,0,0,1,599.29,288Z"/>
                <path class="cls-15" d="M598.25,296.09h-6.54a.5.5,0,0,1-.51-.58l.67-5.22a.67.67,0,0,1,.65-.58h6.55a.5.5,0,0,1,.5.58l-.66,5.22A.69.69,0,0,1,598.25,296.09Z"/>
                <path class="cls-15" d="M597.21,304.2h-6.54a.51.51,0,0,1-.51-.59l.67-5.21a.67.67,0,0,1,.65-.58H598a.49.49,0,0,1,.5.58l-.66,5.21A.68.68,0,0,1,597.21,304.2Z"/>
                <path class="cls-15" d="M596.17,312.3h-6.54a.5.5,0,0,1-.51-.58l.67-5.21a.68.68,0,0,1,.66-.58H597a.5.5,0,0,1,.51.58l-.67,5.21A.68.68,0,0,1,596.17,312.3Z"/>
                <path class="cls-15" d="M595.13,320.41h-6.54a.5.5,0,0,1-.51-.58l.67-5.21a.68.68,0,0,1,.66-.58H596a.5.5,0,0,1,.51.58l-.67,5.21A.68.68,0,0,1,595.13,320.41Z"/>
              </g>
              <g>
                <path class="cls-15" d="M656.86,279.87h-6.55a.5.5,0,0,1-.5-.58l.67-5.22a.67.67,0,0,1,.65-.58h6.54a.5.5,0,0,1,.51.58l-.67,5.22A.67.67,0,0,1,656.86,279.87Z"/>
                <path class="cls-15" d="M655.82,288h-6.55a.5.5,0,0,1-.5-.58l.67-5.22a.67.67,0,0,1,.65-.58h6.55a.5.5,0,0,1,.5.58l-.67,5.22A.67.67,0,0,1,655.82,288Z"/>
                <path class="cls-15" d="M654.78,296.09h-6.54a.5.5,0,0,1-.51-.58l.67-5.22a.67.67,0,0,1,.65-.58h6.55a.5.5,0,0,1,.5.58l-.67,5.22A.67.67,0,0,1,654.78,296.09Z"/>
                <path class="cls-15" d="M653.74,304.2H647.2a.51.51,0,0,1-.51-.59l.67-5.21a.67.67,0,0,1,.65-.58h6.55a.5.5,0,0,1,.5.58l-.66,5.21A.69.69,0,0,1,653.74,304.2Z"/>
                <path class="cls-15" d="M652.7,312.3h-6.54a.5.5,0,0,1-.51-.58l.67-5.21a.68.68,0,0,1,.66-.58h6.54a.49.49,0,0,1,.5.58l-.66,5.21A.68.68,0,0,1,652.7,312.3Z"/>
                <path class="cls-15" d="M651.66,320.41h-6.54a.5.5,0,0,1-.51-.58l.67-5.21a.68.68,0,0,1,.66-.58h6.54a.5.5,0,0,1,.51.58l-.67,5.21A.68.68,0,0,1,651.66,320.41Z"/>
              </g>
              <path class="cls-15" d="M641.51,320.41H599a.35.35,0,0,1-.35-.4l5.91-46.12a.47.47,0,0,1,.45-.4h42.54a.35.35,0,0,1,.35.4L642,320A.47.47,0,0,1,641.51,320.41Z"/>
            </g>
            <path class="cls-23" d="M660.86,267.3H593.22a.71.71,0,0,1-.72-.82l.88-6.85a1,1,0,0,1,.93-.83H662a.71.71,0,0,1,.72.83l-.87,6.85A1,1,0,0,1,660.86,267.3Z"/>
            <path class="cls-24" d="M652.84,328.73H585.51a.85.85,0,0,1-.86-1h0a1.16,1.16,0,0,1,1.11-1h67.33a.85.85,0,0,1,.86,1h0A1.16,1.16,0,0,1,652.84,328.73Z"/>
            <path class="cls-24" d="M652.31,332.86H585a.85.85,0,0,1-.86-1h0a1.16,1.16,0,0,1,1.11-1h67.33a.85.85,0,0,1,.86,1h0A1.15,1.15,0,0,1,652.31,332.86Z"/>
            <path class="cls-24" d="M632.69,337H584.45a.85.85,0,0,1-.86-1h0a1.15,1.15,0,0,1,1.11-1h48.24a.83.83,0,0,1,.85,1h0A1.14,1.14,0,0,1,632.69,337Z"/>
          </g>
        </g>
        <g>
          <g>
            <path class="cls-25" d="M377.4,307.39v0Z"/>
            <path class="cls-26" d="M335.35,428v5.68a7.46,7.46,0,0,0,6.87-.15l.47-5A40.59,40.59,0,0,1,335.35,428Z"/>
            <path class="cls-26" d="M379.3,433.57l.28-4.81a26.23,26.23,0,0,1-7.3,0l.17,4.85A7.14,7.14,0,0,0,379.3,433.57Z"/>
            <path class="cls-27" d="M380.31,428.83s3.22-44.55,3.59-52.9c0-.64,0-3.52-.08-4.56-2.47-38.83-6.3-63.22-6.42-64,0,.28.06,2.16-6.53,1.79-9-.5-22.7-2.76-22.7-2.76-9.07-.86-11.94,24.52-11.25,35.17a220.3,220.3,0,0,1-.37,28.54c-4.81,26.13-2.31,57.82-2.31,57.82a25.1,25.1,0,0,0,9.53.47s6.26-38.83,16.09-83.76c1.81,6.76,5,16.42,7.49,23.95,0,.05.81,2.33.81,2.33-.4,3.72-1.49,22.05,0,33.51,1,7.37,2.32,24.27,2.32,24.27A26.64,26.64,0,0,0,380.31,428.83Z"/>
          </g>
          <path class="cls-28" d="M367.35,368.61c-2.51-7.53-5.68-17.19-7.49-23.95l3.74-13.23S363.9,357.17,367.35,368.61Z"/>
          <path class="cls-26" d="M389.29,259.65l13.34,21.26s1.56,9.27-5.91,7.95-17.61-20.55-17.61-20.55"/>
          <path class="cls-26" d="M387.31,281.06s5,7,7.7,7.62c2.2.52,5.5.68,7.16-1.89s8.86-17.21,13.22-31.17a34.65,34.65,0,0,1-3.95-1.81s-4,5.27-8.81,11.71c-6.26,8.48-10.12,13.37-10.12,13.37"/>
          <path class="cls-15" d="M396.26,268.32s-4.25,5.46-10.34,7.8a20.27,20.27,0,0,1-2.57.8l-.86.17-5.12-8.27-3.78-6.11,6.31-17S385.14,250.12,396.26,268.32Z"/>
          <path class="cls-29" d="M383.35,276.92l-.86.17-5.12-8.27c.76-1.32,1.42-2.42,1.42-2.42l2.66-.52A100.92,100.92,0,0,0,383.35,276.92Z"/>
          <path class="cls-15" d="M377.35,288c-1.47,8.72,3,22.42.65,22.7.47,2.69-9.16,3.87-15,3.87-6.54,0-17.4-3-20.75-4.93-.29-.16-1.65-2.23.52-8.63a26.62,26.62,0,0,0,1.1-4.5c1-6.77,1.34-12.56,0-17.95-.77-2.94-1.67-5.71-2.56-8.32-2.23-6.56-4.29-12.19-3.4-17.43a23.32,23.32,0,0,1,3.23-4.34,18.12,18.12,0,0,1,6.9-4.83l.06,0a67.34,67.34,0,0,1,13.67-2.23c9.69-.29,14.36,1.11,17.79,3.94,2.88,2.38,3.22,12.08,1.53,23.3C380.18,274.5,378.4,281.74,377.35,288Z"/>
          <g>
            <path class="cls-30" d="M374.58,214.09s1,8.38-1.69,9.23-2.41-2.8-2.41-2.8v-4"/>
            <path class="cls-26" d="M354.29,243.42c.52-1.23.19-2.18.45-3.77a74.12,74.12,0,0,0,.56-12.56l6.73,5.66,3.17,2.67c.34,1.59.9,3.63,1.37,5.28a4.36,4.36,0,0,1-.12,3Z"/>
            <path class="cls-31" d="M357.86,232.76s2.7,6,8.72,7.93c-.48-1.65-1-3.68-1.38-5.27L362,232.75Z"/>
            <path class="cls-26" d="M373.42,219.69s1.35,14.19-3.28,16.77c-2.55,1.41-7.92.87-11.4-2.38a13.49,13.49,0,0,1-3.16-5.35c-1.16-3.19-2.94-9.11-1.81-12.9C355.38,210.43,372,207.09,373.42,219.69Z"/>
            <path class="cls-30" d="M376.88,207.81c-7.24-.8-13.17-1.94-13.17-1.94v0a9.46,9.46,0,0,0-9.21,4.32c-7.69,2.73-2.57,14.51-2.57,14.51h0c.64,2.07,1.34,3.64,1.48,4.31,1,4.85,1.84,5.48,1.84,5.48s1-5.26,1.69-9c.06-.28.12-.53.19-.78,2-.19,4.13-.66,5.15-1.73,2.36-2.46.51-4.57.84-6.47,1.11.51,3.35.42,6.17.62C376.39,217.59,378.53,209.46,376.88,207.81Z"/>
            <path class="cls-26" d="M359.6,228.62c-3.23,1.77-5.42-6.47-2.24-7.28,2.41-.61,3,2.8,3,2.8S361.44,227.62,359.6,228.62Z"/>
          </g>
          <path class="cls-26" d="M343.5,266.23a152.65,152.65,0,0,1-8.94,15.57c-1.39,2-3.86,5.18-4.83,5.65-3.14,1.52-7.26-2.73-9-4.87,0-.39.05-.78.1-1.16,0-.08,0-.16,0-.23a1.22,1.22,0,0,1,0-.26,3.43,3.43,0,0,1,.09-.51,22.25,22.25,0,0,1,1.14-3.51c.5-1.24,1-2.34,1.17-2.73h0l0-.07a.48.48,0,0,1,0-.08c3.65-7.44,9.17-17.79,9.17-17.79Z"/>
          <path class="cls-32" d="M345.72,264.24l-1.87,14.33c-.77-2.94-1.67-5.71-2.56-8.32Z"/>
          <path class="cls-15" d="M348.45,259.94c-1.87,5.11-7,14.62-7,14.62-2.84.14-6.25-1.33-9.13-3a61.29,61.29,0,0,1-6.62-4.49,95.68,95.68,0,0,1,5.93-10.45,44.86,44.86,0,0,1,6.86-8,23.67,23.67,0,0,1,4.52-3Z"/>
          <path class="cls-15" d="M348,243.65s-7,2.1-8.92,5-4.91,14-4.91,14l7.74-3.34"/>
          <path class="cls-26" d="M422.56,244.89c-.18.46-.1,2.86-3.52,5.6a34.49,34.49,0,0,0-3.65,5.16l-4.36-1.1s.24-7.25,1.6-9.51a.86.86,0,0,1,1,.69c.28.87-.47,2.41-.19,3.22s.76.48,1.35.05,4.25-5.16,4.83-5.12S422.59,244.34,422.56,244.89Z"/>
          <path class="cls-33" d="M342.28,309.65A63.81,63.81,0,0,0,378,310.71a9.86,9.86,0,0,1,.61,5.19s-19.72,4.82-38-1.9A12.56,12.56,0,0,1,342.28,309.65Z"/>
          <path class="cls-34" d="M364.26,312.88c0,.8.05,3.18,0,4.47a.27.27,0,0,0,.28.29,50.94,50.94,0,0,0,5.29-.29.29.29,0,0,0,.23-.27,33.25,33.25,0,0,0-.12-4.63.28.28,0,0,0-.3-.24c-.75.09-2.95.32-5.11.39A.29.29,0,0,0,364.26,312.88Z"/>
          <g>
            <rect class="cls-35" x="387.01" y="176.95" width="14.72" height="168.86" transform="translate(508.4 720.56) rotate(-137.48)"/>
            <rect class="cls-36" x="329.22" y="323.32" width="14.72" height="2.15" transform="translate(365.42 790.97) rotate(-137.48)"/>
            <rect class="cls-36" x="326.31" y="326.5" width="14.72" height="2.15" transform="translate(358.22 794.52) rotate(-137.48)"/>
            <rect class="cls-37" x="327.77" y="324.91" width="14.72" height="2.15" transform="translate(361.82 792.75) rotate(-137.48)"/>
            <rect class="cls-38" x="332.94" y="324.77" width="10.44" height="2.15" transform="translate(367.18 794.55) rotate(-137.48)"/>
            <rect class="cls-38" x="330.03" y="327.94" width="10.44" height="2.15" transform="translate(359.98 798.1) rotate(-137.48)"/>
            <rect class="cls-39" x="331.48" y="326.36" width="10.44" height="2.15" transform="translate(363.58 796.32) rotate(-137.48)"/>
            <rect class="cls-40" x="338.29" y="326.85" width="4.28" height="2.15" transform="translate(369.7 799.7) rotate(-137.48)"/>
            <rect class="cls-40" x="335.38" y="330.02" width="4.28" height="2.15" transform="translate(362.52 803.25) rotate(-137.48)"/>
            <rect class="cls-41" x="336.84" y="328.44" width="4.28" height="2.15" transform="translate(366.11 801.48) rotate(-137.48)"/>
            <path class="cls-42" d="M326.4,335.51h0a7.36,7.36,0,0,0,10.39-.45l1.58-1.72-10.85-9.95L326,325.11A7.36,7.36,0,0,0,326.4,335.51Z"/>
            <path class="cls-43" d="M326.72,332h0a5.24,5.24,0,0,0,7.38-.32l1.11-1.22-7.69-7.06-1.12,1.22A5.24,5.24,0,0,0,326.72,332Z"/>
            <path class="cls-44" d="M327.19,327h0a2.17,2.17,0,0,0,3.06-.13l.46-.51-3.19-2.93-.46.51A2.17,2.17,0,0,0,327.19,327Z"/>
            <path class="cls-45" d="M446,194.17l10.85,10,1.33-2.94,4.75-10.44,3.21-7.07a.4.4,0,0,0-.09-.46.4.4,0,0,0-.47-.06L458.82,187Z"/>
            <path class="cls-46" d="M458.82,187a5.18,5.18,0,0,0,4.12,3.77l3.21-7.08a.4.4,0,0,0-.55-.51Z"/>
            <path class="cls-47" d="M466.06,183.21,454.2,200.52v0l-.48.69a3.08,3.08,0,0,1,4.36-.19.74.74,0,0,1,.12.13l4.75-10.44,3.21-7.07A.4.4,0,0,0,466.06,183.21Z"/>
            <path class="cls-35" d="M449.16,197.06a3.09,3.09,0,1,0,4.36-.18A3.08,3.08,0,0,0,449.16,197.06Z"/>
            <path class="cls-35" d="M454.19,200.55l-.48.69A3.07,3.07,0,0,0,454.19,200.55Z"/>
            <path class="cls-48" d="M458.07,201.05l.13.12-1.34,3L342.73,328.58l-3.15-2.89L453.71,201.23A3.08,3.08,0,0,1,458.07,201.05Z"/>
            <path class="cls-49" d="M446,194.18l2.82-1.59a.53.53,0,0,1,.14.11,3.08,3.08,0,0,1,.19,4.36h0L335,321.52l-3.14-2.89,112.2-122.35h0Z"/>
          </g>
          <path class="cls-26" d="M357.16,307.57a14.14,14.14,0,0,1-3.3-.08c-.66-.05-1.09.21-2,.17a4.62,4.62,0,0,1-2.54-1.06l-.33-.29h0a91.56,91.56,0,0,1-9-10.12c-1.79-2.28-10-13.07-10-13.07l-3.7-3.37a23.17,23.17,0,0,0-2.81,2.38,4.1,4.1,0,0,0-.35.39l-.31.38c-.24.3-.48.61-.7.93-1.78,2.54-2.92,5.89.18,8.67l.85.73c4.6,3.87,20.86,16.67,20.86,16.67,2.39,1.89,4.82,5.18,5.63,5.8s2.92,2.55,3.85,2.26c.32-.1.33-.43.52-.66s.86-.16,1.14-.62.05-.53.38-1,.84-.3,1-.57.13-.7.22-.87.68-.17.92-.5a1.3,1.3,0,0,0,0-1.66c-1.2.59-3.49-1.77-3.41-1.85a4.33,4.33,0,0,1,1.33-.78c.5-.12,2.31-.42,2.56-1.24S358.09,307.38,357.16,307.57Z"/>
          <path class="cls-26" d="M323.16,274.57s-6,12.25-1.55,17.31,5.24-9.17,5.27-9.43S323.16,274.57,323.16,274.57Z"/>
          <path class="cls-32" d="M352.82,242.53l1.92-2.88s.7,1.82,8.71,3.93l-1.25,4.51A22.07,22.07,0,0,1,352.82,242.53Z"/>
          <path class="cls-32" d="M366.33,239.82s.2.87-1,2.28a16.61,16.61,0,0,1-1.89,1.48l2.19,3.81s1.83-1.83,1.83-5.95Z"/>
          <path class="cls-50" d="M393,439.6H371.54a10.14,10.14,0,0,1,.81-8.79s1.77,1.42,7.09.46a24,24,0,0,0,3.75,2.62C384.73,434.64,393.56,436.37,393,439.6Z"/>
          <path class="cls-50" d="M335.35,430a11.15,11.15,0,0,0,7.14.56,9.27,9.27,0,0,1,1,2.06c.44,1.21,3.08,3.61,3.59,6.21a.63.63,0,0,1-.62.74H333.65a.62.62,0,0,1-.62-.49A11.56,11.56,0,0,1,335.35,430Z"/>
          <g class="cls-3">
            <path class="cls-51" d="M357.42,222.7a1.57,1.57,0,0,1,.73.3,2.59,2.59,0,0,1,.59.6,2.71,2.71,0,0,1,.37.89,3,3,0,0,1,.07.94,4,4,0,0,1-.15.79,3.88,3.88,0,0,1-.21.53l-.1.19s0-.32,0-.76c0-.23,0-.48,0-.75a4.66,4.66,0,0,0-.12-.81,3.46,3.46,0,0,0-.61-1.37A3,3,0,0,0,357.42,222.7Z"/>
            <path class="cls-51" d="M357.1,224.37a1.06,1.06,0,0,1,.35-.05,1.7,1.7,0,0,1,.79.13,1.85,1.85,0,0,1,.7.48,2.89,2.89,0,0,1,.25.3l-.54.28a1.26,1.26,0,0,0-.12-.28,1.55,1.55,0,0,0-.43-.52,1.68,1.68,0,0,0-.66-.3A1.2,1.2,0,0,0,357.1,224.37Z"/>
          </g>
          <path class="cls-26" d="M421.76,245.88c-.36-1.06-3-2.52-3.61-2.64s-1,.85-.38,1.79a11.57,11.57,0,0,0,2.2,2.11S422.21,247.18,421.76,245.88Z"/>
          <path class="cls-26" d="M422.69,244.55c-.17-.91-2.13-2.43-2.62-2.61s-.93.57-.54,1.41a9.44,9.44,0,0,0,1.54,2S422.89,245.67,422.69,244.55Z"/>
          <path class="cls-26" d="M421,247.09a12.6,12.6,0,0,0-4.2-2.63c-.7-.09-1,1-.28,2a11.17,11.17,0,0,0,3,2.09S422,248.23,421,247.09Z"/>
          <path class="cls-26" d="M419.33,248.2a32,32,0,0,0-3.63-1.69c-.5,0-.73.74-.17,1.44a5,5,0,0,0,2.52,1.59C418.84,249.69,420.45,248.83,419.33,248.2Z"/>
        </g>
        <g>
          <path class="cls-9" d="M819.94,178v42.3a3,3,0,0,1-3,3h-42.3a3,3,0,0,1-3-3V178a3,3,0,0,1,3-3H817A3,3,0,0,1,819.94,178Z"/>
          <path class="cls-52" d="M823.33,175v48.24a3.4,3.4,0,0,1-3.41,3.39H771.68a3.41,3.41,0,0,1-3.42-3.39V175a3.41,3.41,0,0,1,3.42-3.41h48.24A3.41,3.41,0,0,1,823.33,175Z"/>
          <path class="cls-53" d="M819.94,214.74v5.57a3,3,0,0,1-3,3H790.46l10.7-15.71,5.42-8a1.85,1.85,0,0,1,3.06,0Z"/>
          <path class="cls-15" d="M814.1,184.82a5.47,5.47,0,1,1-5.47-5.47A5.47,5.47,0,0,1,814.1,184.82Z"/>
          <path class="cls-54" d="M811.85,223.29h-37.2a3,3,0,0,1-3-3v-5.1L787.47,192a1.84,1.84,0,0,1,3,0l10.64,15.6Z"/>
        </g>
        <g>
          <path class="cls-53" d="M354.64,89.16V90a4,4,0,0,1-4,4H322a4,4,0,0,0-4,4v38.53a4.48,4.48,0,0,0,4.48,4.47h57.95a4,4,0,0,0,4-4V89.16A4.16,4.16,0,0,0,380.22,85H358.81A4.17,4.17,0,0,0,354.64,89.16Z"/>
          <path class="cls-55" d="M380.07,141H325.43L314.71,99.64a1.91,1.91,0,0,1,1.85-2.39h48.83a4.33,4.33,0,0,1,4.19,3.24Z"/>
          <path class="cls-15" d="M376.38,141H322.09l-9.84-38a1.75,1.75,0,0,1,1.69-2.19h49a4,4,0,0,1,3.84,3Z"/>
          <path class="cls-9" d="M374.7,137.09l-.32-1.22h0l-6.61-25.37a5.44,5.44,0,0,0-5.27-4.07H312.2a2.59,2.59,0,0,0-2.51,3.25l7,26.76a6.09,6.09,0,0,0,5.9,4.56h57.51A5.45,5.45,0,0,1,374.7,137.09Z"/>
        </g>
        <g>
          <g>
            <circle class="cls-56" cx="429.92" cy="420.96" r="3.39"/>
            <circle class="cls-56" cx="781.52" cy="308.22" r="3.39"/>
            <circle class="cls-56" cx="790.39" cy="127.05" r="3.39"/>
            <circle class="cls-56" cx="625" cy="76.75" r="2.12"/>
            <path class="cls-56" d="M300.16,120.05a2.13,2.13,0,1,1-2.12-2.12A2.12,2.12,0,0,1,300.16,120.05Z"/>
            <path class="cls-56" d="M316.36,230.23a2.12,2.12,0,1,1-2.12-2.13A2.12,2.12,0,0,1,316.36,230.23Z"/>
            <path class="cls-56" d="M221.79,255.12a2.13,2.13,0,1,1-2.12-2.12A2.12,2.12,0,0,1,221.79,255.12Z"/>
            <circle class="cls-56" cx="641.22" cy="409.36" r="3.39"/>
            <circle class="cls-56" cx="804.22" cy="409.36" r="3.39"/>
            <circle class="cls-56" cx="509" cy="97.25" r="3.39"/>
            <path class="cls-56" d="M220.78,350a4.53,4.53,0,1,1-4.53-4.53A4.53,4.53,0,0,1,220.78,350Z"/>
            <path class="cls-56" d="M270.7,206.73a4.53,4.53,0,1,1-4.53-4.53A4.53,4.53,0,0,1,270.7,206.73Z"/>
          </g>
          <g>
            <rect class="cls-15" x="251.59" y="132.07" width="7.03" height="7.03" rx="0.66"/>
            <rect class="cls-15" x="260.99" y="132.07" width="7.03" height="7.03" rx="0.66"/>
            <rect class="cls-15" x="270.38" y="132.07" width="7.03" height="7.03" rx="0.66"/>
          </g>
          <g>
            <rect class="cls-9" x="759.21" y="244.52" width="7.03" height="7.03" rx="0.66"/>
            <rect class="cls-9" x="768.61" y="244.52" width="7.03" height="7.03" rx="0.66"/>
            <rect class="cls-9" x="778.01" y="244.52" width="7.03" height="7.03" rx="0.66"/>
          </g>
          <g>
            <rect class="cls-9" x="576.96" y="93.74" width="7.03" height="7.03" rx="0.66"/>
            <rect class="cls-9" x="586.36" y="93.74" width="7.03" height="7.03" rx="0.66"/>
            <rect class="cls-9" x="595.76" y="93.74" width="7.03" height="7.03" rx="0.66"/>
          </g>
        </g>
        <g>
          <path class="cls-50" d="M685,439.57h22.09a12,12,0,0,0-1.44-8.81s-1.78,1.43-7.1.47a24.25,24.25,0,0,1-3.76,2.62C693.26,434.6,684.42,436.33,685,439.57Z"/>
          <path class="cls-50" d="M724.48,439.57h22.1a12.09,12.09,0,0,0-1.44-8.81s-1.78,1.43-7.11.47a23.72,23.72,0,0,1-3.76,2.62C732.73,434.6,723.89,436.33,724.48,439.57Z"/>
          <path class="cls-57" d="M723.88,343.84,723,329l-1.54-20.15c-2.86.1-5.61.2-7.84.3a49.09,49.09,0,0,1-9.77-.25s-1.72,8.43-2.68,29.44c-.18,5-.38,9.68-.57,13.93h0s-.92,18.57-1.23,30.18c0,.13,0,.23,0,.35-.56,13.35-2,35.39-2.12,48.24a30.15,30.15,0,0,0,9.4.9c1.18-6.84,3-21.9,4.7-28.95,2.6-11,5.13-26.05,3.37-31.43.47-1.35,1.54-4.39,1.54-4.43C718.8,359.78,722,350.41,723.88,343.84Z"/>
          <path class="cls-58" d="M716.26,367.09c2.54-7.31,5.76-16.68,7.62-23.25L723,329S719.77,356,716.26,367.09Z"/>
          <path class="cls-57" d="M726.52,377.27c1.43,8.51,6.81,37.48,9.64,54.5a33.16,33.16,0,0,0,10.18-.61c-.25-5.94-.77-20.13-.71-26.36.1-10.52.6-24.4-4-32,1.11-8.94,3.68-23,4.13-32,.29-6.38,2.32-21.56-5.31-32.75,0,0-11.9.54-20.35,1.06l3.22,36.72c1,11.48,2.37,26.21,3,30.11C726.35,376.44,726.44,376.87,726.52,377.27Z"/>
          <path class="cls-59" d="M707.45,265.65s-1.49,1.73-3.75,4c-1.05,1.07-2.26,2.25-3.56,3.45-.88.82-1.81,1.64-2.76,2.43a31.82,31.82,0,0,1-7.88,5.09,9.89,9.89,0,0,1-2.14.6,5.59,5.59,0,0,1-1.14.06c-7.38-.37-6.31-5.34-6.31-5.34l.14-.14.09-.09h0l10.06-10.58,3.21-3.38,1.36-1.42.49-.52,4.4-4.64Z"/>
          <path class="cls-60" d="M703.7,269.68c-1.05,1.07-2.26,2.25-3.56,3.45-3.85-3.77-6.72-11.36-6.72-11.36l1.36-1.42c.79.44,3.14,1.82,3.14,1.82l5.55,5.95S703.59,268.78,703.7,269.68Z"/>
          <path class="cls-59" d="M681.91,280.25c-.24-.16-.57-.41-1-.74-1-.78-2.42-2-4.16-3.61a233.73,233.73,0,0,1-19-19.46,35.35,35.35,0,0,0,2.83-3.15s5.25,4,11.71,8c5.58,3.45,10.62,7.15,11.82,8.06l.16.11.1.07,0,0s6.46,5.27,4.32,8.68a6,6,0,0,1-2.06,1.92A4.37,4.37,0,0,1,681.91,280.25Z"/>
          <path class="cls-19" d="M710.54,265.12l-4,3.36L703,271.54c-4.19-3.12-9.34-10.16-9.34-10.16A101,101,0,0,1,707.36,247Z"/>
          <polygon class="cls-61" points="706.6 259.27 706.58 268.48 702.96 271.54 706.6 259.27"/>
          <path class="cls-19" d="M742.23,286.42c-.35,5.67-3.13,9.92-.49,18.56a13.82,13.82,0,0,1,.78,4c0,.6-.76,1.22-1.07,1.39-3.26,1.88-15.94,2.16-22.31,2.16-5.66,0-14.16-.91-15.23-2.33s-.08-3.21.39-5.83c2.08-11.84,1.34-18,1.22-26.56,0-.73,0-1.45,0-2.17,0,0-.15-21.79,0-24.62a5.49,5.49,0,0,1,1.81-4l0,0a36.42,36.42,0,0,1,10.41-3.88,44.12,44.12,0,0,1,5.25,0,65.78,65.78,0,0,1,13.34,2.18.08.08,0,0,0,0,0,18,18,0,0,1,6.73,4.71,23.26,23.26,0,0,1,3.15,4.23c-.22,5.31-1.37,14.84-2,23.09C744.16,278.62,742.29,285.24,742.23,286.42Z"/>
          <path class="cls-61" d="M734.38,278.84a14,14,0,0,0,2.2.76L739,287h1.71l-2.41-11.05-3.94-.3Z"/>
          <g>
            <path class="cls-30" d="M710.35,215.66s-1.35,8.54,1.41,9.49,2.55-2.77,2.55-2.77l.15-4.12"/>
            <path class="cls-59" d="M719.66,249.52c-6.91-.54-1.89-6.41-1.89-6.41s.13-.57.62-2.07,1-3.29,1.4-4.71l3-2.32L729,229.1s-1,9.86.95,14.78C731,245,727.57,250.15,719.66,249.52Z"/>
            <path class="cls-60" d="M726.49,234.14s-2.61,5.3-8.1,6.9c.48-1.47,1-3.29,1.4-4.71l3-2.32Z"/>
            <path class="cls-59" d="M711.35,217.05a54.81,54.81,0,0,0,.63,16.16,6.46,6.46,0,0,0,7.09,5.18c2.2-.16,4.24-.91,6.85-3.59a16.46,16.46,0,0,0,3.4-5.36c1.3-3.22,3.32-9.21,2.29-13.12C730.15,210.75,712.7,204.15,711.35,217.05Z"/>
            <path class="cls-30" d="M732.08,213.4a12.39,12.39,0,0,0-2.28-2.61h0c-1.84-1.78-7.59-5.26-8.45-5-1.49.48.53,2.39.53,2.39-3.48-1.53-13.26-4.74-8.71,0-2.95-.5-5.2-1.22-5.56-1-1.46.85-.92,4.62-.92,4.62,1.6,8.5,11.84,7.18,14.94,6.58.43,2.19,0,5.09,1.51,6.83.88,1,2.62,1.25,4.44,1.19a8,8,0,0,1,.39,1.54,56.57,56.57,0,0,1,.73,7.06l.76-.31a22.2,22.2,0,0,1,1.62-3.08,19.75,19.75,0,0,0,2.64-6.43C734.1,224.09,738.69,213.81,732.08,213.4Z"/>
          </g>
          <path class="cls-59" d="M752.12,290.3c-.58,2-7.56,3.39-10.43.43-1.3-1.34-2.61-6-3.66-10.6-.43-1.91-.82-3.83-1.15-5.54-.64-3.35-1-5.87-1-5.87l13.32-5.51s.61,4.28,1.27,9.45c.17,1.36.36,2.79.52,4.23h0C751.73,283.12,752.4,289.34,752.12,290.3Z"/>
          <path class="cls-60" d="M751,276.89c-.22.15-4.81,3.1-12.93,3.24-.43-1.91-.82-3.83-1.15-5.54,1-1,1.81-1.67,1.81-1.67l8.53-1.43,3.2,1.14,0,0C750.61,274,750.8,275.45,751,276.89Z"/>
          <path class="cls-19" d="M749.89,263.91c-.22-.9-3.15-14.33-8.6-16.81-1.44-.65-4.88-1.75-4.88-1.75l-3,16c0,5.3,1.3,16.09,1.3,16.09,2.55,1.08,6.31.91,9.49.38a38.14,38.14,0,0,0,7.62-2.31A91.59,91.59,0,0,0,749.89,263.91Z"/>
          <rect class="cls-15" x="707.65" y="267.55" width="26.8" height="35.58" rx="0.91" transform="translate(1397.74 664.06) rotate(-172.36)"/>
          <path class="cls-59" d="M752.2,289.12v.07c0,.8-.17,8.44-6.5,7.42l-.48-.09a6.7,6.7,0,0,0-.68-.13,190.55,190.55,0,0,1-28.74-8.25,33.4,33.4,0,0,0,1-4.11,73.31,73.31,0,0,0,14.09,1.45A78.82,78.82,0,0,1,745.47,287l6.47-1.38S752.08,287.23,752.2,289.12Z"/>
          <path class="cls-59" d="M717.78,284.22a4.77,4.77,0,0,1-2.79-1.39c-.56-.66-.62-1.14-1.06-1.61a14.19,14.19,0,0,1-2-2.49c-.41-.83-.64-1.06-1.13-.38s.38,2.25.6,2.7a4.23,4.23,0,0,1,.19,1.5c0,.11-3.11-.43-3.53-1.12,0,0-.59.4-.71.77s.25.83.17,1-.46.37-.54.69.32.62.19,1.13-.32.39-.5.88.27,1,.21,1.24-.3.49-.2.8,2.59,1.19,3.56,1.44,5.06-1.07,7.94-.37"/>
          <path class="cls-59" d="M725.32,229.86c3.23,1.76,5.43-6.49,2.24-7.3-2.42-.61-3,2.81-3,2.81S723.47,228.85,725.32,229.86Z"/>
          <path class="cls-62" d="M727.24,225.43a2,2,0,0,0-.79.13,1.56,1.56,0,0,0-.28.16,3.41,3.41,0,0,1,.6-1.36,3.23,3.23,0,0,1,.51-.55,1.63,1.63,0,0,0-.74.3,2.59,2.59,0,0,0-.59.6,2.71,2.71,0,0,0-.37.89,3.14,3.14,0,0,0-.07.74h0a1.34,1.34,0,0,0,0,.2,4.11,4.11,0,0,0,.15.79,3.88,3.88,0,0,0,.21.53l.1.19s0-.08,0-.22v-.55c0-.2,0-.43,0-.67h0a1.26,1.26,0,0,1,.12-.28,1.57,1.57,0,0,1,.43-.53,2,2,0,0,1,.66-.3,1.92,1.92,0,0,1,.34,0A1.55,1.55,0,0,0,727.24,225.43Z"/>
          <path class="cls-63" d="M660,249.71a44.94,44.94,0,0,0-3.86-2.87c-1.16-.65-4.39-1.86-4.94-1.7s-.2,1,.28,1.34,3.12,1.89,3.12,1.89l3.48,2.48Z"/>
          <path class="cls-59" d="M664,255.78a10,10,0,0,1-1.85-3.08,9.27,9.27,0,0,0-3.91-4.3,16.26,16.26,0,0,0-4.45-.84c-.84.31-.43,1.27.31,1.82l.06,0c-.37.33-.94,1-.69,1.55a1.18,1.18,0,0,0,.23.31c-.33.37-.84,1.06-.53,1.63a2.9,2.9,0,0,0,1.1.81.83.83,0,0,0-.21.84,2.62,2.62,0,0,0,1,.79,7.26,7.26,0,0,0,.89,1.54c1,1.33,3.4,1.44,4.81,3,1,1.14-.06-1.24-.7-2.56A11.89,11.89,0,0,0,664,255.78Z"/>
          <path class="cls-60" d="M653.55,248.77a2.4,2.4,0,0,0,.74.64,7.22,7.22,0,0,0,.88.44,13.24,13.24,0,0,0,1.88.59l.06,0,0,0a7.4,7.4,0,0,0,.34.89,2.58,2.58,0,0,0,.52.79,2.25,2.25,0,0,1-.64-.73,4.18,4.18,0,0,1-.42-.88l.08.07a8.15,8.15,0,0,1-1.93-.6,5.22,5.22,0,0,1-.88-.52A1.91,1.91,0,0,1,653.55,248.77Z"/>
          <path class="cls-60" d="M653.71,251.27l.74.5c.44.29,1,.71,1.62,1a1.08,1.08,0,0,0,.89.19.84.84,0,0,0,.44-.64,2.37,2.37,0,0,0,0-.87l.06.23a2.15,2.15,0,0,1,0,.66,1,1,0,0,1-.5.82A1.31,1.31,0,0,1,656,253,10.6,10.6,0,0,1,653.71,251.27Z"/>
          <path class="cls-60" d="M653.56,253.27s1.18.56,2.38,1c.31.1.63.27.86.14a.73.73,0,0,0,.35-.61,1.38,1.38,0,0,0-.17-.71l.22-.11a1.56,1.56,0,0,1,.16.85.91.91,0,0,1-.49.73.72.72,0,0,1-.52,0l-.45-.18C654.71,253.89,653.56,253.27,653.56,253.27Z"/>
          <path class="cls-60" d="M654.47,255s.18.12.47.28a3.16,3.16,0,0,0,1.11.38,1.06,1.06,0,0,0,.31,0,.45.45,0,0,0,.24-.11.51.51,0,0,0,.13-.44,1.77,1.77,0,0,0-.15-.48l.23-.1a1.79,1.79,0,0,1,.13.57.68.68,0,0,1-.23.58.59.59,0,0,1-.33.13,1.93,1.93,0,0,1-.34,0,3.32,3.32,0,0,1-1.12-.48A4.22,4.22,0,0,1,654.47,255Z"/>
        </g>
        <line class="cls-64" x1="186.89" y1="439.69" x2="837.11" y2="439.69"/>
      </g>
    </g>
  </g>
</svg>
