<svg xmlns="http://www.w3.org/2000/svg" width="451.413" height="304.196" viewBox="0 0 451.413 304.196">
  <g id="layer_08" data-name="layer 08" transform="translate(5.681 -53.268)">
    <path id="path5154-3" d="M453.109,384.367A22.858,22.858,0,0,1,472.61,350" transform="translate(-100.7 -70.539)" fill="none" stroke="#000" stroke-width="0.6"/>
    <path id="path5154-1-1" d="M480.055,340a30.477,30.477,0,0,1,26.332,45.751" transform="translate(-107.855 -68.158)" fill="none" stroke="#000" stroke-width="0.6"/>
    <path id="path5154-1-5-2" d="M502.621,405.168a38.1,38.1,0,0,1-65.85-.045" transform="translate(-97.551 -83.662)" fill="none" stroke="#000" stroke-width="0.6"/>
    <path id="path8056-4-2-2" d="M115,177.559l129.529-74.783" transform="translate(-28.567 -11.683)" fill="none" stroke="blue" stroke-width="1"/>
    <path id="path8056-4-8-0-4" d="M244.529,177.559,115,102.775" transform="translate(-28.567 -11.683)" fill="none" stroke="blue" stroke-width="1"/>
    <path id="path2898-4-7-0-9-6" d="M730.577,396.913c0,29.154-40.935,52.788-91.432,52.788s-91.432-23.634-91.432-52.788,40.935-52.788,91.432-52.788,91.432,23.634,91.432,52.788Z" transform="translate(-487.95 -268.429)" fill="none" stroke="blue" stroke-linecap="round" stroke-linejoin="round" stroke-width="1"/>
    <path id="path8056-4-8-4-73-1" d="M329.529,128.484,200,53.7" transform="translate(-48.803)" fill="none" stroke="blue" stroke-width="1"/>
    <path id="path8056-4-8-4-2-7-8" d="M159.529,226.634,30,151.85" transform="translate(-8.332 -23.366)" fill="none" stroke="blue" stroke-width="1"/>
    <path id="path8056-4-8-4-7-2-2" d="M159.529,53.7,30,128.484" transform="translate(-8.332 0)" fill="none" stroke="blue" stroke-width="1"/>
    <path id="path8056-4-8-4-7-9-6-1" d="M329.529,151.85,200,226.633" transform="translate(-48.803 -23.366)" fill="none" stroke="blue" stroke-width="1"/>
    <path id="path8056-4-2-1-1" d="M159.529,324.784,30,250" transform="translate(-8.332 -46.732)" fill="none" stroke="blue" stroke-width="1"/>
    <path id="path8056-4-8-0-2-9" d="M115,200.925V350.492" transform="translate(-28.567 -35.049)" fill="none" stroke="blue" stroke-width="1"/>
    <path id="path2898-4-7-0-9-0-7" d="M182.864,52.789c0,29.154-40.936,52.789-91.432,52.789S0,81.943,0,52.789,40.936,0,91.432,0s91.432,23.634,91.432,52.789Z" transform="matrix(-0.5, -0.866, 0.866, -0.5, 86.434, 346.236)" fill="none" stroke="blue" stroke-linecap="round" stroke-linejoin="round" stroke-width="1"/>
    <path id="path8056-4-8-4-73-0-6" d="M30,151.85V301.417" transform="translate(-8.332 -23.366)" fill="none" stroke="blue" stroke-width="1"/>
    <path id="path8056-4-8-4-2-7-1-2" d="M200,250V399.567" transform="translate(-48.803 -46.732)" fill="none" stroke="blue" stroke-width="1"/>
    <path id="path8056-4-8-4-7-2-4-9" d="M30,348.15l129.529,74.783" transform="translate(-8.332 -70.098)" fill="none" stroke="blue" stroke-width="1"/>
    <path id="path8056-4-2-17-5" d="M285,200.925V350.492" transform="translate(-69.039 -35.049)" fill="none" stroke="blue" stroke-width="1"/>
    <path id="path8056-4-8-0-7-2" d="M200,324.784,329.529,250" transform="translate(-48.803 -46.732)" fill="none" stroke="blue" stroke-width="1"/>
    <path id="path2898-4-7-0-9-7-0" d="M182.864,52.789c0,29.154-40.936,52.789-91.432,52.789S0,81.943,0,52.789,40.936,0,91.432,0s91.432,23.634,91.432,52.789Z" transform="matrix(-0.5, 0.866, -0.866, -0.5, 307.393, 187.87)" fill="none" stroke="blue" stroke-linecap="round" stroke-linejoin="round" stroke-width="1"/>
    <path id="path8056-4-8-4-73-7-0" d="M200,422.933,329.529,348.15" transform="translate(-48.803 -70.098)" fill="none" stroke="blue" stroke-width="1"/>
    <path id="path8056-4-8-4-7-2-3-3" d="M370,301.418V151.851" transform="translate(-89.274 -23.366)" fill="none" stroke="blue" stroke-width="1"/>
    <path id="path8056-1-2-7-1-89" d="M490,356.193V280" transform="translate(-117.842 -53.874)" fill="none" stroke="blue" stroke-width="1"/>
    <path id="path8056-1-2-7-1-89-4" d="M469.383,380,403.4,418.1" transform="translate(-97.225 -77.681)" fill="none" stroke="blue" stroke-width="1"/>
    <path id="path8056-1-2-7-1-89-5" d="M490,380l65.985,38.1" transform="translate(-117.842 -77.681)" fill="none" stroke="blue" stroke-width="1"/>
    <text id="text3764-63-0-7-3-9-0-7-1-14-3-3-8-7-7-1-1-6-88-7-2-6-1-1-2-1-1-1-7-65" transform="translate(326.442 285.89)" font-size="12" font-family="ArialMT, Arial" opacity="0.922"><tspan x="0" y="0">120ยบ</tspan></text>
    <text id="text3764-63-0-7-3-9-0-7-1-14-3-3-8-7-7-1-1-6-88-7-2-6-1-1-2-1-1-1-7-3-54" transform="translate(402.635 285.89)" font-size="12" font-family="ArialMT, Arial" opacity="0.922"><tspan x="0" y="0">120ยบ</tspan></text>
    <text id="text3764-63-0-7-3-9-0-7-1-14-3-3-8-7-7-1-1-6-88-7-2-6-1-1-2-1-1-1-7-33-2" transform="translate(356.919 354.464)" font-size="12" font-family="ArialMT, Arial" opacity="0.922"><tspan x="0" y="0">120ยบ</tspan></text>
    <text id="text3764-63-0-7-3-9-0-7-1-14-3-3-8-7-7-1-1-6-88-7-2-6-1-1-2-1-1-1-7-11-01" transform="translate(379.777 230.554)" font-size="10" font-family="ArialMT, Arial" opacity="0.922"><tspan x="0" y="0">z</tspan></text>
    <text id="text3764-63-0-7-3-9-0-7-1-14-3-3-8-7-7-1-1-6-88-7-2-6-1-1-2-1-1-1-7-11-2-0" transform="translate(311.203 344.844)" font-size="10" font-family="ArialMT, Arial" opacity="0.922"><tspan x="0" y="0">x</tspan></text>
    <text id="text3764-63-0-7-3-9-0-7-1-14-3-3-8-7-7-1-1-6-88-7-2-6-1-1-2-1-1-1-7-11-1-1" transform="translate(440.732 329.606)" font-size="10" font-family="ArialMT, Arial" opacity="0.922"><tspan x="0" y="0">y</tspan></text>
  </g>
</svg>
