<svg xmlns="http://www.w3.org/2000/svg" width="481.137" height="308.646" viewBox="0 0 481.137 308.646">
  <g id="layer1" transform="translate(-25.03 -291.67)">
    <g id="g2897" transform="translate(25.455 292.17)">
      <path id="path2896" d="M372.834,750.8l4.574,3.823m-29.742-26.6,18.6,17.228m30.059-51.224L202.047,590,308.574,689.57" transform="translate(-201.782 -589.826)" fill="none" stroke="green" stroke-width="1"/>
      <path id="path2902" d="M203.068,589.747H681.95" transform="translate(-202.096 -589.747)" fill="none" stroke="purple" stroke-width="1"/>
      <path id="path2951-6-4-6-7-0-5-6-2-9" d="M381.692,736.387c-20.087-19.51-44.585-1.157-39.87,22.514l3.118,22.487,3.986,3.8" transform="translate(-244.581 -632.312)" fill="none" stroke="#666" stroke-width="1"/>
      <path id="path2931" d="M334.66,778.688l8.308-3.359" transform="translate(-242.56 -646.813)" fill="none" stroke="#000" stroke-width="1"/>
      <path id="path2933" d="M333.383,772.641l8.308-3.182" transform="translate(-242.167 -645.008)" fill="none" stroke="#000" stroke-width="1"/>
      <path id="path2935" d="M333.383,768.32l7.336-2.563" transform="translate(-242.167 -643.87)" fill="none" stroke="#000" stroke-width="1"/>
      <path id="path2937" d="M333,765.242l5.657-2.166" transform="translate(-242.05 -643.046)" fill="none" stroke="#000" stroke-width="1"/>
      <path id="path3042-8-2" d="M400.988,738.163c18.5-15.048,45.966,1.839,39.172,29.768l-6.436,26.456-7.716,3.182" transform="translate(-262.956 -633.654)" fill="none" stroke="#666" stroke-width="1"/>
      <path id="path2939" d="M452.5,796.636l-6.541-5.48" transform="translate(-276.784 -651.68)" fill="none" stroke="#000" stroke-width="1"/>
      <path id="path2941" d="M453.486,790.71l-6.762-5.171" transform="translate(-277.02 -649.953)" fill="none" stroke="#000" stroke-width="1"/>
      <path id="path2943" d="M452.316,785.487l-6.231-4.287" transform="translate(-276.824 -648.619)" fill="none" stroke="#000" stroke-width="1"/>
      <path id="path2945" d="M370.267,859.336l8.544-3.807,4.483,5.252" transform="translate(-253.51 -671.475)" fill="none" stroke="#666" stroke-width="1"/>
      <path id="path2947" d="M381.5,820.514l-1.414-25.455c-.715-22.887,9.034-53.153,14.5-54.447" transform="translate(-256.516 -636.138)" fill="none" stroke="#666" stroke-width="1"/>
      <path id="path2949" d="M367.079,823.91l9.192-4.419,5.48,6.01" transform="translate(-252.529 -660.393)" fill="none" stroke="#666" stroke-width="1"/>
      <path id="path2951" d="M365.547,816.763l9.9-4.419,6.562,6.8" transform="translate(-252.058 -658.196)" fill="none" stroke="#666" stroke-width="1"/>
      <path id="path2951-3" d="M363.76,809.891l11.667-4.95,7.425,7.424" transform="translate(-251.508 -655.919)" fill="none" stroke="#666" stroke-width="1"/>
      <path id="path2951-6" d="M361.528,801.864l14.1-5.347,9.06,8.353" transform="translate(-250.822 -653.329)" fill="none" stroke="#666" stroke-width="1"/>
      <path id="path2951-6-2" d="M358.208,790.882l17.545-6.364,12.286,10.695" transform="translate(-249.801 -649.639)" fill="none" stroke="#666" stroke-width="1"/>
      <path id="path2951-6-0" d="M355.081,782.71l21.125-7.38,14.54,13.126" transform="translate(-248.84 -646.814)" fill="none" stroke="#666" stroke-width="1"/>
      <path id="path2951-6-5" d="M351.379,774.046l25.632-8.927,17.1,16.175" transform="translate(-247.702 -643.674)" fill="none" stroke="#666" stroke-width="1"/>
      <path id="path2951-6-9" d="M348.145,766.508l30.045-10.355L398.379,775" transform="translate(-246.707 -640.917)" fill="none" stroke="#666" stroke-width="1"/>
      <path id="path2951-6-4" d="M344.807,762.367l34.25-11.8,23.158,20.506" transform="translate(-245.68 -639.199)" fill="none" stroke="#666" stroke-width="1"/>
      <path id="path3042" d="M341.617,755.085,404.44,733.93" transform="translate(-244.699 -634.083)" fill="none" stroke="#666" stroke-width="1"/>
      <path id="path3042-8" d="M377.422,728.369l40.3,34.155" transform="translate(-255.71 -632.373)" fill="none" stroke="#666" stroke-width="1"/>
      <path id="path3092" d="M420.361,772.969c-12.14-16.61-39.03-28.422-41.292-28.32-7.766.349-18.236,3.225-24.1,5.549l-15.98,6.333" transform="translate(-243.891 -637.379)" fill="none" stroke="#666" stroke-width="1"/>
      <path id="path2927" d="M388.828,836.9l-.322-22.213c-.868-13.7,13.89-30.805,28.814-36.062,12.777-4.5,19.79,4.487,17.677,11.844L428.634,816.1l-6.894-5.126,6.187-24.041c1.116-3.681.368-6.43-.354-9.192" transform="translate(-259.107 -647.454)" fill="none" stroke="#000" stroke-width="1"/>
      <path id="path2904" d="M322.578,784.906,201.664,589.747,318,722.033" transform="translate(-201.664 -589.747)" fill="none" stroke="green" stroke-width="1"/>
      <path id="path2898" d="M317.258,721.378l49.559,216.871L353.527,762.1" transform="translate(-237.209 -630.223)" fill="none" stroke="blue" stroke-width="1"/>
      <path id="path2951-6-4-6" d="M403.673,743.916l23.125-7.925" transform="translate(-263.782 -634.717)" fill="none" stroke="#666" stroke-width="1"/>
      <path id="path2951-6-4-6-4" d="M410.195,746.6l22.5-7.3" transform="translate(-265.787 -635.734)" fill="none" stroke="#666" stroke-width="1"/>
      <path id="path2951-6-4-6-6" d="M417.594,751.236l20.625-7.425" transform="translate(-268.063 -637.122)" fill="none" stroke="#666" stroke-width="1"/>
      <path id="path2951-6-4-6-49" d="M424.815,755.721l18.375-6.675" transform="translate(-270.283 -638.732)" fill="none" stroke="#666" stroke-width="1"/>
      <path id="path2951-6-4-6-9" d="M434.382,762.885l14.875-5.175" transform="translate(-273.225 -641.396)" fill="none" stroke="#666" stroke-width="1"/>
      <path id="path2951-6-4-6-0" d="M442.323,769.771l10.875-4.3" transform="translate(-275.667 -643.782)" fill="none" stroke="#666" stroke-width="1"/>
      <path id="path2951-6-4-6-7" d="M450.628,776.352l5.5-1.675" transform="translate(-278.22 -646.613)" fill="none" stroke="#666" stroke-width="1"/>
      <path id="path2951-6-4-6-7-9" d="M454.327,781.073l2.625-.8" transform="translate(-279.358 -648.334)" fill="none" stroke="#666" stroke-width="1"/>
      <path id="path2951-6-4-6-7-8" d="M406.675,748.757l23.875,18.825" transform="translate(-264.705 -638.642)" fill="none" stroke="#666" stroke-width="1"/>
      <path id="path2951-6-4-6-7-0" d="M423.281,757.06l17.375,14.575" transform="translate(-269.811 -641.196)" fill="none" stroke="#666" stroke-width="1"/>
      <path id="path2951-6-4-6-7-0-0" d="M368.228,728.72l13.625,11.7" transform="translate(-252.882 -632.481)" fill="none" stroke="#666" stroke-width="1"/>
      <path id="path2951-6-4-6-7-0-2" d="M362.09,730.706l12.75,11.2" transform="translate(-250.995 -633.092)" fill="none" stroke="#666" stroke-width="1"/>
      <path id="path2951-6-4-6-7-0-5" d="M356.585,733.053l11.938,10.763" transform="translate(-249.302 -633.813)" fill="none" stroke="#666" stroke-width="1"/>
      <path id="path2951-6-4-6-7-0-5-6" d="M351.1,738.487l9.5,8.7" transform="translate(-247.614 -635.484)" fill="none" stroke="#666" stroke-width="1"/>
      <path id="path2951-6-4-6-7-0-5-6-2" d="M346.928,743.432l7.375,7.513" transform="translate(-246.333 -637.005)" fill="none" stroke="#666" stroke-width="1"/>
      <path id="path2951-6-4-6-7-0-51" d="M386.006,730.888l8.5,7.2" transform="translate(-258.349 -633.148)" fill="none" stroke="#666" stroke-width="1"/>
      <path id="path2951-6-4-6-7-0-5-6-2-2" d="M400.176,738.752l17-5.862" transform="translate(-262.706 -633.763)" fill="none" stroke="#666" stroke-width="1"/>
      <path id="path2900" d="M400.454,725.263l1.237-24.218m52.325,26.693L388.808,931.964l10.851-165.027" transform="translate(-259.211 -623.971)" fill="none" stroke="blue" stroke-width="1"/>
      <path id="path2894" d="M353.951,722.24,716.956,589.748,317.2,681.359" transform="translate(-237.19 -589.747)" fill="none" stroke="red" stroke-width="1"/>
      <path id="path2892" d="M339.137,740.521l-1.96.677m15.764-5.443-6.349,2.14m18.01,46.3L723.808,589.747,420.86,709.379" transform="translate(-243.334 -589.747)" fill="none" stroke="red" stroke-width="1"/>
      <path id="path2929" d="M358.9,831.394l-2.386-24.8c-1.567-15.553-13.209-44.6-20.152-44.547-4.763-.266-3.732,4.779-3.005,9.546l5.251,27.089,7.653-2.694-4.243-23.953c-.629-2.817-.079-3.617.309-5.3" transform="translate(-241.967 -642.727)" fill="none" stroke="#000" stroke-width="1"/>
    </g>
  </g>
</svg>
