<svg xmlns="http://www.w3.org/2000/svg" xmlns:xlink="http://www.w3.org/1999/xlink" width="1018" height="500" viewBox="0 0 1018 500">
  <defs>
    <style>
      .cls-1 {
        fill: none;
      }

      .cls-2 {
        isolation: isolate;
      }

      .cls-3 {
        fill: #e5ccae;
      }

      .cls-4 {
        fill: #4d5cb1;
      }

      .cls-5 {
        fill: #283559;
      }

      .cls-6 {
        fill: #7d8dee;
      }

      .cls-7 {
        fill: #fff;
      }

      .cls-11, .cls-29, .cls-8 {
        fill: #ceb49b;
      }

      .cls-9 {
        fill: #f4e3d0;
      }

      .cls-10 {
        fill: #fffdff;
      }

      .cls-11 {
        font-size: 11.61px;
        font-family: Montserrat-Bold, Montserrat;
        font-weight: 700;
        letter-spacing: 0.19em;
      }

      .cls-12 {
        letter-spacing: 0.2em;
      }

      .cls-13 {
        letter-spacing: 0.19em;
      }

      .cls-14 {
        letter-spacing: 0.19em;
      }

      .cls-15 {
        letter-spacing: 0.2em;
      }

      .cls-16 {
        fill: #ff5fa8;
      }

      .cls-17 {
        clip-path: url(#clip-path);
      }

      .cls-18 {
        fill: #ffeaaa;
      }

      .cls-19 {
        fill: #494949;
      }

      .cls-20 {
        clip-path: url(#clip-path-2);
      }

      .cls-21 {
        fill: #ffc60a;
      }

      .cls-22, .cls-30 {
        fill: #faf55b;
      }

      .cls-23 {
        clip-path: url(#clip-path-3);
      }

      .cls-24 {
        fill: #852149;
        opacity: 0.1;
      }

      .cls-24, .cls-28, .cls-29, .cls-30 {
        mix-blend-mode: multiply;
      }

      .cls-25, .cls-28 {
        fill: #273457;
      }

      .cls-26 {
        clip-path: url(#clip-path-4);
      }

      .cls-27 {
        clip-path: url(#clip-path-5);
      }

      .cls-28 {
        opacity: 0.6;
      }

      .cls-29 {
        opacity: 0.3;
      }
    </style>
    <clipPath id="clip-path">
      <polygon class="cls-1" points="513.82 409.77 563.46 420.69 513.77 431.4 513.82 409.77"/>
    </clipPath>
    <clipPath id="clip-path-2">
      <rect class="cls-1" x="369.46" y="285.1" width="22.26" height="270.37" transform="translate(-40.51 799.97) rotate(-89.88)"/>
    </clipPath>
    <clipPath id="clip-path-3">
      <path class="cls-1" d="M515.75,431.72V431l47.71-10.28L515.8,410.2v-.74l-270.37-.61h0c-9.22-.21-16.8,4.43-17,10.49s7.2,11.4,16.59,11.74c.13,0,.26,0,.39,0v0Z"/>
    </clipPath>
    <clipPath id="clip-path-4">
      <rect class="cls-1" x="717.94" y="333.65" width="115.9" height="20.82"/>
    </clipPath>
    <clipPath id="clip-path-5">
      <rect class="cls-1" x="711.88" y="295.43" width="115.9" height="20.82" transform="translate(-56.83 252.86) rotate(-18)"/>
    </clipPath>
  </defs>
  <g class="cls-2">
    <g id="OBJECTS">
      <g>
        <rect class="cls-3" width="1018" height="500"/>
        <g>
          <path class="cls-4" d="M282.8,229.12a58.9,58.9,0,0,0-12.64-1.23c-4.58,0-9.55.17-13.7-2-4.4-2.35-5.3-7.71-6.18-12.14a26,26,0,0,0-3.91-10.23c-3.67-5.29-10.21-10.74-17.09-9.71-4.22.63-6.59,3.8-8.83,7.12-3.14,4.66-9.37,4.18-14.2,3.09-6.68-1.5-13-5.16-19.71-1.64a13,13,0,0,0-5.17,5,12.71,12.71,0,0,0-2,5.76c-.31,4.42,1.52,8.47,2.9,12.57,1.5,4.46,2.95,10.94-.33,15-1.39,1.72-3.57,2.75-5.22,4.21a10.79,10.79,0,0,0-3.06,4.93c-1,3.15,0,6.56,1.5,9.36a24.37,24.37,0,0,0,16.5,12.07c4.56.91,9.66,1.1,13.21,4.48,3.4,3.23,3.54,8.81,3.73,13.16.35,8,.69,17,5.62,23.71,5.26,7.2,14,6.59,21.32,3,3.56-1.78,7.68-4.81,11.88-4.17,5.34.82,7.73,6.56,10.17,10.7,3.79,6.41,10.45,7.95,17.39,6.86a103.57,103.57,0,0,0,11.21-2.89c4.32-1.2,8.73-2.44,12.54-4.88a2.36,2.36,0,0,0,.41-.35,3.81,3.81,0,0,0,3.24-3.34,2,2,0,0,0,.38-.47c2.94-4.87,3.95-10.58,5.36-16,1.1-4.23,2.21-8.57,2-13a14.61,14.61,0,0,0-5.77-11c-3.94-3.06-9.29-4.07-12-8.61-2.42-4.05.27-8.86,2.09-12.55,1.94-3.94,3.53-8,3.38-12.46C297.56,235.11,290.05,230.81,282.8,229.12Z"/>
          <rect class="cls-5" x="249.47" y="188.3" width="1.55" height="163.51" transform="translate(-117.83 261.21) rotate(-45.8)"/>
          <g>
            <path class="cls-5" d="M215.51,273.86c11,3.54,24.16,3.79,33.41-4,1-.81-.44-2.15-1.39-1.35-8.7,7.29-21.33,6.74-31.55,3.43-1.19-.38-1.65,1.51-.47,1.89Z"/>
            <path class="cls-5" d="M251.17,235.75c3.62,10.21,4.24,23-2.83,31.95-.77,1,.62,2.34,1.39,1.35,7.51-9.49,7.19-22.89,3.32-33.82-.42-1.17-2.3-.66-1.88.52Z"/>
          </g>
          <g>
            <g>
              <path class="cls-5" d="M193.65,252.62c11,3.54,24.16,3.79,33.41-4,1-.81-.44-2.15-1.39-1.36-8.7,7.3-21.33,6.75-31.55,3.44-1.19-.38-1.65,1.51-.47,1.89Z"/>
              <path class="cls-5" d="M229.31,214.51c3.62,10.21,4.24,23-2.83,32-.77,1,.62,2.33,1.4,1.35,7.5-9.49,7.18-22.89,3.31-33.82-.42-1.17-2.29-.66-1.88.52Z"/>
            </g>
            <g>
              <path class="cls-5" d="M237.37,295.1c11,3.54,24.16,3.79,33.41-4,1-.81-.44-2.15-1.39-1.36-8.7,7.3-21.33,6.75-31.55,3.44-1.19-.38-1.66,1.51-.47,1.89Z"/>
              <path class="cls-5" d="M273,257c3.62,10.21,4.23,23-2.83,31.95-.77,1,.62,2.33,1.39,1.35,7.51-9.49,7.19-22.89,3.31-33.82-.41-1.17-2.29-.66-1.87.52Z"/>
            </g>
          </g>
        </g>
        <g>
          <path class="cls-6" d="M308.77,174.66a49.53,49.53,0,0,0-9.6-4.74c-3.59-1.4-7.57-2.71-10.18-5.69-2.77-3.16-1.88-7.66-1.26-11.41a21.76,21.76,0,0,0,0-9.23c-1.32-5.26-4.84-11.5-10.57-12.74-3.51-.76-6.33,1-9.08,3-3.86,2.73-8.63.49-12.11-1.8-4.82-3.18-8.69-7.93-15-7.16a10.93,10.93,0,0,0-5.58,2.43,10.78,10.78,0,0,0-3.27,3.95c-1.56,3.38-1.32,7.13-1.46,10.76-.14,4-.94,9.51-4.72,11.72-1.61.94-3.63,1.11-5.37,1.76a9.11,9.11,0,0,0-3.88,3c-1.71,2.18-1.94,5.17-1.61,7.82a20.56,20.56,0,0,0,9.41,14.42c3.33,2.08,7.29,3.74,9.08,7.47,1.71,3.56.16,8-1,11.48-2.11,6.42-4.51,13.58-2.63,20.35,2,7.25,9.09,9.38,15.91,8.69,3.34-.34,7.49-1.51,10.61.26,4,2.23,4.14,7.47,4.83,11.45,1.08,6.18,5.86,9.38,11.66,10.59a87.25,87.25,0,0,0,9.69,1.06c3.76.34,7.6.68,11.33-.11a2.41,2.41,0,0,0,.43-.15,3.36,3.36,0,0,0,2.06-.23,3.39,3.39,0,0,0,1.49-1.44,1.77,1.77,0,0,0,.44-.25c3.77-3,6.26-7.17,9-11,2.13-3,4.3-6.09,5.44-9.62a12.32,12.32,0,0,0-1.27-10.39c-2.19-3.58-6.1-6-6.89-10.36-.7-3.91,2.85-6.9,5.38-9.26,2.7-2.53,5.16-5.24,6.38-8.81C318.62,183.78,314,178.15,308.77,174.66Z"/>
          <rect class="cls-5" x="270.26" y="128.35" width="1.31" height="137.75" transform="translate(-58.09 133.6) rotate(-25.11)"/>
          <g>
            <path class="cls-5" d="M242.42,189.87c7.58,6,17.9,10.18,27.51,6.82,1-.35.29-1.82-.7-1.48-9,3.16-18.81-1-25.88-6.69-.83-.66-1.75.69-.93,1.35Z"/>
            <path class="cls-5" d="M281.87,170.46c-.19,9.13-3.52,19.4-11.75,24.33-.89.54-.21,2,.7,1.48,8.74-5.24,12.48-15.89,12.68-25.66,0-1.05-1.61-1.2-1.63-.15Z"/>
          </g>
          <g>
            <g>
              <path class="cls-5" d="M231.52,166.62c7.58,6.06,17.9,10.18,27.51,6.82,1-.34.29-1.82-.69-1.48-9,3.16-18.82-1-25.89-6.69-.83-.66-1.75.69-.93,1.35Z"/>
              <path class="cls-5" d="M271,147.21c-.19,9.13-3.52,19.4-11.75,24.33-.89.54-.21,2,.7,1.49,8.74-5.24,12.48-15.9,12.68-25.67,0-1.05-1.61-1.2-1.63-.15Z"/>
            </g>
            <g>
              <path class="cls-5" d="M253.32,213.12c7.58,6,17.9,10.18,27.51,6.82,1-.35.29-1.83-.7-1.48-9,3.16-18.81-1-25.88-6.69-.83-.66-1.76.69-.93,1.35Z"/>
              <path class="cls-5" d="M292.77,193.71c-.19,9.12-3.53,19.4-11.75,24.33-.9.54-.21,2,.69,1.48,8.75-5.24,12.48-15.89,12.69-25.66,0-1.05-1.61-1.2-1.63-.15Z"/>
            </g>
          </g>
        </g>
        <g>
          <path class="cls-5" d="M240.23,326.63c-10.66,1.4-21.46,5.52-28.93,13.49-5.84,6.22-6.5,14.27-5.93,22.34.34,4.78,2.32,9.24,4.14,13.59,2.15,5.16,5.12,10.85,3.27,15.19-2.72,6.38-18.13,9.3-23.07,4.35.83.83-.87,4.24,0,5.12,4.89,4.91,19,1.94,22.53-3.42,4-6.07,1-16.66-1.22-22.63-1.85-4.88-4.06-9.48-5.24-14.58-1.24-5.36,2.15-10.94,5.52-14.84,7-8.13,18.59-12.13,28.93-13.49.26,0-.18-5.1,0-5.12Z"/>
          <g>
            <path class="cls-5" d="M215.83,346.72a43,43,0,1,0,43-43A43,43,0,0,0,215.83,346.72Z"/>
            <path class="cls-7" d="M258.81,278.62a68.1,68.1,0,1,0,68.09,68.1A68.09,68.09,0,0,0,258.81,278.62Zm20.53,27.86a13.94,13.94,0,1,1,0,19.71A13.94,13.94,0,0,1,279.34,306.48Zm-77.45,40.24a13.94,13.94,0,1,1,13.94,13.94A13.94,13.94,0,0,1,201.89,346.72ZM238.27,387a13.94,13.94,0,1,1,0-19.71A13.94,13.94,0,0,1,238.27,387Zm0-60.78a13.94,13.94,0,1,1,0-19.71A13.94,13.94,0,0,1,238.27,326.19Zm20.54,77.45a13.94,13.94,0,1,1,13.93-13.94A13.94,13.94,0,0,1,258.81,403.64Zm0-86a13.94,13.94,0,1,1,13.93-13.94A13.94,13.94,0,0,1,258.81,317.68ZM299.05,387a13.94,13.94,0,1,1,0-19.71A13.94,13.94,0,0,1,299.05,387Zm2.73-26.31a13.94,13.94,0,1,1,13.94-13.94A13.94,13.94,0,0,1,301.78,360.66Z"/>
            <path class="cls-5" d="M267,346.72a8.16,8.16,0,1,1-8.15-8.16A8.15,8.15,0,0,1,267,346.72Z"/>
            <path class="cls-5" d="M261.34,332.38a2.53,2.53,0,1,1-2.53-2.53A2.53,2.53,0,0,1,261.34,332.38Z"/>
            <path class="cls-5" d="M250.11,335.28a2.53,2.53,0,1,1-3.58,0A2.53,2.53,0,0,1,250.11,335.28Z"/>
            <path class="cls-5" d="M244.22,345.27a2.53,2.53,0,1,1-2.53,2.53A2.53,2.53,0,0,1,244.22,345.27Z"/>
            <path class="cls-5" d="M247.11,356.5a2.53,2.53,0,1,1,0,3.57A2.53,2.53,0,0,1,247.11,356.5Z"/>
            <path class="cls-5" d="M257.1,362.39a2.53,2.53,0,1,1,2.53,2.53A2.53,2.53,0,0,1,257.1,362.39Z"/>
            <path class="cls-5" d="M268.33,359.49a2.53,2.53,0,1,1,3.58,0A2.53,2.53,0,0,1,268.33,359.49Z"/>
            <path class="cls-5" d="M274.22,349.5a2.53,2.53,0,1,1,2.53-2.53A2.53,2.53,0,0,1,274.22,349.5Z"/>
            <path class="cls-5" d="M271.32,338.27a2.53,2.53,0,1,1,0-3.58A2.52,2.52,0,0,1,271.32,338.27Z"/>
          </g>
        </g>
        <g>
          <path class="cls-4" d="M748.05,191.42a52.9,52.9,0,0,1,11.5-1.12c4.16-.05,8.68.15,12.46-1.87,4-2.13,4.82-7,5.62-11a23.55,23.55,0,0,1,3.56-9.31c3.33-4.81,9.28-9.77,15.53-8.83,3.84.57,6,3.46,8,6.48,2.86,4.24,8.53,3.79,12.92,2.8,6.07-1.36,11.8-4.68,17.92-1.48a11.85,11.85,0,0,1,4.71,4.58,11.54,11.54,0,0,1,1.78,5.24c.29,4-1.38,7.7-2.63,11.42-1.37,4.06-2.68,10,.29,13.63,1.27,1.57,3.25,2.51,4.75,3.83a9.88,9.88,0,0,1,2.79,4.49c.88,2.86,0,6-1.36,8.51a22.2,22.2,0,0,1-15,11c-4.14.82-8.78,1-12,4.07s-3.22,8-3.39,12c-.32,7.28-.63,15.43-5.11,21.56-4.79,6.55-12.77,6-19.39,2.69-3.24-1.62-7-4.38-10.81-3.79-4.85.75-7,6-9.25,9.72-3.45,5.84-9.5,7.24-15.81,6.24A89.62,89.62,0,0,1,745,279.57c-3.94-1.08-7.94-2.21-11.4-4.43a2,2,0,0,1-.38-.32,3.46,3.46,0,0,1-2.95-3,1.85,1.85,0,0,1-.34-.43c-2.67-4.43-3.59-9.62-4.88-14.56-1-3.84-2-7.79-1.81-11.79a13.29,13.29,0,0,1,5.25-10c3.58-2.78,8.44-3.7,10.91-7.83,2.2-3.68-.24-8.06-1.89-11.41-1.77-3.58-3.22-7.26-3.08-11.33C734.63,196.87,741.46,193,748.05,191.42Z"/>
          <rect class="cls-5" x="703.32" y="227.94" width="148.69" height="1.41" transform="translate(60.58 606.56) rotate(-44.17)"/>
          <g>
            <path class="cls-5" d="M809.25,232.1c-10,3.22-22,3.45-30.39-3.61-.87-.73.41-2,1.27-1.23,7.91,6.64,19.39,6.13,28.69,3.13,1.09-.35,1.51,1.36.43,1.71Z"/>
            <path class="cls-5" d="M776.82,197.45c-3.29,9.28-3.85,20.93,2.57,29.05.7.88-.56,2.12-1.27,1.23-6.82-8.63-6.53-20.82-3-30.76.38-1.06,2.08-.6,1.7.48Z"/>
          </g>
          <g>
            <g>
              <path class="cls-5" d="M829.12,212.79c-10,3.22-22,3.44-30.38-3.62-.87-.73.4-1.95,1.27-1.23,7.91,6.64,19.39,6.14,28.69,3.13,1.08-.35,1.5,1.37.42,1.72Z"/>
              <path class="cls-5" d="M796.7,178.13c-3.3,9.29-3.85,20.94,2.57,29.05.7.89-.56,2.13-1.27,1.23-6.82-8.62-6.53-20.81-3-30.75.38-1.07,2.09-.6,1.71.47Z"/>
            </g>
            <g>
              <path class="cls-5" d="M789.37,251.41c-10,3.22-22,3.45-30.38-3.61-.88-.73.4-2,1.26-1.23,7.92,6.64,19.4,6.14,28.69,3.13,1.09-.35,1.51,1.37.43,1.71Z"/>
              <path class="cls-5" d="M756.94,216.76c-3.29,9.29-3.85,20.93,2.57,29.05.7.89-.56,2.13-1.26,1.23-6.83-8.63-6.54-20.81-3-30.75.38-1.07,2.08-.6,1.7.47Z"/>
            </g>
          </g>
        </g>
        <g>
          <path class="cls-6" d="M786.71,184.5A49.13,49.13,0,0,0,784.92,174c-1-3.73-2.26-7.72-1.37-11.59.93-4.09,5.09-6,8.49-7.71a21.74,21.74,0,0,0,7.45-5.44c3.49-4.16,6.47-10.68,4.11-16-1.45-3.29-4.55-4.52-7.75-5.6-4.48-1.52-5.47-6.69-5.65-10.86-.26-5.76,1.31-11.69-3-16.38a10.94,10.94,0,0,0-5.24-3.09,10.62,10.62,0,0,0-5.11-.32c-3.66.72-6.56,3.11-9.58,5.14-3.29,2.21-8.24,4.82-12.25,3-1.71-.75-3-2.29-4.58-3.3a9,9,0,0,0-4.69-1.4c-2.77-.1-5.33,1.47-7.27,3.29a20.51,20.51,0,0,0-6.16,16.09c.27,3.91,1.25,8.09-.71,11.72s-6.38,4.83-9.88,6c-6.43,2.06-13.63,4.32-18,9.82-4.69,5.87-2.25,12.87,2.32,18,2.23,2.5,5.61,5.18,6,8.74.51,4.52-3.62,7.73-6.44,10.64-4.37,4.5-4.15,10.25-1.72,15.64a84.54,84.54,0,0,0,4.83,8.48c1.93,3.25,3.91,6.55,6.74,9.1a1.67,1.67,0,0,0,.37.26,3.26,3.26,0,0,0,1.4,1.53,3.38,3.38,0,0,0,2,.37,1.62,1.62,0,0,0,.46.21c4.62,1.3,9.48.86,14.2.8,3.68,0,7.45-.1,11-1.25a12.31,12.31,0,0,0,7.66-7.13c1.62-3.87,1.25-8.44,4.34-11.66,2.75-2.86,7.26-1.74,10.66-1.09,3.63.71,7.27,1.11,10.88,0C785.12,197.83,787,190.77,786.71,184.5Z"/>
          <rect class="cls-5" x="677.36" y="166.45" width="137.75" height="1.31" transform="translate(239.14 739.51) rotate(-61.08)"/>
          <g>
            <path class="cls-5" d="M735.45,139.72c-.45,9.7,2.26,20.48,10.63,26.28.86.6,1.64-.84.79-1.43-7.86-5.46-10.21-15.84-9.79-24.89,0-1.05-1.58-1-1.63,0Z"/>
            <path class="cls-5" d="M774.32,160.26c-7.5,5.21-17.77,8.54-26.59,4.78-1-.41-1.77,1-.8,1.43,9.38,4,20.2.77,28.23-4.8.86-.6,0-2-.84-1.41Z"/>
          </g>
          <g>
            <g>
              <path class="cls-5" d="M747.87,117.25c-.45,9.69,2.27,20.47,10.63,26.28.86.6,1.64-.84.79-1.44-7.86-5.45-10.21-15.84-9.79-24.88,0-1-1.58-1-1.63,0Z"/>
              <path class="cls-5" d="M786.74,137.79c-7.5,5.21-17.77,8.54-26.59,4.78-1-.41-1.77,1-.8,1.43,9.38,4,20.2.77,28.23-4.8.86-.6,0-2-.84-1.41Z"/>
            </g>
            <g>
              <path class="cls-5" d="M723,162.19c-.45,9.7,2.26,20.48,10.63,26.28.86.6,1.64-.84.79-1.43-7.86-5.46-10.21-15.84-9.79-24.88.05-1.06-1.58-1-1.63,0Z"/>
              <path class="cls-5" d="M761.9,182.74c-7.5,5.2-17.77,8.54-26.6,4.77-1-.41-1.76,1-.79,1.43,9.38,4,20.2.77,28.23-4.8.86-.6,0-2-.84-1.4Z"/>
            </g>
          </g>
        </g>
        <g>
          <g>
            <rect class="cls-8" x="286.84" y="98.55" width="468.1" height="311.42"/>
            <rect class="cls-9" x="286.84" y="92.88" width="468.1" height="311.42"/>
            <g>
              <rect class="cls-10" x="286.84" y="81.41" width="468.1" height="311.42"/>
              <g>
                <g>
                  <g>
                    <path class="cls-8" d="M313.05,201.5h87.86V143H313.05Zm89.86,2H311.05V141h91.86Z"/>
                    <path class="cls-8" d="M313.05,134.42h87.86v-6.58H313.05Zm89.86,2H311.05V125.84h91.86Z"/>
                    <rect class="cls-8" x="312.05" y="209.41" width="89.85" height="8.58"/>
                    <rect class="cls-8" x="312.05" y="229.14" width="89.85" height="2"/>
                    <rect class="cls-8" x="312.05" y="238.2" width="89.85" height="2"/>
                  </g>
                  <g>
                    <path class="cls-8" d="M422.32,201.5h87.86V143H422.32Zm89.86,2H420.32V141h91.86Z"/>
                    <path class="cls-8" d="M422.32,134.42h87.86v-6.58H422.32Zm89.86,2H420.32V125.84h91.86Z"/>
                    <rect class="cls-8" x="421.32" y="209.41" width="89.85" height="8.58"/>
                    <rect class="cls-8" x="421.32" y="229.14" width="89.85" height="2"/>
                    <rect class="cls-8" x="421.32" y="238.2" width="89.85" height="2"/>
                  </g>
                  <g>
                    <path class="cls-8" d="M531.59,201.5h87.86V143H531.59Zm89.86,2H529.59V141h91.86Z"/>
                    <path class="cls-8" d="M531.59,134.42h87.86v-6.58H531.59Zm89.86,2H529.59V125.84h91.86Z"/>
                    <rect class="cls-8" x="530.59" y="209.41" width="89.85" height="8.58"/>
                    <rect class="cls-8" x="530.59" y="229.14" width="89.85" height="2"/>
                    <rect class="cls-8" x="530.59" y="238.2" width="89.85" height="2"/>
                  </g>
                  <g>
                    <path class="cls-8" d="M640.86,201.5h87.86V143H640.86Zm89.86,2H638.86V141h91.86Z"/>
                    <path class="cls-8" d="M640.86,134.42h87.86v-6.58H640.86Zm89.86,2H638.86V125.84h91.86Z"/>
                    <rect class="cls-8" x="639.86" y="209.41" width="89.85" height="8.58"/>
                    <rect class="cls-8" x="639.86" y="229.14" width="89.85" height="2"/>
                    <rect class="cls-8" x="639.86" y="238.2" width="89.85" height="2"/>
                  </g>
                </g>
                <g>
                  <g>
                    <path class="cls-8" d="M313.05,336.81h87.86V278.28H313.05Zm89.86,2H311.05V276.28h91.86Z"/>
                    <path class="cls-8" d="M313.05,269.72h87.86v-6.58H313.05Zm89.86,2H311.05V261.14h91.86Z"/>
                    <rect class="cls-8" x="312.05" y="344.72" width="89.85" height="8.58"/>
                    <rect class="cls-8" x="312.05" y="364.44" width="89.85" height="2"/>
                    <rect class="cls-8" x="312.05" y="373.5" width="89.85" height="2"/>
                  </g>
                  <g>
                    <path class="cls-8" d="M422.32,336.81h87.86V278.28H422.32Zm89.86,2H420.32V276.28h91.86Z"/>
                    <path class="cls-8" d="M422.32,269.72h87.86v-6.58H422.32Zm89.86,2H420.32V261.14h91.86Z"/>
                    <rect class="cls-8" x="421.32" y="344.72" width="89.85" height="8.58"/>
                    <rect class="cls-8" x="421.32" y="364.44" width="89.85" height="2"/>
                    <rect class="cls-8" x="421.32" y="373.5" width="89.85" height="2"/>
                  </g>
                  <g>
                    <path class="cls-8" d="M531.59,336.81h87.86V278.28H531.59Zm89.86,2H529.59V276.28h91.86Z"/>
                    <path class="cls-8" d="M531.59,269.72h87.86v-6.58H531.59Zm89.86,2H529.59V261.14h91.86Z"/>
                    <rect class="cls-8" x="530.59" y="344.72" width="89.85" height="8.58"/>
                    <rect class="cls-8" x="530.59" y="364.44" width="89.85" height="2"/>
                    <rect class="cls-8" x="530.59" y="373.5" width="89.85" height="2"/>
                  </g>
                  <g>
                    <path class="cls-8" d="M640.86,336.81h87.86V278.28H640.86Zm89.86,2H638.86V276.28h91.86Z"/>
                    <path class="cls-8" d="M640.86,269.72h87.86v-6.58H640.86Zm89.86,2H638.86V261.14h91.86Z"/>
                    <rect class="cls-8" x="639.86" y="344.72" width="89.85" height="8.58"/>
                    <rect class="cls-8" x="639.86" y="364.44" width="89.85" height="2"/>
                    <rect class="cls-8" x="639.86" y="373.5" width="89.85" height="2"/>
                  </g>
                </g>
              </g>
            </g>
          </g>
          <text class="cls-11" transform="translate(466.34 110.4)">ST<tspan class="cls-12" x="18.99" y="0">O</tspan><tspan x="31.1" y="0">R</tspan><tspan class="cls-13" x="41.84" y="0">Y</tspan><tspan class="cls-12" x="51.92" y="0">B</tspan><tspan class="cls-14" x="63.12" y="0">O</tspan><tspan class="cls-15" x="75.12" y="0">ARD</tspan></text>
        </g>
        <g>
          <ellipse class="cls-8" cx="395.93" cy="431.72" rx="196.31" ry="7.42"/>
          <g>
            <g>
              <path class="cls-16" d="M245,431.09c-9.39-.34-16.82-5.6-16.59-11.74s8-10.84,17.41-10.49,16.82,5.61,16.59,11.74S254.38,431.44,245,431.09Z"/>
              <g class="cls-17">
                <polygon class="cls-18" points="513.82 409.77 563.46 420.69 513.77 431.4 513.82 409.77"/>
                <rect class="cls-19" x="521.55" y="406.35" width="75.95" height="26.31" transform="translate(138.78 978.1) rotate(-89.87)"/>
              </g>
              <g class="cls-20">
                <rect class="cls-21" x="369.46" y="285.1" width="22.26" height="270.37" transform="translate(-40.51 799.97) rotate(-89.88)"/>
                <rect class="cls-22" x="369.49" y="268.99" width="22.26" height="270.37" transform="translate(-24.4 783.91) rotate(-89.87)"/>
              </g>
            </g>
            <g class="cls-23">
              <rect class="cls-24" x="284.54" y="319.42" width="211.35" height="413.13" transform="translate(-136.65 915.01) rotate(-89.87)"/>
            </g>
          </g>
        </g>
        <g>
          <ellipse class="cls-8" cx="772.67" cy="421.14" rx="79.91" ry="7.42"/>
          <g>
            <g>
              <rect class="cls-25" x="717.76" y="333.65" width="108.38" height="86.58"/>
              <rect class="cls-7" x="726.5" y="382.18" width="90.9" height="3"/>
              <rect class="cls-7" x="726.5" y="400.76" width="90.9" height="3"/>
            </g>
            <g>
              <rect class="cls-25" x="717.94" y="333.65" width="115.9" height="20.82"/>
              <g class="cls-26">
                <g>
                  <polygon class="cls-7" points="874.99 354.91 855.08 354.91 870.35 333.21 890.26 333.21 874.99 354.91"/>
                  <polygon class="cls-7" points="836.15 354.91 816.24 354.91 831.5 333.21 851.42 333.21 836.15 354.91"/>
                  <polygon class="cls-7" points="797.31 354.91 777.4 354.91 792.66 333.21 812.58 333.21 797.31 354.91"/>
                  <polygon class="cls-7" points="758.47 354.91 738.56 354.91 753.82 333.21 773.74 333.21 758.47 354.91"/>
                  <polygon class="cls-7" points="719.63 354.91 699.72 354.91 714.98 333.21 734.9 333.21 719.63 354.91"/>
                  <polygon class="cls-7" points="680.79 354.91 660.88 354.91 676.14 333.21 696.06 333.21 680.79 354.91"/>
                  <polygon class="cls-7" points="641.95 354.91 622.03 354.91 637.3 333.21 657.22 333.21 641.95 354.91"/>
                </g>
              </g>
            </g>
            <g>
              <rect class="cls-25" x="711.88" y="295.43" width="115.9" height="20.82" transform="translate(-56.83 252.86) rotate(-18)"/>
              <g class="cls-27">
                <g>
                  <polygon class="cls-7" points="678.93 346.78 697.87 340.63 676.65 324.71 657.71 330.87 678.93 346.78"/>
                  <polygon class="cls-7" points="715.87 334.78 734.81 328.63 713.59 312.71 694.65 318.87 715.87 334.78"/>
                  <polygon class="cls-7" points="752.81 322.78 771.75 316.63 750.53 300.71 731.59 306.86 752.81 322.78"/>
                  <polygon class="cls-7" points="789.75 310.78 808.69 304.62 787.47 288.71 768.53 294.86 789.75 310.78"/>
                  <polygon class="cls-7" points="826.69 298.77 845.63 292.62 824.41 276.7 805.47 282.86 826.69 298.77"/>
                  <polygon class="cls-7" points="863.63 286.77 882.57 280.62 861.35 264.7 842.41 270.86 863.63 286.77"/>
                  <polygon class="cls-7" points="900.57 274.77 919.51 268.62 898.29 252.7 879.35 258.86 900.57 274.77"/>
                </g>
              </g>
            </g>
            <rect class="cls-28" x="717.76" y="354.46" width="108.38" height="7.87"/>
          </g>
        </g>
        <g>
          <g>
            <path class="cls-6" d="M395.93,212.7a21.15,21.15,0,1,1,21.15-21.14A21.17,21.17,0,0,1,395.93,212.7Zm0-41.29a20.15,20.15,0,1,0,20.15,20.15A20.17,20.17,0,0,0,395.93,171.41Z"/>
            <g>
              <rect class="cls-6" x="394.71" y="168.32" width="1" height="46.47" transform="translate(-13.67 351.87) rotate(-47.27)"/>
              <rect class="cls-6" x="373.41" y="191.06" width="46.47" height="1" transform="translate(-24.66 320.09) rotate(-42.74)"/>
            </g>
          </g>
          <g>
            <path class="cls-6" d="M614.93,347.63a21.15,21.15,0,1,1,21.15-21.14A21.16,21.16,0,0,1,614.93,347.63Zm0-41.29a20.15,20.15,0,1,0,20.15,20.15A20.17,20.17,0,0,0,614.93,306.34Z"/>
            <g>
              <rect class="cls-6" x="613.72" y="303.25" width="1" height="46.47" transform="translate(-42.39 556.11) rotate(-47.27)"/>
              <rect class="cls-6" x="592.41" y="325.99" width="46.47" height="1" transform="translate(-58.2 504.09) rotate(-42.7)"/>
            </g>
          </g>
        </g>
        <g>
          <g>
            <rect class="cls-29" x="654" y="99.08" width="87.09" height="85.99"/>
            <g>
              <rect class="cls-22" x="654.23" y="93.59" width="87.08" height="85.99"/>
              <rect class="cls-30" x="654.23" y="93.59" width="87.08" height="13.66"/>
            </g>
          </g>
          <path class="cls-5" d="M670.94,129.3a9.36,9.36,0,0,0,3.59.69c1.55.07,3.1,0,4.65-.06,3.5-.13,7,.13,10.48,0a49.43,49.43,0,0,1,6.44,0c2.17.17,4.31.7,6.47,1a58.38,58.38,0,0,0,6.33.72,47.66,47.66,0,0,0,6.09-.27,47.27,47.27,0,0,1,6.18-.28c.5,0,1-.08,1.51-.09s1,0,1.5,0a5.63,5.63,0,0,0,2.68-.57c.57-.3.06-1.16-.51-.86a4.84,4.84,0,0,1-2.44.42c-.88,0-1.78.1-2.66.08a48.12,48.12,0,0,0-5.23.19c-2,.17-4,.42-6,.39a47,47,0,0,1-6.15-.55c-2.08-.31-4.13-.77-6.21-1.07a35.26,35.26,0,0,0-6.25-.21c-2.12.09-4.24.25-6.36.19-1.44-.05-2.86-.16-4.31-.11-1.72.05-3.43.15-5.15.13a10,10,0,0,1-4.14-.57c-.58-.28-1.09.58-.51.86Z"/>
          <path class="cls-5" d="M664.41,141.12c3.57,1.37,7.44,1,11.14.52a39,39,0,0,1,5.8-.68c2.1,0,4.2.18,6.3.38,3.86.37,7.71,1,11.59,1.12,3.59.11,7.18.41,10.78.54a47.44,47.44,0,0,0,11.6-.64c.63-.14.36-1.1-.27-1a43.3,43.3,0,0,1-10.17.65c-3.6-.1-7.19-.39-10.78-.54-1.76-.08-3.5-.15-5.25-.34-2-.21-3.93-.45-5.89-.66s-4.06-.4-6.09-.49a18.78,18.78,0,0,0-3,0c-.9.11-1.8.24-2.7.37-4.22.62-8.69,1.37-12.79-.2-.6-.24-.86.73-.27,1Z"/>
          <path class="cls-5" d="M699.39,171.91c2.8,0,5.24-2,7.08-3.93a22.08,22.08,0,0,0,4.67-7.19l-1-.27a13.29,13.29,0,0,0-.61,3.85,4.67,4.67,0,0,0,1.18,2.86,5,5,0,0,0,3.71,1.8c2.92,0,5.43-1.92,8.16-2.67a4,4,0,0,1,4.07.79.5.5,0,0,0,.71,0,5.76,5.76,0,0,0,1.1-1.64l-.79.11c.74.69,1.87,1.23,2.76.51.5-.41-.21-1.11-.71-.71s-1.09-.27-1.34-.51a.5.5,0,0,0-.78.1,5.17,5.17,0,0,1-.95,1.43h.71c-2.14-2.08-4.91-1.24-7.33-.2-2.23.95-5.21,2.72-7.57,1.21a4.22,4.22,0,0,1-1.82-2.35,9.06,9.06,0,0,1,.46-4.31.5.5,0,0,0-1-.27,21,21,0,0,1-4.3,6.63c-1.66,1.78-3.91,3.72-6.49,3.76a.5.5,0,0,0,0,1Z"/>
        </g>
      </g>
    </g>
  </g>
</svg>
