<svg xmlns="http://www.w3.org/2000/svg" width="1024" height="500" viewBox="0 0 1024 500">
  <defs>
    <style>
      .cls-1 {
        fill: #eedecf;
      }

      .cls-2 {
        fill: #dbb3a7;
      }

      .cls-3 {
        fill: #f29a25;
      }

      .cls-4 {
        fill: #4b284c;
      }

      .cls-5 {
        fill: #fff;
      }

      .cls-6 {
        fill: #f9ede4;
      }

      .cls-7 {
        fill: #d85b6b;
      }

      .cls-8 {
        fill: #c43b52;
      }

      .cls-9 {
        fill: #f2e8e2;
      }

      .cls-10 {
        fill: #d1b6ac;
      }

      .cls-11 {
        fill: #f9f3ef;
      }

      .cls-12 {
        fill: #dbc6bd;
      }

      .cls-13 {
        fill: #e89285;
      }

      .cls-14 {
        fill: #ffb9a9;
      }

      .cls-15 {
        fill: #e27d69;
      }

      .cls-16 {
        fill: #ffb74d;
      }

      .cls-17 {
        fill: #e0bdaf;
      }

      .cls-18 {
        fill: #e8d7cf;
      }

      .cls-19 {
        fill: #bf4358;
      }

      .cls-20 {
        fill: #7278c1;
      }

      .cls-21 {
        fill: #7c5161;
      }

      .cls-22 {
        fill: #633545;
      }
    </style>
  </defs>
  <g id="BACKGROUND">
    <g>
      <rect class="cls-1" width="1024" height="500"/>
      <g>
        <path class="cls-2" d="M722,46c-75.56,6.08-153.69,12.37-229.88,7.28-8.09-.54-18.13-3-22.35-7.18A5.79,5.79,0,0,1,468,40a14.23,14.23,0,0,1,3.32-4.84c1.57-1.74,3.19-3.54,3.55-5.64A5.8,5.8,0,0,0,472.62,24c-4.11-3.68-12.8-5.42-19.55-5.82C352.66,12.27,252.2,28.42,155,44,104.3,52.19,52.26,60.55,0,65.83v.5c52.32-5.28,104.4-13.65,155.19-21.81C252.3,28.91,352.71,12.77,453,18.69c6.62.39,15.1,2.08,19.08,5.63a5.42,5.42,0,0,1,2.06,5.14c-.34,2-1.85,3.65-3.44,5.43a14.65,14.65,0,0,0-3.42,5c-.74,2.36-.1,4.55,1.88,6.53,4.63,4.63,15.2,6.87,22.84,7.38,76.26,5.1,154.43-1.19,230-7.27,97.24-7.83,197.78-15.92,294,.5l.16-.48C919.86,30.1,819.25,38.2,722,46Z"/>
        <path class="cls-2" d="M1016,203.86C946.38,207.7,876.51,218.93,809,229.78c-97.12,15.61-197.54,31.75-297.84,25.83C504.5,255.22,496,253.54,492,250a5.4,5.4,0,0,1-2.06-5.13c.34-2,1.85-3.66,3.44-5.43a14.69,14.69,0,0,0,3.42-5,6.19,6.19,0,0,0-1.88-6.53c-4.64-4.63-15.2-6.87-22.84-7.38-76.26-5.1-154.43,1.2-230,7.28-79.89,6.43-162,13-242.1,6.07v.5c80.14,7,162.27.35,242.17-6.08,75.56-6.08,153.69-12.37,229.89-7.27,8.09.54,18.13,3,22.34,7.17a5.8,5.8,0,0,1,1.77,6.13c-.54,1.75-2,3.32-3.32,4.85-1.57,1.74-3.19,3.54-3.55,5.63a5.82,5.82,0,0,0,2.21,5.52c4.11,3.68,12.8,5.41,19.55,5.81,14.56.86,29.1,1.25,43.66,1.25,85.8,0,171.3-13.74,254.37-27.09,67.55-10.85,137.39-22.08,207-25.91Z"/>
        <path class="cls-2" d="M484.41,102.54C467.18,87.82,434,87.34,409.79,87l-1.72,0c-32.41-.49-64,1.37-99.06,3.66-36.66,2.39-73.68,5.91-110,10.45A1815.27,1815.27,0,0,0,0,137.21v.52a1817.3,1817.3,0,0,1,199.1-36.16c36.33-4.54,73.33-8,110-10.45,35-2.28,66.59-4.13,99-3.66l1.73,0c24.09.35,57.07.83,74.11,15.37,2.84,2.43,5.84,6.2,4,10.43-1.06,2.39-3.27,4.66-7,7.13-10.43,7-24.11,10.67-37.33,14.23L438.63,136c-16.07,4.42-33.47,8.53-51.7,12.21-67.21,13.6-141.53,20.32-220.85,20-1,0-2.29,0-3.87,0-12.63.14-42.22.46-48.31-7.11-1.81-2.23-1.37-5.05,1.3-8.37,5.39-6.72,15.86-11.39,21.62-13.57,62.07-23.55,131.44-37.25,200.62-39.63,2.77-.1,5.59-.23,8.57-.36,12.86-.59,27.45-1.25,39.48.92,6.46,1.16,10.81,3.89,12.25,7.67,1.58,4.16-.61,8.91-5.87,12.7-5,3.58-11.51,5.86-17.27,7.61-42.58,13-89.36,20.22-147.23,22.84-8.2.37-18.37-.36-20.2-6-1.66-5.09,5.75-9.39,10.32-11.49a183.76,183.76,0,0,1,52.41-14.88l-.13-.49a184.7,184.7,0,0,0-52.65,15c-4.72,2.18-12.37,6.63-10.62,12,1.54,4.72,8.77,6.92,20.92,6.37,57.94-2.62,104.79-9.89,147.45-22.88,5.82-1.77,12.44-4.07,17.49-7.71,5.43-3.93,7.69-8.86,6-13.19-1.51-4-6-6.82-12.74-8-12.14-2.18-26.78-1.52-39.69-.93-3,.14-5.8.26-8.56.36-69.28,2.38-138.75,16.1-200.9,39.68-5.83,2.21-16.42,6.94-21.91,13.77-2.8,3.48-3.23,6.47-1.3,8.88,5.33,6.61,27.54,7.4,42,7.4,2.62,0,5,0,6.94-.05l3.86,0c79.36.36,153.76-6.37,221-20,18.25-3.69,35.66-7.8,51.75-12.22l4.94-1.34c13.28-3.58,27-7.29,37.55-14.33,3.79-2.54,6.06-4.87,7.16-7.35C490.48,109,487.37,105.06,484.41,102.54Z"/>
        <path class="cls-2" d="M597.84,357.06c-15.31,0-39-.63-42.61-6.1-1.05-1.6-.36-3.48,2-5.61,5.49-4.86,16.08-8.23,21.91-9.8,62.14-16.76,131.6-26.51,200.87-28.2,2.76-.07,5.63-.16,8.57-.26,12.9-.42,27.53-.89,39.65.66,7.33.94,12.1,3.33,13.1,6.56.9,2.95-1.43,6.11-6.42,8.67s-11.67,4.23-17.48,5.48c-42.65,9.23-89.49,14.4-147.43,16.27-12.29.39-19.33-1.14-20.9-4.57-1.79-3.91,5.91-7.1,10.66-8.66a244.76,244.76,0,0,1,52.62-10.62l.09.49A243.73,243.73,0,0,0,660.09,332c-4.54,1.48-11.91,4.51-10.29,8.05,1.44,3.14,8.44,4.59,20.22,4.22,57.88-1.86,104.67-7,147.26-16.24,5.76-1.25,12.32-2.87,17.28-5.41,4.75-2.44,7-5.42,6.14-8.16-.93-3-5.5-5.27-12.54-6.18-12-1.54-26.63-1.07-39.5-.65-2.94.09-5.81.19-8.58.25-69.19,1.7-138.58,11.44-200.65,28.18-5.76,1.55-16.23,4.87-21.62,9.64-2.23,2-2.88,3.68-2,5.08,4,6.13,36.71,5.88,49,5.79,1.58,0,2.89,0,3.87,0,79.37.23,153.65-4.53,220.88-14.19,18.25-2.63,35.65-5.55,51.71-8.69l4.93-.95c13.23-2.53,26.91-5.16,37.35-10.12,3.68-1.75,5.88-3.35,6.93-5,1.82-2.94-1.14-5.59-3.94-7.29-17.05-10.34-50.06-10.68-74.16-10.93l-1.72,0c-32.41-.34-64,1-99,2.6-36.65,1.71-73.65,4.2-110,7.43-72.84,6.47-145.08,16-214.7,28.42l-.16-.48c69.64-12.4,141.91-22,214.78-28.44,36.33-3.22,73.35-5.72,110-7.42,35-1.63,66.6-2.95,99-2.61l1.72,0c24.2.25,57.35.59,74.59,11.05,3,1.81,6.13,4.65,4.12,7.88-1.1,1.77-3.38,3.44-7.18,5.25-10.53,5-24.27,7.64-37.55,10.18l-4.93.95c-16.07,3.14-33.48,6.07-51.75,8.69-67.27,9.68-141.6,14.44-221,14.21h-3.86C602.87,357,600.48,357.06,597.84,357.06Z"/>
        <path class="cls-2" d="M1024,144.24c-36.56,14.7-76.46,25.87-118.8,33.24-22.36,3.89-45.79,6.78-69.64,8.59-3.77.29-7.87.69-12.22,1.12-17.86,1.75-40.08,3.93-55.12-.72-2.71-.84-4.74-2.16-5.71-3.72-1.2-1.93-.89-4.47.83-6.79,8.1-10.88,28-13.65,45.55-16.09,4.41-.61,8.57-1.19,12.35-1.87l.71-.13c20.44-3.69,41.58-7.5,60-14.86,5.08-2,20.56-8.2,16.56-16.94s-34.31-9.52-87.75-2.45l-.26,0c-30.58,4-62.07,11.54-96.28,22.93-33.56,11.17-66.08,24.79-97.53,38-19.39,8.13-39.44,16.53-59.53,24.27a1185.91,1185.91,0,0,1-165.9,50,1282.05,1282.05,0,0,1-175.82,26.78c-4.29.35-8.6.68-12.91,1-27.82,2.15-56.58,4.37-82.78,12.08-9.33,2.74-21.6,8.89-25.52,17.22-1.9,4-1.35,7.73,1.65,10.95,5.55,5.95,18.6,9.06,28.38,9.43,10.15.38,20.2-1,29.91-2.33,5.15-.71,10.48-1.44,15.75-1.9,15.78-1.37,40.32,1.87,43.28,16.44,2.44,12-15.26,16.75-26,18.54-24.78,4.12-50.6,4.05-75.59,4-4.76,0-9.68,0-14.51,0-28.44.09-57.83.19-86.81-1.26-3.5-.17-7-.37-10.31-.58v.5c3.35.21,6.78.41,10.26.58,21.77,1.09,43.77,1.3,65.42,1.3,7.19,0,14.35,0,21.44,0,4.83,0,9.75,0,14.51,0,25,.05,50.89.13,75.74-4,11-1.83,29.06-6.74,26.55-19.11-3-14.91-28-18.25-44-16.85-5.29.46-10.62,1.19-15.78,1.9-9.68,1.33-19.69,2.7-29.75,2.32-9.62-.36-22.43-3.4-27.85-9.21a8.79,8.79,0,0,1-1.57-10.51c3.84-8.17,15.94-14.22,25.12-16.92,26.12-7.68,54.83-9.9,82.6-12.05q6.47-.5,12.92-1a1284.17,1284.17,0,0,0,176-26.79,1186.16,1186.16,0,0,0,166-50.09c20.11-7.74,40.16-16.15,59.55-24.28,31.44-13.17,63.94-26.79,97.47-38,34.16-11.37,65.6-18.86,96.12-22.89l.26,0c52.3-6.91,83.19-6.16,87,2.12,1,2.06,3.82,8.35-16.24,16.35-18.38,7.32-39.48,11.13-59.88,14.81l-.7.12c-3.77.68-7.92,1.26-12.32,1.87-17.7,2.46-37.77,5.25-46,16.34-1.83,2.46-2.15,5.17-.85,7.24,1,1.67,3.2,3.08,6.06,4,15.21,4.71,37.54,2.51,55.48.75,4.35-.42,8.44-.82,12.2-1.11,23.88-1.82,47.34-4.71,69.73-8.61,42.27-7.35,82.11-18.5,118.64-33.15Z"/>
        <path class="cls-2" d="M370.63,461.74c-15,0-30-.14-44.8-.27-20.55-.19-41.81-.39-62.54-2.49-7.55-.77-18-2.48-21.6-8.47-3.13-5.2.69-11.08,5.56-14.34,5.18-3.46,12-5.25,19.21-6.92a929.65,929.65,0,0,1,165.85-23c16.65-.81,30.57-1,44.42.77,10.32,1.32,22.42,5.58,22.58,13.25.19,9.48-17.46,13.18-25.05,14.34a1293.55,1293.55,0,0,1-166.6,14.23l0-.5a1293.47,1293.47,0,0,0,166.48-14.22c7.43-1.13,24.69-4.73,24.5-13.84-.15-7.37-11.95-11.48-22-12.77-13.77-1.75-27.65-1.57-44.26-.76a929.69,929.69,0,0,0-165.68,23c-7.09,1.66-13.88,3.42-19,6.82-4.71,3.14-8.4,8.79-5.4,13.77,3.47,5.76,13.68,7.42,21.06,8.17,20.69,2.1,41.93,2.3,62.46,2.49,66.25.61,134.77,1.25,200.35-10.55,33.89-6.09,43.06-15.34,47-21.76,5.23-8.52,3.63-19.2-4.18-27.87-6.79-7.54-18.16-13.57-32-17-14.53-3.6-30-4.16-45.85-4.45-59.51-1.1-113.24,1.12-164.27,6.78-45.59,5.06-91.11,13.21-135.12,21.1L4.25,440.8l-.16-.49L191.6,406.73c44-7.88,89.57-16,135.19-21.1,51.07-5.67,104.84-7.89,164.39-6.79,15.93.3,31.43.86,46.05,4.48,14,3.46,25.48,9.57,32.35,17.19,7.94,8.82,9.57,19.68,4.24,28.35-8.36,13.61-31.1,19.1-47.47,22.05C475.39,460.07,422.67,461.74,370.63,461.74Z"/>
        <path class="cls-2" d="M1024,382c-8.59,4.26-17,8.65-25.35,13-35.4,18.44-72,37.51-115.1,43.07-14,1.81-30.36-.28-33.35-9.11-2.63-7.77,7.61-14.47,10.82-16.34,2.12-1.24,4.41-2.41,6.63-3.54,5-2.57,10.25-5.23,13.89-8.92,3.22-3.28,4.56-7.8,3.41-11.54a9.43,9.43,0,0,0-5.8-6,26.82,26.82,0,0,0-8.91-1.48c-24.42-1-50.4,5.4-77.19,18.93-14.19,7.17-27.36,15.61-40.1,23.78-7.63,4.88-15.51,9.93-23.53,14.66-46.3,27.29-99.89,45.83-154.86,61.43h1.87c54.46-15.51,107.51-34,153.42-61,8-4.74,15.92-9.79,23.55-14.68,12.73-8.16,25.89-16.59,40-23.74,26.67-13.47,52.5-19.82,76.76-18.85a26.09,26.09,0,0,1,8.61,1.42,8.92,8.92,0,0,1,5.47,5.63c1.11,3.61-.19,8-3.3,11.15-3.57,3.62-8.73,6.25-13.73,8.8-2.22,1.14-4.52,2.31-6.66,3.56-8.76,5.11-12.9,11.41-11.06,16.84,3.1,9.15,19.87,11.34,34.14,9.49,43.25-5.58,79.92-24.68,115.38-43.16,8.19-4.27,16.5-8.59,25-12.79Z"/>
      </g>
    </g>
  </g>
  <g id="OBJECTS">
    <g>
      <path class="cls-3" d="M326.75,61.23l-.55-.51,21.71-23.51a6.5,6.5,0,0,0-9.55-8.82L323.65,44.31l-.55-.51,14.71-15.92a7.25,7.25,0,1,1,10.65,9.84Z"/>
      <path class="cls-3" d="M314,68.91a6.16,6.16,0,0,1-4.52-10.34L325.65,41l.55.51L310,59.08A5.41,5.41,0,1,0,318,66.42l16.2-17.53.55.51L318.51,66.93A6.17,6.17,0,0,1,314,68.91Z"/>
      <path class="cls-3" d="M325.2,59.68l-.55-.51L337.8,44.94a4.2,4.2,0,0,0,1.12-3.06,4.28,4.28,0,0,0-1.36-3l-.12-.11a4.29,4.29,0,0,0-6,.24l-13.2,14.3-.56-.51,13.21-14.3a5,5,0,0,1,7.09-.28l.12.11a5,5,0,0,1,.28,7.09Z"/>
    </g>
    <g>
      <path class="cls-4" d="M252.46,450.39c-.25,0-.5,0-.76,0L219.87,447l.08-.75,31.83,3.32a6.51,6.51,0,0,0,1.35-12.94l-21.56-2.24.07-.75,21.57,2.25a7.25,7.25,0,0,1-.75,14.47Z"/>
      <path class="cls-4" d="M234.11,446.31l-23.74-2.47a6.16,6.16,0,0,1,1.28-12.26l23.74,2.48-.08.75-23.74-2.48a5.41,5.41,0,0,0-1.12,10.76l23.74,2.48Z"/>
      <path class="cls-4" d="M240,446.9a4.71,4.71,0,0,1-.53,0l-19.26-2,.08-.74,19.26,2a4.27,4.27,0,0,0,4.69-3.8l0-.16a4.25,4.25,0,0,0-.94-3.12,4.2,4.2,0,0,0-2.87-1.56l-19.35-2,.08-.75,19.35,2a5,5,0,0,1,4.47,5.51l0,.16a5,5,0,0,1-5,4.5Z"/>
    </g>
    <g>
      <rect class="cls-5" x="173.97" y="328.67" width="78.5" height="42.08" rx="7.49" transform="translate(86.72 739.27) rotate(-130.64)"/>
      <path class="cls-6" d="M175.38,337.41l.34,0a.75.75,0,0,0,.32-.1c.13-.08.25-.19.37-.28a5.69,5.69,0,0,0,.61-.49,3,3,0,0,0,.86-2.36,11.45,11.45,0,0,1,0-2.55,4.5,4.5,0,0,1,.26-.81,1.26,1.26,0,0,1,.22-.39c.11-.13.22-.12.38-.08.83.22,1.49-.68,1.61-1.41a4.24,4.24,0,0,1,.28-1.18,2.27,2.27,0,0,1,.83-.91,3.92,3.92,0,0,1,2.29-.41,6.62,6.62,0,0,0,2.51-.13,2.07,2.07,0,0,0,1.46-1.76c.09-.74-.07-1.47,0-2.2a2.77,2.77,0,0,1,.19-1,2.93,2.93,0,0,1,.64-.92,9.47,9.47,0,0,1,1.15-1,8.14,8.14,0,0,1,1-.72,7.46,7.46,0,0,1,1.66-.59,6.35,6.35,0,0,0,1.6-.51c.51-.28.67-1,1-1.42a1.94,1.94,0,0,1,1.17-.52c.75-.1,1.52.18,2.25-.11a3.27,3.27,0,0,0,1.32-1.07,7.75,7.75,0,0,1,.78-1,3.13,3.13,0,0,1,1.42-.65,6,6,0,0,1,1.74-.17c.62,0,1.25.07,1.87.11a8.79,8.79,0,0,0,1.45,0,1.22,1.22,0,0,0,.91-.5,2.14,2.14,0,0,0,.29-.61,7.51,7.51,0,0,0-10.27-.5l-20.57,17.65A7.52,7.52,0,0,0,175.38,337.41Z"/>
      <rect class="cls-7" x="190.55" y="326.83" width="43.87" height="44.05" transform="translate(86.16 737.31) rotate(-130.64)"/>
      <path class="cls-8" d="M189.91,349h-.19a2.42,2.42,0,0,1-1.69-.85,2.47,2.47,0,1,1,4.34-1.42,2.46,2.46,0,0,1-.85,1.69A2.52,2.52,0,0,1,189.91,349Zm0-4.2a1.73,1.73,0,0,0-.13,3.45,1.71,1.71,0,0,0,1.85-1.59,1.73,1.73,0,0,0-1.58-1.85Z"/>
      <rect class="cls-8" x="235.05" y="338.42" width="0.75" height="14.22" transform="translate(-168.26 236.65) rotate(-40.64)"/>
      <path class="cls-8" d="M217.12,365.89a5.69,5.69,0,0,1-4.32-2l-15.14-17.64a5.71,5.71,0,0,1,.61-8,5.71,5.71,0,0,1,8,.61l15.14,17.65a5.68,5.68,0,0,1-4.32,9.39ZM202,337.62a4.95,4.95,0,0,0-3.74,8.16l15.14,17.64a4.94,4.94,0,1,0,7.5-6.43l-15.14-17.65A5,5,0,0,0,202,337.62Z"/>
      <rect class="cls-8" x="216.86" y="333.87" width="0.75" height="21.83" transform="translate(-172.17 224.64) rotate(-40.64)"/>
      <rect class="cls-8" x="219.97" y="336.48" width="0.75" height="11.27" transform="translate(-169.67 226.01) rotate(-40.64)"/>
      <rect class="cls-8" x="177.12" y="332.94" width="44.05" height="0.75" transform="translate(-169.11 210.26) rotate(-40.67)"/>
    </g>
    <g>
      <rect class="cls-9" x="259.76" y="132.93" width="481.15" height="306.68" transform="translate(-45.11 99.78) rotate(-10.9)"/>
      <g>
        <path class="cls-10" d="M280.77,287.5,265.27,207,388,183.37l15.51,80.5-.37.07Zm-14.62-79.91,15.22,79L402.6,263.27l-15.22-79Z"/>
        <path class="cls-10" d="M432,258.38l-15.5-80.5,122.71-23.63.07.37,15.43,80.13Zm-14.62-79.9,15.22,79,121.23-23.34-15.22-79Z"/>
        <path class="cls-10" d="M583.15,229.27l-.07-.37-15.43-80.13,122.71-23.63.07.36,15.43,80.14Zm-14.62-79.91,15.22,79L705,205l-15.22-79Z"/>
      </g>
      <g>
        <path class="cls-10" d="M306.84,422.87l-15.5-80.5.37-.08L414,318.74l15.5,80.5-.36.07ZM292.22,343l15.21,79,121.24-23.35-15.22-79Z"/>
        <path class="cls-10" d="M458,393.75l-15.5-80.5.37-.07,122.33-23.56.07.37,15.44,80.13-.37.07Zm-14.62-79.91,15.22,79,121.23-23.34-15.22-79Z"/>
        <path class="cls-10" d="M609.22,364.64l-.07-.37-15.43-80.13.37-.08,122.34-23.55.07.36L731.93,341l-.37.07ZM594.6,284.73l15.22,79,121.23-23.35-15.22-79Z"/>
      </g>
      <g>
        <rect class="cls-10" x="282.3" y="287.94" width="107.46" height="0.75" transform="translate(-48.4 68.65) rotate(-10.89)"/>
        <rect class="cls-10" x="284.77" y="300.79" width="107.46" height="0.75" transform="translate(-50.78 69.35) rotate(-10.89)"/>
      </g>
      <g>
        <rect class="cls-10" x="433.54" y="258.82" width="107.46" height="0.75" transform="translate(-40.18 96.69) rotate(-10.89)"/>
        <rect class="cls-10" x="436.02" y="271.66" width="107.46" height="0.75" transform="translate(-42.56 97.38) rotate(-10.89)"/>
      </g>
      <g>
        <rect class="cls-10" x="584.68" y="229.71" width="107.46" height="0.75" transform="translate(-32.1 125.58) rotate(-10.96)"/>
        <polygon class="cls-10" points="588.2 253.46 588.05 252.73 693.57 232.41 693.71 233.14 588.2 253.46"/>
      </g>
      <g>
        <rect class="cls-10" x="308.36" y="423.28" width="107.46" height="0.75" transform="translate(-73.49 76) rotate(-10.89)"/>
        <rect class="cls-10" x="310.83" y="436.12" width="107.46" height="0.75" transform="translate(-75.87 76.7) rotate(-10.89)"/>
      </g>
      <g>
        <rect class="cls-10" x="459.6" y="394.15" width="107.46" height="0.75" transform="translate(-65.27 104.05) rotate(-10.89)"/>
        <rect class="cls-10" x="462.08" y="407" width="107.46" height="0.75" transform="translate(-67.65 104.74) rotate(-10.89)"/>
      </g>
      <g>
        <polygon class="cls-10" points="611.78 375.95 611.64 375.21 717.16 354.9 717.3 355.63 611.78 375.95"/>
        <polygon class="cls-10" points="614.26 388.8 614.12 388.06 719.63 367.74 719.77 368.48 614.26 388.8"/>
      </g>
    </g>
    <g>
      <rect class="cls-11" x="379.27" y="56.57" width="481.15" height="306.68" transform="translate(-10.81 35.13) rotate(-3.22)"/>
      <g>
        <path class="cls-12" d="M402.09,181.77l-4.6-81.85,124.76-7,0,.38,4.58,81.47Zm-3.81-81.15L402.8,181,526.06,174l-4.52-80.35Z"/>
        <path class="cls-12" d="M555.82,173.12l0-.37-4.59-81.48,124.77-7,0,.37,4.58,81.48ZM552,92l4.52,80.35,123.27-6.93-4.52-80.35Z"/>
        <path class="cls-12" d="M709.54,164.48l0-.38-4.58-81.47,124.76-7,0,.38,4.59,81.47Zm-3.81-81.14,4.52,80.35,123.26-6.93L829,76.4Z"/>
      </g>
      <g>
        <path class="cls-12" d="M409.83,319.41l-4.6-81.85,124.76-7,0,.38,4.58,81.47-.37,0ZM406,238.26l4.52,80.36,123.26-6.94-4.52-80.35Z"/>
        <path class="cls-12" d="M563.56,310.76l0-.37L559,228.91l124.77-7,0,.37,4.58,81.48-.38,0Zm-3.82-81.14L564.26,310,687.53,303,683,222.69Z"/>
        <path class="cls-12" d="M717.28,302.12l0-.37-4.58-81.48,124.76-7,0,.38L842,295.1l-.37,0ZM713.47,221,718,301.33l123.26-6.93L836.74,214Z"/>
      </g>
      <g>
        <rect class="cls-12" x="403.01" y="189.59" width="107.46" height="0.75" transform="translate(-9.92 25.87) rotate(-3.21)"/>
        <rect class="cls-12" x="403.75" y="202.66" width="107.46" height="0.75" transform="translate(-10.65 25.93) rotate(-3.21)"/>
      </g>
      <g>
        <polygon class="cls-12" points="556.9 184.71 556.85 183.96 664.14 177.93 664.18 178.68 556.9 184.71"/>
        <polygon class="cls-12" points="557.63 197.77 557.59 197.03 664.88 190.99 664.92 191.74 557.63 197.77"/>
      </g>
      <g>
        <polygon class="cls-12" points="710.57 176.07 710.53 175.32 817.81 169.29 817.86 170.04 710.57 176.07"/>
        <polygon class="cls-12" points="711.3 189.13 711.26 188.38 818.55 182.35 818.59 183.1 711.3 189.13"/>
      </g>
      <g>
        <rect class="cls-12" x="410.75" y="327.2" width="107.46" height="0.75" transform="translate(-17.63 26.55) rotate(-3.21)"/>
        <rect class="cls-12" x="411.48" y="340.26" width="107.46" height="0.75" transform="translate(-18.36 26.61) rotate(-3.21)"/>
      </g>
      <g>
        <polygon class="cls-12" points="564.63 322.32 564.59 321.57 671.88 315.54 671.92 316.28 564.63 322.32"/>
        <polygon class="cls-12" points="565.37 335.38 565.33 334.63 672.61 328.6 672.66 329.35 565.37 335.38"/>
      </g>
      <g>
        <polygon class="cls-12" points="718.31 313.68 718.27 312.93 825.55 306.89 825.6 307.64 718.31 313.68"/>
        <polygon class="cls-12" points="719.04 326.74 719 325.99 826.29 319.96 826.33 320.7 719.04 326.74"/>
      </g>
    </g>
    <g>
      <rect class="cls-5" x="299.06" y="116.49" width="481.15" height="306.68" transform="translate(-23.16 52.41) rotate(-5.44)"/>
      <path class="cls-4" d="M334.59,322.3a4.71,4.71,0,0,1-.53,0,3.9,3.9,0,0,1-1.83-.65,4.34,4.34,0,0,1-1.41-1.74h0a6.07,6.07,0,0,1,1-7.18,6.19,6.19,0,0,1,7.24-1.06,3.68,3.68,0,0,1,1.63,1.39,3.87,3.87,0,0,1,.3,2.21,8.9,8.9,0,0,1-2,5A6,6,0,0,1,334.59,322.3Zm-3.09-2.75a3.68,3.68,0,0,0,1.16,1.46,3.15,3.15,0,0,0,1.48.52,5.16,5.16,0,0,0,4.31-1.82,8.12,8.12,0,0,0,1.83-4.54,3.14,3.14,0,0,0-.21-1.78,2.83,2.83,0,0,0-1.31-1.08,5.34,5.34,0,0,0-7.26,7.24Z"/>
      <path class="cls-4" d="M488.52,307.63l-.53,0a4.08,4.08,0,0,1-1.83-.65,4.44,4.44,0,0,1-1.41-1.75,6.07,6.07,0,0,1,1-7.18A6.19,6.19,0,0,1,493,297a3.63,3.63,0,0,1,1.63,1.39,3.79,3.79,0,0,1,.3,2.21,8.85,8.85,0,0,1-2,5A6,6,0,0,1,488.52,307.63ZM490.06,297a5.31,5.31,0,0,0-4.64,7.88h0a3.61,3.61,0,0,0,1.17,1.46,3.11,3.11,0,0,0,1.48.52,5.16,5.16,0,0,0,4.31-1.82,8.09,8.09,0,0,0,1.83-4.54,3.14,3.14,0,0,0-.22-1.78,2.8,2.8,0,0,0-1.3-1.08A6,6,0,0,0,490.06,297Z"/>
      <path class="cls-4" d="M642.84,292.93a4.58,4.58,0,0,1-.53,0,4,4,0,0,1-1.83-.65,4.44,4.44,0,0,1-1.41-1.75h0a6.07,6.07,0,0,1,1-7.18,6.21,6.21,0,0,1,7.24-1.06,3.59,3.59,0,0,1,1.63,1.4,3.69,3.69,0,0,1,.3,2.21,8.83,8.83,0,0,1-2,5A6.05,6.05,0,0,1,642.84,292.93Zm-3.1-2.76a3.7,3.7,0,0,0,1.17,1.46,3.15,3.15,0,0,0,1.48.52,5.19,5.19,0,0,0,4.31-1.81,8.14,8.14,0,0,0,1.83-4.55,3.11,3.11,0,0,0-.22-1.77,2.81,2.81,0,0,0-1.3-1.09,5.42,5.42,0,0,0-6.38.92,5.34,5.34,0,0,0-.89,6.32Z"/>
      <path class="cls-4" d="M642.72,289.63a1.17,1.17,0,0,1-.32,0,1.75,1.75,0,0,1-1.06-1.89,4,4,0,0,1,2-3.19l.36.66a3.19,3.19,0,0,0-1.64,2.57c0,.47.14,1,.5,1.12s.74-.23.89-.38a1.55,1.55,0,0,0,.36-.47.91.91,0,0,0-.11-.86.92.92,0,0,0-.8-.33l-.11-.74a1.62,1.62,0,0,1,1.71,2.22,2.12,2.12,0,0,1-.53.72A1.87,1.87,0,0,1,642.72,289.63Z"/>
      <path class="cls-4" d="M487.6,304.69a.54.54,0,0,1-.37-.14.47.47,0,0,1-.05-.62l.2-.26.35.13-.06.12a4.05,4.05,0,0,0,1.19-.38,1.17,1.17,0,0,0,.62-.8,1,1,0,0,0-.69-1,1.69,1.69,0,0,0-1.42.23l-1,.64,1.54-3.56a1.12,1.12,0,0,1,.27-.44,1.21,1.21,0,0,1,.59-.26,19.33,19.33,0,0,1,2-.33l.08.75a17.81,17.81,0,0,0-1.94.31.75.75,0,0,0-.24.08.6.6,0,0,0-.09.18l-.71,1.63A2.27,2.27,0,0,1,489,301a1.75,1.75,0,0,1,1.2,1.79,1.92,1.92,0,0,1-1,1.37,5.11,5.11,0,0,1-1.45.47Zm.06-.74-.28.51.18-.33.23.24a.29.29,0,0,0,0-.37Z"/>
      <path class="cls-4" d="M334.74,319.81l-.72-.2a18.69,18.69,0,0,1,1-2.71A5.39,5.39,0,0,1,334,317h-2l2.35-4.32.66.36-1.75,3.22H334c.61,0,1.38-.06,1.63-.52l.66.36A18.57,18.57,0,0,0,334.74,319.81Z"/>
      <g>
        <g>
          <path class="cls-4" d="M320.48,251.75l-7.78-81.61,124.4-11.85,7.78,81.61Zm-7-80.93,7.64,80.12,122.9-11.72-7.64-80.11Z"/>
          <path class="cls-4" d="M473.75,237.15,466,155.54l124.39-11.86,0,.37,7.74,81.24Zm-6.95-80.94,7.63,80.12,122.9-11.72L589.7,144.5Z"/>
          <path class="cls-4" d="M627,222.54l0-.38-7.75-81.23,124.4-11.86,0,.38,7.75,81.23Zm-7-80.94,7.64,80.12L750.61,210,743,129.89Z"/>
        </g>
        <g>
          <path class="cls-4" d="M333.56,389l-7.78-81.61.37,0,124-11.82L458,377.13l-.37,0Zm-7-80.94,7.63,80.12,122.91-11.71-7.64-80.12Z"/>
          <path class="cls-4" d="M486.83,374.38l-7.77-81.61.37,0,124-11.82,0,.37,7.74,81.24-.37,0Zm-7-80.93,7.64,80.11,122.9-11.71-7.63-80.12Z"/>
          <path class="cls-4" d="M640.11,359.77l0-.37-7.74-81.24.38,0,124-11.82,0,.37,7.74,81.24-.37,0Zm-7-80.93L640.78,359l122.91-11.72-7.64-80.11Z"/>
        </g>
        <g>
          <rect class="cls-4" x="321.68" y="257.45" width="107.46" height="0.75" transform="matrix(1, -0.1, 0.1, 1, -22.82, 36.88)"/>
          <rect class="cls-4" x="322.92" y="270.47" width="107.46" height="0.75" transform="translate(-24.03 37.01) rotate(-5.45)"/>
        </g>
        <g>
          <rect class="cls-4" x="475.01" y="242.84" width="107.46" height="0.75" transform="translate(-20.71 51.33) rotate(-5.45)"/>
          <rect class="cls-4" x="476.25" y="255.86" width="107.46" height="0.75" transform="translate(-21.97 51.58) rotate(-5.46)"/>
        </g>
        <g>
          <polygon class="cls-4" points="628.51 234.08 628.44 233.34 735.41 223.14 735.48 223.89 628.51 234.08"/>
          <polygon class="cls-4" points="629.75 247.1 629.68 246.36 736.65 236.16 736.72 236.91 629.75 247.1"/>
        </g>
        <g>
          <rect class="cls-4" x="334.75" y="394.65" width="107.46" height="0.75" transform="translate(-35.82 38.75) rotate(-5.46)"/>
          <rect class="cls-4" x="336" y="407.67" width="107.46" height="0.75" transform="translate(-37.05 38.93) rotate(-5.46)"/>
        </g>
        <g>
          <rect class="cls-4" x="488.08" y="380.04" width="107.46" height="0.75" transform="translate(-33.73 53.27) rotate(-5.46)"/>
          <rect class="cls-4" x="489.32" y="393.06" width="107.46" height="0.75" transform="translate(-34.96 53.44) rotate(-5.46)"/>
        </g>
        <g>
          <polygon class="cls-4" points="641.58 371.28 641.51 370.54 748.48 360.34 748.55 361.09 641.58 371.28"/>
          <polygon class="cls-4" points="642.82 384.31 642.75 383.56 749.73 373.36 749.79 374.11 642.82 384.31"/>
        </g>
      </g>
      <g>
        <path class="cls-4" d="M321.37,183.6l-.53,0a3.94,3.94,0,0,1-1.83-.65,4.4,4.4,0,0,1-1.4-1.74,6.07,6.07,0,0,1,1-7.18,6.19,6.19,0,0,1,7.24-1.06,3.54,3.54,0,0,1,1.63,1.39,3.79,3.79,0,0,1,.3,2.21,8.83,8.83,0,0,1-2,5A6,6,0,0,1,321.37,183.6ZM322.92,173a5.32,5.32,0,0,0-4.64,7.89h0a3.68,3.68,0,0,0,1.16,1.46,3.27,3.27,0,0,0,1.48.52,5.15,5.15,0,0,0,4.31-1.82,8,8,0,0,0,1.83-4.55,3.11,3.11,0,0,0-.21-1.77,2.85,2.85,0,0,0-1.3-1.08A5.91,5.91,0,0,0,322.92,173Z"/>
        <path class="cls-4" d="M322.84,181.4l-.75,0c.09-1.79.22-3.6.38-5.38a15.39,15.39,0,0,1-2.18,1.9l-.44-.61a13.52,13.52,0,0,0,3-2.9l.63.4a2.53,2.53,0,0,0-.23,1C323.07,177.65,322.94,179.53,322.84,181.4Z"/>
        <path class="cls-4" d="M339.78,219.89a.37.37,0,0,1,0-.74l.34,0A.49.49,0,0,1,340,219a.37.37,0,0,1,.35-.4l40.69-2.77a.38.38,0,0,1,.4.35.37.37,0,0,1-.35.4l-22.38,1.82c8.93-.45,17.55-1.06,26.22-2a.38.38,0,1,1,.08.75c-14.67,1.62-29.17,2.23-45.24,2.81Z"/>
        <path class="cls-4" d="M348.07,242.82a.39.39,0,0,1-.38-.34l-.54-6.25c0,.93-.11,1.86-.2,2.79a.38.38,0,0,1-.75,0,145.78,145.78,0,0,0-.86-18.57.36.36,0,0,1,0-.1l-.06-.6a.37.37,0,0,1,.34-.41.38.38,0,0,1,.21,0,.37.37,0,0,1,.25-.12.38.38,0,0,1,.4.34h0l.15,1.65,1.83,21.19a.37.37,0,0,1-.34.41Z"/>
        <path class="cls-4" d="M381.4,236.51a.38.38,0,0,1-.38-.36l-.42-7.79c-.31-3.49-.76-7-1.19-10.36a.37.37,0,0,1,.31-.42.36.36,0,0,1,.3.08v-.21a.38.38,0,1,1,.75,0l.29,5.39c.66,3.94,1.18,7.92,1.56,11.87a.37.37,0,0,1-.33.41.37.37,0,0,1-.41-.33c-.07-.66-.13-1.31-.2-2,.05,1.11.09,2.23.1,3.34a.38.38,0,0,1-.36.38Z"/>
        <path class="cls-4" d="M359.37,206.42h0a2.22,2.22,0,0,1-1.66-.81,3.32,3.32,0,0,1-1.27-1.28.37.37,0,0,1-.34.32.38.38,0,0,1-.41-.34c0-.48-.09-1-.15-1.45-.07-.63-.14-1.28-.18-1.93a15.39,15.39,0,0,1,.44-6.88.37.37,0,0,1,.46-.25.38.38,0,0,1,.25.47c-.14.49-.26,1-.36,1.48l.06-.1a11.1,11.1,0,0,1,.44-1.46,4.32,4.32,0,0,1,2.26-2.8,3.46,3.46,0,0,1,3.86,1.3,5.81,5.81,0,0,1,1.06,2.83c.09.33.14.64.19.92a11.44,11.44,0,0,1-2.3,8.56A3.05,3.05,0,0,1,359.37,206.42ZM358.15,205a1.06,1.06,0,0,0,.25.09,2.34,2.34,0,0,0,2-.53,5.55,5.55,0,0,0,1.38-1.91,13.33,13.33,0,0,0,1.3-6.05c0-.32,0-.63-.06-.92a3,3,0,0,0-.4-.88,2.63,2.63,0,0,0-1.73-1.06,3.65,3.65,0,0,0-2.66.57,4.67,4.67,0,0,0-1.39,1.61,13.31,13.31,0,0,0,.55,7.82A4.54,4.54,0,0,0,358.15,205ZM359.9,192a1.91,1.91,0,0,0-.74.14,3.21,3.21,0,0,0-1.63,1.85,2.34,2.34,0,0,1,.31-.24,4.36,4.36,0,0,1,3.23-.7,3.7,3.7,0,0,1,1.33.52c-.08-.13-.17-.26-.26-.38A3,3,0,0,0,359.9,192Z"/>
        <path class="cls-4" d="M352.3,211.22a.41.41,0,0,1-.16,0,.38.38,0,0,1-.19-.49,18.77,18.77,0,0,1,3.8-5.51c.44-.46.89-.9,1.35-1.31a.38.38,0,0,1,.51.55c-.3.27-.59.55-.87.83l-.44.44a23.38,23.38,0,0,0-3.67,5.32A.36.36,0,0,1,352.3,211.22Z"/>
        <path class="cls-4" d="M350.12,217.19a.56.56,0,0,1-.27-.08.76.76,0,0,1-.26-.79A20.06,20.06,0,0,1,354.38,206a.37.37,0,0,1,.56.49,19.44,19.44,0,0,0-4.58,9.78h0a.53.53,0,0,1,.29.38.56.56,0,0,1-.28.5A.68.68,0,0,1,350.12,217.19Z"/>
        <path class="cls-4" d="M350.38,218.86a.37.37,0,0,1-.38-.34c-.33-4.07,1.62-7.73,4-11.77a.38.38,0,0,1,.51-.13.38.38,0,0,1,.13.52c-2.32,3.92-4.22,7.47-3.91,11.32a.36.36,0,0,1-.34.4Z"/>
        <path class="cls-4" d="M369.57,217.49a.38.38,0,0,1-.38-.35,33.66,33.66,0,0,0-1.62-7.93c-1.22-3.64-3-5.83-5.27-6.51a.36.36,0,0,1-.27-.35.38.38,0,0,1,.26-.36,1.69,1.69,0,0,1,1.37.14.38.38,0,0,1,.18.43c1.89,1.09,3.38,3.24,4.44,6.42a33.9,33.9,0,0,1,1.66,8.1.36.36,0,0,1-.34.4Z"/>
        <path class="cls-4" d="M369.43,220.19h0a.38.38,0,0,1-.37-.38c0-7.43-1.57-12.79-4.81-16.39a.37.37,0,1,1,.55-.5c3.38,3.74,5,9.27,5,16.89A.38.38,0,0,1,369.43,220.19Z"/>
        <path class="cls-4" d="M359.48,217.92h-.08a20.94,20.94,0,0,1-6.74-2.82.38.38,0,0,1,.41-.63,19.92,19.92,0,0,0,5.53,2.48.4.4,0,0,1,.41-.05l.64.32a.37.37,0,0,1,.18.46A.36.36,0,0,1,359.48,217.92Z"/>
        <path class="cls-4" d="M359.4,217.28a1.24,1.24,0,0,1-.54-.15L355,215.28a.29.29,0,0,1-.08.13.36.36,0,0,1-.52,0l-1.16-1a.37.37,0,0,1-.07-.49.37.37,0,0,1,.47-.13l5.57,2.64,0,0a.36.36,0,0,1,0-.11.37.37,0,0,1,.47-.24.52.52,0,0,1,.36.5.63.63,0,0,1-.39.61A.65.65,0,0,1,359.4,217.28Z"/>
        <path class="cls-4" d="M362.86,217.52a.38.38,0,0,1-.25-.66,41.54,41.54,0,0,1,5.71-4.23.37.37,0,0,1,.39.64c-1,.61-2,1.28-2.92,2l1.52-.92a.37.37,0,0,1,.41.62,21,21,0,0,1-2.69,1.64l-1.43.86a.36.36,0,0,1-.43,0l-.18.07A.31.31,0,0,1,362.86,217.52Z"/>
        <path class="cls-4" d="M373,207.34c-.61,0-1.23,0-1.84-.06a11,11,0,0,1-2.22-.17.37.37,0,0,1-.18-.08l-.31-.05a.37.37,0,0,1,0-.74A72.43,72.43,0,0,1,380.8,205a.38.38,0,0,1,.37.38v.07a.38.38,0,0,1,.32.29.39.39,0,0,1-.26.44A29,29,0,0,1,373,207.34Zm5.15-1.56c-2.25.12-4.49.41-6.7.75,1,0,2-.16,3-.29Z"/>
        <path class="cls-4" d="M379,216.72h-.1a.37.37,0,0,1-.27-.45L379,215l-.12,0a.37.37,0,0,1-.19-.5c.43-1,.84-2,1.21-3l1.28-5a.79.79,0,0,0,0-.46.36.36,0,0,1-.24-.46.36.36,0,0,1,.47-.24c.47.14.65.66.48,1.34l-.39,1.54a.39.39,0,0,1,.12.4l-2.23,7.86A.37.37,0,0,1,379,216.72Z"/>
        <path class="cls-4" d="M364.26,217.55h-.1a.39.39,0,0,1-.27-.41.33.33,0,0,1,0-.24,61.26,61.26,0,0,1,1.89-8.36l0-.06.36-1.89a.38.38,0,0,1,.43-.3.36.36,0,0,1,.31.41c-.12,1.05-.27,2.1-.44,3.15l1.39-4.15a.37.37,0,0,1,.35-.25.39.39,0,0,1,.35.25l.23.64a.37.37,0,0,1-.51.46l-3.34,10a.35.35,0,0,1-.19.22l-.09.3A.38.38,0,0,1,364.26,217.55Z"/>
        <path class="cls-4" d="M377.35,216.69h0L367,216.61a.37.37,0,0,1-.37-.38.38.38,0,0,1,.37-.37h0l10.31.08a.38.38,0,0,1,.38.38A.38.38,0,0,1,377.35,216.69Z"/>
        <path class="cls-4" d="M349.51,201.76a.38.38,0,0,1-.35-.25.36.36,0,0,1,.22-.48c.34-.13.68-.25,1-.35a.35.35,0,0,1,0-.14.38.38,0,0,1,.34-.4l3.89-.34a.37.37,0,0,1,.41.34.36.36,0,0,1-.34.4l-.51.05a.37.37,0,0,1-.3.19,15.73,15.73,0,0,0-4.23.95A.31.31,0,0,1,349.51,201.76Z"/>
        <path class="cls-4" d="M347.1,218.85h0a.37.37,0,0,1-.34-.41c0-.54.1-1.08.16-1.62l.07-.77s0-.05,0-.07a150.73,150.73,0,0,1,2.49-15.53.38.38,0,0,1,.44-.29.38.38,0,0,1,.29.45,149.33,149.33,0,0,0-2.56,16.28l-.15,1.62A.37.37,0,0,1,347.1,218.85Z"/>
        <path class="cls-4" d="M347,219.86a.38.38,0,0,1-.37-.38c0-2.85.05-5.73.21-8.57a.38.38,0,0,1,.4-.35.37.37,0,0,1,.35.4c-.16,2.82-.23,5.69-.21,8.52a.38.38,0,0,1-.37.38Z"/>
        <path class="cls-4" d="M344.62,242h0a.39.39,0,0,1-.34-.41,97.87,97.87,0,0,0-.38-21.84.38.38,0,0,1,.75-.09,99.39,99.39,0,0,1,.38,22A.38.38,0,0,1,344.62,242Z"/>
        <path class="cls-4" d="M393.9,192.1a3.34,3.34,0,0,1-1.91-.62,4.9,4.9,0,0,1-1.78-1.37,7.48,7.48,0,0,1-1.48-4.05,7.06,7.06,0,0,1,1.85-6A4.5,4.5,0,0,1,394.1,179a3.33,3.33,0,0,1,2.45,1.45,4.82,4.82,0,0,1,.27.5,6,6,0,0,1,.86,1.24,7.55,7.55,0,0,1-.22,7.19,6.2,6.2,0,0,1-1.31,1.54,2.84,2.84,0,0,1-1.07.92A2.62,2.62,0,0,1,393.9,192.1Zm-1.53-1.27a3.14,3.14,0,0,0,1.72.24,3.44,3.44,0,0,0,1.5-.68,5.36,5.36,0,0,0,.71-1.88,17.35,17.35,0,0,0,.21-5.75,6.28,6.28,0,0,0-.33-1.41,2.9,2.9,0,0,0-1.61-.89,3.42,3.42,0,0,0-3.37,2.23,10.9,10.9,0,0,0-.51,4.63.35.35,0,0,1-.05.2,8.08,8.08,0,0,0,.2.85,4.68,4.68,0,0,0,1.44,2.39Zm4.94-7.62a17.67,17.67,0,0,1-.25,5.33A6.77,6.77,0,0,0,397.31,183.21Zm-3.76-3.51a3.68,3.68,0,0,0-2.46.93,6.29,6.29,0,0,0-1.61,5.36,7.85,7.85,0,0,0,.61,2.48,9.37,9.37,0,0,1,.2-5.57l.06-.1c0-.14.1-.27.16-.4a4.42,4.42,0,0,1,3.21-2.69Z"/>
        <path class="cls-4" d="M396.42,190.94a.36.36,0,0,1-.35-.25l-.31-.86a.38.38,0,0,1,.23-.48.37.37,0,0,1,.48.23l.31.86a.38.38,0,0,1-.23.48A.3.3,0,0,1,396.42,190.94Z"/>
        <path class="cls-4" d="M398.42,193.58a.39.39,0,0,1-.33-.19l-1.71-2.93a.37.37,0,0,1,.14-.51.36.36,0,0,1,.51.13l.18.31h.06a1.33,1.33,0,0,1,.9,1.14.39.39,0,0,1-.06.24l.64,1.25a.37.37,0,0,1-.33.55Z"/>
        <path class="cls-4" d="M403.37,205.25A.38.38,0,0,1,403,205a.37.37,0,0,1,.21-.48c.5-.2.32-1.15.14-1.68-1.52-4.36-3.25-9.31-6.95-12.56a.38.38,0,1,1,.49-.57c3.86,3.39,5.69,8.66,7.16,12.89.36,1,.39,2.23-.56,2.61Z"/>
        <path class="cls-4" d="M403.8,212.42a.37.37,0,0,1-.37-.37,62.1,62.1,0,0,0-1.31-11.45.37.37,0,0,1,.29-.44.38.38,0,0,1,.44.29A61.82,61.82,0,0,1,404.18,212a.37.37,0,0,1-.37.38Z"/>
        <path class="cls-4" d="M394.61,207.47a.37.37,0,0,1-.37-.33,142.56,142.56,0,0,0-2.63-16.06.38.38,0,0,1,.29-.45.37.37,0,0,1,.44.28A142.28,142.28,0,0,1,395,207.06a.37.37,0,0,1-.34.41Z"/>
        <path class="cls-4" d="M394.41,211.75a.37.37,0,0,1-.37-.35c-.27-4.5-.73-9-1.38-13.5a.38.38,0,0,1,.75-.11c.64,4.48,1.11,9.05,1.38,13.56a.38.38,0,0,1-.35.4Z"/>
        <path class="cls-4" d="M396.25,213.58l-.84,0a.37.37,0,0,1-.35-.33.38.38,0,0,1,.27-.4l.31-.09h-.08a.38.38,0,0,1-.37-.38.39.39,0,0,1,.38-.37L399,212a26.9,26.9,0,0,1,4.91-.25.37.37,0,0,1,.36.39.38.38,0,0,1-.39.36,28.41,28.41,0,0,0-3.06.05.36.36,0,0,1-.2.2A12,12,0,0,1,396.25,213.58Z"/>
        <path class="cls-4" d="M403.49,233.1h-.1a.4.4,0,0,1-.28-.38,205.24,205.24,0,0,0-.25-21.48.36.36,0,0,1,.35-.39.37.37,0,0,1,.39.35c.43,6.59.54,13.28.32,19.89a.35.35,0,0,1,.08.16,2.36,2.36,0,0,1-.18,1.65A.36.36,0,0,1,403.49,233.1Z"/>
        <path class="cls-4" d="M403.23,233.77h-.06a.37.37,0,0,1-.31-.43,79.4,79.4,0,0,0,.66-18.8.37.37,0,1,1,.74-.07,79.94,79.94,0,0,1-.66,19A.38.38,0,0,1,403.23,233.77Z"/>
        <path class="cls-4" d="M396.82,234.42a.35.35,0,0,1-.35-.25,17.34,17.34,0,0,1-.76-4.26L394,211.18a.39.39,0,0,1,.34-.41.38.38,0,0,1,.41.34l1.7,18.74a16.94,16.94,0,0,0,.71,4.07.37.37,0,0,1-.23.48A.25.25,0,0,1,396.82,234.42Z"/>
        <path class="cls-4" d="M397.46,236.77a.38.38,0,0,1-.37-.33l-2.61-22.38a.36.36,0,0,1,.33-.41.38.38,0,0,1,.41.33l2.62,22.37a.39.39,0,0,1-.33.42Z"/>
        <path class="cls-4" d="M400,235.86h0a.38.38,0,0,1-.36-.39c.17-7.27,0-14.63-.38-21.89a.38.38,0,0,1,.35-.39.37.37,0,0,1,.4.35c.43,7.28.56,14.66.38,22A.38.38,0,0,1,400,235.86Z"/>
        <path class="cls-4" d="M399.33,236.84h0a.37.37,0,0,1-.33-.41,109.54,109.54,0,0,0-.22-22.32.37.37,0,0,1,.33-.42.38.38,0,0,1,.41.33,109.68,109.68,0,0,1,.22,22.48A.38.38,0,0,1,399.33,236.84Z"/>
        <path class="cls-4" d="M391.85,214.53l-.12,0c-.14,0-.46-.19-.45-.76.18-7.39.12-14.87-.17-22.24a.37.37,0,0,1,.36-.39.38.38,0,0,1,.39.36c.29,7.33.35,14.76.18,22.1a.46.46,0,0,1,.15.09.52.52,0,0,1,.06.62A.46.46,0,0,1,391.85,214.53Z"/>
        <path class="cls-4" d="M393.31,215a.44.44,0,0,1-.26-.1,1.73,1.73,0,0,0-1.32-.44.38.38,0,0,1-.07-.75,2.54,2.54,0,0,1,1.9.63.38.38,0,0,1,0,.53A.34.34,0,0,1,393.31,215Z"/>
        <path class="cls-4" d="M398.66,205.54a.37.37,0,0,1-.37-.35l-.05-.69a.4.4,0,0,1,.06-.22,46.83,46.83,0,0,0-1-9.95.36.36,0,0,1,.29-.44.38.38,0,0,1,.44.29,47.22,47.22,0,0,1,1,11,.36.36,0,0,1-.36.36Z"/>
        <path class="cls-4" d="M390.15,207.24a.37.37,0,0,1-.37-.34.36.36,0,0,1,.31-.4,45.93,45.93,0,0,0,6.25-1.41,3.24,3.24,0,0,0,2-1.26,3.34,3.34,0,0,0,0-2.19.38.38,0,1,1,.74-.16,4,4,0,0,1-.07,2.7,3.13,3.13,0,0,1-1.7,1.36l.65-.15a.38.38,0,0,1,.45.28.38.38,0,0,1-.28.45,44,44,0,0,1-8,1.12Z"/>
        <path class="cls-4" d="M394.38,207.52a.41.41,0,0,1-.19-.05,4.92,4.92,0,0,0-1.12-.44,6.73,6.73,0,0,1-2.86.11.38.38,0,0,1-.3-.35.38.38,0,0,1,.25-.38,5.54,5.54,0,0,1,2.68-.19.4.4,0,0,1,.38,0,5.24,5.24,0,0,0,.69-.28.38.38,0,0,1,.4,0,.37.37,0,0,1,.13.39.74.74,0,0,1-.16.32l.28.15a.37.37,0,0,1,.14.51A.37.37,0,0,1,394.38,207.52Z"/>
        <path class="cls-4" d="M390.61,210.32a.38.38,0,0,1-.36-.26,3.5,3.5,0,0,1-.15-.64.36.36,0,0,1-.29,0,.37.37,0,0,1-.27-.41c.06-.45.11-.9.15-1.36l0-.21a.37.37,0,0,1,.41-.34.53.53,0,0,0,.63.1.38.38,0,0,1,.22.47,3.55,3.55,0,0,0,0,2.14.38.38,0,0,1-.25.47Z"/>
        <path class="cls-4" d="M397.48,209.64a16.06,16.06,0,0,1-2.43-.23.38.38,0,0,1-.32-.34V209c-1.54,0-3.08.06-4.62.14a.38.38,0,1,1,0-.75c2.19-.11,4.4-.16,6.61-.15a19,19,0,0,1,4.77-.42.38.38,0,0,1,.36.39.38.38,0,0,1-.39.36h-1s0,0,0,0a.38.38,0,0,1-.18.42A5.64,5.64,0,0,1,397.48,209.64Z"/>
        <path class="cls-4" d="M401.5,208.49h-.11a.38.38,0,0,1-.26-.42l0-.17a.38.38,0,0,1-.18-.36,5.16,5.16,0,0,1,.63-2,.38.38,0,0,1,.7.15,4.79,4.79,0,0,1-.47,2.58A.37.37,0,0,1,401.5,208.49Z"/>
        <path class="cls-4" d="M390.24,211.91a.36.36,0,0,1-.33-.2c-.12-.21-.25-.43-.37-.66l-.05,0-1.08-2.15c-1.45-2.79-2.79-5.65-4-8.54a.37.37,0,1,1,.69-.29h0l.52,1.21a.37.37,0,0,1,.32.23,100.81,100.81,0,0,0,4.62,9.81.38.38,0,0,1-.15.51A.41.41,0,0,1,390.24,211.91Z"/>
        <path class="cls-4" d="M384.92,201.09a.42.42,0,0,1-.31-.15.38.38,0,0,1,0-.37l-.79.35a.37.37,0,0,1-.5-.18.39.39,0,0,1,.19-.5q1.63-.75,3.3-1.44a10.43,10.43,0,0,1,2.7-1.1q1.23-.48,2.46-.93a.38.38,0,0,1,.47.21.37.37,0,0,1-.18.48l-.05,0a.33.33,0,0,1,.15.3.37.37,0,0,1-.37.37h-.13a8.74,8.74,0,0,0-1.14.08l-5.59,2.81A.38.38,0,0,1,384.92,201.09Z"/>
        <path class="cls-4" d="M393.75,210.05a.37.37,0,0,1-.3-.59,1.64,1.64,0,0,0,.23-1.19,33.27,33.27,0,0,1-2.27-10.56l-.17-.77a.38.38,0,1,1,.74-.16l.06.28a.4.4,0,0,1,.1.18l2.14,10.1c0,.18.08.38.11.58l.06.27a.34.34,0,0,1,0,.2,2.25,2.25,0,0,1-.38,1.51A.39.39,0,0,1,393.75,210.05Z"/>
        <path class="cls-4" d="M390,211.94a.38.38,0,0,1-.32-.18.37.37,0,0,1,0-.45c.13-.14.27-.28.41-.41v0a.38.38,0,0,1,.33-.41l.23,0a7.43,7.43,0,0,1,2.89-1.31.38.38,0,0,1,.42.2.39.39,0,0,1,0,.26c.72-.37,1.42-.77,2.1-1.21a.37.37,0,0,1,.52.1.36.36,0,0,1-.11.52,23.07,23.07,0,0,1-6.43,2.92Z"/>
        <path class="cls-4" d="M341.24,222a.75.75,0,0,1-.39-.12.56.56,0,0,1-.25-.6q.15-.56,1-.63l35.64-3.16a.37.37,0,0,1,.41.34.36.36,0,0,1-.34.4l-35.57,3.16a.47.47,0,0,1-.16.5A.57.57,0,0,1,341.24,222Zm-.23-.41h0Z"/>
        <path class="cls-4" d="M372.32,187.39a3.92,3.92,0,0,1-1.58-.32,5.63,5.63,0,0,1-3-4.19,9,9,0,0,1-.18-1.46c-.06-.48-.1-.95-.12-1.39a4.74,4.74,0,0,1,.29-2.11,2.26,2.26,0,0,1,1.15-1.17,6,6,0,0,1,1-1.09,3.92,3.92,0,0,1,2.09-1,4.45,4.45,0,0,1,3.29,1.24,7.6,7.6,0,0,1,2.68,4.87,5.92,5.92,0,0,1-2,5.18,7,7,0,0,1-3.62,1.45Zm-3.89-5.33a5.43,5.43,0,0,0,2.39,3.83,4.14,4.14,0,0,0,3.74,0,4.07,4.07,0,0,0,1.4-1.51,5.88,5.88,0,0,0-.43-5.71,4,4,0,0,0-2.4-1.91,3.54,3.54,0,0,0-3.25,1.58A10.73,10.73,0,0,0,368.43,182.06ZM372.7,176a3.43,3.43,0,0,1,.56.05,4.55,4.55,0,0,1,2.91,2.26,7.3,7.3,0,0,1,1,3l0-.44a6.88,6.88,0,0,0-2.42-4.38,3.76,3.76,0,0,0-2.72-1.07,3.29,3.29,0,0,0-1.69.84,4.64,4.64,0,0,0-.5.49.39.39,0,0,1,.11.29.38.38,0,0,1-.39.36.81.81,0,0,0-.22,0,6.54,6.54,0,0,0-.81,1.87,6.78,6.78,0,0,1,.74-1.31A4.37,4.37,0,0,1,372.7,176Z"/>
        <path class="cls-4" d="M372.59,182.24a.38.38,0,0,1-.34-.22l-.4-.85a.38.38,0,0,1,.18-.5.39.39,0,0,1,.28,0,1.4,1.4,0,0,1,.19-.41.38.38,0,0,1,.43-.15,1,1,0,0,1,.64,1.2,1.15,1.15,0,0,1-.27.59.31.31,0,0,1-.11.21.36.36,0,0,1-.35.1,1,1,0,0,1-.25,0Z"/>
        <path class="cls-4" d="M372.92,181.77a.38.38,0,0,1-.38-.36l-.23-4.46a.38.38,0,0,1,.36-.39.37.37,0,0,1,.39.35l.23,4.46a.37.37,0,0,1-.35.4Z"/>
        <path class="cls-4" d="M370.55,182.56c-.57,0-.74-.29-.79-.47a.48.48,0,0,1,.22-.53.54.54,0,0,1,.64,0,.35.35,0,0,1,.1.21l4.28,0a.34.34,0,0,1,.37.37.37.37,0,0,1-.37.38l-4.44,0Z"/>
        <path class="cls-4" d="M325.85,243.68a.38.38,0,0,1,0-.75l112.85-9.85a.37.37,0,0,1,.41.34.38.38,0,0,1-.34.41l-112.85,9.85Z"/>
        <path class="cls-4" d="M370.44,185a.42.42,0,0,1-.21-.06.38.38,0,0,1-.11-.52l1.89-3a.37.37,0,0,1,.52-.12h0l0,0a.38.38,0,0,1,.38.65,2.56,2.56,0,0,0-.73.62l-.41.7a.33.33,0,0,1-.19.16l-.87,1.36A.36.36,0,0,1,370.44,185Z"/>
        <path class="cls-4" d="M394.27,237.1a.41.41,0,0,1-.3-.14.39.39,0,0,1,0-.46L395.8,234a.38.38,0,0,1,.61.44L395.24,236a5.63,5.63,0,0,1,1.42-.09.38.38,0,0,1,.35.4.37.37,0,0,1-.4.35,4.56,4.56,0,0,0-2.19.38A.28.28,0,0,1,394.27,237.1Z"/>
        <path class="cls-4" d="M403.37,236.85h0a.35.35,0,0,1-.34-.25,1.21,1.21,0,0,1-.05-.18.35.35,0,0,1-.17-.19,2.51,2.51,0,0,1-.09-1.33,5.74,5.74,0,0,1,.09-1.31.37.37,0,0,1,.44-.3.36.36,0,0,1,.3.34h.08a.37.37,0,0,1,.28.25,3.79,3.79,0,0,1-.18,2.75A.39.39,0,0,1,403.37,236.85Z"/>
        <path class="cls-4" d="M398.59,238a.36.36,0,0,1-.37-.32,2.91,2.91,0,0,1,.66-2.26,3,3,0,0,1,2.06-1.13.37.37,0,0,1,.4.35.38.38,0,0,1-.34.4,2.2,2.2,0,0,0-1.54.85,2.23,2.23,0,0,0-.5,1.68.38.38,0,0,1-.32.43Z"/>
        <path class="cls-4" d="M399.06,238.23l-.11,0a.38.38,0,0,1-.25-.47,7.24,7.24,0,0,1,2.85-3.91.38.38,0,0,1,.43.62,6.47,6.47,0,0,0-2.56,3.51A.38.38,0,0,1,399.06,238.23Z"/>
        <path class="cls-4" d="M401.05,234.47a7,7,0,0,1-2.82-.59c-.59,0-1.18.05-1.76.11a.37.37,0,0,1-.42-.32.39.39,0,0,1,.32-.42c.4-.06.81-.11,1.21-.15a.37.37,0,0,1,.49-.12l.11.06a35.89,35.89,0,0,1,7.18,0,.37.37,0,0,1,.34.41.37.37,0,0,1-.41.33c-.91-.09-1.82-.15-2.73-.17a.36.36,0,0,1,.18.32.36.36,0,0,1-.3.36A6.43,6.43,0,0,1,401.05,234.47Z"/>
        <path class="cls-4" d="M424.12,233.59a.37.37,0,0,1-.37-.33c-.3-2.57-.6-5.16-.9-7.75,0,1,0,2.08.07,3.12a.36.36,0,0,1-.36.38.39.39,0,0,1-.39-.36q-.14-6.37-.41-12.76c-1.54-13.9-2.89-28-3.53-42l-.28-3a.37.37,0,1,1,.74-.06l.09,1a.38.38,0,0,1,.11.23c1.4,11.49,2.45,23.11,3.14,34.73l2.47,26.46a.39.39,0,0,1-.34.41Z"/>
        <path class="cls-4" d="M418.07,170a.38.38,0,0,1-.07-.75,78.77,78.77,0,0,1,19-1,.37.37,0,0,1,.35.4.38.38,0,0,1-.4.35,77.29,77.29,0,0,0-18.85,1Z"/>
        <path class="cls-4" d="M420.09,170.14a.37.37,0,0,1-.37-.33.37.37,0,0,1,.33-.42l16.16-2a.38.38,0,0,1,.42.33.39.39,0,0,1-.33.42l-16.16,2Z"/>
        <path class="cls-4" d="M340.63,214.21a.37.37,0,0,1-.37-.33l-5.1-45.65a.37.37,0,0,1,.33-.42.38.38,0,0,1,.41.33L341,213.8a.36.36,0,0,1-.33.41Z"/>
        <path class="cls-4" d="M317,216.47a.37.37,0,0,1-.28-.13.39.39,0,0,1-.08-.34,1.26,1.26,0,0,1,.69-.81,1.29,1.29,0,0,1,1.05-.06.36.36,0,0,1,.22.44L335.36,214a50.23,50.23,0,0,0-9.88-.37.39.39,0,0,1-.4-.35.38.38,0,0,1,.35-.4,50.51,50.51,0,0,1,11.65.63l.15,0c.4.07.81.14,1.22.18l2.26-.2a.37.37,0,0,1,.4.28.39.39,0,0,1-.23.44,5.2,5.2,0,0,1-2.44.24l-21.36,2Z"/>
        <path class="cls-4" d="M328.1,214.06a4.05,4.05,0,0,1-3.34-2.12,10.1,10.1,0,0,1-.82-4.86.38.38,0,0,1,.38-.38.42.42,0,0,1,.37.38,9.36,9.36,0,0,0,.73,4.5c.68,1.23,2.25,2.15,3.52,1.54a.37.37,0,0,1,.33.67A2.6,2.6,0,0,1,328.1,214.06Z"/>
        <path class="cls-4" d="M329.81,214.26a.39.39,0,0,1-.24-.1,2.3,2.3,0,0,1-.76-2,.38.38,0,0,1,.42-.33.39.39,0,0,1,.33.42,1.57,1.57,0,0,0,.35,1.15c.84-.41,1.44-1.44,1.76-3.06a21.11,21.11,0,0,0,.39-4,.37.37,0,0,1,.37-.38h0a.38.38,0,0,1,.38.37,21.13,21.13,0,0,1-.41,4.2c-.4,2-1.23,3.28-2.46,3.71Z"/>
        <path class="cls-4" d="M324.81,206.94a.38.38,0,0,1-.37-.31.37.37,0,0,1,.3-.43c2.5-.46,5-1,7.48-1.59a.38.38,0,0,1,.45.28.37.37,0,0,1-.27.45c-2.49.6-5,1.13-7.52,1.59Z"/>
        <path class="cls-4" d="M328.9,206h-.09a.37.37,0,0,1-.27-.45,11.33,11.33,0,0,0-1.09-8,20.48,20.48,0,0,0,.78,7.18.38.38,0,0,1-.25.47.38.38,0,0,1-.47-.26,21.27,21.27,0,0,1-.7-8.58.36.36,0,0,1,.28-.32.37.37,0,0,1,.4.15,12,12,0,0,1,1.77,9.57A.36.36,0,0,1,328.9,206Z"/>
        <path class="cls-4" d="M328.49,206a5.43,5.43,0,0,1-5.22-4.88.38.38,0,0,1,.08-.25.75.75,0,0,1,.5-.28,1.43,1.43,0,0,1,.95.35,7.8,7.8,0,0,1,2.6,4,.33.33,0,0,1,0,.14,4.45,4.45,0,0,0,1.13.15h0a.38.38,0,0,1,.38.37.38.38,0,0,1-.38.38Zm-4.44-4.64a4.69,4.69,0,0,0,2.51,3.41,7.08,7.08,0,0,0-2.23-3.25A1,1,0,0,0,324.05,201.38Z"/>
        <path class="cls-4" d="M331.11,206.09a.35.35,0,0,1-.17,0,.38.38,0,0,1-.17-.5,30.1,30.1,0,0,0,1.81-4.85,5.16,5.16,0,0,0-2.05,3.63.36.36,0,0,1-.4.34.36.36,0,0,1-.34-.4,5.89,5.89,0,0,1,3.22-4.71.38.38,0,0,1,.53.43,30.08,30.08,0,0,1-2.1,5.88A.36.36,0,0,1,331.11,206.09Z"/>
        <path class="cls-4" d="M338.69,214.63a.38.38,0,0,1-.37-.32,401.43,401.43,0,0,1-4.54-44.19.38.38,0,0,1,.75,0,402.24,402.24,0,0,0,4.53,44.1.36.36,0,0,1-.31.43Z"/>
        <path class="cls-4" d="M316.86,215.2a.38.38,0,0,1-.37-.37.37.37,0,0,1,.37-.38,182.53,182.53,0,0,0,21.53-1.63.38.38,0,0,1,.42.32.38.38,0,0,1-.32.43,184,184,0,0,1-21.62,1.63Z"/>
        <path class="cls-4" d="M336.33,244.87a.38.38,0,0,1-.37-.32l-2.1-14.37a.38.38,0,0,1,.75-.11l2.09,14.37a.38.38,0,0,1-.31.43Z"/>
        <path class="cls-4" d="M334.36,231.84a.38.38,0,0,1-.38-.36.37.37,0,0,1,.36-.39l8.47-.4a.38.38,0,1,1,0,.75l-8.48.39Z"/>
        <path class="cls-4" d="M342,241.86h0a.37.37,0,0,1-.35-.4l.75-10.6a.38.38,0,0,1,.4-.35.38.38,0,0,1,.35.4l-.75,10.61A.37.37,0,0,1,342,241.86Z"/>
        <path class="cls-4" d="M335.07,234.45a.38.38,0,0,1-.37-.34.37.37,0,0,1,.34-.41l7-.67a.79.79,0,0,1,.79.28.5.5,0,0,1,0,.54.58.58,0,0,1-.48.3.57.57,0,0,1-.4-.26l0-.1-6.85.66Z"/>
        <path class="cls-4" d="M338.14,233.73a.39.39,0,0,1-.37-.3l-.42-2-.12,0a.54.54,0,0,1-.28-.59.44.44,0,0,1,.45-.37h0c.12,0,.52.05.64.66l.47,2.19a.39.39,0,0,1-.29.45Z"/>
        <path class="cls-4" d="M339.71,234a.36.36,0,0,1-.3-.15,2.14,2.14,0,0,1-.2-2.18.38.38,0,0,1,.5-.16.37.37,0,0,1,.17.5,1.37,1.37,0,0,0,.13,1.39.37.37,0,0,1-.3.6Z"/>
        <path class="cls-4" d="M431.65,228.14a.36.36,0,0,1-.36-.3,443.86,443.86,0,0,1-6.84-61.26.45.45,0,0,1-.42-.07.67.67,0,0,1-.14-.79.54.54,0,0,1,.6-.32c.25,0,.67.26.7,1.12A447.19,447.19,0,0,0,432,227.7a.37.37,0,0,1-.3.44Z"/>
        <path class="cls-4" d="M431.5,234.26a.38.38,0,0,1-.37-.32,503.37,503.37,0,0,1-5.26-69.48.39.39,0,0,1,.38-.38h0a.37.37,0,0,1,.37.38,503.46,503.46,0,0,0,3.2,53.59.35.35,0,0,1,.24-.12.39.39,0,0,1,.41.34l1.4,15.58a.36.36,0,0,1-.33.4Z"/>
        <path class="cls-4" d="M435.85,167.86a.25.25,0,0,1-.12,0c-1.18-.4-2.38-.8-3.59-1.15l-5.84-1a.38.38,0,0,1-.32-.4.35.35,0,0,1,.38-.34c.44,0,.88,0,1.32.06-1.17-.26-2.35-.47-3.54-.62a.37.37,0,1,1,.09-.74,38.32,38.32,0,0,1,9.71,2.55l4.14.69a.37.37,0,0,1,.31.43.37.37,0,0,1-.43.31l-1.76-.29a.39.39,0,0,1,0,.26A.38.38,0,0,1,435.85,167.86Z"/>
        <path class="cls-4" d="M429.54,231.72a.69.69,0,0,1-.28-.05,2.23,2.23,0,0,1-1.19-1.77c-2-17-3.49-34.23-4.38-51.3l0-.47a64.38,64.38,0,0,0-1.45-12.37.38.38,0,0,1,.73-.19,65.62,65.62,0,0,1,1.47,12.52l0,.47c.89,17.06,2.36,34.3,4.38,51.25a1.59,1.59,0,0,0,.68,1.15s.06,0,.13,0a.38.38,0,0,1,.53,0,.39.39,0,0,1,0,.54A.89.89,0,0,1,429.54,231.72Z"/>
        <path class="cls-4" d="M418.68,175.26a.38.38,0,0,1-.22-.07.37.37,0,0,1-.13-.43,40.89,40.89,0,0,1,2.45-5.54.36.36,0,0,1,.5-.16.37.37,0,0,1,.16.51,39.59,39.59,0,0,0-1.84,4,10,10,0,0,0,.88-1.15.38.38,0,0,1,.52-.11.38.38,0,0,1,.11.52,9.82,9.82,0,0,1-2.2,2.39A.32.32,0,0,1,418.68,175.26Z"/>
        <path class="cls-4" d="M419.2,177.16h-.1a.37.37,0,0,1-.26-.46,31.31,31.31,0,0,1,2.09-5.69.38.38,0,0,1,.5-.17.37.37,0,0,1,.18.5,30.28,30.28,0,0,0-2.05,5.55A.36.36,0,0,1,419.2,177.16Z"/>
        <path class="cls-4" d="M420.25,178.85a.39.39,0,0,1-.34-.21c-.3-.62.19-2,.87-3.69.08-.21.15-.41.22-.57v0c.62-2.21.76-2.18,1.08-2.1s.3.48.25.76a.36.36,0,0,1-.2.26c-.15.44-.34,1.06-.4,1.26h0a.19.19,0,0,1,0,.07c-.06.17-.15.38-.24.61-.29.74-1.06,2.72-.88,3.09a.38.38,0,0,1-.18.5A.32.32,0,0,1,420.25,178.85Z"/>
        <path class="cls-4" d="M426.27,235.39h-.07a.38.38,0,0,1-.3-.44l.83-4.45-.46.66a.38.38,0,0,1-.44.14.34.34,0,0,1-.18-.15l0,.07a.36.36,0,0,1-.46.17.37.37,0,0,1-.24-.43q.3-1.29.66-2.55l-1.22,2.14a.37.37,0,0,1-.48.16.37.37,0,0,1-.2-.45l1.91-6.17-1.5,2.58a.37.37,0,0,1-.48.15.36.36,0,0,1-.2-.46l1.91-5.78-1.9,3.29a.38.38,0,0,1-.48.15.36.36,0,0,1-.2-.46l1.62-4.84c-.35.58-.72,1.14-1.1,1.7a.38.38,0,0,1-.67-.34l1.74-5-1.18,2.1a.38.38,0,0,1-.69-.3c.43-1.33.89-2.66,1.39-4l-1,1.7a.37.37,0,0,1-.48.15.37.37,0,0,1-.19-.46l1.64-4.57-.6,1.08a.37.37,0,0,1-.68-.29l1.6-5.14-1.51,2.55a.38.38,0,0,1-.47.15.38.38,0,0,1-.21-.45c.33-1.21.71-2.41,1.13-3.61l-.37.5a.37.37,0,0,1-.47.1.38.38,0,0,1-.19-.44l1.26-3.94c-.34.47-.7.93-1.08,1.37a.39.39,0,0,1-.45.09.38.38,0,0,1-.2-.41,31.28,31.28,0,0,1,1-3.94c-.13.16-.26.32-.4.47a.37.37,0,0,1-.47.08.38.38,0,0,1-.17-.44c.36-1.11.76-2.21,1.21-3.3l-1.12,1.55a.39.39,0,0,1-.48.12.37.37,0,0,1-.17-.46c.56-1.57,1.18-3.13,1.86-4.66l-1.34,1.8a.36.36,0,0,1-.47.11.38.38,0,0,1-.19-.44c.52-1.73,1.14-3.43,1.83-5.11l-1.76,2.47a.38.38,0,0,1-.67-.33c.3-1,.63-1.92,1-2.86a.36.36,0,0,1-.25,0,.38.38,0,0,1-.24-.42,18.94,18.94,0,0,1,.62-2.55q-.42.54-.84,1a.39.39,0,0,1-.47.1.39.39,0,0,1-.18-.44c.3-1.11.66-2.22,1.05-3.31l-.52.66a.37.37,0,0,1-.65-.35c.6-1.93,1.29-3.86,2.05-5.75a.42.42,0,0,1,0-.31l.83-1.7a.38.38,0,0,1,.68.32c-.78,1.77-1.49,3.58-2.12,5.41a25.55,25.55,0,0,0,1.49-2.59c.09-.19.18-.39.28-.58a.37.37,0,0,1,.5-.17.38.38,0,0,1,.18.49l-.29.59a46.52,46.52,0,0,0-2.21,5.6c.58-.79,1.12-1.6,1.63-2.43.22-.42.46-.83.71-1.23a.38.38,0,0,1,.65.38c-.23.41-.47.82-.71,1.22a19.56,19.56,0,0,0-1.42,3.45l1.77-2.9a.37.37,0,0,1,.51-.13.38.38,0,0,1,.13.51A42.76,42.76,0,0,0,421.8,187l2.51-3.52a.37.37,0,0,1,.64.38,55.78,55.78,0,0,0-2.67,6.33l2.27-3.06a.38.38,0,0,1,.5-.1.37.37,0,0,1,.14.49c-.9,1.76-1.73,3.56-2.47,5.4l1.76-2.45a.37.37,0,0,1,.5-.1.39.39,0,0,1,.13.5,43.1,43.1,0,0,0-2.07,4.6,18.25,18.25,0,0,0,1.09-1.87.89.89,0,0,1,.08-.17.37.37,0,1,1,.67.33l-.08.17a30.46,30.46,0,0,0-2.16,5.9,17.88,17.88,0,0,0,1.68-2.83.37.37,0,0,1,.47-.19.38.38,0,0,1,.22.47l-1.47,4.61a24.78,24.78,0,0,0,1.23-2.34l.35-.78a.37.37,0,0,1,.49-.19.37.37,0,0,1,.2.49c-.11.26-.23.53-.35.79-.7,1.62-1.34,3.29-1.9,5l1.54-2.6a.37.37,0,0,1,.48-.15.36.36,0,0,1,.2.45l-1.44,4.63,1.07-1.95a.37.37,0,0,1,.48-.16.38.38,0,0,1,.2.47l-1.92,5.35,1.67-2.81a.37.37,0,0,1,.49-.14.38.38,0,0,1,.17.49c-.71,1.57-1.37,3.18-2,4.8l1.18-2.09a.37.37,0,0,1,.48-.16.38.38,0,0,1,.2.47l-2,5.74c.53-.94,1-1.91,1.46-2.89a.37.37,0,0,1,.69.27l-1.93,5.76,1.88-3.23a.37.37,0,0,1,.47-.15.38.38,0,0,1,.21.46l-1.93,5.81,1.36-2.33a.37.37,0,0,1,.47-.15.36.36,0,0,1,.21.45l-1.87,6,1.51-2.65a.37.37,0,0,1,.67.32q-.68,1.69-1.2,3.45l.06-.11h0A.37.37,0,0,1,427,228a.37.37,0,0,1,.14.51h0l-.21.42.22-.31a.38.38,0,0,1,.45-.13.37.37,0,0,1,.22.42l-1.14,6.14A.38.38,0,0,1,426.27,235.39Z"/>
        <path class="cls-4" d="M433.62,235.59a.38.38,0,0,1-.37-.33,667.21,667.21,0,0,1-6.09-70,.38.38,0,0,1,.37-.38.35.35,0,0,1,.38.36A665.92,665.92,0,0,0,434,235.16a.37.37,0,0,1-.32.42Z"/>
        <path class="cls-4" d="M433.09,200.47a.38.38,0,0,1-.21-.07.38.38,0,0,1-.26-.22,11.66,11.66,0,0,1-.73-5.42.38.38,0,0,1,.41-.33.29.29,0,0,1,.18.07.32.32,0,0,1,.2-.08.39.39,0,0,1,.35.16,5.67,5.67,0,0,1,.4,5.37.37.37,0,0,1-.18.48A.47.47,0,0,1,433.09,200.47Zm-.19-2.07.09.27a3.58,3.58,0,0,0-.22-2.61A7.37,7.37,0,0,0,432.9,198.4Z"/>
        <path class="cls-4" d="M428.69,234.09h0a9.87,9.87,0,0,1-4.74-1.13c-1.46-.93-2.42-3-1.54-4.56a.37.37,0,1,1,.65.36c-.67,1.21.12,2.82,1.29,3.57a9.25,9.25,0,0,0,4.39,1,.38.38,0,0,1,0,.75Z"/>
        <path class="cls-4" d="M346.7,226a.28.28,0,0,1-.13,0,.35.35,0,0,1-.23-.45,36.18,36.18,0,0,1,2.38-6.18.36.36,0,0,1,.5-.17.37.37,0,0,1,.17.5,36.26,36.26,0,0,0-1.78,4.27.39.39,0,0,1,.06.4l-.63,1.43A.38.38,0,0,1,346.7,226Z"/>
        <path class="cls-4" d="M351.65,240.92a.34.34,0,0,1-.19,0,.37.37,0,0,1-.15-.48q2.13-4.57,4.58-9l-4.3,6.24a.38.38,0,0,1-.49.12.37.37,0,0,1-.17-.47c.76-1.87,1.59-3.71,2.47-5.53q-1.68,2.43-3.41,4.82a.37.37,0,0,1-.65-.36q1.05-2.59,2.24-5.13c-.61.82-1.23,1.63-1.88,2.42a.37.37,0,0,1-.64-.37c.62-1.57,1.27-3.12,2-4.66q-.75,1.06-1.53,2.1a.37.37,0,0,1-.46.11.38.38,0,0,1-.2-.44c.36-1.28.78-2.53,1.26-3.76-.62.83-1.25,1.65-1.91,2.44a.39.39,0,0,1-.47.1.38.38,0,0,1-.18-.44c.26-.86.55-1.72.87-2.55l-.76.93a.37.37,0,0,1-.46.09.38.38,0,0,1-.19-.44,30.82,30.82,0,0,1,2.84-6.63.37.37,0,0,1,.51-.14.39.39,0,0,1,.14.52,29.11,29.11,0,0,0-2.09,4.45c.58-.79,1.14-1.61,1.65-2.46s.86-1.58,1.32-2.34a.38.38,0,0,1,.51-.13.38.38,0,0,1,.15.49c-.41.8-.85,1.59-1.32,2.35a35.27,35.27,0,0,0-1.79,4.08q1.69-2.22,3.17-4.61c.4-.74.83-1.48,1.28-2.2a.38.38,0,0,1,.51-.12.38.38,0,0,1,.14.5c-.41.74-.84,1.48-1.28,2.2a38.42,38.42,0,0,0-2.51,5.73,75.84,75.84,0,0,0,4.17-6.62l.44-.81a.37.37,0,0,1,.51-.14.37.37,0,0,1,.15.5l-.44.81c-1.57,2.87-3,5.84-4.28,8.86q1.8-2.4,3.39-4.95,1.27-2.34,2.66-4.62a.38.38,0,0,1,.51-.13.37.37,0,0,1,.14.5c-.82,1.57-1.71,3.12-2.66,4.63q-1.86,3.45-3.46,7c2-2.89,4-5.82,6-8.77.76-1.25,1.55-2.47,2.37-3.68a.38.38,0,0,1,.51-.1.38.38,0,0,1,.12.52q-1.17,1.83-2.37,3.66a88.53,88.53,0,0,0-4.82,9.08l9.56-13.85a.37.37,0,0,1,.52-.1.38.38,0,0,1,.1.52,151.23,151.23,0,0,0-9.1,15.51c3.61-5.16,7.41-10.22,11.34-15.11a.37.37,0,0,1,.51-.07.38.38,0,0,1,.09.51,141.17,141.17,0,0,0-8.57,14c3.48-4.69,7-9.45,10.35-14.19a.37.37,0,0,1,.52-.09.38.38,0,0,1,.09.52c-2.83,4.23-5.74,8.56-8.27,13.09,3.68-5,7.47-9.93,11.33-14.76a.37.37,0,0,1,.51-.07.39.39,0,0,1,.09.52c-3,4.47-5.87,9.13-8.47,13.89l11.37-15.67a.38.38,0,0,1,.61.44h0a139.42,139.42,0,0,0-9.49,15c3.64-5,7.15-10.06,10.48-15.2a.38.38,0,1,1,.63.41,157,157,0,0,0-8.41,14.29L379,218.88a.36.36,0,0,1,.51-.1.37.37,0,0,1,.11.51,138.91,138.91,0,0,0-8.07,13.94l3.55-5.26a73.52,73.52,0,0,1,5.08-7.53.38.38,0,0,1,.61.44l-5,7.49q-1.71,2.91-3.13,6a64.88,64.88,0,0,0,4.76-6.77c.63-1.11,1.25-2.22,1.88-3.31a.38.38,0,0,1,.51-.14.37.37,0,0,1,.15.5c-.6,1.13-1.23,2.24-1.89,3.32q-1.92,3.41-3.77,6.81a6.21,6.21,0,0,0-.84,2.21,90.53,90.53,0,0,0,5.59-7.6q.58-1,1.23-1.92a.37.37,0,0,1,.51-.1.38.38,0,0,1,.12.51c-.4.64-.81,1.28-1.22,1.91a45.53,45.53,0,0,0-3.16,6.23c.44-.49.85-1,1.25-1.52a29.82,29.82,0,0,1,2.8-4.46.37.37,0,0,1,.5-.09.38.38,0,0,1,.13.49,29.82,29.82,0,0,1-2.8,4.46l-.36.74a12.22,12.22,0,0,0,1.3-1.73c.18-.36.37-.71.57-1.06a.37.37,0,0,1,.5-.14.36.36,0,0,1,.16.49,11,11,0,0,1-.57,1.07,16.46,16.46,0,0,0-1.07,2.73,12.25,12.25,0,0,0,1.88-1.71.38.38,0,0,1,.47-.07,1.46,1.46,0,0,1,.49,2,.38.38,0,0,1-.63-.41.62.62,0,0,0,.07-.52.92.92,0,0,0-.09-.23,13.2,13.2,0,0,1-2.6,2.11.4.4,0,0,1-.42,0,.37.37,0,0,1-.14-.39c.1-.46.22-.9.36-1.35a10.74,10.74,0,0,1-1.12,1,.38.38,0,0,1-.46,0,.38.38,0,0,1-.14-.4c-.28.31-.57.62-.87.92a.38.38,0,0,1-.46.05.37.37,0,0,1-.16-.44c.39-1.05.81-2.09,1.26-3.11q-1.43,1.89-2.94,3.7a.37.37,0,0,1-.36.12.36.36,0,0,1-.28-.26,4.89,4.89,0,0,1,.84-3.62c.06-.09.11-.19.16-.28-.73.93-1.49,1.84-2.27,2.74a.38.38,0,0,1-.63-.4c.35-.82.71-1.64,1.08-2.44l-2.07,3.08a.38.38,0,0,1-.49.12.36.36,0,0,1-.17-.47,63.59,63.59,0,0,1,3.07-6.59L367,237.87a.38.38,0,0,1-.66-.35c.94-2.25,2-4.44,3.16-6.58q-2.72,3.81-5.52,7.52a.37.37,0,0,1-.63-.4c1.23-2.46,2.55-4.9,3.93-7.3l-6,8.33a.38.38,0,0,1-.5.1.37.37,0,0,1-.14-.49c2.05-4,4.27-8,6.64-11.88-3.19,4.13-6.32,8.32-9.35,12.52a.39.39,0,0,1-.5.1.38.38,0,0,1-.14-.49c1.08-2.23,2.27-4.4,3.53-6.54q-2.64,3.59-5.29,7.11a.38.38,0,0,1-.5.1.39.39,0,0,1-.14-.49c1.79-3.63,3.75-7.2,5.86-10.68-3,4-6,8.15-8.77,12.31A.38.38,0,0,1,351.65,240.92Z"/>
      </g>
      <g>
        <path class="cls-4" d="M475.3,168.93a4.58,4.58,0,0,1-.53,0,4,4,0,0,1-1.83-.64,4.44,4.44,0,0,1-1.41-1.75h0a6.07,6.07,0,0,1,1-7.18,6.2,6.2,0,0,1,7.24-1.06,3.58,3.58,0,0,1,1.63,1.39,3.8,3.8,0,0,1,.31,2.21,8.87,8.87,0,0,1-2,5A6,6,0,0,1,475.3,168.93Zm-3.1-2.75a3.78,3.78,0,0,0,1.17,1.46,3.15,3.15,0,0,0,1.48.52,5.16,5.16,0,0,0,4.31-1.82A8.12,8.12,0,0,0,481,161.8a3.22,3.22,0,0,0-.21-1.78,2.83,2.83,0,0,0-1.31-1.08,5.35,5.35,0,0,0-7.27,7.24Z"/>
        <path class="cls-4" d="M472.89,166l.27-.58a6.71,6.71,0,0,1,1.71-2,4.5,4.5,0,0,0,1.63-2.16.79.79,0,0,0,0-.28c0-.19-.3-.33-.53-.39a1.82,1.82,0,0,0-2.06,1.1l-.71-.26a2.58,2.58,0,0,1,2.95-1.57,1.35,1.35,0,0,1,1.08,1,1.51,1.51,0,0,1,0,.61,5.28,5.28,0,0,1-1.87,2.55,9.07,9.07,0,0,0-1.16,1.16,23,23,0,0,0,2.6-.39l.15.74a28.55,28.55,0,0,1-3.43.47Z"/>
        <path class="cls-4" d="M578.2,188.84a8.18,8.18,0,0,1-1.4-.12c-2.94-.56-5.6-3-7.29-6.67a15.54,15.54,0,0,1-1.51-7.94l0-.24a11.17,11.17,0,0,0-.92,3.6.37.37,0,0,1-.41.34.38.38,0,0,1-.34-.41,12.54,12.54,0,0,1,2.33-6.2,9.77,9.77,0,0,1,1.62-2.79,6.64,6.64,0,0,1,1.63-1.78c1.61-1.18,3.82-1.61,6.74-1.3a11.27,11.27,0,0,1,6.21,2.28,10.06,10.06,0,0,1,3,4.9c1.78,5.77-.4,12.22-5.06,15A9.15,9.15,0,0,1,578.2,188.84ZM569,172.92a10.34,10.34,0,0,0-.2,1.26,14.82,14.82,0,0,0,1.44,7.56c1.59,3.46,4,5.73,6.75,6.24a8,8,0,0,0,5.52-1.13c3.94-2.34,6-7.49,5.12-12.47,0,.46.08,1,.09,1.46.07,3.26-.7,5.77-2.28,7.46a11.56,11.56,0,0,1-5.38,2.85,9.44,9.44,0,0,1-4.53.47,7.12,7.12,0,0,1-4.68-3.76,16.57,16.57,0,0,1-1.61-5.75A21.47,21.47,0,0,1,569,172.92Zm1.17-2.32a7.32,7.32,0,0,0-.26,1.05,17.11,17.11,0,0,0,.07,5.35,15.91,15.91,0,0,0,1.53,5.5,6.42,6.42,0,0,0,4.17,3.38,8.79,8.79,0,0,0,4.17-.45,10.88,10.88,0,0,0,5-2.64c1.44-1.54,2.14-3.88,2.08-6.94-.07-2.9-.78-5.16-2.13-6.7-1.92-2.21-5.33-3.09-8.71-2.25A11.9,11.9,0,0,0,570.12,170.6Zm2.26-3.36a.38.38,0,0,1-.15.35,9,9,0,0,0-1.08,1,12.49,12.49,0,0,1,4.75-2.4c.3-.07.6-.14.91-.19a7.43,7.43,0,0,0-4.43,1.26Z"/>
        <path class="cls-4" d="M577.81,183.84a4.76,4.76,0,0,1-.83-.08,4.91,4.91,0,0,1-2-.92l-.26-.17a7.88,7.88,0,0,1-3.35-7.67,6.87,6.87,0,0,1,1-2.59l.09-.24a5,5,0,0,1,3.17-2.76,6.23,6.23,0,0,1,3.05-.21,6.5,6.5,0,0,1,5.5,4.46,8.31,8.31,0,0,1-.48,5.28c-.73,2.41-2.69,4.75-5.34,4.88h-.58Zm-2.41-1.63a5.29,5.29,0,0,0,2.73.87c2.14-.19,4-2.2,4.89-4.39h0a7,7,0,0,0,.17-.73,7.22,7.22,0,0,0-3-7.41,4.85,4.85,0,0,0-1.64-.62,5.27,5.27,0,0,0-1.19,0,5.75,5.75,0,0,0-2.85,1.21,4.62,4.62,0,0,1,1.78-.69,2,2,0,0,1,1.57.37,1,1,0,0,1,.36.81.38.38,0,0,1-.38.36h0a.37.37,0,0,1-.36-.39.26.26,0,0,0-.11-.22,1.26,1.26,0,0,0-.95-.19,4.72,4.72,0,0,0-3.59,3.44,0,0,0,0,0,0,0,13.56,13.56,0,0,0,1.62,4.85.37.37,0,0,1-.67.33,26.26,26.26,0,0,1-1.07-2.41,8.8,8.8,0,0,0,.81,2.43A6.7,6.7,0,0,0,575.4,182.21Z"/>
        <path class="cls-4" d="M579.81,167.83h0a.37.37,0,0,1-.32-.42c.09-.75.16-1.51.2-2.27a.37.37,0,0,1-.24-.35l-.06-3.73,0,0a12.16,12.16,0,0,0-1.84,5.53.38.38,0,0,1-.37.32h0a.38.38,0,0,1-.37-.32c0-.22-.05-.43-.07-.65a.36.36,0,0,1-.06-.25c0-.13,0-.27,0-.4a8.28,8.28,0,0,1,1.06-3.92,2,2,0,0,1,1.17-1h0a7.7,7.7,0,0,1,.54-.6.43.43,0,0,1,.27-.12.38.38,0,0,1,.33,0,.4.4,0,0,1,.23.3c0,.38.07.76.1,1.15a2.27,2.27,0,0,1,.33,1.35,5.2,5.2,0,0,1-.25,1.12,31.92,31.92,0,0,1-.26,4A.36.36,0,0,1,579.81,167.83Z"/>
        <path class="cls-4" d="M516.31,169a.39.39,0,0,1-.38-.36.38.38,0,0,1,.36-.39,204.45,204.45,0,0,0,30.28-4.11.38.38,0,0,1,.45.29.38.38,0,0,1-.29.44,204.75,204.75,0,0,1-30.4,4.13Z"/>
        <path class="cls-4" d="M516.34,169.34a.38.38,0,0,1-.05-.75c10.1-1.17,20.35-2.24,30.47-3.2a.38.38,0,0,1,.07.75c-10.11,1-20.36,2-30.45,3.2Z"/>
        <path class="cls-4" d="M512.82,176.35a.38.38,0,0,1-.37-.34.37.37,0,0,1,.33-.41c12.58-1.27,25.28-3,37.74-5.07a.38.38,0,1,1,.13.74c-12.48,2.1-25.19,3.81-37.79,5.07Z"/>
        <path class="cls-4" d="M524.14,213.44H524c-3-.09-5.14-2.87-5.77-5.57a7.61,7.61,0,0,1,.88-6,3.25,3.25,0,0,1,2.69-1.52,6,6,0,0,1,3-1,6.43,6.43,0,0,1,6.5,5.64,8,8,0,0,1-2.43,6.16A7,7,0,0,1,524.14,213.44Zm-3.7-11.88a3.26,3.26,0,0,0-.71.73,6.88,6.88,0,0,0-.77,5.41c.56,2.42,2.48,4.91,5.06,5a6.09,6.09,0,0,0,4.34-2.09,7.25,7.25,0,0,0,2.22-5.57,5.68,5.68,0,0,0-5.72-5,5.17,5.17,0,0,0-2.14.61.37.37,0,0,1,.07.5.38.38,0,0,1-.52.1,1.11,1.11,0,0,0-.29-.14,5.61,5.61,0,0,0-2.33,4.43,5.68,5.68,0,0,0,5.24,5.46.37.37,0,0,1,.36.39.39.39,0,0,1-.39.36,6.46,6.46,0,0,1-6-6.21A6.17,6.17,0,0,1,520.44,201.56Z"/>
        <path class="cls-4" d="M523.91,210.44a3.94,3.94,0,0,1-3.72-3.38,4.45,4.45,0,0,1,2.59-4.47.39.39,0,0,1,.5.19.45.45,0,0,1,0,.16,3.32,3.32,0,0,1,3.07,1.67,4.48,4.48,0,0,1,.91,2,3.23,3.23,0,0,1-.75,2.53,3.47,3.47,0,0,1-2.51,1.29Zm-2.39-5.81a3.53,3.53,0,0,0-.59,2.34,3.15,3.15,0,0,0,3.07,2.71,2.7,2.7,0,0,0,2-1,2.44,2.44,0,0,0,.59-1.94,3.88,3.88,0,0,0-.78-1.67c-.28-.39-1.27-1.61-2.39-1.36a2,2,0,0,0-1.27,2.09,6.47,6.47,0,0,0,1.09,2.77.37.37,0,0,1-.14.51.36.36,0,0,1-.51-.13,7.13,7.13,0,0,1-1.19-3.1A3.31,3.31,0,0,1,521.52,204.63Z"/>
        <path class="cls-4" d="M536.52,211.85a.37.37,0,0,1,0-.74c6-.81,12.07-1.34,18.1-1.58a.38.38,0,0,1,0,.75c-6,.24-12.07.76-18,1.57Z"/>
        <path class="cls-4" d="M545,207.85h-.05a1.65,1.65,0,0,1-1.36-1.61c0-.18,0-.37,0-.56a2.47,2.47,0,0,0-.17-1.05,1,1,0,0,0-.79-.53,1,1,0,0,0-1.17,1.17,1.09,1.09,0,0,0,.53.79.36.36,0,0,1,.17.5.38.38,0,0,1-.5.17,1.83,1.83,0,0,1-.94-1.34,1.81,1.81,0,0,1,.46-1.57,1.79,1.79,0,0,1,1.57-.46,1.76,1.76,0,0,1,1.34.93,3.12,3.12,0,0,1,.25,1.36c0,.17,0,.34,0,.51.06.45.31.92.65.94a1.14,1.14,0,0,0,.71-.38,14.08,14.08,0,0,0,2.55-2.9.38.38,0,0,1,.48-.13.37.37,0,0,1,.19.45,3.82,3.82,0,0,0-.06,2.17,11,11,0,0,0,3.7-4.72.38.38,0,0,1,.49-.2.36.36,0,0,1,.21.48,11.88,11.88,0,0,1-4.38,5.35.39.39,0,0,1-.32,0,.37.37,0,0,1-.23-.21,4.43,4.43,0,0,1-.35-1.61,14.89,14.89,0,0,1-1.79,1.85A1.85,1.85,0,0,1,545,207.85Z"/>
        <path class="cls-4" d="M528.85,184.88a.38.38,0,0,1,0-.76,197.65,197.65,0,0,0,24.54-2.21.37.37,0,0,1,.12.74,201.41,201.41,0,0,1-24.64,2.23Z"/>
        <path class="cls-4" d="M530.4,188.47a.38.38,0,0,1-.37-.32.37.37,0,0,1,.32-.42c7.84-1.06,15.81-1.84,23.7-2.33a.38.38,0,0,1,.4.36.38.38,0,0,1-.35.39c-7.88.48-15.83,1.26-23.65,2.32Z"/>
        <path class="cls-4" d="M530.48,192.45a.37.37,0,0,1-.37-.33.37.37,0,0,1,.32-.42l23.62-2.95a.37.37,0,0,1,.42.32.38.38,0,0,1-.33.42l-23.62,2.95Z"/>
        <path class="cls-4" d="M495.74,200.71a.53.53,0,0,1-.2-.05.38.38,0,0,1-.11-.52c3.16-5,6.6-9.86,10.22-14.51a.37.37,0,0,1,.52-.06.36.36,0,0,1,.07.52c-3.61,4.64-7,9.5-10.18,14.45A.37.37,0,0,1,495.74,200.71Z"/>
        <path class="cls-4" d="M488.32,215.67l-.12,0a.38.38,0,0,1-.24-.48A83.47,83.47,0,0,1,506,184.81a.38.38,0,1,1,.55.51,82.65,82.65,0,0,0-17.89,30.09A.38.38,0,0,1,488.32,215.67Z"/>
        <path class="cls-4" d="M487,230.81h0a.38.38,0,0,1-.35-.39,77.94,77.94,0,0,1,10.75-35.72.37.37,0,1,1,.64.38,77.25,77.25,0,0,0-10.64,35.37A.38.38,0,0,1,487,230.81Z"/>
        <path class="cls-4" d="M487.38,233.17a.37.37,0,0,1-.37-.3c-1.59-8.25.91-16.69,3.11-24.13a.38.38,0,0,1,.47-.25.38.38,0,0,1,.25.47c-2.18,7.36-4.65,15.69-3.1,23.77a.38.38,0,0,1-.29.44Z"/>
        <path class="cls-4" d="M487.59,234.93a.36.36,0,0,1-.36-.3,33,33,0,0,1-.32-11.13.37.37,0,1,1,.74.11,32.33,32.33,0,0,0,.31,10.88.38.38,0,0,1-.29.44Z"/>
        <path class="cls-4" d="M507.39,233.23a.36.36,0,0,1-.27-.12.38.38,0,0,1,0-.53c3.53-3.34,7.52-7.13,9.4-12a.37.37,0,0,1,.48-.22.38.38,0,0,1,.21.49c-1.93,5-6,8.85-9.57,12.25A.37.37,0,0,1,507.39,233.23Z"/>
        <path class="cls-4" d="M507.5,232.82a.37.37,0,0,1-.32-.17.38.38,0,0,1,.11-.52A24.81,24.81,0,0,0,517,220a.38.38,0,1,1,.71.26,25.7,25.7,0,0,1-10,12.53A.36.36,0,0,1,507.5,232.82Z"/>
        <path class="cls-4" d="M507.79,232.5a.36.36,0,0,1-.27-.12.38.38,0,0,1,0-.53q1.82-1.72,3.56-3.54a80.41,80.41,0,0,0,5.69-8,.38.38,0,0,1,.41-.16.39.39,0,0,1,.28.34c.1,1.5-.88,2.78-1.8,3.87-1.29,1.51-2.63,3-4,4.44l-.38.46a.36.36,0,0,1-.18.12q-1.5,1.55-3.05,3A.42.42,0,0,1,507.79,232.5Z"/>
        <path class="cls-4" d="M502.78,199.16a.36.36,0,0,1-.2-.06.37.37,0,0,1-.12-.51,83.6,83.6,0,0,1,10.09-13.3.38.38,0,0,1,.53,0,.36.36,0,0,1,0,.53,82.7,82.7,0,0,0-10,13.18A.4.4,0,0,1,502.78,199.16Z"/>
        <path class="cls-4" d="M501.65,200.7a.31.31,0,0,1-.2-.07.37.37,0,0,1-.11-.52,124.15,124.15,0,0,1,12.6-15.85.38.38,0,0,1,.55.51A123.38,123.38,0,0,0,502,200.53.4.4,0,0,1,501.65,200.7Z"/>
        <path class="cls-4" d="M503.38,197a.31.31,0,0,1-.18,0,.38.38,0,0,1-.15-.51,38,38,0,0,1,10.67-12.13.39.39,0,0,1,.53.08.38.38,0,0,1-.09.53,36.94,36.94,0,0,0-10.45,11.89A.39.39,0,0,1,503.38,197Z"/>
        <path class="cls-4" d="M515.71,186.86h0a.36.36,0,0,1-.36-.38,4.12,4.12,0,0,0-1.27-3.07.38.38,0,1,1,.51-.55,4.86,4.86,0,0,1,1.51,3.64A.37.37,0,0,1,515.71,186.86Z"/>
        <path class="cls-4" d="M516,190.71a.37.37,0,0,1-.37-.37,19.29,19.29,0,0,0-1.23-6.47.38.38,0,0,1,.67-.33l.42.7a.38.38,0,0,1,0,.42,20.18,20.18,0,0,1,.91,5.67.37.37,0,0,1-.37.38Z"/>
        <path class="cls-4" d="M508.19,202.82a.37.37,0,0,1-.28-.62,41.45,41.45,0,0,0,8.23-14.64.38.38,0,0,1,.47-.25.38.38,0,0,1,.25.47,42.39,42.39,0,0,1-8.38,14.91A.37.37,0,0,1,508.19,202.82Z"/>
        <path class="cls-4" d="M504.27,209.67a.34.34,0,0,1-.23-.08.38.38,0,0,1-.07-.52,110,110,0,0,0,11-17.58.38.38,0,0,1,.5-.16.37.37,0,0,1,.17.5,111.51,111.51,0,0,1-11.09,17.7A.41.41,0,0,1,504.27,209.67Z"/>
        <path class="cls-4" d="M512.4,197.9a.41.41,0,0,1-.18-.05.38.38,0,0,1-.15-.5c.53-1,1.07-2,1.62-3.08l1.4-2.63a.38.38,0,0,1,.67.34,55.62,55.62,0,0,1-3,5.74A.38.38,0,0,1,512.4,197.9Z"/>
        <path class="cls-4" d="M505.54,209.06a.4.4,0,0,1-.15,0,.39.39,0,0,1-.2-.5c1.07-2.53,2.19-5.08,3.32-7.58a.37.37,0,0,1,.43-.21.3.3,0,0,1,.16.08c.41-.82.82-1.64,1.25-2.45a.37.37,0,0,1,.48-.17.38.38,0,0,1,.21.47,59.24,59.24,0,0,1-2.87,6.65.08.08,0,0,0,0,0,11.43,11.43,0,0,1-1,1.66.39.39,0,0,1-.49.11l-.06,0-.75,1.75A.38.38,0,0,1,505.54,209.06Z"/>
        <path class="cls-4" d="M501.91,200.81a.62.62,0,0,1-.51-.25,1.48,1.48,0,0,1,.06-1.49,59.3,59.3,0,0,1,10.1-12.18.37.37,0,0,1,.53,0,.38.38,0,0,1,0,.53,58.72,58.72,0,0,0-10,12,1,1,0,0,0-.11.58.36.36,0,0,1,.39.27.38.38,0,0,1-.26.47A.65.65,0,0,1,501.91,200.81Z"/>
        <path class="cls-4" d="M504.68,195.08a.39.39,0,0,1-.24-.1.38.38,0,0,1,0-.53l7.17-8.07a3.5,3.5,0,0,1,2-1.35,1.63,1.63,0,0,1,1.48.66,1.12,1.12,0,0,1,.15,1.17.37.37,0,0,1-.49.19.39.39,0,0,1-.19-.5.41.41,0,0,0-.07-.42.89.89,0,0,0-.78-.35,2.78,2.78,0,0,0-1.54,1.1L505,195A.37.37,0,0,1,504.68,195.08Z"/>
        <path class="cls-4" d="M508.56,216.92l-.13,0a.37.37,0,0,1-.22-.48A13.39,13.39,0,0,0,507,205a.37.37,0,0,1,.64-.39,14.17,14.17,0,0,1,1.24,12A.37.37,0,0,1,508.56,216.92Z"/>
        <path class="cls-4" d="M504.86,223.5a.36.36,0,0,1-.2-.06.37.37,0,0,1-.11-.52,22.72,22.72,0,0,0,2.74-18.23.38.38,0,0,1,.73-.2,23.5,23.5,0,0,1-2.84,18.84A.4.4,0,0,1,504.86,223.5Z"/>
        <path class="cls-4" d="M510.59,190.51a.38.38,0,0,1-.36-.25s0,0,0-.08a.37.37,0,0,1-.27-.51.51.51,0,0,1,.55-.31.66.66,0,0,1,.26.11,2.43,2.43,0,0,0,2-1.17.39.39,0,0,1,.52-.14.38.38,0,0,1,.13.52A3.13,3.13,0,0,1,511,190.2a.5.5,0,0,1-.31.29Z"/>
        <path class="cls-4" d="M510.85,190.13a.38.38,0,0,1-.05-.75,4.74,4.74,0,0,0,3.37-2.12.38.38,0,0,1,.63.41,5.51,5.51,0,0,1-3.9,2.46Z"/>
        <path class="cls-4" d="M469.69,174.16a.38.38,0,0,1-.06-.75c9.94-1.55,20.06-2.7,30.09-3.42a.39.39,0,0,1,.4.35.37.37,0,0,1-.35.4c-9.45.68-19,1.74-28.36,3.16a.38.38,0,0,1-.3.18l-1.4.08Z"/>
        <path class="cls-4" d="M561.5,163.9a.38.38,0,0,1-.38-.34.38.38,0,0,1,.34-.4l29.31-2.81a.38.38,0,0,1,.08.75l-29.32,2.8Z"/>
        <path class="cls-4" d="M561,164.5a.37.37,0,0,1-.07-.74,146.24,146.24,0,0,1,26.4-2.65h0a.38.38,0,0,1,.37.37.37.37,0,0,1-.37.38A145.7,145.7,0,0,0,561,164.5Z"/>
        <path class="cls-4" d="M476,184.37l-.1,0-3.08-.9a.37.37,0,0,1-.25-.46.38.38,0,0,1,.47-.26l3.07.9a.38.38,0,0,1,.25.47A.37.37,0,0,1,476,184.37Z"/>
        <path class="cls-4" d="M486.37,183.27h0l-14.53-.76c-1.05-.06-2.31-.25-2.81-1.28a.38.38,0,0,1,.17-.5.37.37,0,0,1,.5.18c.33.67,1.34.81,2.18.85l14.52.76a.38.38,0,0,1,.36.4A.37.37,0,0,1,486.37,183.27Z"/>
        <path class="cls-4" d="M483.06,183.69H483c-4.66-.7-9.41-1.17-14.12-1.4a.38.38,0,0,1-.36-.39.37.37,0,0,1,.39-.36c4.74.23,9.52.71,14.2,1.41a.37.37,0,0,1,.32.42A.38.38,0,0,1,483.06,183.69Z"/>
        <path class="cls-4" d="M474.38,233.21h-.05a.39.39,0,0,1-.33-.42,339.37,339.37,0,0,1,10-49,1.84,1.84,0,0,0,.08-.43.33.33,0,0,1-.12.17.37.37,0,0,1-.53,0,.58.58,0,0,1,.08-.83.76.76,0,0,1,1.06,0,1.36,1.36,0,0,1,.15,1.34,337.69,337.69,0,0,0-10,48.87A.38.38,0,0,1,474.38,233.21Z"/>
        <path class="cls-4" d="M474.43,230.52h-.08a.38.38,0,0,1-.29-.44c3-15.13,6.54-30.36,10.54-45.26a.38.38,0,1,1,.73.19c-4,14.89-7.54,30.1-10.54,45.21A.36.36,0,0,1,474.43,230.52Z"/>
        <path class="cls-4" d="M476.24,187.2h0a69.53,69.53,0,0,1-7.63-.84.37.37,0,0,1-.31-.43.36.36,0,0,1,.43-.31,66,66,0,0,0,7.55.83.38.38,0,0,1,.36.4A.37.37,0,0,1,476.24,187.2Z"/>
        <path class="cls-4" d="M476.33,193.56a15.38,15.38,0,0,1-5.65-1.08.37.37,0,0,1-.21-.49.37.37,0,0,1,.48-.21,14.51,14.51,0,0,0,7,.93.39.39,0,0,1,.42.33.38.38,0,0,1-.33.42A14.34,14.34,0,0,1,476.33,193.56Z"/>
        <path class="cls-4" d="M476.75,202.23a.37.37,0,0,1-.21-.06,15.89,15.89,0,0,0-5.76-2.36.37.37,0,1,1,.14-.73,16.75,16.75,0,0,1,6,2.46.38.38,0,0,1,.11.52A.37.37,0,0,1,476.75,202.23Z"/>
        <path class="cls-4" d="M585.29,210.1a.4.4,0,0,1-.32-.17c-3-4.8-5.75-9.77-8.3-14.77a.38.38,0,0,1,.67-.34c2.54,5,5.33,9.93,8.27,14.71a.37.37,0,0,1-.12.52A.35.35,0,0,1,585.29,210.1Z"/>
        <path class="cls-4" d="M576.78,195.67a.41.41,0,0,1-.32-.18.39.39,0,0,1,.12-.52l.57-.35a.38.38,0,0,1,.52.12.39.39,0,0,1-.12.52l-.57.35A.36.36,0,0,1,576.78,195.67Z"/>
        <path class="cls-4" d="M586.56,210.87a.36.36,0,0,1-.33-.2l-8.15-16.24a.38.38,0,0,1,.17-.5.37.37,0,0,1,.5.16l8.15,16.24a.37.37,0,0,1-.17.5A.33.33,0,0,1,586.56,210.87Z"/>
        <path class="cls-4" d="M586.59,209.94a.37.37,0,0,1-.34-.22c-2.35-5-4.89-9.91-7.56-14.71a.37.37,0,0,1,.14-.51.38.38,0,0,1,.51.15c2.68,4.81,5.23,9.77,7.59,14.75a.39.39,0,0,1-.18.5A.47.47,0,0,1,586.59,209.94Z"/>
        <path class="cls-4" d="M586.41,211.19a.87.87,0,0,1-.28-.05.76.76,0,0,1-.48-.48.37.37,0,0,1,.7-.25.43.43,0,0,1,.55.14.38.38,0,0,1-.1.53A.74.74,0,0,1,586.41,211.19Z"/>
        <path class="cls-4" d="M588.24,213.76a.38.38,0,0,1-.3-.15l-1.52-2.05a.38.38,0,0,1,.61-.45l1.52,2a.37.37,0,0,1-.31.6Z"/>
        <path class="cls-4" d="M576.52,196a.37.37,0,0,1-.18-.7l.59-.31a2.69,2.69,0,0,1,2.56-1.11.38.38,0,0,1,.31.43.37.37,0,0,1-.43.31,2.09,2.09,0,0,0-.5,0,.49.49,0,0,1-.06.17,2.73,2.73,0,0,1-1.72,1.19.42.42,0,0,1-.31-.07l-.09,0A.33.33,0,0,1,576.52,196Z"/>
        <path class="cls-4" d="M579.71,204.34a.36.36,0,0,1-.27-.11,12.41,12.41,0,0,1-3.53-7.09,1.49,1.49,0,0,1,.35-1.4.38.38,0,1,1,.49.57c-.12.1-.15.34-.1.73A11.61,11.61,0,0,0,580,203.7a.37.37,0,0,1,0,.53A.34.34,0,0,1,579.71,204.34Z"/>
        <path class="cls-4" d="M507.85,188.88a.39.39,0,0,1-.38-.34L504.88,163a.38.38,0,0,1,.75-.08l2.59,25.51a.37.37,0,0,1-.34.41Z"/>
        <path class="cls-4" d="M506.81,181.23h0a.37.37,0,0,1-.37-.38,90.36,90.36,0,0,0-1.78-18,.38.38,0,0,1,.74-.15,91.14,91.14,0,0,1,1.79,18.13A.38.38,0,0,1,506.81,181.23Z"/>
        <path class="cls-4" d="M513.47,231.62a.37.37,0,0,1-.37-.35c-.78-10.36-1.76-20.85-2.91-31.15a.38.38,0,0,1,.33-.42.39.39,0,0,1,.41.33c1.16,10.32,2.14,20.81,2.92,31.18a.37.37,0,0,1-.35.4Z"/>
        <path class="cls-4" d="M505.76,162.77a.73.73,0,0,1-.62-.27.55.55,0,0,1-.05-.54.58.58,0,0,1,.46-.35.48.48,0,0,1,.43.21.58.58,0,0,1,.06.17L562,154.38a.36.36,0,0,1,.42.32.37.37,0,0,1-.32.42L506,162.76Z"/>
        <path class="cls-4" d="M566.18,217.48a.38.38,0,0,1-.38-.36c-.3-11.23-1.64-22.6-2.92-33.59l-3.32-28.32a.36.36,0,0,1,.32-.41.37.37,0,0,1,.42.33l3.32,28.32c1.29,11,2.62,22.38,2.93,33.65a.36.36,0,0,1-.36.38Z"/>
        <path class="cls-4" d="M566.94,226.34a.38.38,0,0,1-.37-.32l-2.2-12.93a.38.38,0,1,1,.74-.13l2.2,12.94a.37.37,0,0,1-.31.43Z"/>
        <path class="cls-4" d="M499.68,170.7a.38.38,0,0,1-.37-.32.37.37,0,0,1,.32-.42c1.7-.23,3.44-.39,5.16-.5a.39.39,0,0,1,.4.35.38.38,0,0,1-.36.4c-1.7.1-3.42.27-5.1.49Z"/>
        <path class="cls-4" d="M508.54,191.79a.38.38,0,0,1-.37-.31,238.71,238.71,0,0,1-3.41-29.67.37.37,0,0,1,.35-.39.38.38,0,0,1,.39.35,239.18,239.18,0,0,0,3.41,29.58.38.38,0,0,1-.31.43Z"/>
        <path class="cls-4" d="M505,162.59a.37.37,0,0,1-.09-.74A78.08,78.08,0,0,1,517,159.91a.38.38,0,1,1,.05.75,76.61,76.61,0,0,0-12,1.92Z"/>
        <path class="cls-4" d="M560.84,168.29a.37.37,0,0,1-.38-.35l-.79-12.6a.39.39,0,0,1,.35-.4.38.38,0,0,1,.4.35l.79,12.6a.37.37,0,0,1-.35.4Z"/>
        <path class="cls-4" d="M567.09,225.15a.38.38,0,0,1-.37-.32,145.14,145.14,0,0,1-1.59-18.27.38.38,0,0,1,.36-.38.38.38,0,0,1,.39.37,143.72,143.72,0,0,0,1.58,18.17.37.37,0,0,1-.31.42Z"/>
      </g>
      <g>
        <path class="cls-4" d="M629.62,154.23a4.58,4.58,0,0,1-.53,0,4,4,0,0,1-1.83-.65,4.44,4.44,0,0,1-1.41-1.75,6.08,6.08,0,0,1,1-7.18,6.21,6.21,0,0,1,7.24-1.06,3.54,3.54,0,0,1,1.63,1.4,3.76,3.76,0,0,1,.31,2.2,8.87,8.87,0,0,1-2,5A6.05,6.05,0,0,1,629.62,154.23Zm1.54-10.64a5.32,5.32,0,0,0-4.64,7.88h0a3.78,3.78,0,0,0,1.17,1.46,3.15,3.15,0,0,0,1.48.52,5.17,5.17,0,0,0,4.31-1.81,8.14,8.14,0,0,0,1.83-4.55,3.1,3.1,0,0,0-.21-1.77,2.84,2.84,0,0,0-1.31-1.09A6,6,0,0,0,631.16,143.59Z"/>
        <path class="cls-4" d="M629.58,151.29a2.9,2.9,0,0,1-1.45-.41.62.62,0,0,1-.27-.68l.1-.29h.37l-.11.74.06-.37.29.16c0-.15,0-.2-.05-.21a1.92,1.92,0,0,0,1.73.16,1.21,1.21,0,0,0,.68-1.35.89.89,0,0,0-.57-.53.67.67,0,0,0-.61.06l-.49-.56a10.71,10.71,0,0,0,1.41-1.86l0-.06a9.35,9.35,0,0,1-2,.51l-.1-.75a8.72,8.72,0,0,0,2.36-.66l.28-.12.18.23c.16.22.28.61-.09,1.24a11,11,0,0,1-.84,1.22l.13,0a1.63,1.63,0,0,1,1,1,1.94,1.94,0,0,1-1.07,2.25A2.21,2.21,0,0,1,629.58,151.29Z"/>
        <g>
          <path class="cls-4" d="M677.27,183a.32.32,0,0,1-.19-.05,50,50,0,0,0-39.76-4.53.37.37,0,0,1-.47-.24.38.38,0,0,1,.25-.47,50.7,50.7,0,0,1,40.36,4.59.38.38,0,0,1,.13.52A.36.36,0,0,1,677.27,183Z"/>
          <path class="cls-4" d="M657.17,190.77a25.31,25.31,0,0,1-5.92-.68c-4.31-1.06-8.14-3.37-11.84-5.61a.37.37,0,0,1-.13-.51.38.38,0,0,1,.52-.13c3.65,2.21,7.43,4.49,11.63,5.52,7.66,1.88,15.89-.67,22.5-2.72a.38.38,0,0,1,.22.72C669.12,188.92,663.16,190.77,657.17,190.77Z"/>
          <path class="cls-4" d="M657.94,189.88c-2.5,0-5-.07-7.54-.15a.39.39,0,0,1-.37-.39.37.37,0,0,1,.39-.36,120.68,120.68,0,0,0,17.23-.32c2.25-.25,4.75-.74,6.17-2.46a.38.38,0,1,1,.58.48c-1.59,1.93-4.27,2.46-6.67,2.72A89.13,89.13,0,0,1,657.94,189.88Z"/>
          <path class="cls-4" d="M650.74,187.42a.37.37,0,0,1-.36-.29,27.31,27.31,0,0,1-1-5.29,9.35,9.35,0,0,1,1.18-5.33.37.37,0,0,1,.52-.12.37.37,0,0,1,.12.51,8.63,8.63,0,0,0-1.07,4.9,26.56,26.56,0,0,0,1,5.15.37.37,0,0,1-.27.45Z"/>
          <path class="cls-4" d="M657.78,189.77a6,6,0,0,1-1.16-.11A9.65,9.65,0,0,1,648.88,178a.38.38,0,0,1,.45-.28.37.37,0,0,1,.28.45,8.9,8.9,0,0,0,7.14,10.8,4.62,4.62,0,0,0,1.89,0c2.12-.53,2.93-3,3.13-3.8a21.25,21.25,0,0,0,.43-2.49,19.6,19.6,0,0,1,.58-3,.37.37,0,1,1,.71.22,18.74,18.74,0,0,0-.54,2.88,23.27,23.27,0,0,1-.46,2.58c-.59,2.29-2,3.92-3.67,4.33A4.36,4.36,0,0,1,657.78,189.77Z"/>
          <path class="cls-4" d="M657.48,188.2a8.87,8.87,0,0,1-4.91-1.47.38.38,0,0,1-.1-.52.37.37,0,0,1,.52-.1,8.09,8.09,0,0,0,7,.94,3.64,3.64,0,0,0,1.59-.93,4.86,4.86,0,0,0,.84-2.92c.08-1.45.13-2.91.14-4.36a.4.4,0,0,1,.38-.37.37.37,0,0,1,.37.38c0,1.45-.06,2.93-.15,4.4a5.33,5.33,0,0,1-1,3.36,4.22,4.22,0,0,1-1.91,1.15A8.59,8.59,0,0,1,657.48,188.2Z"/>
          <path class="cls-4" d="M655.91,184.19a2,2,0,0,1-1.19-.37,2.37,2.37,0,0,1-.73-.95,3,3,0,0,1,1.1-3.62h0a1.86,1.86,0,0,1,1-.57,1.59,1.59,0,0,1,1.22.32,2.79,2.79,0,0,1,.63.3,2.61,2.61,0,0,1,1.24,1.87,2.29,2.29,0,0,1-.09.9.36.36,0,0,1,0,.41,2.24,2.24,0,0,1-.58.61,1.88,1.88,0,0,1-.25.24A2.57,2.57,0,0,1,657,184,2.54,2.54,0,0,1,655.91,184.19Zm-.75-3a1.84,1.84,0,0,0,.63,1.29,1.82,1.82,0,0,0,1.39.35,2.48,2.48,0,0,0,.37-2.17,2,2,0,0,0-.59-1,1.89,1.89,0,0,0-1.08,0,2.2,2.2,0,0,0-.31.15.83.83,0,0,0-.11.15h0a.38.38,0,0,1,0,.53A1.25,1.25,0,0,0,655.16,181.2Zm3.2-.31a3.61,3.61,0,0,1,0,1.09,1.5,1.5,0,0,0,.1-.72A1.18,1.18,0,0,0,658.36,180.89Z"/>
          <path class="cls-4" d="M655.85,183.28a1.09,1.09,0,0,1-.88-.43,2.32,2.32,0,0,1-.32-1.87,2.36,2.36,0,0,1,1.08-1.51,1.09,1.09,0,0,1,1,0,.37.37,0,0,1,.22.38.6.6,0,0,1,.15.09,1.47,1.47,0,0,1,.56,1,2.29,2.29,0,0,1-.53,1.61v0a.41.41,0,0,1-.07.26.37.37,0,0,1-.3.15,1.33,1.33,0,0,1-.88.36Zm-.52-1.75a1.5,1.5,0,0,0,.22.85.35.35,0,0,0,.3.15h0a.41.41,0,0,0,.19,0A2.54,2.54,0,0,1,655.33,181.53Zm1.06-1.1h0a.38.38,0,0,0-.25.19.81.81,0,0,0-.07.61,1.78,1.78,0,0,0,.55.71,1.43,1.43,0,0,0,.32-1,.67.67,0,0,0-.26-.45A.43.43,0,0,0,656.39,180.43Z"/>
          <path class="cls-4" d="M696.15,180.43a.36.36,0,0,1-.27-.12.38.38,0,0,1,0-.53,50.71,50.71,0,0,1,38.6-12.69.37.37,0,0,1,.33.41.36.36,0,0,1-.41.33,50,50,0,0,0-38,12.5A.39.39,0,0,1,696.15,180.43Z"/>
          <path class="cls-4" d="M709.77,184.69c-3.35,0-6.63-.32-9.6-.61a.38.38,0,0,1-.34-.41.37.37,0,0,1,.41-.33c6.89.66,15.46,1.49,22.59-1.91,3.9-1.86,7.14-4.86,10.27-7.76a.38.38,0,0,1,.51.55c-3.17,2.94-6.45,6-10.46,7.89A30.92,30.92,0,0,1,709.77,184.69Z"/>
          <path class="cls-4" d="M704.77,184.9a7.78,7.78,0,0,1-5-1.43.38.38,0,0,1,.47-.59c1.74,1.4,4.29,1.37,6.55,1.16a122.14,122.14,0,0,0,16.93-3.18.38.38,0,0,1,.18.73,121.67,121.67,0,0,1-17,3.19A21,21,0,0,1,704.77,184.9Z"/>
          <path class="cls-4" d="M723,179.4h0a.38.38,0,0,1-.36-.39,27,27,0,0,0-.1-5.24,8.56,8.56,0,0,0-2-4.58.38.38,0,1,1,.55-.51,9.27,9.27,0,0,1,2.24,5,26.94,26.94,0,0,1,.11,5.38A.38.38,0,0,1,723,179.4Z"/>
          <path class="cls-4" d="M715.79,183.22h-.13c-1.76-.06-3.43-1.37-4.48-3.5a20.84,20.84,0,0,1-1-2.43,18.39,18.39,0,0,0-1.12-2.71.38.38,0,0,1,.66-.36,20.22,20.22,0,0,1,1.17,2.82,19.79,19.79,0,0,0,.93,2.35c.35.7,1.65,3,3.83,3.08a4.56,4.56,0,0,0,1.85-.38,8.89,8.89,0,0,0,4.8-12,.38.38,0,1,1,.68-.32,9.65,9.65,0,0,1-5.2,13A5.43,5.43,0,0,1,715.79,183.22Z"/>
          <path class="cls-4" d="M714.9,181.71a8.18,8.18,0,0,1-1-.06,4.27,4.27,0,0,1-2.09-.74,5.3,5.3,0,0,1-1.69-3.09c-.38-1.39-.73-2.83-1-4.27a.38.38,0,0,1,.29-.45.36.36,0,0,1,.44.29c.31,1.43.66,2.85,1,4.24a4.78,4.78,0,0,0,1.41,2.68,3.61,3.61,0,0,0,1.74.59,8.09,8.09,0,0,0,6.63-2.33.37.37,0,1,1,.54.52A8.91,8.91,0,0,1,714.9,181.71Z"/>
          <path class="cls-4" d="M716.91,177.33a2.25,2.25,0,0,1-.58-.07,2.62,2.62,0,0,1-1.44-.34c-.1,0-.19-.12-.29-.18a2.38,2.38,0,0,1-.69-.48.37.37,0,0,1-.08-.41,2,2,0,0,1-.26-.86,2.58,2.58,0,0,1,.83-2.08,2.43,2.43,0,0,1,.55-.42,1.57,1.57,0,0,1,1.13-.56,1.78,1.78,0,0,1,1.11.35h0a3,3,0,0,1,1.8,3.32,2.37,2.37,0,0,1-.52,1.08A2.1,2.1,0,0,1,716.91,177.33Zm-1.46-4.26a2,2,0,0,0-.38,1.1,2.52,2.52,0,0,0,.8,2.05,1.72,1.72,0,0,0,1.65-2,1.39,1.39,0,0,0-.45-.59.38.38,0,0,1-.1-.52h0l-.15-.13a2,2,0,0,0-.33-.08A1.82,1.82,0,0,0,715.45,173.07Zm-1.13,1.48a1.53,1.53,0,0,0,0,.37,1.56,1.56,0,0,0,.25.71A3.86,3.86,0,0,1,714.32,174.55Z"/>
          <path class="cls-4" d="M717,176.4a1.39,1.39,0,0,1-.7-.2.35.35,0,0,1-.32-.09.37.37,0,0,1-.12-.23l0,0a2.3,2.3,0,0,1-.84-1.47,1.43,1.43,0,0,1,.35-1,1.59,1.59,0,0,1,.13-.13.37.37,0,0,1,.13-.41,1.11,1.11,0,0,1,1-.18,2.35,2.35,0,0,1,1.37,1.27,2.32,2.32,0,0,1,.06,1.88,1.08,1.08,0,0,1-.78.61A.86.86,0,0,1,717,176.4Zm-.11-.76a.41.41,0,0,0,.19,0,.36.36,0,0,0,.26-.21,1.41,1.41,0,0,0,0-.88A2.29,2.29,0,0,1,716.92,175.64Zm-.7-1.95h0a.39.39,0,0,0-.26.14.67.67,0,0,0-.17.5,1.45,1.45,0,0,0,.51.9,1.64,1.64,0,0,0,.39-.82.73.73,0,0,0-.19-.58A.37.37,0,0,0,716.22,173.69Z"/>
          <path class="cls-4" d="M693.27,188.05a.37.37,0,0,1-.36-.3c-.93-4.31-2-9.2-1-13.89a.38.38,0,0,1,.45-.29.38.38,0,0,1,.29.44c-.91,4.53.12,9.34,1,13.58a.38.38,0,0,1-.29.45Z"/>
          <path class="cls-4" d="M703.09,210.94a.38.38,0,0,1-.37-.3,27.75,27.75,0,0,0-3.56-8c-.54-1-1.11-1.93-1.62-2.91a67.62,67.62,0,0,1-5.09-14.51.37.37,0,0,1,.27-.45.36.36,0,0,1,.45.26,67.73,67.73,0,0,0,5,14.35c.51,1,1.07,2,1.61,2.89a28.28,28.28,0,0,1,3.65,8.21.37.37,0,0,1-.3.44Z"/>
          <path class="cls-4" d="M703.15,213a.38.38,0,0,1-.37-.32l-.24-1.61a.36.36,0,0,1,.13-.34,8.67,8.67,0,0,0-.45-1.68.39.39,0,0,1,.22-.49.37.37,0,0,1,.48.22,10,10,0,0,1,.57,2.41,1.93,1.93,0,0,1,.18,1.11.36.36,0,0,1-.14.23v.12a.38.38,0,0,1-.36.35Z"/>
          <g>
            <path class="cls-4" d="M694.3,167.55h0a.37.37,0,0,1-.36-.39c.08-2.1,1.48-3.85,2.83-5.28a44.34,44.34,0,0,1,9.52-7.63.38.38,0,0,1,.51.13.38.38,0,0,1-.13.52,43.29,43.29,0,0,0-9.35,7.49c-1.26,1.33-2.56,3-2.63,4.8A.38.38,0,0,1,694.3,167.55Z"/>
            <path class="cls-4" d="M697.37,165.61a.42.42,0,0,1-.21-.06.38.38,0,0,1-.1-.52c2.34-3.45,5.69-6,8.93-8.52a56.14,56.14,0,0,0,6.34-5.38.39.39,0,0,1,.54,0,.38.38,0,0,1,0,.53,58.34,58.34,0,0,1-6.42,5.45c-3.2,2.45-6.5,5-8.77,8.34A.36.36,0,0,1,697.37,165.61Z"/>
            <path class="cls-4" d="M703,161.74a.36.36,0,0,1-.3-.15.37.37,0,0,1,.07-.53c4.77-3.66,9.44-7.57,13.89-11.61a.38.38,0,0,1,.53,0,.39.39,0,0,1,0,.53c-4.46,4.06-9.15,8-13.94,11.66A.35.35,0,0,1,703,161.74Z"/>
            <path class="cls-4" d="M711.26,157.59a.35.35,0,0,1-.33-.2.36.36,0,0,1,.15-.5,40.73,40.73,0,0,0,10.29-7.73c.4-.41.55-.71.48-.95a.38.38,0,0,1,.72-.21c.23.76-.42,1.43-.67,1.68a40.94,40.94,0,0,1-10.47,7.87A.33.33,0,0,1,711.26,157.59Z"/>
            <path class="cls-4" d="M717.51,155a.36.36,0,0,1-.36-.29.37.37,0,0,1,.28-.45,13.32,13.32,0,0,0,3.6-1.66c1.73-1.05,3.43-2.19,5-3.39a3.58,3.58,0,0,0,1.61-2,.37.37,0,0,1,.43-.3.36.36,0,0,1,.31.43,4.19,4.19,0,0,1-1.9,2.45c-1.64,1.21-3.35,2.37-5.1,3.43A13.79,13.79,0,0,1,717.6,155Z"/>
            <path class="cls-4" d="M724.61,153.08a.37.37,0,0,1-.35-.26.36.36,0,0,1,.23-.47,29.71,29.71,0,0,0,10-5.89.38.38,0,0,1,.53,0,.37.37,0,0,1,0,.53,30.45,30.45,0,0,1-10.27,6Z"/>
            <path class="cls-4" d="M730.42,151.48h-.18a.37.37,0,1,1,.07-.74,2.26,2.26,0,0,0,1.44-.62,45.37,45.37,0,0,0,5.67-5,.37.37,0,1,1,.54.52,46,46,0,0,1-5.76,5A3.09,3.09,0,0,1,730.42,151.48Z"/>
            <path class="cls-4" d="M722,153.84a.37.37,0,0,1-.3-.16.36.36,0,0,1,0-.41l.39-.64a.37.37,0,0,1,.52-.12.36.36,0,0,1,.17.38,22,22,0,0,0,8.25-4.27.38.38,0,0,1,.53,0,.39.39,0,0,1,0,.53,22.7,22.7,0,0,1-9.41,4.63Z"/>
            <path class="cls-4" d="M716.92,155a.36.36,0,0,1-.35-.26.37.37,0,0,1,.24-.47,38.57,38.57,0,0,0,8.86-4.05.38.38,0,0,1,.21-.22l.4-.15a.37.37,0,0,1,.34.66,39.86,39.86,0,0,1-9.58,4.48Z"/>
            <path class="cls-4" d="M713.39,156.54a.8.8,0,0,1-.3-.06.59.59,0,0,1-.33-.39.37.37,0,0,1,.27-.45.35.35,0,0,1,.4.15l.17-.06c3.07-1.59,6.1-3.34,9-5.22a.38.38,0,0,1,.4.64c-2.93,1.88-6,3.65-9.08,5.25A1.21,1.21,0,0,1,713.39,156.54Z"/>
            <path class="cls-4" d="M708.22,158.61a.37.37,0,0,1-.16-.71,75.58,75.58,0,0,0,9.92-5.5l-.05-.09a.38.38,0,0,1,.24-.47l1.29-.42a.37.37,0,0,1,.45.19.39.39,0,0,1-.12.48,76.93,76.93,0,0,1-11.41,6.49A.45.45,0,0,1,708.22,158.61Z"/>
            <path class="cls-4" d="M695,166.49a.42.42,0,0,1-.21-.06.37.37,0,0,1-.11-.51,38.35,38.35,0,0,1,13-12.37.36.36,0,0,1,.51.13.39.39,0,0,1-.13.52,37.51,37.51,0,0,0-12.71,12.12A.37.37,0,0,1,695,166.49Z"/>
            <path class="cls-4" d="M695.44,165.52a.4.4,0,0,1-.23-.08.37.37,0,0,1-.07-.52A52.39,52.39,0,0,1,711,150.73a.38.38,0,0,1,.51.14.37.37,0,0,1-.14.51,51.62,51.62,0,0,0-15.62,14A.38.38,0,0,1,695.44,165.52Z"/>
            <path class="cls-4" d="M697.88,165.14a.46.46,0,0,1-.4-.23.67.67,0,0,1,.19-.83,79.5,79.5,0,0,1,17.47-13.89.38.38,0,0,1,.51.14.39.39,0,0,1-.13.51,78.82,78.82,0,0,0-17.18,13.62.34.34,0,0,1,.06.21.52.52,0,0,1-.4.46Z"/>
            <path class="cls-4" d="M704.92,162a.37.37,0,0,1-.21-.68,77.49,77.49,0,0,0,16.21-15,.38.38,0,0,1,.58.48A78.36,78.36,0,0,1,705.14,162,.36.36,0,0,1,704.92,162Z"/>
            <path class="cls-4" d="M713.09,157.46a.38.38,0,0,1,0-.75,2.7,2.7,0,0,0,1.47-.8,76.6,76.6,0,0,0,7.5-7.25,8.18,8.18,0,0,0,2-3.18.38.38,0,0,1,.46-.27.36.36,0,0,1,.26.45,8.66,8.66,0,0,1-2.21,3.51,76.73,76.73,0,0,1-7.56,7.31,3.33,3.33,0,0,1-1.92,1Z"/>
            <path class="cls-4" d="M717.11,156a1.24,1.24,0,0,1-.53-.12.38.38,0,0,1,.32-.68c.32.16.79-.12,1.12-.34a41.75,41.75,0,0,0,9.8-9.28c.37-.49.5-.84.38-1.07a.37.37,0,0,1,.16-.51.38.38,0,0,1,.5.16c.4.77-.24,1.6-.44,1.88a42.62,42.62,0,0,1-10,9.44A2.58,2.58,0,0,1,717.11,156Z"/>
            <path class="cls-4" d="M722,153.7a1.35,1.35,0,0,1-.76-.23.39.39,0,0,1-.09-.53.38.38,0,0,1,.53-.09c.22.16.58.12,1.13-.12a19.73,19.73,0,0,0,9.55-8.82.38.38,0,0,1,.51-.15.36.36,0,0,1,.15.5,20.43,20.43,0,0,1-9.91,9.16A3,3,0,0,1,722,153.7Z"/>
            <path class="cls-4" d="M726.44,152.41a.38.38,0,0,1-.3-.15.37.37,0,0,1,.08-.52c2-1.53,4-3.16,5.88-4.86a6.87,6.87,0,0,0,2.23-3,.38.38,0,0,1,.46-.27.37.37,0,0,1,.26.46,7.35,7.35,0,0,1-2.45,3.34c-1.89,1.72-3.89,3.37-5.93,4.91A.39.39,0,0,1,726.44,152.41Z"/>
            <path class="cls-4" d="M729.1,152a.6.6,0,0,1-.34-.1.37.37,0,0,1-.1-.52.37.37,0,0,1,.46-.13.41.41,0,0,0,.13-.08,46.2,46.2,0,0,0,8.93-8.4.38.38,0,0,1,.53-.06.37.37,0,0,1,0,.53,46.78,46.78,0,0,1-9.07,8.54A1,1,0,0,1,729.1,152Z"/>
            <path class="cls-4" d="M733.71,150.15a.36.36,0,0,1-.3-.15.39.39,0,0,1,.08-.53,20.8,20.8,0,0,0,6-6.58.37.37,0,1,1,.65.37,21.76,21.76,0,0,1-6.19,6.83A.43.43,0,0,1,733.71,150.15Z"/>
          </g>
          <g>
            <path class="cls-4" d="M676.6,169.91a.38.38,0,0,1-.36-.26c-.52-1.79-2.17-3-3.72-4a43.86,43.86,0,0,0-10.9-5,.38.38,0,0,1-.25-.47.37.37,0,0,1,.46-.25A44.18,44.18,0,0,1,672.92,165c1.67,1.06,3.45,2.42,4,4.44a.37.37,0,0,1-.26.46Z"/>
            <path class="cls-4" d="M673.15,168.79a.35.35,0,0,1-.25-.1c-3-2.69-6.84-4.35-10.53-5.95A57.69,57.69,0,0,1,654.8,159a.37.37,0,1,1,.4-.63,58.56,58.56,0,0,0,7.46,3.66c3.75,1.63,7.63,3.31,10.74,6.08a.38.38,0,0,1,0,.53A.37.37,0,0,1,673.15,168.79Z"/>
            <path class="cls-4" d="M666.74,166.4l-.15,0c-5.54-2.4-11-5.06-16.36-7.91a.36.36,0,0,1-.15-.5.38.38,0,0,1,.51-.16c5.3,2.84,10.78,5.49,16.3,7.88a.38.38,0,0,1-.15.72Z"/>
            <path class="cls-4" d="M657.73,164.4h-.09a41.2,41.2,0,0,1-12.08-5.08c-.3-.18-1.09-.68-1-1.47a.38.38,0,0,1,.75,0c0,.25.21.5.7.81a40.6,40.6,0,0,0,11.86,5,.38.38,0,0,1-.09.74Z"/>
            <path class="cls-4" d="M651,163.42a14.07,14.07,0,0,1-4.05-.77c-2-.6-3.9-1.3-5.79-2.08a4.2,4.2,0,0,1-2.44-1.91.39.39,0,0,1,.19-.5.39.39,0,0,1,.5.2,3.57,3.57,0,0,0,2,1.52c1.86.77,3.79,1.46,5.72,2.05a14.26,14.26,0,0,0,3.9.74h0a.38.38,0,1,1,0,.75Z"/>
            <path class="cls-4" d="M643.68,163.28h0a30.53,30.53,0,0,1-11.43-3.34.38.38,0,1,1,.35-.67,29.86,29.86,0,0,0,11.15,3.27.37.37,0,0,1,.34.4A.38.38,0,0,1,643.68,163.28Z"/>
            <path class="cls-4" d="M637.29,163.19a3.84,3.84,0,0,1-1.46-.37,45,45,0,0,1-6.81-3.48.37.37,0,0,1,.39-.64,44.64,44.64,0,0,0,6.71,3.43,2.3,2.3,0,0,0,1.54.25.37.37,0,0,1,.48.22.37.37,0,0,1-.22.48A1.74,1.74,0,0,1,637.29,163.19Z"/>
            <path class="cls-4" d="M645.89,163.38a22.58,22.58,0,0,1-9.73-2.2.37.37,0,0,1-.18-.5.38.38,0,0,1,.5-.18,21.76,21.76,0,0,0,9,2.13.37.37,0,0,1,.07-.41.38.38,0,0,1,.53,0l.54.53a.37.37,0,0,1,.08.4.38.38,0,0,1-.34.24Z"/>
            <path class="cls-4" d="M651.59,163.22h0a40,40,0,0,1-10.39-2,.37.37,0,0,1-.24-.44.36.36,0,0,1,.41-.29l.42.06a.37.37,0,0,1,.27.16,39.4,39.4,0,0,0,9.57,1.76.38.38,0,0,1,0,.75Z"/>
            <path class="cls-4" d="M655.22,163.91a1.45,1.45,0,0,1-.3,0c-3.39-.8-6.78-1.76-10.08-2.88a.37.37,0,0,1-.24-.47.38.38,0,0,1,.48-.24c3.28,1.11,6.65,2.07,10,2.86a.57.57,0,0,0,.18,0,.37.37,0,0,1,.35-.24h0a.37.37,0,0,1,.37.38.56.56,0,0,1-.22.45A.87.87,0,0,1,655.22,163.91Z"/>
            <path class="cls-4" d="M660.92,164.64h-.07a75.93,75.93,0,0,1-12.64-3.51.37.37,0,0,1-.24-.43.36.36,0,0,1,.39-.3l1.35.09a.39.39,0,0,1,.35.4s0,.07,0,.1a75.51,75.51,0,0,0,11,2.91.37.37,0,0,1-.07.74Z"/>
            <path class="cls-4" d="M675.65,169.06a.39.39,0,0,1-.26-.1,37.66,37.66,0,0,0-15.28-8.66.38.38,0,0,1,.21-.72,38.42,38.42,0,0,1,15.59,8.84.38.38,0,0,1,0,.53A.39.39,0,0,1,675.65,169.06Z"/>
            <path class="cls-4" d="M675,168.22a.38.38,0,0,1-.24-.09,51.69,51.69,0,0,0-18.56-9.74.38.38,0,0,1,.21-.73,52.49,52.49,0,0,1,18.83,9.89.38.38,0,0,1,0,.53A.37.37,0,0,1,675,168.22Z"/>
            <path class="cls-4" d="M672.51,168.46a.53.53,0,0,1-.5-.34.45.45,0,0,1,0-.23,79.22,79.22,0,0,0-20-9,.36.36,0,0,1-.25-.46.37.37,0,0,1,.46-.26,79.51,79.51,0,0,1,20.33,9.21c.44.28.43.6.38.76a.46.46,0,0,1-.45.34Z"/>
            <path class="cls-4" d="M665,167.14a.3.3,0,0,1-.13,0,78.15,78.15,0,0,1-19.56-10.69.37.37,0,0,1-.08-.52.38.38,0,0,1,.53-.08,77.47,77.47,0,0,0,19.37,10.59.37.37,0,0,1-.13.72Z"/>
            <path class="cls-4" d="M655.61,164.75a4.09,4.09,0,0,1-1.72-.52,78.61,78.61,0,0,1-9.12-5.25,8.74,8.74,0,0,1-3-2.86.38.38,0,0,1,.15-.51.39.39,0,0,1,.51.15,8.21,8.21,0,0,0,2.76,2.6,77.08,77.08,0,0,0,9,5.2,2.77,2.77,0,0,0,1.63.41.38.38,0,0,1,.14.74A2.58,2.58,0,0,1,655.61,164.75Z"/>
            <path class="cls-4" d="M651.38,164.29a3.33,3.33,0,0,1-1-.22,42.46,42.46,0,0,1-12-6.72c-.26-.22-1.08-.87-.89-1.71a.38.38,0,0,1,.74.17c-.07.25.14.57.62.95a41.74,41.74,0,0,0,11.77,6.6c.37.14.9.29,1.17.06a.37.37,0,0,1,.53.06.37.37,0,0,1,0,.52A1.34,1.34,0,0,1,651.38,164.29Z"/>
            <path class="cls-4" d="M646,163.28a4,4,0,0,1-.62-.06,20.47,20.47,0,0,1-11.85-6.46.37.37,0,1,1,.55-.5,19.81,19.81,0,0,0,11.42,6.22c.59.1.95.05,1.13-.16a.38.38,0,0,1,.57.49A1.51,1.51,0,0,1,646,163.28Z"/>
            <path class="cls-4" d="M641.74,163.08l-.15,0c-2.35-1-4.69-2.11-7-3.31a7.37,7.37,0,0,1-3.19-2.64.38.38,0,0,1,.66-.37,6.77,6.77,0,0,0,2.89,2.35c2.23,1.19,4.55,2.29,6.88,3.28a.37.37,0,0,1,.2.49A.38.38,0,0,1,641.74,163.08Z"/>
            <path class="cls-4" d="M639,163.35a1.37,1.37,0,0,1-.44-.09,46.88,46.88,0,0,1-10.89-6.07.38.38,0,0,1-.07-.53.37.37,0,0,1,.52-.07,46.64,46.64,0,0,0,10.71,6,.34.34,0,0,0,.17,0,.34.34,0,0,1,.5,0,.4.4,0,0,1,0,.55A.66.66,0,0,1,639,163.35Z"/>
            <path class="cls-4" d="M634.14,162.66l-.14,0a21.78,21.78,0,0,1-7.67-5.11.37.37,0,0,1,.54-.52,21,21,0,0,0,7.4,4.93.37.37,0,0,1,.22.48A.38.38,0,0,1,634.14,162.66Z"/>
          </g>
          <path class="cls-4" d="M659.84,210.63a.37.37,0,0,1-.31-.17.38.38,0,0,1,.11-.52,48.85,48.85,0,0,0,18.47-23.21.36.36,0,0,1,.48-.21.37.37,0,0,1,.22.48,49.69,49.69,0,0,1-18.76,23.57A.37.37,0,0,1,659.84,210.63Z"/>
          <path class="cls-4" d="M723.25,204.19l-.09,0a40.34,40.34,0,0,1-24.6-18.75.37.37,0,0,1,.14-.51.37.37,0,0,1,.51.14,39.64,39.64,0,0,0,24.14,18.4.37.37,0,0,1,.27.45A.39.39,0,0,1,723.25,204.19Z"/>
          <path class="cls-4" d="M664.74,147.23h0a28.76,28.76,0,0,1-15.76-7,.37.37,0,0,1,0-.53.36.36,0,0,1,.52,0,28.17,28.17,0,0,0,15.35,6.79.36.36,0,0,1,.33.41A.37.37,0,0,1,664.74,147.23Z"/>
          <path class="cls-4" d="M676.56,146.87a26.81,26.81,0,0,1-17.71-6.66.37.37,0,0,1,0-.53.39.39,0,0,1,.53,0,26,26,0,0,0,22.34,5.94.39.39,0,0,1,.45.29.39.39,0,0,1-.29.45A26.09,26.09,0,0,1,676.56,146.87Z"/>
          <path class="cls-4" d="M690.39,147.2a31,31,0,0,1-18.45-6,.38.38,0,0,1-.08-.53.37.37,0,0,1,.52-.07,30.37,30.37,0,0,0,27.94,4.19.37.37,0,1,1,.25.7A30.3,30.3,0,0,1,690.39,147.2Z"/>
          <path class="cls-4" d="M700.49,143.91A34.09,34.09,0,0,1,684.67,140a.38.38,0,0,1,.35-.67,33.35,33.35,0,0,0,24.57,2.51.39.39,0,0,1,.47.26.37.37,0,0,1-.26.46A33.39,33.39,0,0,1,700.49,143.91Z"/>
        </g>
      </g>
    </g>
    <g>
      <ellipse class="cls-13" cx="736.69" cy="303.42" rx="52.89" ry="40" transform="translate(389.03 1020.3) rotate(-86.51)"/>
      <path class="cls-14" d="M686.62,370.48,726.68,468,732,500h98.25l-15-48.33,11-42,19.58-60.31c6.53-13.11,3.1-25.16-5.95-36.61l-5.88-28c-1.85-7.13-4.26-11.79-11-15.52q-14.67-7-29.47-12.63l-5.91-16.85c-3.1-7.67-12.1-10.69-22.89-10l-65.22,5.13a5.73,5.73,0,0,0-5.21,4.9c-1.53,10.88,5.25,20.41,21.77,22.53l35.17,3.52L756.39,325l-12.27,12.73c-14.27,13.79-23.53,1.33-30.81-21.48.79-25.11-3.39-47.16-10.44-53.33-6.71-5.36-15.51-2.82-18,3.26l-2.14,18.89-5.76,10.6a36.4,36.4,0,0,0-3.18,26.86Z"/>
      <path class="cls-15" d="M675.25,314.13l-.25-.43c.06,0,6.25-3.43,17.4-6.46l.13.48A86.42,86.42,0,0,0,675.25,314.13Z"/>
      <path class="cls-15" d="M675.62,307.83l-.22-.45a67.69,67.69,0,0,1,11.1-4.16l.11.49A67.6,67.6,0,0,0,675.62,307.83Z"/>
      <rect class="cls-15" x="799.41" y="255.7" width="0.5" height="41.21" transform="translate(-45.96 249.31) rotate(-17.23)"/>
      <rect class="cls-15" x="810.76" y="264.84" width="0.5" height="39.41" transform="translate(20.64 622.2) rotate(-42.47)"/>
      <polygon class="cls-15" points="706.25 318.36 706.12 317.88 713.24 315.99 713.37 316.48 706.25 318.36"/>
      <polygon class="cls-15" points="750.64 266.91 756.83 248.56 757.31 248.72 751.88 264.78 756.18 260.02 756.55 260.35 750.64 266.91"/>
      <g>
        <path class="cls-4" d="M667.38,216.21l-4.1-5.88a2.16,2.16,0,0,1,.54-3h0a2.17,2.17,0,0,1,3,.53l4.1,5.88a2.17,2.17,0,0,1-.54,3h0A2.17,2.17,0,0,1,667.38,216.21Z"/>
        <path class="cls-7" d="M826.72,457.65l-9.43-13.53a6.35,6.35,0,0,1,1.58-8.83l5.23-3.64a6.36,6.36,0,0,1,8.84,1.58l9.43,13.53Z"/>
        <path class="cls-16" d="M819.5,447.3,667.61,229.43c.23-6.88,9.63-13.41,15.65-10.9L835.16,436.4Z"/>
        <rect class="cls-3" x="753.94" y="195.18" width="1" height="268.13" transform="translate(-52.73 490.64) rotate(-34.88)"/>
        <rect class="cls-3" x="746.36" y="200.31" width="1" height="268.26" transform="translate(-57.07 487.24) rotate(-34.88)"/>
        <rect class="cls-5" x="814.81" y="431.12" width="19.08" height="12.92" transform="translate(-102.13 550.09) rotate(-34.88)"/>
        <path class="cls-17" d="M669.56,211.45c-1.41-.46-3.94,1.2-3.86,2.68l1.91,15.3c-.56-4.49,11.67-13,15.65-10.9Z"/>
        <path class="cls-5" d="M828.48,426.83c.85,1.22-2,4.65-6.29,7.66s-8.52,4.46-9.37,3.24,2-4.65,6.29-7.66S827.63,425.61,828.48,426.83Z"/>
        <path class="cls-18" d="M815,440.3l-1-.3c.58-1.9,3.34-4.78,7-7.35,3.45-2.4,7-4,9-4l0,1c-1.82.05-5.22,1.6-8.47,3.86S815.49,438.65,815,440.3Z"/>
        <path class="cls-18" d="M818.35,445.11l-1-.3c.59-1.9,3.34-4.78,7-7.35,3.45-2.4,7-4,9-4l0,1c-1.82.05-5.23,1.6-8.47,3.86C821.58,440.65,818.85,443.46,818.35,445.11Z"/>
        <path class="cls-7" d="M835.86,437.39c.84,1.2-2,4.62-6.32,7.63s-8.5,4.48-9.34,3.28,2-4.62,6.31-7.63S835,436.19,835.86,437.39Z"/>
        <path class="cls-7" d="M842.34,446.71c.88,1.27-1.92,4.73-6.25,7.72s-8.55,4.4-9.43,3.13,1.92-4.73,6.25-7.72S841.46,445.44,842.34,446.71Z"/>
        <path class="cls-19" d="M840.92,446.55c.89,1.27-1.51,4.46-5.34,7.12s-7.66,3.81-8.54,2.55,1.51-4.46,5.34-7.13S840,445.28,840.92,446.55Z"/>
      </g>
      <path class="cls-14" d="M685.74,288.7c8.79,3.66,18,5.93,27.19,8.49-1.25-16.61-4.88-29.74-10.06-34.28-6.71-5.36-15.51-2.82-18,3.26l-2.14,18.89-1,1.83C683,287.53,684.37,288.14,685.74,288.7Z"/>
      <path class="cls-15" d="M682.74,285.31l-.1-.49c3.12-.6,11.42-2.61,12.39-4.79.86-1.93,1.7-12.24-1.56-15.76a3.78,3.78,0,0,0-4.38-.81l-.17-.47a4.23,4.23,0,0,1,4.91.94c3.47,3.73,2.57,14.25,1.66,16.3C694.21,283.1,683.21,285.22,682.74,285.31Z"/>
      <path class="cls-14" d="M716.09,262.33l15.2,1.52c-1.06-5.54-2.14-11.07-3.42-16.56-1.14-4.82-2.47-9.61-4.08-14.3l-24.26,1.91a5.73,5.73,0,0,0-5.21,4.9C692.79,250.68,699.57,260.21,716.09,262.33Z"/>
      <path class="cls-15" d="M705.48,237.19c-6.26,0-8.37-.66-8.49-.69l.15-.48s4.18,1.28,17.91.28a1.73,1.73,0,0,0,1.62-2.22l.49-.07a2.43,2.43,0,0,1-.42,2,2.49,2.49,0,0,1-1.66.81C711.13,237.09,708,237.19,705.48,237.19Z"/>
      <polygon class="cls-20" points="844.27 500 832.95 472.66 722.96 481.32 724.72 500 844.27 500"/>
    </g>
    <g>
      <path class="cls-5" d="M217.25,145.58l-15.86,10.75a6.44,6.44,0,0,1-8.95-1.71h0a6.44,6.44,0,0,1,1.71-9L210,134.91a6.44,6.44,0,0,1,9,1.71h0A6.46,6.46,0,0,1,217.25,145.58Z"/>
      <circle class="cls-5" cx="258.82" cy="109.6" r="58.58"/>
      <path class="cls-2" d="M280.58,164.27l-.18-.47a58.42,58.42,0,0,0,36.34-61.17l.5-.06a58.69,58.69,0,0,1-25.4,55.72A59.33,59.33,0,0,1,280.58,164.27Z"/>
      <path class="cls-2" d="M258.79,168.44a58.91,58.91,0,0,1-57.36-45.78l.49-.12a58.41,58.41,0,0,0,59.51,45.34l0,.5C260.56,168.42,259.68,168.44,258.79,168.44Z"/>
      <circle class="cls-1" cx="258.82" cy="109.6" r="52.95" transform="translate(102.45 343.15) rotate(-79.15)"/>
      <path class="cls-2" d="M258.82,162.77a53.14,53.14,0,0,1-34.36-12.53l.33-.38a52.71,52.71,0,1,0,62.42-84.68l.27-.42a53.18,53.18,0,0,1-28.66,98Z"/>
      <circle class="cls-21" cx="258.82" cy="109.6" r="44.09"/>
      <path class="cls-22" d="M269.12,147.25c7.33-1.69,14.32-5.63,18.66-11.77s5.64-14.6,2.36-21.36c-2.88-5.9-8.85-10.11-10.69-16.41-1-3.35-.89-7.4-3.56-9.64-3.23-2.73-8.13-.93-12.32-1.51-5.14-.72-9-5-13.76-7.08a18.69,18.69,0,0,0-16.29,1.32c-7.42,4.26-12.15,13.1-13.53,21.35a40.54,40.54,0,0,0,11.88,35.65C241.48,147,256.19,150.23,269.12,147.25Z"/>
      <g>
        <path class="cls-22" d="M259.93,77.24A3.35,3.35,0,1,1,262,73,3.35,3.35,0,0,1,259.93,77.24Z"/>
        <path class="cls-22" d="M251.14,75.11a1.82,1.82,0,1,1,1.13-2.32A1.82,1.82,0,0,1,251.14,75.11Z"/>
        <circle class="cls-22" cx="256.42" cy="79.51" r="1.83" transform="translate(6.61 177.84) rotate(-38.71)"/>
        <circle class="cls-22" cx="263.12" cy="68.74" r="1.83" transform="translate(24.3 198.83) rotate(-43.22)"/>
        <path class="cls-22" d="M272.29,74a1.83,1.83,0,1,1,1.13-2.32A1.83,1.83,0,0,1,272.29,74Z"/>
        <path class="cls-22" d="M285.6,84.59a1.83,1.83,0,1,1,1.13-2.32A1.83,1.83,0,0,1,285.6,84.59Z"/>
        <path class="cls-22" d="M292,103.14a1.82,1.82,0,1,1,1.13-2.32A1.82,1.82,0,0,1,292,103.14Z"/>
        <path class="cls-22" d="M297.71,105.39a1.83,1.83,0,1,1,1.13-2.32A1.83,1.83,0,0,1,297.71,105.39Z"/>
        <path class="cls-22" d="M295.47,110.11a1.3,1.3,0,1,1,.8-1.65A1.3,1.3,0,0,1,295.47,110.11Z"/>
        <path class="cls-22" d="M289.45,91.57a1.82,1.82,0,1,1,1.13-2.32A1.82,1.82,0,0,1,289.45,91.57Z"/>
        <path class="cls-22" d="M280.4,90.46a1.83,1.83,0,1,1,1.13-2.33A1.83,1.83,0,0,1,280.4,90.46Z"/>
        <path class="cls-22" d="M278.73,84.36a2.58,2.58,0,1,1,1.6-3.28A2.57,2.57,0,0,1,278.73,84.36Z"/>
        <path class="cls-22" d="M284.62,95.89a1.6,1.6,0,1,1,1-2A1.6,1.6,0,0,1,284.62,95.89Z"/>
        <path class="cls-22" d="M261.79,81a1.06,1.06,0,0,1-1.35-.66,1.05,1.05,0,0,1,.65-1.35,1.06,1.06,0,1,1,.7,2Z"/>
        <path class="cls-22" d="M289.59,108.19a1.06,1.06,0,1,1-.7-2,1.06,1.06,0,0,1,.7,2Z"/>
        <path class="cls-22" d="M266.84,72a.69.69,0,0,1-.87-.42.68.68,0,0,1,.42-.86.68.68,0,0,1,.45,1.28Z"/>
        <path class="cls-22" d="M267.05,76.58a.68.68,0,0,1-.44-1.28.68.68,0,1,1,.44,1.28Z"/>
        <path class="cls-22" d="M266,79.84a.68.68,0,1,1,.41-.86A.67.67,0,0,1,266,79.84Z"/>
        <circle class="cls-22" cx="269.54" cy="81.91" r="0.68" transform="translate(-7.9 33.05) rotate(-6.91)"/>
        <path class="cls-22" d="M283.14,78.91a.68.68,0,1,1,.42-.86A.67.67,0,0,1,283.14,78.91Z"/>
        <path class="cls-22" d="M284.33,90.19a.67.67,0,0,1-.86-.41.69.69,0,0,1,.42-.87.68.68,0,0,1,.86.42A.66.66,0,0,1,284.33,90.19Z"/>
        <path class="cls-22" d="M289.87,84.81a.68.68,0,1,1,.42-.87A.69.69,0,0,1,289.87,84.81Z"/>
        <path class="cls-22" d="M293.73,95.39a.67.67,0,0,1-.86-.41.68.68,0,1,1,.86.41Z"/>
        <path class="cls-22" d="M296.53,97a.68.68,0,0,1-.86-.42.68.68,0,0,1,1.28-.45A.69.69,0,0,1,296.53,97Z"/>
        <path class="cls-22" d="M292.51,98.34a.68.68,0,0,1-.86-.42.68.68,0,0,1,1.28-.45A.69.69,0,0,1,292.51,98.34Z"/>
        <path class="cls-22" d="M283.81,100.17a.68.68,0,0,1-.45-1.29.68.68,0,0,1,.45,1.29Z"/>
        <path class="cls-22" d="M288.88,97.57a.69.69,0,0,1-.87-.42.68.68,0,1,1,.87.42Z"/>
        <path class="cls-22" d="M288.28,101.57a.67.67,0,0,1-.86-.42.68.68,0,1,1,1.28-.44A.67.67,0,0,1,288.28,101.57Z"/>
        <path class="cls-22" d="M297.84,115.09a.68.68,0,0,1-.44-1.28.68.68,0,1,1,.44,1.28Z"/>
        <path class="cls-22" d="M294.84,116.39A.68.68,0,0,1,294,116a.69.69,0,0,1,.42-.87.68.68,0,0,1,.44,1.29Z"/>
        <path class="cls-22" d="M299.65,110.48a.68.68,0,0,1-.86-.42.69.69,0,0,1,.42-.87.68.68,0,0,1,.44,1.29Z"/>
        <path class="cls-22" d="M290.77,110.83a.68.68,0,1,1-.45-1.28.69.69,0,0,1,.87.42A.68.68,0,0,1,290.77,110.83Z"/>
        <path class="cls-22" d="M296.67,118.67a.68.68,0,0,1-.87-.41.68.68,0,0,1,1.29-.45A.68.68,0,0,1,296.67,118.67Z"/>
        <path class="cls-22" d="M273.19,79.77a.68.68,0,1,1,.41-.86A.67.67,0,0,1,273.19,79.77Z"/>
        <path class="cls-22" d="M256.42,69.27a.59.59,0,0,1-.76-.37.59.59,0,0,1,1.12-.39A.59.59,0,0,1,256.42,69.27Z"/>
        <path class="cls-22" d="M247,73.31a.6.6,0,0,1-.76-.37.59.59,0,0,1,1.12-.39A.59.59,0,0,1,247,73.31Z"/>
        <path class="cls-22" d="M253.61,75.67a.59.59,0,1,1-.82.18A.59.59,0,0,1,253.61,75.67Z"/>
      </g>
    </g>
  </g>
</svg>
