<svg id="Layer_2" data-name="Layer 2" xmlns="http://www.w3.org/2000/svg" width="1233.02" height="701.03" viewBox="0 0 1233.02 701.03">
  <defs>
    <style>
      .cls-1 {
        fill: gray;
      }

      .cls-2 {
        fill: #e2e2e2;
      }

      .cls-3 {
        stroke: gray;
        stroke-miterlimit: 10;
      }

      .cls-4 {
        fill: #f7931e;
      }

      .cls-5 {
        font-size: 20px;
        fill: #fff;
        font-family: CerebriSans-Bold, Cerebri Sans;
        font-weight: 700;
      }
    </style>
  </defs>
  <g>
    <g>
      <path d="M469.49,46.55V37.13h1.19v9.42Z"/>
      <path d="M476.45,39.85a2.3,2.3,0,0,1,1.65.59,2.2,2.2,0,0,1,.62,1.68v4.43h-1.16V42.38a1.52,1.52,0,0,0-.4-1.17,1.42,1.42,0,0,0-1-.39,1.55,1.55,0,0,0-1.17.46,1.81,1.81,0,0,0-.46,1.34v3.93h-1.16V40h1.16v.85A2.2,2.2,0,0,1,476.45,39.85Z"/>
      <path d="M484,37.24h-.25l-.24,0-.24,0-.21.07a.56.56,0,0,0-.19.11l-.16.17a.92.92,0,0,0-.13.24,2.21,2.21,0,0,0-.07.32,2.67,2.67,0,0,0,0,.42V40H484v.93h-1.52v5.65H481.3V40.9H480V40h1.27V38.6a3.55,3.55,0,0,1,.07-.77,2.47,2.47,0,0,1,.19-.58,1.27,1.27,0,0,1,.31-.42,1.71,1.71,0,0,1,.4-.28,2.09,2.09,0,0,1,.5-.17,3.72,3.72,0,0,1,.57-.08,5.78,5.78,0,0,1,.63,0Z"/>
      <path d="M488,46.68a3.48,3.48,0,0,1-1.68-.41,3,3,0,0,1-1.19-1.19,3.71,3.71,0,0,1-.44-1.82,3.36,3.36,0,0,1,.93-2.48,3.52,3.52,0,0,1,4.77,0,3.77,3.77,0,0,1,0,5A3.22,3.22,0,0,1,488,46.68Zm0-1a2,2,0,0,0,1.55-.68,2.85,2.85,0,0,0,0-3.55,2.11,2.11,0,0,0-3.1,0,2.89,2.89,0,0,0,0,3.55A2,2,0,0,0,488,45.72Z"/>
      <path d="M494.26,41.13a2,2,0,0,1,.82-.88,2.39,2.39,0,0,1,1.26-.35V41a2.15,2.15,0,0,0-1.53.49,2.05,2.05,0,0,0-.52,1.56v3.51h-1.16V40h1.13Z"/>
      <path d="M504.43,39.85a2.09,2.09,0,0,1,1.53.56,2,2,0,0,1,.58,1.56v4.58h-1.16V42.28a1.51,1.51,0,0,0-.36-1.09,1.24,1.24,0,0,0-.91-.37,1.31,1.31,0,0,0-1,.42,1.8,1.8,0,0,0-.38,1.24v4.07h-1.18V42.32a1.57,1.57,0,0,0-.36-1.12,1.27,1.27,0,0,0-.94-.38,1.31,1.31,0,0,0-1,.43,1.87,1.87,0,0,0-.38,1.27v4H497.7V40h1.16v.85a2,2,0,0,1,.75-.72,2.14,2.14,0,0,1,1.05-.25,2.26,2.26,0,0,1,1.12.27,1.77,1.77,0,0,1,.73.8,2.17,2.17,0,0,1,.79-.8A2.33,2.33,0,0,1,504.43,39.85Z"/>
      <path d="M510.3,46.68a2.25,2.25,0,0,1-1.44-.45,1.62,1.62,0,0,1-.57-1.35,1.79,1.79,0,0,1,.19-.86,1.52,1.52,0,0,1,.53-.6,3,3,0,0,1,.77-.37,8.21,8.21,0,0,1,1-.24l1.07-.17c.39-.07.58-.28.58-.61a1.16,1.16,0,0,0-.41-1,1.67,1.67,0,0,0-1-.31,1.7,1.7,0,0,0-1,.3,1.25,1.25,0,0,0-.49.92l-1-.22a2,2,0,0,1,.83-1.41,3.11,3.11,0,0,1,1.79-.47,3.6,3.6,0,0,1,1,.12,2.59,2.59,0,0,1,.79.37,1.67,1.67,0,0,1,.57.7,2.62,2.62,0,0,1,.2,1.09v2.71a1.06,1.06,0,0,0,.16.69.63.63,0,0,0,.51.18h.11v.83h-.57c-.71,0-1.13-.29-1.25-.89h0A2.52,2.52,0,0,1,510.3,46.68Zm.27-.94a1.77,1.77,0,0,0,1.41-.63,2.62,2.62,0,0,0,.54-1.74l-1.74.33a2.35,2.35,0,0,0-1,.37.83.83,0,0,0-.33.72.85.85,0,0,0,.31.72A1.43,1.43,0,0,0,510.57,45.74Z"/>
      <path d="M518.56,46.67a3.19,3.19,0,0,1-2.36-.94,3.75,3.75,0,0,1,0-4.94,3.44,3.44,0,0,1,4.26-.37,2.93,2.93,0,0,1,1.11,1.6l-1.08.18a2,2,0,0,0-.75-1,2,2,0,0,0-1.19-.36,2,2,0,0,0-1.52.68A2.91,2.91,0,0,0,517,45a2,2,0,0,0,1.52.67,2,2,0,0,0,1.19-.36,2,2,0,0,0,.75-1l1.08.18a2.87,2.87,0,0,1-1.11,1.59A3.17,3.17,0,0,1,518.56,46.67Z"/>
      <path d="M523.87,38.43a.8.8,0,0,1-.79-.78.72.72,0,0,1,.24-.55.78.78,0,0,1,1.32.55.79.79,0,0,1-.77.78Zm-.59,8.12V40h1.16v6.58Z"/>
      <path d="M529.57,46.68a3.49,3.49,0,0,1-1.69-.41,2.94,2.94,0,0,1-1.18-1.19,3.61,3.61,0,0,1-.44-1.82,3.36,3.36,0,0,1,.93-2.48,3.51,3.51,0,0,1,4.76,0,3.79,3.79,0,0,1,0,5A3.23,3.23,0,0,1,529.57,46.68Zm0-1a2,2,0,0,0,1.56-.68,2.85,2.85,0,0,0,0-3.55,2,2,0,0,0-1.56-.68,2,2,0,0,0-1.54.68A2.89,2.89,0,0,0,528,45,2,2,0,0,0,529.56,45.72Zm-.43-6.88,1.68-2.18.61.45-1.5,1.73Z"/>
      <path d="M537.8,39.85a2.34,2.34,0,0,1,1.66.59,2.24,2.24,0,0,1,.62,1.68v4.43h-1.16V42.38a1.56,1.56,0,0,0-.4-1.17,1.42,1.42,0,0,0-1-.39,1.59,1.59,0,0,0-1.18.46,1.85,1.85,0,0,0-.46,1.34v3.93H534.7V40h1.15v.85A2.2,2.2,0,0,1,537.8,39.85Z"/>
      <path d="M550.64,40h1.12v6.25a3.57,3.57,0,0,1-.85,2.56,3.08,3.08,0,0,1-2.35.9,3.11,3.11,0,0,1-3.2-2l1-.47a2.17,2.17,0,0,0,2.2,1.52,1.86,1.86,0,0,0,1.54-.64,2.69,2.69,0,0,0,.54-1.79V45.06a2.38,2.38,0,0,1-.94.95,2.71,2.71,0,0,1-1.37.35,2.8,2.8,0,0,1-2.13-.92,3.54,3.54,0,0,1,0-4.67,2.83,2.83,0,0,1,2.14-.92,2.62,2.62,0,0,1,1.38.37,2.35,2.35,0,0,1,.93,1Zm-2.09,5.41a2,2,0,0,0,1.51-.67,2.39,2.39,0,0,0,0-3.22,2.06,2.06,0,0,0-3,0,2.28,2.28,0,0,0-.62,1.63,2.26,2.26,0,0,0,.63,1.62A2,2,0,0,0,548.55,45.38Z"/>
      <path d="M559.87,43.13v.32h-5.14a2.33,2.33,0,0,0,.63,1.68,2.07,2.07,0,0,0,1.5.59,2,2,0,0,0,1.09-.32,2.13,2.13,0,0,0,.75-.87l1,.22a3,3,0,0,1-1.12,1.41,3.05,3.05,0,0,1-1.75.52,3.18,3.18,0,0,1-2.37-.92,3.92,3.92,0,0,1,0-5,3.16,3.16,0,0,1,2.34-.91,3,3,0,0,1,2.21.84A3.35,3.35,0,0,1,559.87,43.13Zm-3-2.39a2,2,0,0,0-1.37.46,2.1,2.1,0,0,0-.69,1.36h3.94a2,2,0,0,0-.58-1.36A1.85,1.85,0,0,0,556.83,40.74Z"/>
      <path d="M564.79,39.85a2.34,2.34,0,0,1,1.66.59,2.24,2.24,0,0,1,.62,1.68v4.43h-1.16V42.38a1.56,1.56,0,0,0-.4-1.17,1.44,1.44,0,0,0-1-.39,1.59,1.59,0,0,0-1.18.46,1.85,1.85,0,0,0-.46,1.34v3.93h-1.16V40h1.16v.85A2.2,2.2,0,0,1,564.79,39.85Z"/>
      <path d="M575.06,43.13l0,.32H569.9a2.33,2.33,0,0,0,.63,1.68,2.07,2.07,0,0,0,1.5.59,2,2,0,0,0,1.09-.32,2,2,0,0,0,.75-.87l1,.22A3,3,0,0,1,572,46.68a3.17,3.17,0,0,1-2.36-.92,3.89,3.89,0,0,1,0-5,3.13,3.13,0,0,1,2.33-.91,3,3,0,0,1,2.21.84A3.32,3.32,0,0,1,575.06,43.13Zm-3-2.39a2.06,2.06,0,0,0-1.37.46,2.1,2.1,0,0,0-.69,1.36h3.94a1.93,1.93,0,0,0-.57-1.36A1.87,1.87,0,0,0,572,40.74Z"/>
      <path d="M578,41.13a2,2,0,0,1,.82-.88,2.39,2.39,0,0,1,1.26-.35V41a2.15,2.15,0,0,0-1.53.49A2.05,2.05,0,0,0,578,43v3.51h-1.16V40H578Z"/>
      <path d="M582.88,46.68a2.21,2.21,0,0,1-1.44-.45,1.62,1.62,0,0,1-.57-1.35,1.91,1.91,0,0,1,.18-.86,1.55,1.55,0,0,1,.54-.6,2.89,2.89,0,0,1,.77-.37,7.78,7.78,0,0,1,1-.24l1.07-.17c.38-.07.58-.28.58-.61a1.16,1.16,0,0,0-.41-1,1.69,1.69,0,0,0-1-.31,1.73,1.73,0,0,0-1,.3A1.28,1.28,0,0,0,582,42l-1-.22a2,2,0,0,1,.83-1.41,3.09,3.09,0,0,1,1.79-.47,3.53,3.53,0,0,1,.95.12,2.54,2.54,0,0,1,.8.37,1.67,1.67,0,0,1,.57.7,2.79,2.79,0,0,1,.2,1.09v2.71a1.13,1.13,0,0,0,.15.69.65.65,0,0,0,.52.18h.11v.83h-.58a1.09,1.09,0,0,1-1.24-.89H585A2.5,2.5,0,0,1,582.88,46.68Zm.27-.94a1.77,1.77,0,0,0,1.41-.63,2.62,2.62,0,0,0,.53-1.74l-1.74.33a2.4,2.4,0,0,0-1,.37.83.83,0,0,0-.33.72.85.85,0,0,0,.32.72A1.41,1.41,0,0,0,583.15,45.74Z"/>
      <path d="M588.54,46.55V36.27h1.17V46.55Z"/>
      <path d="M594.42,49l6.64-12.77h1.12L595.54,49Z"/>
      <path d="M611.23,46.68a4.92,4.92,0,0,1-1.86-.34,4.46,4.46,0,0,1-1.49-1,4.31,4.31,0,0,1-1-1.53,5.73,5.73,0,0,1-.35-2,5.44,5.44,0,0,1,.36-2,4.24,4.24,0,0,1,2.47-2.48,4.92,4.92,0,0,1,1.86-.34,5.1,5.1,0,0,1,1.84.34,4.48,4.48,0,0,1,1.48.95,4.31,4.31,0,0,1,1,1.53,5.45,5.45,0,0,1,.37,2,5.51,5.51,0,0,1-.37,2,4.24,4.24,0,0,1-2.47,2.48A4.89,4.89,0,0,1,611.23,46.68Zm0-1.13a3.35,3.35,0,0,0,2.49-1,3.67,3.67,0,0,0,1-2.72,4.33,4.33,0,0,0-.27-1.56,3.19,3.19,0,0,0-.75-1.17,3.41,3.41,0,0,0-1.1-.71,4,4,0,0,0-2.73,0,3.51,3.51,0,0,0-1.12.71,3.3,3.3,0,0,0-.74,1.17,4.33,4.33,0,0,0-.27,1.56,4.4,4.4,0,0,0,.27,1.58,3.26,3.26,0,0,0,.74,1.18,3.51,3.51,0,0,0,1.12.71A3.63,3.63,0,0,0,611.23,45.55Z"/>
      <path d="M621.39,39.85a2.86,2.86,0,0,1,2.18.95,3.87,3.87,0,0,1,0,4.94,2.81,2.81,0,0,1-2.18.95,2.61,2.61,0,0,1-1.4-.38,2.37,2.37,0,0,1-.94-1l0,1.28h-1.11V36.27h1.15v5a2.47,2.47,0,0,1,.94-1A2.65,2.65,0,0,1,621.39,39.85Zm-.25,5.84a2,2,0,0,0,1.54-.67,2.78,2.78,0,0,0,0-3.5,2,2,0,0,0-1.54-.68,2,2,0,0,0-1.53.7,2.72,2.72,0,0,0,0,3.46A2,2,0,0,0,621.14,45.69Z"/>
      <path d="M628.36,46.68a3.08,3.08,0,0,1-1.77-.48,1.94,1.94,0,0,1-.87-1.35l1-.29a1.4,1.4,0,0,0,.54.92,1.8,1.8,0,0,0,1.08.32,2.55,2.55,0,0,0,.64-.08,1,1,0,0,0,.48-.33.87.87,0,0,0,.19-.6.76.76,0,0,0,0-.27,1.51,1.51,0,0,0-.11-.22.76.76,0,0,0-.18-.18l-.23-.14-.3-.12-.32-.11-.36-.11-.39-.11a5.75,5.75,0,0,1-.68-.24,2.81,2.81,0,0,1-.55-.31,1.3,1.3,0,0,1-.44-.52,1.88,1.88,0,0,1-.14-.74,1.74,1.74,0,0,1,.32-1,1.83,1.83,0,0,1,.83-.62,3.34,3.34,0,0,1,1.17-.19,2.84,2.84,0,0,1,1.61.43,1.83,1.83,0,0,1,.8,1.28l-1,.24a1.23,1.23,0,0,0-.5-.83,1.76,1.76,0,0,0-1.82,0,.85.85,0,0,0-.28,1.08,2,2,0,0,0,.2.25,1.14,1.14,0,0,0,.36.2l.39.14.48.12.1,0,.64.18a4,4,0,0,1,.57.24,2.08,2.08,0,0,1,.51.36,1.78,1.78,0,0,1,.32.51,1.76,1.76,0,0,1,.13.71,1.79,1.79,0,0,1-.2.88,1.58,1.58,0,0,1-.53.61,2.8,2.8,0,0,1-.77.33A3.8,3.8,0,0,1,628.36,46.68Z"/>
      <path d="M638.36,43.13l0,.32H633.2a2.33,2.33,0,0,0,.63,1.68,2.1,2.1,0,0,0,1.5.59,2,2,0,0,0,1.09-.32,2,2,0,0,0,.75-.87l1.05.22a2.93,2.93,0,0,1-1.13,1.41,3,3,0,0,1-1.74.52,3.18,3.18,0,0,1-2.37-.92,3.37,3.37,0,0,1-.91-2.5,3.44,3.44,0,0,1,.91-2.5,3.14,3.14,0,0,1,2.33-.91,3,3,0,0,1,2.21.84A3.32,3.32,0,0,1,638.36,43.13Zm-3.05-2.39a2.06,2.06,0,0,0-1.37.46,2.19,2.19,0,0,0-.69,1.36h3.94a1.93,1.93,0,0,0-.57-1.36A1.87,1.87,0,0,0,635.31,40.74Z"/>
      <path d="M641.3,41.13a2,2,0,0,1,.82-.88,2.39,2.39,0,0,1,1.26-.35V41a2.15,2.15,0,0,0-1.53.49,2.05,2.05,0,0,0-.52,1.56v3.51h-1.16V40h1.13Z"/>
      <path d="M649,40h1.24l-2.68,6.58h-1L643.89,40h1.23l1.93,5.24Z"/>
      <path d="M652.85,46.68a2.26,2.26,0,0,1-1.45-.45,1.64,1.64,0,0,1-.56-1.35A1.91,1.91,0,0,1,651,44a1.6,1.6,0,0,1,.53-.6,3.11,3.11,0,0,1,.78-.37,7.78,7.78,0,0,1,1-.24l1.06-.17c.39-.07.58-.28.58-.61a1.13,1.13,0,0,0-.41-1,1.65,1.65,0,0,0-1-.31,1.72,1.72,0,0,0-1,.3A1.25,1.25,0,0,0,652,42l-1-.22a2,2,0,0,1,.82-1.41,3.12,3.12,0,0,1,1.8-.47,3.58,3.58,0,0,1,.95.12,2.65,2.65,0,0,1,.8.37,1.58,1.58,0,0,1,.56.7,2.62,2.62,0,0,1,.21,1.09v2.71a1.13,1.13,0,0,0,.15.69.64.64,0,0,0,.52.18h.1v.83h-.57a1.1,1.1,0,0,1-1.25-.89h0A2.51,2.51,0,0,1,652.85,46.68Zm.26-.94a1.77,1.77,0,0,0,1.42-.63,2.68,2.68,0,0,0,.53-1.74l-1.74.33a2.35,2.35,0,0,0-1,.37.83.83,0,0,0-.33.72.85.85,0,0,0,.32.72A1.37,1.37,0,0,0,653.11,45.74Z"/>
      <path d="M661.1,46.67a3.15,3.15,0,0,1-2.35-.94,3.75,3.75,0,0,1,0-4.94,3.13,3.13,0,0,1,2.35-.94,3.22,3.22,0,0,1,1.91.57,3,3,0,0,1,1.11,1.6L663,42.2a2,2,0,0,0-.74-1,2,2,0,0,0-1.19-.36,1.93,1.93,0,0,0-1.52.68,2.91,2.91,0,0,0,0,3.54,1.92,1.92,0,0,0,1.52.67A2,2,0,0,0,663,44.32l1.09.18A2.93,2.93,0,0,1,663,46.09,3.15,3.15,0,0,1,661.1,46.67Z"/>
      <path d="M666.41,38.43a.76.76,0,0,1-.55-.23.74.74,0,0,1-.23-.55.71.71,0,0,1,.23-.55.73.73,0,0,1,.55-.23.79.79,0,0,1,.78.78.79.79,0,0,1-.78.78Zm-.59,8.12V40H667v6.58Z"/>
      <path d="M672.11,46.68a3.48,3.48,0,0,1-1.68-.41,3,3,0,0,1-1.19-1.19,3.71,3.71,0,0,1-.44-1.82,3.36,3.36,0,0,1,.93-2.48,3.52,3.52,0,0,1,4.77,0,3.77,3.77,0,0,1,0,5A3.22,3.22,0,0,1,672.11,46.68Zm0-1a2,2,0,0,0,1.55-.68,2.85,2.85,0,0,0,0-3.55,2.11,2.11,0,0,0-3.1,0,2.89,2.89,0,0,0,0,3.55A2,2,0,0,0,672.11,45.72Z"/>
      <path d="M680.34,39.85a2.31,2.31,0,0,1,1.66.59,2.24,2.24,0,0,1,.62,1.68v4.43h-1.16V42.38a1.52,1.52,0,0,0-.4-1.17,1.42,1.42,0,0,0-1-.39,1.55,1.55,0,0,0-1.17.46,1.81,1.81,0,0,0-.46,1.34v3.93h-1.16V40h1.16v.85A2.17,2.17,0,0,1,680.34,39.85Z"/>
      <path d="M690.61,43.13v.32h-5.14a2.25,2.25,0,0,0,.63,1.68,2.07,2.07,0,0,0,1.5.59,2,2,0,0,0,1.09-.32,2.13,2.13,0,0,0,.75-.87l1,.22a3,3,0,0,1-1.12,1.41,3.05,3.05,0,0,1-1.75.52,3.18,3.18,0,0,1-2.37-.92,3.92,3.92,0,0,1,0-5,3.16,3.16,0,0,1,2.34-.91,3,3,0,0,1,2.21.84A3.35,3.35,0,0,1,690.61,43.13Zm-3-2.39a2,2,0,0,0-1.37.46,2.15,2.15,0,0,0-.7,1.36h4a2,2,0,0,0-.58-1.36A1.85,1.85,0,0,0,687.57,40.74Z"/>
      <path d="M694.51,46.68a3.11,3.11,0,0,1-1.78-.48,1.93,1.93,0,0,1-.86-1.35l1-.29a1.4,1.4,0,0,0,.54.92,1.8,1.8,0,0,0,1.08.32,2.47,2.47,0,0,0,.63-.08,1.07,1.07,0,0,0,.49-.33.92.92,0,0,0,.19-.6.76.76,0,0,0,0-.27,1.51,1.51,0,0,0-.11-.22.66.66,0,0,0-.19-.18l-.23-.14-.29-.12-.32-.11-.37-.11-.38-.11a5.16,5.16,0,0,1-.68-.24,2.87,2.87,0,0,1-.56-.31,1.35,1.35,0,0,1-.43-.52,1.72,1.72,0,0,1-.14-.74,1.68,1.68,0,0,1,.32-1,1.78,1.78,0,0,1,.83-.62,3.26,3.26,0,0,1,1.17-.19,2.81,2.81,0,0,1,1.6.43,1.8,1.8,0,0,1,.8,1.28l-.95.24a1.27,1.27,0,0,0-.5-.83,1.77,1.77,0,0,0-1.83,0,.8.8,0,0,0-.37.71.79.79,0,0,0,.1.37.95.95,0,0,0,.56.45,2.78,2.78,0,0,0,.39.14,4,4,0,0,0,.48.12l.1,0,.63.18a4,4,0,0,1,.57.24,1.76,1.76,0,0,1,.51.36,1.59,1.59,0,0,1,.32.51,1.76,1.76,0,0,1,.14.71,1.9,1.9,0,0,1-.2.88,1.52,1.52,0,0,1-.54.61,2.74,2.74,0,0,1-.76.33A3.87,3.87,0,0,1,694.51,46.68Z"/>
    </g>
    <g>
      <path d="M153.8,70a14.45,14.45,0,0,1-8.28-2.28,9.16,9.16,0,0,1-4-6.39l6.41-1.47a5.41,5.41,0,0,0,2,3.77A6.57,6.57,0,0,0,154.05,65a5.4,5.4,0,0,0,3.26-.92,3.09,3.09,0,0,0,1.24-2.72,2.93,2.93,0,0,0-1.05-2.21,6.89,6.89,0,0,0-2.1-1.35c-.69-.27-1.81-.63-3.35-1.1l-.46-.15c-.78-.25-1.41-.45-1.9-.62s-1.07-.39-1.78-.69a10.78,10.78,0,0,1-1.74-.87,12.61,12.61,0,0,1-1.43-1.07,5.6,5.6,0,0,1-1.2-1.37,7.71,7.71,0,0,1-1-3.84,8,8,0,0,1,1.39-4.7,8.54,8.54,0,0,1,3.76-3,13.65,13.65,0,0,1,5.38-1,16.93,16.93,0,0,1,3.89.43,13.57,13.57,0,0,1,3.48,1.34,8.34,8.34,0,0,1,2.78,2.45,9.32,9.32,0,0,1,1.58,3.63l-6,1.49q-.81-4.27-5.37-4.28a5.83,5.83,0,0,0-3.32.87,2.93,2.93,0,0,0-1.3,2.62q0,1.64,2.16,2.64A32.66,32.66,0,0,0,155.12,52c.82.25,1.48.45,2,.62s1.15.4,1.92.72a13.23,13.23,0,0,1,1.88.92,15,15,0,0,1,1.57,1.15,6.07,6.07,0,0,1,1.33,1.48,8.32,8.32,0,0,1,.82,1.85A7.75,7.75,0,0,1,165,61a9,9,0,0,1-.6,3.37,7.38,7.38,0,0,1-1.64,2.54,9.72,9.72,0,0,1-2.47,1.75,12.11,12.11,0,0,1-3,1A17.71,17.71,0,0,1,153.8,70Z"/>
      <path d="M187.86,39.76v5.46h-7.08V69.61h-6.14V45.22h-7.12V39.76Z"/>
      <path d="M204.71,70a16.19,16.19,0,0,1-7.84-1.87,13.6,13.6,0,0,1-5.44-5.38,16.2,16.2,0,0,1-2-8.1,16.15,16.15,0,0,1,2-8.1,13.49,13.49,0,0,1,5.44-5.36,17.43,17.43,0,0,1,15.67,0A13.46,13.46,0,0,1,218,46.57a16.15,16.15,0,0,1,2,8.1,16.2,16.2,0,0,1-2,8.1,13.54,13.54,0,0,1-5.44,5.38A16.14,16.14,0,0,1,204.71,70Zm-6.52-8.29a9.46,9.46,0,0,0,13.05,0,9.64,9.64,0,0,0,2.56-7.06,9.58,9.58,0,0,0-2.56-7,9.49,9.49,0,0,0-13.05,0,9.58,9.58,0,0,0-2.56,7A9.64,9.64,0,0,0,198.19,61.73Z"/>
      <path d="M241.41,69.61l-7.76-13.14h-1.8V69.61h-6.19V39.76h10.82a12.49,12.49,0,0,1,4.33.69,7.57,7.57,0,0,1,3,1.93,8.12,8.12,0,0,1,1.69,2.81,10.36,10.36,0,0,1,.57,3.5,7.27,7.27,0,0,1-1.63,4.9,8.24,8.24,0,0,1-4.69,2.57l9,13.45Zm-9.56-24.7V52h3.66q4.63,0,4.64-3.55A3.24,3.24,0,0,0,239,45.86a5.37,5.37,0,0,0-3.51-1Z"/>
      <path d="M274.19,39.76l-9.81,15.55v14.3h-6.22V55.46l-9.87-15.7h6.86l6.09,10.16,6.11-10.16Z"/>
      <path d="M294.41,53.85Q300,55.4,300,61.24a8.05,8.05,0,0,1-2.38,6.13q-2.37,2.23-7,2.24H278.38V39.76h9.67q4.77,0,7.3,2.16a7.51,7.51,0,0,1,2.53,6,6.94,6.94,0,0,1-.88,3.54A5.75,5.75,0,0,1,294.41,53.85Zm-6.3-8.94h-3.76v7h4a3.8,3.8,0,0,0,2.85-1,3.63,3.63,0,0,0,.95-2.61,3.21,3.21,0,0,0-1-2.48A4.38,4.38,0,0,0,288.11,44.91Zm1.4,19.39a4.76,4.76,0,0,0,3.42-1A3.58,3.58,0,0,0,294,60.56a3.77,3.77,0,0,0-1.1-2.77,4.85,4.85,0,0,0-3.53-1.09h-5v7.6Z"/>
      <path d="M318.28,70a16.13,16.13,0,0,1-7.83-1.87A13.63,13.63,0,0,1,305,62.77a16.2,16.2,0,0,1-2-8.1,16.15,16.15,0,0,1,2-8.1,13.51,13.51,0,0,1,5.45-5.36,17.41,17.41,0,0,1,15.66,0,13.46,13.46,0,0,1,5.43,5.36,16.05,16.05,0,0,1,2,8.1,16.1,16.1,0,0,1-2,8.1,13.54,13.54,0,0,1-5.44,5.38A16.14,16.14,0,0,1,318.28,70Zm-6.52-8.29a9.46,9.46,0,0,0,13.05,0,9.64,9.64,0,0,0,2.56-7.06,9.58,9.58,0,0,0-2.56-7,9.49,9.49,0,0,0-13.05,0,9.58,9.58,0,0,0-2.56,7A9.64,9.64,0,0,0,311.76,61.73Z"/>
      <path d="M357.71,69.61l-2.17-6.16H343l-2.17,6.16H334.5l11-29.85h7.58l11,29.85ZM344.82,58.27h8.9l-4.44-12.66Z"/>
      <path d="M384.29,69.61l-7.76-13.14h-1.8V69.61h-6.2V39.76h10.82a12.55,12.55,0,0,1,4.34.69,7.64,7.64,0,0,1,3,1.93,8.12,8.12,0,0,1,1.69,2.81,10.36,10.36,0,0,1,.57,3.5,7.32,7.32,0,0,1-1.63,4.9,8.24,8.24,0,0,1-4.69,2.57l9,13.45Zm-9.56-24.7V52h3.65Q383,52,383,48.48a3.24,3.24,0,0,0-1.13-2.62,5.38,5.38,0,0,0-3.52-1Z"/>
      <path d="M396.17,69.61V39.76H407a16.72,16.72,0,0,1,6.22,1.08,11.53,11.53,0,0,1,4.47,3,13.34,13.34,0,0,1,2.64,4.7,21.16,21.16,0,0,1,0,12.21,13.34,13.34,0,0,1-2.64,4.7,11.53,11.53,0,0,1-4.47,3A16.72,16.72,0,0,1,407,69.61Zm6.19-5.48h4.3q4.05,0,6-2.42t2-7q0-4.61-2-7c-1.32-1.62-3.33-2.42-6-2.42h-4.3Z"/>
    </g>
    <g>
      <g>
        <path class="cls-1" d="M437,369.42H138.37V103.24H437ZM141.69,366.1h292V106.57h-292Z"/>
        <g>
          <rect class="cls-2" x="140.03" y="104.91" width="295.34" height="33.23"/>
          <path class="cls-1" d="M436.2,139h-297V104.07h297ZM140.86,137.3H434.54V105.74H140.86Z"/>
        </g>
        <path class="cls-1" d="M436.2,368.59h-297V307.86h297Zm-295.34-1.66H434.54V309.52H140.86Z"/>
        <path class="cls-1" d="M424,300.25H151.43V145.1H424Zm-271.71-.84H423.14V145.93H152.26Z"/>
        <rect class="cls-1" x="151.84" y="337.39" width="271.71" height="1.66"/>
        <rect class="cls-1" x="151.84" y="352.16" width="271.71" height="1.66"/>
      </g>
      <g>
        <path d="M162.39,116.24h-3.83v3.08h3.37v1.08h-3.37v3.08h3.83v1.09h-5.06v-9.42h5.06Z"/>
        <path d="M166.46,124.7a3.08,3.08,0,0,1-1.77-.48,1.93,1.93,0,0,1-.86-1.35l1-.29a1.4,1.4,0,0,0,.54.92,1.75,1.75,0,0,0,1.08.32,2.47,2.47,0,0,0,.63-.08,1,1,0,0,0,.48-.33.87.87,0,0,0,.2-.6.76.76,0,0,0-.06-.27,1.47,1.47,0,0,0-.1-.22.83.83,0,0,0-.19-.18,2,2,0,0,0-.23-.14,1.65,1.65,0,0,0-.3-.12l-.31-.11-.37-.11-.38-.11a5.37,5.37,0,0,1-.69-.24,2.67,2.67,0,0,1-.55-.32,1.18,1.18,0,0,1-.43-.51,1.89,1.89,0,0,1,.17-1.79,1.85,1.85,0,0,1,.84-.62,3.26,3.26,0,0,1,1.17-.19,2.83,2.83,0,0,1,1.6.43,1.83,1.83,0,0,1,.8,1.28l-1,.24a1.27,1.27,0,0,0-.5-.83,1.66,1.66,0,0,0-.95-.28,1.65,1.65,0,0,0-.88.23.78.78,0,0,0-.37.71.65.65,0,0,0,.1.36.94.94,0,0,0,.2.26,1.11,1.11,0,0,0,.36.2,2.78,2.78,0,0,0,.39.14l.48.12.1,0,.63.18a4,4,0,0,1,.57.24,1.76,1.76,0,0,1,.51.36,1.59,1.59,0,0,1,.32.51,1.71,1.71,0,0,1,.14.7,2,2,0,0,1-.2.89,1.52,1.52,0,0,1-.54.61,3,3,0,0,1-.77.33A3.8,3.8,0,0,1,166.46,124.7Z"/>
        <path d="M173.44,124.69a3.17,3.17,0,0,1-2.36-.94,3.75,3.75,0,0,1,0-4.94,3.16,3.16,0,0,1,2.36-.94,3.21,3.21,0,0,1,1.9.57,2.93,2.93,0,0,1,1.11,1.6l-1.09.18a2,2,0,0,0-.74-1,2,2,0,0,0-1.19-.36,1.91,1.91,0,0,0-1.52.68,2.91,2.91,0,0,0,0,3.54,1.93,1.93,0,0,0,1.52.67,2,2,0,0,0,1.93-1.38l1.09.18a2.87,2.87,0,0,1-1.12,1.59A3.14,3.14,0,0,1,173.44,124.69Z"/>
        <path d="M183.91,121.15v.32h-5.14a2.25,2.25,0,0,0,.63,1.68,2.06,2.06,0,0,0,1.49.59,2,2,0,0,0,1.1-.32,2,2,0,0,0,.74-.87l1.05.22a2.93,2.93,0,0,1-1.13,1.41,3,3,0,0,1-1.74.52,3.18,3.18,0,0,1-2.37-.92,3.92,3.92,0,0,1,0-5,3.14,3.14,0,0,1,2.33-.91,3,3,0,0,1,2.22.84A3.35,3.35,0,0,1,183.91,121.15Zm-3-2.39a2,2,0,0,0-1.36.46,2.15,2.15,0,0,0-.7,1.36h3.94a1.93,1.93,0,0,0-.57-1.36A1.85,1.85,0,0,0,180.86,118.76Z"/>
        <path d="M188.83,117.87a2.26,2.26,0,0,1,1.65.59,2.2,2.2,0,0,1,.62,1.68v4.43H190V120.4a1.56,1.56,0,0,0-.41-1.18,1.44,1.44,0,0,0-1-.38,1.61,1.61,0,0,0-1.17.45,1.9,1.9,0,0,0-.46,1.35v3.93h-1.16V118h1.16v.85A2.2,2.2,0,0,1,188.83,117.87Z"/>
        <path d="M194.86,124.7a2.21,2.21,0,0,1-1.44-.45,1.62,1.62,0,0,1-.57-1.35A1.91,1.91,0,0,1,193,122a1.55,1.55,0,0,1,.54-.6,2.89,2.89,0,0,1,.77-.37,7.78,7.78,0,0,1,1-.24l1.06-.17c.39-.07.59-.28.59-.61a1.12,1.12,0,0,0-.42-1,1.65,1.65,0,0,0-1-.31,1.72,1.72,0,0,0-1,.3,1.29,1.29,0,0,0-.49.92l-1-.22a2,2,0,0,1,.82-1.41,3.12,3.12,0,0,1,1.8-.47,3.53,3.53,0,0,1,.95.12,2.62,2.62,0,0,1,.8.36,1.76,1.76,0,0,1,.57.71,2.77,2.77,0,0,1,.2,1.08v2.72a1.13,1.13,0,0,0,.15.69.64.64,0,0,0,.52.18h.11v.83h-.58a1.09,1.09,0,0,1-1.24-.89H197A2.51,2.51,0,0,1,194.86,124.7Zm.27-.94a1.77,1.77,0,0,0,1.41-.63,2.68,2.68,0,0,0,.53-1.74l-1.74.33a2.35,2.35,0,0,0-1,.37.83.83,0,0,0-.33.71.86.86,0,0,0,.32.73A1.41,1.41,0,0,0,195.13,123.76Z"/>
      </g>
      <g>
        <path d="M157.33,327.62v-9.43h3a4.55,4.55,0,0,1,2.4.61,3.69,3.69,0,0,1,1.47,1.66,5.81,5.81,0,0,1,.48,2.44,6.32,6.32,0,0,1-.27,1.9,4.3,4.3,0,0,1-.82,1.49,3.47,3.47,0,0,1-1.37,1,4.86,4.86,0,0,1-1.89.35Zm1.2-1.09h1.8a2.87,2.87,0,0,0,2.36-1,4.11,4.11,0,0,0,.79-2.66,4,4,0,0,0-.8-2.65,2.87,2.87,0,0,0-2.35-1h-1.8Z"/>
        <path d="M172.51,324.2l0,.31h-5.14a2.38,2.38,0,0,0,.63,1.69,2.06,2.06,0,0,0,1.5.58,2,2,0,0,0,1.09-.31,2,2,0,0,0,.75-.87l1.05.22a3,3,0,0,1-1.13,1.41,3.07,3.07,0,0,1-1.75.51,3.16,3.16,0,0,1-2.36-.91,3.89,3.89,0,0,1,0-5,3.13,3.13,0,0,1,2.33-.92,2.93,2.93,0,0,1,2.21.85A3.3,3.3,0,0,1,172.51,324.2Zm-3-2.4a2.07,2.07,0,0,0-1.37.47,2.1,2.1,0,0,0-.69,1.35h3.94a1.92,1.92,0,0,0-.57-1.35A1.88,1.88,0,0,0,169.46,321.8Z"/>
        <path d="M176.4,327.74a3.07,3.07,0,0,1-1.77-.47,2,2,0,0,1-.87-1.35l1-.29a1.46,1.46,0,0,0,.54.91,1.74,1.74,0,0,0,1.08.33,2.11,2.11,0,0,0,.64-.09,1,1,0,0,0,.48-.32.87.87,0,0,0,.2-.6,1.07,1.07,0,0,0-.06-.27.9.9,0,0,0-.1-.22.83.83,0,0,0-.19-.18,1.58,1.58,0,0,0-.23-.14l-.3-.13-.32-.1-.36-.11-.38-.11-.69-.24a2.88,2.88,0,0,1-.55-.32,1.27,1.27,0,0,1-.43-.52,1.67,1.67,0,0,1-.15-.73,1.75,1.75,0,0,1,.32-1.06,1.78,1.78,0,0,1,.84-.61,3.24,3.24,0,0,1,1.16-.2,2.93,2.93,0,0,1,1.61.43,1.87,1.87,0,0,1,.8,1.29l-1,.24a1.26,1.26,0,0,0-.51-.83,1.54,1.54,0,0,0-.94-.28,1.56,1.56,0,0,0-.88.23.77.77,0,0,0-.37.71.65.65,0,0,0,.1.36,1.46,1.46,0,0,0,.19.26,1.39,1.39,0,0,0,.36.2l.39.14.49.12.1,0,.63.17.57.24a2.08,2.08,0,0,1,.51.36,1.76,1.76,0,0,1,.45,1.22,2,2,0,0,1-.19.89,1.66,1.66,0,0,1-.54.6,2.53,2.53,0,0,1-.77.33A3.36,3.36,0,0,1,176.4,327.74Z"/>
        <path d="M183.37,327.74a3.16,3.16,0,0,1-2.35-.95,3.75,3.75,0,0,1,0-4.93,3.42,3.42,0,0,1,4.27-.37,2.9,2.9,0,0,1,1.11,1.6l-1.09.17a2,2,0,0,0-.74-1,2,2,0,0,0-1.19-.36,2,2,0,0,0-1.53.67,2.61,2.61,0,0,0-.59,1.77,2.57,2.57,0,0,0,.59,1.77,2,2,0,0,0,1.53.68,2,2,0,0,0,1.93-1.39l1.09.18a3,3,0,0,1-1.12,1.6A3.15,3.15,0,0,1,183.37,327.74Z"/>
        <path d="M189.22,322.2a2.06,2.06,0,0,1,.82-.89,2.48,2.48,0,0,1,1.26-.34v1.09a2.14,2.14,0,0,0-1.52.49,2,2,0,0,0-.53,1.55v3.52h-1.16V321h1.13Z"/>
        <path d="M193.25,319.49a.73.73,0,0,1-.55-.23.78.78,0,0,1,.55-1.33.78.78,0,0,1,.55.23.77.77,0,0,1,0,1.1A.74.74,0,0,1,193.25,319.49Zm-.59,8.13V321h1.17v6.58Z"/>
        <path d="M199.66,320.91a3,3,0,0,1,1.19.24,2.89,2.89,0,0,1,1,.68,3.07,3.07,0,0,1,.66,1.08,3.89,3.89,0,0,1,.25,1.42,3.47,3.47,0,0,1-.89,2.48,2.88,2.88,0,0,1-2.18.95,2.6,2.6,0,0,1-1.38-.38,2.47,2.47,0,0,1-.94-1v4.56h-1.16V321h1.12l0,1.28a2.38,2.38,0,0,1,.93-1A2.67,2.67,0,0,1,199.66,320.91Zm-.23,5.84a2,2,0,0,0,1.52-.66,2.5,2.5,0,0,0,.62-1.76,2.46,2.46,0,0,0-.62-1.75,2,2,0,0,0-1.52-.66,2,2,0,0,0-1.55.69,2.45,2.45,0,0,0-.63,1.72,2.47,2.47,0,0,0,.63,1.73A2,2,0,0,0,199.43,326.75Z"/>
        <path d="M207.29,327.74a3.18,3.18,0,0,1-2.36-.95,3.73,3.73,0,0,1,0-4.93,3.4,3.4,0,0,1,4.26-.37,2.86,2.86,0,0,1,1.11,1.6l-1.09.17a2,2,0,0,0-1.93-1.38,1.93,1.93,0,0,0-1.52.67,2.56,2.56,0,0,0-.6,1.77,2.53,2.53,0,0,0,.6,1.77,1.94,1.94,0,0,0,1.52.68,2,2,0,0,0,1.93-1.39l1.09.18a2.94,2.94,0,0,1-1.12,1.6A3.14,3.14,0,0,1,207.29,327.74Z"/>
        <path d="M212.59,319.49a.73.73,0,0,1-.55-.23.78.78,0,0,1,.55-1.33.78.78,0,0,1,.55.23.77.77,0,0,1,0,1.1A.74.74,0,0,1,212.59,319.49Zm-.59,8.13V321h1.17v6.58Z"/>
        <path d="M218.29,327.74a3.48,3.48,0,0,1-1.68-.4,3,3,0,0,1-1.19-1.2,3.69,3.69,0,0,1-.44-1.82,3.37,3.37,0,0,1,.93-2.48,3.52,3.52,0,0,1,4.77,0,3.37,3.37,0,0,1,.93,2.48,3.33,3.33,0,0,1-.94,2.49A3.22,3.22,0,0,1,218.29,327.74Zm0-1a2,2,0,0,0,1.55-.68,2.85,2.85,0,0,0,0-3.55,2.13,2.13,0,0,0-3.1,0,2.89,2.89,0,0,0,0,3.55A2,2,0,0,0,218.29,326.78Zm-.44-6.87,1.68-2.18.62.44-1.5,1.74Z"/>
        <path d="M226.53,320.91a2.26,2.26,0,0,1,1.65.6,2.21,2.21,0,0,1,.62,1.68v4.43h-1.16v-4.17a1.55,1.55,0,0,0-.4-1.18,1.45,1.45,0,0,0-1-.38,1.58,1.58,0,0,0-1.17.45,1.83,1.83,0,0,0-.46,1.34v3.94h-1.16V321h1.16v.84A2.21,2.21,0,0,1,226.53,320.91Z"/>
      </g>
      <g>
        <path d="M165.46,168.87v-9.42h3a4.46,4.46,0,0,1,2.4.61,3.66,3.66,0,0,1,1.48,1.66,5.76,5.76,0,0,1,.48,2.43,6.33,6.33,0,0,1-.28,1.91,4.4,4.4,0,0,1-.82,1.49,3.48,3.48,0,0,1-1.36,1,4.77,4.77,0,0,1-1.9.35Zm1.19-1.09h1.8a2.89,2.89,0,0,0,2.36-1,4.85,4.85,0,0,0,0-5.32,2.87,2.87,0,0,0-2.35-1h-1.8Z"/>
        <path d="M175.46,160.75a.76.76,0,0,1-.55-.23.78.78,0,0,1-.23-.55.75.75,0,0,1,.23-.55.73.73,0,0,1,.55-.23.79.79,0,0,1,.78.78.79.79,0,0,1-.78.78Zm-.59,8.12v-6.58H176v6.58Z"/>
        <path d="M181.88,162.17a2.82,2.82,0,0,1,2.17,1,3.42,3.42,0,0,1,.89,2.47,3.48,3.48,0,0,1-.88,2.47,2.84,2.84,0,0,1-2.18.95,2.56,2.56,0,0,1-1.4-.38,2.37,2.37,0,0,1-.94-1l0,1.28h-1.12V158.59h1.15v5a2.41,2.41,0,0,1,.94-1A2.63,2.63,0,0,1,181.88,162.17Zm-.25,5.84a2,2,0,0,0,1.53-.67,2.47,2.47,0,0,0,.63-1.75,2.44,2.44,0,0,0-.63-1.75,2,2,0,0,0-3.06,0,2.72,2.72,0,0,0,0,3.46A2,2,0,0,0,181.63,168Z"/>
        <path d="M190.86,162.29H192v6.58h-1.11l0-.87a2,2,0,0,1-.82.74,2.53,2.53,0,0,1-1.15.26,2.26,2.26,0,0,1-1.65-.6,2.17,2.17,0,0,1-.62-1.68v-4.43h1.16v4.17a1.56,1.56,0,0,0,.4,1.18,1.42,1.42,0,0,0,1,.39,1.55,1.55,0,0,0,1.17-.46,1.83,1.83,0,0,0,.46-1.34Z"/>
        <path d="M192.86,172v-1a2,2,0,0,0,.95-.19,1.1,1.1,0,0,0,.44-.64,5.79,5.79,0,0,0,.12-1.36v-6.49h1.18v6.49a3.83,3.83,0,0,1-.61,2.45A2.6,2.6,0,0,1,192.86,172Zm2.11-11.2a.76.76,0,0,1-.55-.23.74.74,0,0,1-.23-.55.71.71,0,0,1,.23-.55.73.73,0,0,1,.55-.23.7.7,0,0,1,.54.23.72.72,0,0,1,.24.55.75.75,0,0,1-.24.55A.74.74,0,0,1,195,160.75Z"/>
        <path d="M200.68,169a3.49,3.49,0,0,1-1.69-.41,3,3,0,0,1-1.19-1.19,3.71,3.71,0,0,1-.43-1.82,3.36,3.36,0,0,1,.93-2.48,3.51,3.51,0,0,1,4.76,0,3.36,3.36,0,0,1,.93,2.48,3.4,3.4,0,0,1-.93,2.49A3.25,3.25,0,0,1,200.68,169Zm0-1a2,2,0,0,0,1.56-.68,2.85,2.85,0,0,0,0-3.55,2,2,0,0,0-1.56-.68,2,2,0,0,0-1.54.68,2.89,2.89,0,0,0,0,3.55A2,2,0,0,0,200.67,168Z"/>
      </g>
      <g>
        <path d="M245.07,115.15a2.8,2.8,0,0,1,1.48.39,2.63,2.63,0,0,1,1,1,3.07,3.07,0,0,1,.34,1.45,2.86,2.86,0,0,1-.78,2,2.65,2.65,0,0,1-2,.82H242.7v3.66h-1.19v-9.42Zm-.17,4.72a1.7,1.7,0,0,0,1.31-.51,2.08,2.08,0,0,0,0-2.66,1.7,1.7,0,0,0-1.31-.51h-2.2v3.68Z"/>
        <path d="M249.68,124.57V114.29h1.18v10.28Z"/>
        <path d="M254.73,124.7a2.25,2.25,0,0,1-1.44-.45,1.62,1.62,0,0,1-.57-1.35,1.91,1.91,0,0,1,.18-.86,1.55,1.55,0,0,1,.54-.6,3,3,0,0,1,.77-.37,7.78,7.78,0,0,1,1-.24l1.07-.17c.38-.07.58-.28.58-.61a1.15,1.15,0,0,0-.41-1,1.67,1.67,0,0,0-1-.31,1.7,1.7,0,0,0-1,.3,1.25,1.25,0,0,0-.49.92l-1-.22a2,2,0,0,1,.83-1.41,3.09,3.09,0,0,1,1.79-.47,3.48,3.48,0,0,1,1,.12,2.52,2.52,0,0,1,.8.36,1.76,1.76,0,0,1,.57.71,2.77,2.77,0,0,1,.2,1.08v2.72a1.13,1.13,0,0,0,.15.69.65.65,0,0,0,.52.18h.11v.83h-.58a1.09,1.09,0,0,1-1.24-.89h-.05A2.52,2.52,0,0,1,254.73,124.7Zm.27-.94a1.77,1.77,0,0,0,1.41-.63,2.62,2.62,0,0,0,.54-1.74l-1.74.33a2.45,2.45,0,0,0-1,.37.83.83,0,0,0-.33.71.86.86,0,0,0,.32.73A1.41,1.41,0,0,0,255,123.76Z"/>
        <path d="M263.5,117.87a2.26,2.26,0,0,1,1.65.59,2.2,2.2,0,0,1,.62,1.68v4.43h-1.16V120.4a1.56,1.56,0,0,0-.4-1.18,1.44,1.44,0,0,0-1-.38,1.6,1.6,0,0,0-1.17.45,1.85,1.85,0,0,0-.46,1.35v3.93h-1.16V118h1.16v.85A2.2,2.2,0,0,1,263.5,117.87Z"/>
        <path d="M270.78,124.7a3.49,3.49,0,0,1-1.69-.41,3,3,0,0,1-1.19-1.19,3.71,3.71,0,0,1-.43-1.82,3.36,3.36,0,0,1,.93-2.48,3.51,3.51,0,0,1,4.76,0,3.77,3.77,0,0,1,0,5A3.22,3.22,0,0,1,270.78,124.7Zm0-1a2,2,0,0,0,1.56-.68,2.55,2.55,0,0,0,.62-1.78,2.53,2.53,0,0,0-.62-1.77,2,2,0,0,0-1.56-.68,2,2,0,0,0-1.54.68,2.52,2.52,0,0,0-.61,1.77,2.55,2.55,0,0,0,.61,1.78A2,2,0,0,0,270.77,123.74Z"/>
      </g>
      <g>
        <path d="M323.71,124.57v-9.42h3a4.51,4.51,0,0,1,2.4.61,3.73,3.73,0,0,1,1.47,1.65,5.84,5.84,0,0,1,.48,2.44,6.08,6.08,0,0,1-.28,1.91,4.38,4.38,0,0,1-.81,1.49,3.59,3.59,0,0,1-1.37,1,4.75,4.75,0,0,1-1.89.35Zm1.2-1.09h1.8a2.87,2.87,0,0,0,2.35-1,4.87,4.87,0,0,0,0-5.32,2.88,2.88,0,0,0-2.35-1h-1.8Z"/>
        <path d="M337.22,118h1.16v6.58h-1.11l0-.87a2.06,2.06,0,0,1-.81.74,2.57,2.57,0,0,1-1.16.26,2.26,2.26,0,0,1-1.65-.6,2.17,2.17,0,0,1-.62-1.68V118h1.16v4.17a1.56,1.56,0,0,0,.4,1.18,1.44,1.44,0,0,0,1,.39,1.54,1.54,0,0,0,1.16-.46,1.83,1.83,0,0,0,.46-1.34Z"/>
        <path d="M341.87,119.15a1.9,1.9,0,0,1,.81-.88,2.4,2.4,0,0,1,1.27-.35V119a2.15,2.15,0,0,0-1.53.49,2,2,0,0,0-.53,1.56v3.51h-1.16V118h1.14Z"/>
        <path d="M346.74,124.7a2.25,2.25,0,0,1-1.44-.45,1.64,1.64,0,0,1-.56-1.35,1.91,1.91,0,0,1,.18-.86,1.6,1.6,0,0,1,.53-.6,3.11,3.11,0,0,1,.78-.37,7.39,7.39,0,0,1,1-.24l1.06-.17c.39-.07.58-.28.58-.61a1.12,1.12,0,0,0-.41-1,1.65,1.65,0,0,0-1-.31,1.72,1.72,0,0,0-1,.3,1.25,1.25,0,0,0-.49.92l-1-.22a2,2,0,0,1,.82-1.41,3.11,3.11,0,0,1,1.79-.47,3.6,3.6,0,0,1,1,.12,2.47,2.47,0,0,1,.79.36,1.61,1.61,0,0,1,.57.71,2.6,2.6,0,0,1,.21,1.08v2.72a1.13,1.13,0,0,0,.15.69.64.64,0,0,0,.52.18h.1v.83h-.57a1.11,1.11,0,0,1-1.25-.89h-.05A2.52,2.52,0,0,1,346.74,124.7Zm.27-.94a1.74,1.74,0,0,0,1.41-.63,2.62,2.62,0,0,0,.54-1.74l-1.74.33a2.35,2.35,0,0,0-1,.37,1,1,0,0,0,0,1.44A1.37,1.37,0,0,0,347,123.76Z"/>
        <path d="M355,124.69a3.15,3.15,0,0,1-2.35-.94,3.36,3.36,0,0,1-.93-2.47,3.4,3.4,0,0,1,.92-2.47,3.17,3.17,0,0,1,2.36-.94,3.24,3.24,0,0,1,1.91.57A3,3,0,0,1,358,120l-1.08.18a2,2,0,0,0-.74-1,2,2,0,0,0-1.19-.36,1.93,1.93,0,0,0-1.53.68,2.91,2.91,0,0,0,0,3.54,2,2,0,0,0,1.53.67,2,2,0,0,0,1.19-.36,2,2,0,0,0,.74-1l1.08.18a2.9,2.9,0,0,1-1.11,1.59A3.17,3.17,0,0,1,355,124.69Z"/>
        <path d="M360.31,116.45a.76.76,0,0,1-.55-.23.75.75,0,0,1-.23-.56.7.7,0,0,1,.23-.54.73.73,0,0,1,.55-.23.7.7,0,0,1,.54.23.71.71,0,0,1,.24.54.76.76,0,0,1-.24.56A.74.74,0,0,1,360.31,116.45Zm-.59,8.12V118h1.17v6.58Z"/>
        <path d="M366,124.7a3.45,3.45,0,0,1-1.68-.41,3,3,0,0,1-1.19-1.19,3.61,3.61,0,0,1-.44-1.82,3.36,3.36,0,0,1,.93-2.48,3.51,3.51,0,0,1,4.76,0,3.77,3.77,0,0,1,0,5A3.2,3.2,0,0,1,366,124.7Zm0-1a2,2,0,0,0,1.56-.68,2.55,2.55,0,0,0,.62-1.78,2.53,2.53,0,0,0-.62-1.77,2,2,0,0,0-1.56-.68,2,2,0,0,0-1.54.68,2.52,2.52,0,0,0-.61,1.77,2.55,2.55,0,0,0,.61,1.78A2,2,0,0,0,366,123.74Zm-.43-6.88,1.68-2.18.62.45-1.5,1.73Z"/>
        <path d="M374.24,117.87a2.28,2.28,0,0,1,1.66.59,2.24,2.24,0,0,1,.62,1.68v4.43h-1.16V120.4a1.56,1.56,0,0,0-.4-1.18,1.45,1.45,0,0,0-1-.38,1.58,1.58,0,0,0-1.17.45,1.81,1.81,0,0,0-.46,1.35v3.93h-1.16V118h1.16v.85A2.17,2.17,0,0,1,374.24,117.87Z"/>
      </g>
    </g>
    <g>
      <g>
        <path class="cls-1" d="M765.84,369.42H467.18V103.24H765.84ZM470.5,366.1h292V106.57h-292Z"/>
        <g>
          <rect class="cls-2" x="468.84" y="104.91" width="295.34" height="33.23"/>
          <path class="cls-1" d="M765,139H468V104.07H765ZM469.67,137.3H763.35V105.74H469.67Z"/>
        </g>
        <path class="cls-1" d="M765,368.59H468V307.86H765Zm-295.34-1.66H763.35V309.52H469.67Z"/>
        <path class="cls-1" d="M752.78,300.25H480.24V145.1H752.78Zm-271.71-.84H752V145.93H481.07Z"/>
        <rect class="cls-1" x="480.65" y="337.39" width="271.71" height="1.66"/>
        <rect class="cls-1" x="480.65" y="352.16" width="271.71" height="1.66"/>
      </g>
      <g>
        <path d="M491.2,116.24h-3.83v3.08h3.37v1.08h-3.37v3.08h3.83v1.09h-5.05v-9.42h5.05Z"/>
        <path d="M495.28,124.7a3.11,3.11,0,0,1-1.78-.48,1.93,1.93,0,0,1-.86-1.35l1-.29a1.4,1.4,0,0,0,.54.92,1.8,1.8,0,0,0,1.08.32,2.47,2.47,0,0,0,.63-.08,1.07,1.07,0,0,0,.49-.33.92.92,0,0,0,.19-.6.76.76,0,0,0-.05-.27,1.51,1.51,0,0,0-.11-.22.66.66,0,0,0-.19-.18A2,2,0,0,0,496,122a1.83,1.83,0,0,0-.29-.12l-.32-.11-.37-.11-.38-.11a5.16,5.16,0,0,1-.68-.24,2.49,2.49,0,0,1-.56-.32,1.25,1.25,0,0,1-.43-.51,1.72,1.72,0,0,1-.14-.74,1.64,1.64,0,0,1,.32-1,1.78,1.78,0,0,1,.83-.62,3.26,3.26,0,0,1,1.17-.19,2.81,2.81,0,0,1,1.6.43,1.8,1.8,0,0,1,.8,1.28l-.95.24a1.27,1.27,0,0,0-.5-.83,1.77,1.77,0,0,0-1.83,0,.8.8,0,0,0-.37.71.75.75,0,0,0,.1.36.94.94,0,0,0,.2.26,1.23,1.23,0,0,0,.36.2,2.78,2.78,0,0,0,.39.14l.48.12.1,0,.63.18a4,4,0,0,1,.57.24,1.76,1.76,0,0,1,.51.36,1.59,1.59,0,0,1,.32.51,1.71,1.71,0,0,1,.14.7,2,2,0,0,1-.2.89,1.52,1.52,0,0,1-.54.61,3.07,3.07,0,0,1-.76.33A3.87,3.87,0,0,1,495.28,124.7Z"/>
        <path d="M502.25,124.69a3.17,3.17,0,0,1-2.36-.94,3.75,3.75,0,0,1,0-4.94,3.16,3.16,0,0,1,2.36-.94,3.21,3.21,0,0,1,1.9.57,2.93,2.93,0,0,1,1.11,1.6l-1.08.18a2,2,0,0,0-1.94-1.39,1.92,1.92,0,0,0-1.52.68,2.91,2.91,0,0,0,0,3.54,2,2,0,0,0,1.52.67,2,2,0,0,0,1.94-1.38l1.08.18a2.9,2.9,0,0,1-1.11,1.59A3.19,3.19,0,0,1,502.25,124.69Z"/>
        <path d="M512.72,121.15v.32h-5.14a2.33,2.33,0,0,0,.63,1.68,2.07,2.07,0,0,0,1.5.59,2,2,0,0,0,1.09-.32,2.13,2.13,0,0,0,.75-.87l1,.22a3,3,0,0,1-1.12,1.41,3.05,3.05,0,0,1-1.75.52,3.18,3.18,0,0,1-2.37-.92,3.92,3.92,0,0,1,0-5,3.16,3.16,0,0,1,2.34-.91,3,3,0,0,1,2.21.84A3.35,3.35,0,0,1,512.72,121.15Zm-3-2.39a2,2,0,0,0-1.37.46,2.1,2.1,0,0,0-.69,1.36h3.94a2,2,0,0,0-.58-1.36A1.85,1.85,0,0,0,509.68,118.76Z"/>
        <path d="M517.64,117.87a2.3,2.3,0,0,1,1.66.59,2.24,2.24,0,0,1,.62,1.68v4.43h-1.16V120.4a1.6,1.6,0,0,0-.4-1.18,1.47,1.47,0,0,0-1-.38,1.62,1.62,0,0,0-1.18.45,1.9,1.9,0,0,0-.46,1.35v3.93h-1.16V118h1.16v.85A2.2,2.2,0,0,1,517.64,117.87Z"/>
        <path d="M523.67,124.7a2.23,2.23,0,0,1-1.44-.45,1.62,1.62,0,0,1-.57-1.35,1.91,1.91,0,0,1,.18-.86,1.55,1.55,0,0,1,.54-.6,2.89,2.89,0,0,1,.77-.37,7.78,7.78,0,0,1,1-.24l1.07-.17c.38-.07.58-.28.58-.61a1.15,1.15,0,0,0-.41-1,1.91,1.91,0,0,0-2.07,0,1.25,1.25,0,0,0-.49.92l-1.05-.22a2,2,0,0,1,.83-1.41,3.09,3.09,0,0,1,1.79-.47,3.48,3.48,0,0,1,1,.12,2.52,2.52,0,0,1,.8.36,1.76,1.76,0,0,1,.57.71,2.77,2.77,0,0,1,.2,1.08v2.72a1.13,1.13,0,0,0,.15.69.65.65,0,0,0,.52.18h.11v.83h-.58a1.09,1.09,0,0,1-1.24-.89h0A2.52,2.52,0,0,1,523.67,124.7Zm.27-.94a1.77,1.77,0,0,0,1.41-.63,2.62,2.62,0,0,0,.54-1.74l-1.75.33a2.45,2.45,0,0,0-1,.37.83.83,0,0,0-.33.71.86.86,0,0,0,.32.73A1.41,1.41,0,0,0,523.94,123.76Z"/>
      </g>
      <g>
        <path d="M486.15,327.62v-9.43h3a4.55,4.55,0,0,1,2.4.61,3.71,3.71,0,0,1,1.48,1.66,5.81,5.81,0,0,1,.47,2.44,6.32,6.32,0,0,1-.27,1.9,4.3,4.3,0,0,1-.82,1.49,3.5,3.5,0,0,1-1.36,1,5,5,0,0,1-1.9.35Zm1.19-1.09h1.8a2.87,2.87,0,0,0,2.36-1,4.83,4.83,0,0,0,0-5.31,2.87,2.87,0,0,0-2.35-1h-1.8Z"/>
        <path d="M501.32,324.2v.31h-5.14a2.33,2.33,0,0,0,.62,1.69,2.09,2.09,0,0,0,1.5.58,2,2,0,0,0,1.09-.31,2,2,0,0,0,.75-.87l1.05.22a2.93,2.93,0,0,1-1.13,1.41,3.06,3.06,0,0,1-1.74.51,3.17,3.17,0,0,1-2.37-.91,3.89,3.89,0,0,1,0-5,3.15,3.15,0,0,1,2.33-.92,3,3,0,0,1,2.22.85A3.34,3.34,0,0,1,501.32,324.2Zm-3.05-2.4a2.07,2.07,0,0,0-1.37.47,2.19,2.19,0,0,0-.69,1.35h3.94a1.92,1.92,0,0,0-.57-1.35A1.88,1.88,0,0,0,498.27,321.8Z"/>
        <path d="M505.21,327.74a3.07,3.07,0,0,1-1.77-.47,2,2,0,0,1-.86-1.35l1-.29a1.38,1.38,0,0,0,.54.91,1.7,1.7,0,0,0,1.08.33,2.08,2.08,0,0,0,.63-.09,1,1,0,0,0,.48-.32.87.87,0,0,0,.2-.6.76.76,0,0,0-.06-.27.9.9,0,0,0-.1-.22.83.83,0,0,0-.19-.18,1.18,1.18,0,0,0-.23-.14,1.53,1.53,0,0,0-.3-.13l-.31-.1-.37-.11-.38-.11-.69-.24a3.23,3.23,0,0,1-.55-.32,1.27,1.27,0,0,1-.43-.52,1.67,1.67,0,0,1-.15-.73,1.75,1.75,0,0,1,.32-1.06,1.83,1.83,0,0,1,.84-.61,3.26,3.26,0,0,1,1.17-.2,2.91,2.91,0,0,1,1.6.43,1.87,1.87,0,0,1,.8,1.29l-.95.24a1.25,1.25,0,0,0-.5-.83,1.59,1.59,0,0,0-1-.28,1.56,1.56,0,0,0-.88.23.77.77,0,0,0-.37.71.65.65,0,0,0,.1.36.91.91,0,0,0,.56.46l.39.14.48.12.1,0c.26.06.47.12.63.17l.57.24a1.76,1.76,0,0,1,.51.36,1.59,1.59,0,0,1,.32.51,1.8,1.8,0,0,1,.14.71,2,2,0,0,1-.2.89,1.5,1.5,0,0,1-.54.6,2.42,2.42,0,0,1-.77.33A3.36,3.36,0,0,1,505.21,327.74Z"/>
        <path d="M512.19,327.74a3.18,3.18,0,0,1-2.36-.95,3.73,3.73,0,0,1,0-4.93,3.4,3.4,0,0,1,4.26-.37,2.86,2.86,0,0,1,1.11,1.6l-1.09.17a2,2,0,0,0-1.93-1.38,1.93,1.93,0,0,0-1.52.67,2.56,2.56,0,0,0-.6,1.77,2.53,2.53,0,0,0,.6,1.77,1.94,1.94,0,0,0,1.52.68,2,2,0,0,0,1.93-1.39l1.09.18a2.89,2.89,0,0,1-1.12,1.6A3.14,3.14,0,0,1,512.19,327.74Z"/>
        <path d="M518,322.2a2.06,2.06,0,0,1,.82-.89,2.49,2.49,0,0,1,1.27-.34v1.09a2.15,2.15,0,0,0-1.53.49,2,2,0,0,0-.53,1.55v3.52H516.9V321H518Z"/>
        <path d="M522.06,319.49a.74.74,0,0,1-.55-.23.77.77,0,0,1,0-1.1.78.78,0,0,1,.55-.23.78.78,0,0,1,.55,1.33A.73.73,0,0,1,522.06,319.49Zm-.59,8.13V321h1.17v6.58Z"/>
        <path d="M528.47,320.91a3,3,0,0,1,2.17.92,3.4,3.4,0,0,1,.66,1.08,4.11,4.11,0,0,1,.24,1.42,3.47,3.47,0,0,1-.89,2.48,2.88,2.88,0,0,1-2.18.95,2.63,2.63,0,0,1-1.38-.38,2.47,2.47,0,0,1-.94-1v4.56H525V321h1.12l0,1.28a2.34,2.34,0,0,1,.94-1A2.64,2.64,0,0,1,528.47,320.91Zm-.23,5.84a2,2,0,0,0,1.52-.66,2.46,2.46,0,0,0,.62-1.76,2.42,2.42,0,0,0-.62-1.75,2,2,0,0,0-1.52-.66,2,2,0,0,0-1.55.69,2.49,2.49,0,0,0-.62,1.72,2.51,2.51,0,0,0,.62,1.73A2,2,0,0,0,528.24,326.75Z"/>
        <path d="M536.1,327.74a3.18,3.18,0,0,1-2.36-.95,3.73,3.73,0,0,1,0-4.93,3.4,3.4,0,0,1,4.26-.37,2.86,2.86,0,0,1,1.11,1.6l-1.09.17a2,2,0,0,0-.74-1,2,2,0,0,0-1.19-.36,1.93,1.93,0,0,0-1.52.67,2.56,2.56,0,0,0-.6,1.77,2.53,2.53,0,0,0,.6,1.77,1.94,1.94,0,0,0,1.52.68,2,2,0,0,0,1.19-.36,2,2,0,0,0,.74-1l1.09.18a2.89,2.89,0,0,1-1.12,1.6A3.14,3.14,0,0,1,536.1,327.74Z"/>
        <path d="M541.4,319.49a.74.74,0,0,1-.55-.23.77.77,0,0,1,0-1.1.78.78,0,0,1,.55-.23.78.78,0,0,1,.55,1.33A.73.73,0,0,1,541.4,319.49Zm-.58,8.13V321H542v6.58Z"/>
        <path d="M547.11,327.74a3.49,3.49,0,0,1-1.69-.4,3,3,0,0,1-1.19-1.2,3.69,3.69,0,0,1-.44-1.82,3.34,3.34,0,0,1,.94-2.48,3.51,3.51,0,0,1,4.76,0,3.79,3.79,0,0,1,0,5A3.25,3.25,0,0,1,547.11,327.74Zm0-1a2,2,0,0,0,1.56-.68,2.89,2.89,0,0,0,0-3.55,2,2,0,0,0-1.56-.67,2,2,0,0,0-1.54.67,2.85,2.85,0,0,0,0,3.55A2,2,0,0,0,547.1,326.78Zm-.44-6.87,1.68-2.18.62.44-1.5,1.74Z"/>
        <path d="M555.34,320.91a2.26,2.26,0,0,1,1.65.6,2.17,2.17,0,0,1,.62,1.68v4.43h-1.16v-4.17a1.55,1.55,0,0,0-.4-1.18,1.44,1.44,0,0,0-1-.38,1.61,1.61,0,0,0-1.17.45,1.83,1.83,0,0,0-.46,1.34v3.94h-1.16V321h1.16v.84A2.22,2.22,0,0,1,555.34,320.91Z"/>
      </g>
      <g>
        <path d="M494.27,168.87v-9.42h3a4.51,4.51,0,0,1,2.4.61,3.7,3.7,0,0,1,1.47,1.66,5.76,5.76,0,0,1,.48,2.43,6.33,6.33,0,0,1-.28,1.91,4.55,4.55,0,0,1-.81,1.49,3.59,3.59,0,0,1-1.37,1,4.75,4.75,0,0,1-1.89.35Zm1.2-1.09h1.8a2.87,2.87,0,0,0,2.35-1,4.87,4.87,0,0,0,0-5.32,2.9,2.9,0,0,0-2.35-1h-1.8Z"/>
        <path d="M504.27,160.75a.79.79,0,0,1-.78-.78.78.78,0,0,1,1.56,0,.79.79,0,0,1-.78.78Zm-.59,8.12v-6.58h1.17v6.58Z"/>
        <path d="M510.69,162.17a2.86,2.86,0,0,1,2.18,1,3.87,3.87,0,0,1,0,4.94,2.83,2.83,0,0,1-2.18.95,2.58,2.58,0,0,1-1.4-.38,2.37,2.37,0,0,1-.94-1l0,1.28H507.2V158.59h1.16v5a2.47,2.47,0,0,1,.94-1A2.65,2.65,0,0,1,510.69,162.17Zm-.25,5.84a2.05,2.05,0,0,0,1.54-.67,2.51,2.51,0,0,0,.62-1.75,2.48,2.48,0,0,0-.62-1.75,2,2,0,0,0-1.54-.68,2,2,0,0,0-1.53.7,2.51,2.51,0,0,0-.62,1.73,2.48,2.48,0,0,0,.62,1.73A2,2,0,0,0,510.44,168Z"/>
        <path d="M519.67,162.29h1.16v6.58h-1.11l0-.87a2.06,2.06,0,0,1-.81.74,2.57,2.57,0,0,1-1.16.26,2.26,2.26,0,0,1-1.65-.6,2.21,2.21,0,0,1-.62-1.68v-4.43h1.16v4.17a1.56,1.56,0,0,0,.4,1.18,1.44,1.44,0,0,0,1,.39,1.54,1.54,0,0,0,1.16-.46,1.83,1.83,0,0,0,.46-1.34Z"/>
        <path d="M521.67,172v-1a2,2,0,0,0,1-.19,1.06,1.06,0,0,0,.44-.64,5.69,5.69,0,0,0,.13-1.36v-6.49h1.17v6.49a3.83,3.83,0,0,1-.61,2.45A2.6,2.6,0,0,1,521.67,172Zm2.11-11.2a.76.76,0,0,1-.55-.23A.78.78,0,0,1,523,160a.75.75,0,0,1,.23-.55.73.73,0,0,1,.55-.23.79.79,0,0,1,.78.78.79.79,0,0,1-.78.78Z"/>
        <path d="M529.49,169a3.49,3.49,0,0,1-1.69-.41,2.94,2.94,0,0,1-1.18-1.19,3.61,3.61,0,0,1-.44-1.82,3.36,3.36,0,0,1,.93-2.48,3.51,3.51,0,0,1,4.76,0,3.36,3.36,0,0,1,.93,2.48,3.4,3.4,0,0,1-.93,2.49A3.23,3.23,0,0,1,529.49,169Zm0-1a2,2,0,0,0,1.56-.68,2.85,2.85,0,0,0,0-3.55,2,2,0,0,0-1.56-.68,2,2,0,0,0-1.54.68,2.89,2.89,0,0,0,0,3.55A2,2,0,0,0,529.48,168Z"/>
      </g>
      <g>
        <path d="M573.89,115.15a2.78,2.78,0,0,1,1.47.39,2.63,2.63,0,0,1,1,1,3.08,3.08,0,0,1,.35,1.45,2.86,2.86,0,0,1-.78,2,2.67,2.67,0,0,1-2,.82h-2.37v3.66h-1.2v-9.42Zm-.18,4.72a1.69,1.69,0,0,0,1.31-.51,2.08,2.08,0,0,0,0-2.66,1.69,1.69,0,0,0-1.31-.51h-2.19v3.68Z"/>
        <path d="M578.5,124.57V114.29h1.17v10.28Z"/>
        <path d="M583.54,124.7a2.25,2.25,0,0,1-1.44-.45,1.62,1.62,0,0,1-.57-1.35,1.91,1.91,0,0,1,.19-.86,1.52,1.52,0,0,1,.53-.6,3,3,0,0,1,.77-.37,8.21,8.21,0,0,1,1-.24l1.07-.17c.39-.07.58-.28.58-.61a1.15,1.15,0,0,0-.41-1,1.67,1.67,0,0,0-1-.31,1.7,1.7,0,0,0-1,.3,1.25,1.25,0,0,0-.49.92l-1-.22a2,2,0,0,1,.82-1.41,3.11,3.11,0,0,1,1.79-.47,3.6,3.6,0,0,1,1,.12,2.57,2.57,0,0,1,.79.36,1.76,1.76,0,0,1,.57.71,2.6,2.6,0,0,1,.2,1.08v2.72a1.12,1.12,0,0,0,.16.69.63.63,0,0,0,.51.18h.11v.83H587a1.11,1.11,0,0,1-1.25-.89h0A2.52,2.52,0,0,1,583.54,124.7Zm.27-.94a1.75,1.75,0,0,0,1.41-.63,2.62,2.62,0,0,0,.54-1.74l-1.74.33a2.35,2.35,0,0,0-1,.37.83.83,0,0,0-.33.71.85.85,0,0,0,.31.73A1.43,1.43,0,0,0,583.81,123.76Z"/>
        <path d="M592.31,117.87a2.3,2.3,0,0,1,1.66.59,2.24,2.24,0,0,1,.61,1.68v4.43h-1.15V120.4a1.6,1.6,0,0,0-.4-1.18,1.48,1.48,0,0,0-1-.38,1.61,1.61,0,0,0-1.17.45,1.9,1.9,0,0,0-.46,1.35v3.93H589.2V118h1.16v.85A2.2,2.2,0,0,1,592.31,117.87Z"/>
        <path d="M599.59,124.7a3.52,3.52,0,0,1-1.69-.41,2.94,2.94,0,0,1-1.18-1.19,3.61,3.61,0,0,1-.44-1.82,3.36,3.36,0,0,1,.93-2.48,3.51,3.51,0,0,1,4.76,0,3.77,3.77,0,0,1,0,5A3.2,3.2,0,0,1,599.59,124.7Zm0-1a2,2,0,0,0,1.56-.68,2.55,2.55,0,0,0,.62-1.78,2.53,2.53,0,0,0-.62-1.77,2,2,0,0,0-1.56-.68,2,2,0,0,0-1.54.68,2.52,2.52,0,0,0-.61,1.77,2.55,2.55,0,0,0,.61,1.78A2,2,0,0,0,599.58,123.74Z"/>
      </g>
      <g>
        <path d="M652.52,124.57v-9.42h3a4.46,4.46,0,0,1,2.4.61,3.73,3.73,0,0,1,1.47,1.65,5.84,5.84,0,0,1,.48,2.44,6.08,6.08,0,0,1-.28,1.91,4.21,4.21,0,0,1-.81,1.49,3.52,3.52,0,0,1-1.37,1,4.75,4.75,0,0,1-1.89.35Zm1.2-1.09h1.8a2.87,2.87,0,0,0,2.35-1,4.87,4.87,0,0,0,0-5.32,2.88,2.88,0,0,0-2.35-1h-1.8Z"/>
        <path d="M666,118h1.16v6.58h-1.11l0-.87a2,2,0,0,1-.81.74,2.56,2.56,0,0,1-1.15.26,2.27,2.27,0,0,1-1.66-.6,2.21,2.21,0,0,1-.62-1.68V118H663v4.17a1.56,1.56,0,0,0,.4,1.18,1.44,1.44,0,0,0,1,.39,1.54,1.54,0,0,0,1.16-.46,1.79,1.79,0,0,0,.46-1.34Z"/>
        <path d="M670.68,119.15a1.9,1.9,0,0,1,.81-.88,2.4,2.4,0,0,1,1.27-.35V119a2.15,2.15,0,0,0-1.53.49,2,2,0,0,0-.53,1.56v3.51h-1.15V118h1.13Z"/>
        <path d="M675.56,124.7a2.26,2.26,0,0,1-1.45-.45,1.64,1.64,0,0,1-.56-1.35,1.91,1.91,0,0,1,.18-.86,1.6,1.6,0,0,1,.53-.6,3.11,3.11,0,0,1,.78-.37,7.78,7.78,0,0,1,1-.24l1.06-.17c.39-.07.58-.28.58-.61a1.12,1.12,0,0,0-.41-1,1.65,1.65,0,0,0-1-.31,1.72,1.72,0,0,0-1,.3,1.25,1.25,0,0,0-.49.92l-1-.22a2,2,0,0,1,.82-1.41,3.11,3.11,0,0,1,1.79-.47,3.6,3.6,0,0,1,1,.12,2.47,2.47,0,0,1,.79.36,1.61,1.61,0,0,1,.57.71,2.6,2.6,0,0,1,.21,1.08v2.72a1.13,1.13,0,0,0,.15.69.64.64,0,0,0,.52.18h.1v.83H679a1.11,1.11,0,0,1-1.25-.89h0A2.51,2.51,0,0,1,675.56,124.7Zm.26-.94a1.77,1.77,0,0,0,1.42-.63,2.68,2.68,0,0,0,.53-1.74l-1.74.33a2.35,2.35,0,0,0-1,.37,1,1,0,0,0,0,1.44A1.37,1.37,0,0,0,675.82,123.76Z"/>
        <path d="M683.81,124.69a3.15,3.15,0,0,1-2.35-.94,3.36,3.36,0,0,1-.93-2.47,3.4,3.4,0,0,1,.92-2.47,3.17,3.17,0,0,1,2.36-.94,3.22,3.22,0,0,1,1.91.57,3,3,0,0,1,1.11,1.6l-1.09.18a2,2,0,0,0-.74-1,2,2,0,0,0-1.19-.36,1.93,1.93,0,0,0-1.53.68,2.95,2.95,0,0,0,0,3.54,2,2,0,0,0,1.53.67,2,2,0,0,0,1.19-.36,2,2,0,0,0,.74-1l1.09.18a3,3,0,0,1-1.12,1.59A3.15,3.15,0,0,1,683.81,124.69Z"/>
        <path d="M689.12,116.45a.76.76,0,0,1-.55-.23.75.75,0,0,1-.23-.56.7.7,0,0,1,.23-.54.73.73,0,0,1,.55-.23.79.79,0,0,1,.78.77.79.79,0,0,1-.78.79Zm-.59,8.12V118h1.17v6.58Z"/>
        <path d="M694.82,124.7a3.48,3.48,0,0,1-1.68-.41A3,3,0,0,1,692,123.1a3.71,3.71,0,0,1-.44-1.82,3.36,3.36,0,0,1,.93-2.48,3.52,3.52,0,0,1,4.77,0,3.76,3.76,0,0,1,0,5A3.19,3.19,0,0,1,694.82,124.7Zm0-1a2,2,0,0,0,1.55-.68,2.55,2.55,0,0,0,.62-1.78,2.53,2.53,0,0,0-.62-1.77,2.11,2.11,0,0,0-3.1,0,2.57,2.57,0,0,0-.61,1.77,2.6,2.6,0,0,0,.61,1.78A2,2,0,0,0,694.82,123.74Zm-.44-6.88,1.68-2.18.62.45-1.5,1.73Z"/>
        <path d="M703.05,117.87a2.26,2.26,0,0,1,1.66.59,2.24,2.24,0,0,1,.62,1.68v4.43h-1.16V120.4a1.56,1.56,0,0,0-.4-1.18,1.45,1.45,0,0,0-1-.38,1.58,1.58,0,0,0-1.17.45,1.81,1.81,0,0,0-.46,1.35v3.93H700V118h1.16v.85A2.17,2.17,0,0,1,703.05,117.87Z"/>
      </g>
    </g>
    <g>
      <g>
        <path class="cls-1" d="M1094.65,369.42H796V103.24h298.66ZM799.31,366.1h292V106.57h-292Z"/>
        <g>
          <rect class="cls-2" x="797.65" y="104.91" width="295.34" height="33.23"/>
          <path class="cls-1" d="M1093.82,139h-297V104.07h297ZM798.48,137.3h293.68V105.74H798.48Z"/>
        </g>
        <path class="cls-1" d="M1093.82,368.59h-297V307.86h297Zm-295.34-1.66h293.68V309.52H798.48Z"/>
        <path class="cls-1" d="M1081.59,300.25H809.05V145.1h272.54Zm-271.71-.84h270.88V145.93H809.88Z"/>
        <rect class="cls-1" x="809.46" y="337.39" width="271.71" height="1.66"/>
        <rect class="cls-1" x="809.46" y="352.16" width="271.71" height="1.66"/>
      </g>
      <g>
        <path d="M820,116.24h-3.83v3.08h3.38v1.08h-3.38v3.08H820v1.09h-5v-9.42h5Z"/>
        <path d="M824.09,124.7a3.13,3.13,0,0,1-1.78-.48,1.93,1.93,0,0,1-.86-1.35l1-.29a1.4,1.4,0,0,0,.54.92,1.8,1.8,0,0,0,1.08.32,2.47,2.47,0,0,0,.63-.08,1.07,1.07,0,0,0,.49-.33.87.87,0,0,0,.19-.6.76.76,0,0,0,0-.27,1.51,1.51,0,0,0-.11-.22.66.66,0,0,0-.19-.18l-.22-.14a2.63,2.63,0,0,0-.3-.12l-.32-.11-.37-.11-.38-.11a5.16,5.16,0,0,1-.68-.24,2.49,2.49,0,0,1-.56-.32,1.25,1.25,0,0,1-.43-.51,1.72,1.72,0,0,1-.14-.74,1.64,1.64,0,0,1,.32-1,1.78,1.78,0,0,1,.83-.62,3.26,3.26,0,0,1,1.17-.19,2.81,2.81,0,0,1,1.6.43,1.8,1.8,0,0,1,.8,1.28l-1,.24a1.27,1.27,0,0,0-.5-.83,1.63,1.63,0,0,0-.94-.28,1.68,1.68,0,0,0-.89.23.79.79,0,0,0-.36.71.74.74,0,0,0,.09.36,1.17,1.17,0,0,0,.2.26,1.39,1.39,0,0,0,.36.2,2.78,2.78,0,0,0,.39.14l.48.12.1,0,.63.18a3.2,3.2,0,0,1,.57.24,1.76,1.76,0,0,1,.51.36,1.61,1.61,0,0,1,.33.51,1.71,1.71,0,0,1,.13.7,2,2,0,0,1-.2.89,1.52,1.52,0,0,1-.54.61,2.91,2.91,0,0,1-.76.33A3.87,3.87,0,0,1,824.09,124.7Z"/>
        <path d="M831.06,124.69a3.17,3.17,0,0,1-2.36-.94,3.75,3.75,0,0,1,0-4.94,3.44,3.44,0,0,1,4.26-.37,2.93,2.93,0,0,1,1.11,1.6l-1.08.18a2,2,0,0,0-.75-1,2,2,0,0,0-1.19-.36,1.92,1.92,0,0,0-1.52.68,2.91,2.91,0,0,0,0,3.54,2,2,0,0,0,1.52.67,2,2,0,0,0,1.19-.36,2,2,0,0,0,.75-1l1.08.18a2.9,2.9,0,0,1-1.11,1.59A3.17,3.17,0,0,1,831.06,124.69Z"/>
        <path d="M841.53,121.15v.32h-5.14a2.33,2.33,0,0,0,.63,1.68,2.07,2.07,0,0,0,1.5.59,2,2,0,0,0,1.84-1.19l1,.22a2.91,2.91,0,0,1-1.12,1.41,3,3,0,0,1-1.75.52,3.19,3.19,0,0,1-2.37-.92,3.91,3.91,0,0,1,0-5,3.13,3.13,0,0,1,2.33-.91,3,3,0,0,1,2.21.84A3.31,3.31,0,0,1,841.53,121.15Zm-3-2.39a2,2,0,0,0-1.37.46,2.1,2.1,0,0,0-.69,1.36h3.94a2,2,0,0,0-.58-1.36A1.85,1.85,0,0,0,838.49,118.76Z"/>
        <path d="M846.45,117.87a2.28,2.28,0,0,1,1.66.59,2.24,2.24,0,0,1,.62,1.68v4.43h-1.16V120.4a1.56,1.56,0,0,0-.4-1.18,1.45,1.45,0,0,0-1-.38,1.58,1.58,0,0,0-1.17.45,1.86,1.86,0,0,0-.47,1.35v3.93h-1.15V118h1.15v.85A2.2,2.2,0,0,1,846.45,117.87Z"/>
        <path d="M852.48,124.7a2.25,2.25,0,0,1-1.44-.45,1.62,1.62,0,0,1-.57-1.35,1.91,1.91,0,0,1,.18-.86,1.55,1.55,0,0,1,.54-.6,3,3,0,0,1,.77-.37,8.21,8.21,0,0,1,1-.24l1.07-.17c.39-.07.58-.28.58-.61a1.15,1.15,0,0,0-.41-1,1.67,1.67,0,0,0-1-.31,1.7,1.7,0,0,0-1,.3,1.25,1.25,0,0,0-.49.92l-1-.22a2,2,0,0,1,.83-1.41,3.11,3.11,0,0,1,1.79-.47,3.48,3.48,0,0,1,.95.12,2.52,2.52,0,0,1,.8.36,1.76,1.76,0,0,1,.57.71,2.6,2.6,0,0,1,.2,1.08v2.72a1.06,1.06,0,0,0,.16.69.62.62,0,0,0,.51.18h.11v.83h-.58a1.1,1.1,0,0,1-1.24-.89h-.05A2.52,2.52,0,0,1,852.48,124.7Zm.27-.94a1.77,1.77,0,0,0,1.41-.63,2.62,2.62,0,0,0,.54-1.74l-1.74.33a2.35,2.35,0,0,0-1,.37.83.83,0,0,0-.34.71.86.86,0,0,0,.32.73A1.43,1.43,0,0,0,852.75,123.76Z"/>
      </g>
      <g>
        <path d="M815,327.62v-9.43h3a4.6,4.6,0,0,1,2.4.61,3.75,3.75,0,0,1,1.47,1.66,5.81,5.81,0,0,1,.48,2.44,6.32,6.32,0,0,1-.28,1.9,4.46,4.46,0,0,1-.81,1.49,3.62,3.62,0,0,1-1.37,1,4.93,4.93,0,0,1-1.89.35Zm1.2-1.09H818a2.85,2.85,0,0,0,2.35-1,4.86,4.86,0,0,0,0-5.31,2.9,2.9,0,0,0-2.35-1h-1.8Z"/>
        <path d="M830.13,324.2v.31H825a2.29,2.29,0,0,0,.63,1.69,2.05,2.05,0,0,0,1.49.58,2,2,0,0,0,1.1-.31,2.13,2.13,0,0,0,.75-.87l1,.22a3,3,0,0,1-1.12,1.41,3.12,3.12,0,0,1-1.75.51,3.17,3.17,0,0,1-2.37-.91,3.92,3.92,0,0,1,0-5,3.17,3.17,0,0,1,2.34-.92,3,3,0,0,1,2.21.85A3.34,3.34,0,0,1,830.13,324.2Zm-3-2.4a2,2,0,0,0-1.37.47,2.15,2.15,0,0,0-.7,1.35h4a2,2,0,0,0-.58-1.35A1.85,1.85,0,0,0,827.09,321.8Z"/>
        <path d="M834,327.74a3.09,3.09,0,0,1-1.77-.47,2,2,0,0,1-.86-1.35l1-.29a1.38,1.38,0,0,0,.54.91,1.72,1.72,0,0,0,1.08.33,2.08,2.08,0,0,0,.63-.09,1.13,1.13,0,0,0,.49-.32.92.92,0,0,0,.19-.6.76.76,0,0,0-.05-.27.9.9,0,0,0-.11-.22.66.66,0,0,0-.19-.18,1.18,1.18,0,0,0-.23-.14,1.69,1.69,0,0,0-.29-.13l-.32-.1-.37-.11-.38-.11-.68-.24a3,3,0,0,1-.56-.32,1.27,1.27,0,0,1-.43-.52,1.67,1.67,0,0,1-.14-.73,1.69,1.69,0,0,1,.32-1.06,1.76,1.76,0,0,1,.83-.61,3.26,3.26,0,0,1,1.17-.2,2.89,2.89,0,0,1,1.6.43,1.84,1.84,0,0,1,.8,1.29l-.95.24a1.25,1.25,0,0,0-.5-.83A1.77,1.77,0,0,0,833,322a.79.79,0,0,0-.37.71.65.65,0,0,0,.1.36,1.11,1.11,0,0,0,.2.26,1.23,1.23,0,0,0,.36.2l.39.14.48.12.1,0c.26.06.47.12.63.17l.57.24a1.76,1.76,0,0,1,.51.36,1.59,1.59,0,0,1,.32.51,1.8,1.8,0,0,1,.14.71,2,2,0,0,1-.2.89,1.5,1.5,0,0,1-.54.6,2.42,2.42,0,0,1-.77.33A3.36,3.36,0,0,1,834,327.74Z"/>
        <path d="M841,327.74a3.18,3.18,0,0,1-2.36-.95,3.73,3.73,0,0,1,0-4.93,3.4,3.4,0,0,1,4.26-.37,2.86,2.86,0,0,1,1.11,1.6l-1.08.17a2,2,0,0,0-1.94-1.38,2,2,0,0,0-1.52.67,2.56,2.56,0,0,0-.6,1.77,2.53,2.53,0,0,0,.6,1.77,2,2,0,0,0,1.52.68,2,2,0,0,0,1.19-.36,2,2,0,0,0,.75-1l1.08.18a2.89,2.89,0,0,1-1.12,1.6A3.14,3.14,0,0,1,841,327.74Z"/>
        <path d="M846.85,322.2a2,2,0,0,1,.81-.89,2.49,2.49,0,0,1,1.27-.34v1.09a2.15,2.15,0,0,0-1.53.49,2,2,0,0,0-.53,1.55v3.52h-1.15V321h1.13Z"/>
        <path d="M850.88,319.49a.75.75,0,0,1-.56-.23.77.77,0,0,1,0-1.1.79.79,0,0,1,.56-.23.74.74,0,0,1,.54.23.77.77,0,0,1,0,1.1A.7.7,0,0,1,850.88,319.49Zm-.59,8.13V321h1.16v6.58Z"/>
        <path d="M857.28,320.91a3,3,0,0,1,1.19.24,2.93,2.93,0,0,1,1,.68,3.4,3.4,0,0,1,.66,1.08,4.11,4.11,0,0,1,.24,1.42,3.47,3.47,0,0,1-.88,2.48,2.9,2.9,0,0,1-2.19.95,2.65,2.65,0,0,1-1.38-.38,2.47,2.47,0,0,1-.94-1v4.56h-1.15V321h1.11l0,1.28a2.34,2.34,0,0,1,.94-1A2.64,2.64,0,0,1,857.28,320.91Zm-.23,5.84a2,2,0,0,0,1.52-.66,2.46,2.46,0,0,0,.62-1.76,2.42,2.42,0,0,0-.62-1.75,2.07,2.07,0,0,0-3.06,0,2.45,2.45,0,0,0-.63,1.72,2.47,2.47,0,0,0,.63,1.73A2,2,0,0,0,857.05,326.75Z"/>
        <path d="M864.91,327.74a3.18,3.18,0,0,1-2.36-.95,3.73,3.73,0,0,1,0-4.93,3.16,3.16,0,0,1,2.36-.95,3.13,3.13,0,0,1,1.9.58,2.86,2.86,0,0,1,1.11,1.6l-1.08.17a2,2,0,0,0-1.94-1.38,2,2,0,0,0-1.52.67,2.56,2.56,0,0,0-.6,1.77,2.53,2.53,0,0,0,.6,1.77,2,2,0,0,0,1.52.68,2,2,0,0,0,1.19-.36,2,2,0,0,0,.75-1l1.08.18a2.93,2.93,0,0,1-1.11,1.6A3.19,3.19,0,0,1,864.91,327.74Z"/>
        <path d="M870.22,319.49a.75.75,0,0,1-.56-.23.77.77,0,0,1,0-1.1.79.79,0,0,1,.56-.23.74.74,0,0,1,.54.23.77.77,0,0,1,0,1.1A.7.7,0,0,1,870.22,319.49Zm-.59,8.13V321h1.16v6.58Z"/>
        <path d="M875.92,327.74a3.49,3.49,0,0,1-1.69-.4,3.05,3.05,0,0,1-1.19-1.2,3.69,3.69,0,0,1-.44-1.82,3.38,3.38,0,0,1,.94-2.48,3.51,3.51,0,0,1,4.76,0,3.79,3.79,0,0,1,0,5A3.25,3.25,0,0,1,875.92,327.74Zm0-1a2,2,0,0,0,1.56-.68,2.85,2.85,0,0,0,0-3.55,2,2,0,0,0-1.56-.67,2,2,0,0,0-1.54.67,2.89,2.89,0,0,0,0,3.55A2,2,0,0,0,875.91,326.78Zm-.43-6.87,1.68-2.18.61.44-1.5,1.74Z"/>
        <path d="M884.15,320.91a2.3,2.3,0,0,1,1.66.6,2.21,2.21,0,0,1,.62,1.68v4.43h-1.16v-4.17a1.59,1.59,0,0,0-.4-1.18,1.48,1.48,0,0,0-1-.38,1.61,1.61,0,0,0-1.17.45,1.87,1.87,0,0,0-.46,1.34v3.94H881V321h1.16v.84A2.22,2.22,0,0,1,884.15,320.91Z"/>
      </g>
      <g>
        <path d="M823.08,168.87v-9.42h3a4.46,4.46,0,0,1,2.4.61,3.7,3.7,0,0,1,1.47,1.66,5.76,5.76,0,0,1,.48,2.43,6,6,0,0,1-.28,1.91,4.38,4.38,0,0,1-.81,1.49,3.59,3.59,0,0,1-1.37,1,4.75,4.75,0,0,1-1.89.35Zm1.2-1.09h1.8a2.87,2.87,0,0,0,2.35-1,4.87,4.87,0,0,0,0-5.32,2.88,2.88,0,0,0-2.35-1h-1.8Z"/>
        <path d="M833.09,160.75a.79.79,0,0,1-.79-.78.79.79,0,0,1,.79-.78.79.79,0,0,1,.77.78.79.79,0,0,1-.77.78Zm-.59,8.12v-6.58h1.16v6.58Z"/>
        <path d="M839.5,162.17a2.84,2.84,0,0,1,2.18,1,3.87,3.87,0,0,1,0,4.94,2.81,2.81,0,0,1-2.18.95,2.61,2.61,0,0,1-1.4-.38,2.37,2.37,0,0,1-.94-1l0,1.28H836V158.59h1.15v5a2.47,2.47,0,0,1,.94-1A2.65,2.65,0,0,1,839.5,162.17Zm-.25,5.84a2.05,2.05,0,0,0,1.54-.67,2.51,2.51,0,0,0,.62-1.75,2.48,2.48,0,0,0-.62-1.75,2,2,0,0,0-1.54-.68,2,2,0,0,0-1.53.7,2.72,2.72,0,0,0,0,3.46A2,2,0,0,0,839.25,168Z"/>
        <path d="M848.48,162.29h1.16v6.58h-1.11l0-.87a2,2,0,0,1-.81.74,2.53,2.53,0,0,1-1.15.26,2.29,2.29,0,0,1-1.66-.6,2.21,2.21,0,0,1-.62-1.68v-4.43h1.16v4.17a1.56,1.56,0,0,0,.4,1.18,1.44,1.44,0,0,0,1,.39,1.57,1.57,0,0,0,1.17-.46,1.82,1.82,0,0,0,.45-1.34Z"/>
        <path d="M850.49,172v-1a1.94,1.94,0,0,0,.94-.19,1,1,0,0,0,.44-.64,5.21,5.21,0,0,0,.13-1.36v-6.49h1.17v6.49a3.77,3.77,0,0,1-.61,2.45A2.59,2.59,0,0,1,850.49,172Zm2.1-11.2a.79.79,0,0,1-.78-.78.78.78,0,0,1,1.56,0,.79.79,0,0,1-.78.78Z"/>
        <path d="M858.3,169a3.45,3.45,0,0,1-1.68-.41,3,3,0,0,1-1.19-1.19,3.71,3.71,0,0,1-.44-1.82,3.36,3.36,0,0,1,.93-2.48,3.51,3.51,0,0,1,4.76,0,3.36,3.36,0,0,1,.93,2.48,3.4,3.4,0,0,1-.93,2.49A3.23,3.23,0,0,1,858.3,169Zm0-1a2,2,0,0,0,1.55-.68,2.85,2.85,0,0,0,0-3.55,2.11,2.11,0,0,0-3.1,0,2.89,2.89,0,0,0,0,3.55A2,2,0,0,0,858.3,168Z"/>
      </g>
      <g>
        <path d="M902.7,115.15a2.78,2.78,0,0,1,1.47.39,2.63,2.63,0,0,1,1,1,3.08,3.08,0,0,1,.35,1.45,2.86,2.86,0,0,1-.78,2,2.67,2.67,0,0,1-2,.82h-2.37v3.66h-1.2v-9.42Zm-.18,4.72a1.73,1.73,0,0,0,1.32-.51,2.12,2.12,0,0,0,0-2.66,1.73,1.73,0,0,0-1.32-.51h-2.19v3.68Z"/>
        <path d="M907.31,124.57V114.29h1.17v10.28Z"/>
        <path d="M912.35,124.7a2.25,2.25,0,0,1-1.44-.45,1.64,1.64,0,0,1-.56-1.35,1.91,1.91,0,0,1,.18-.86,1.6,1.6,0,0,1,.53-.6,3.11,3.11,0,0,1,.78-.37,7.39,7.39,0,0,1,1-.24l1.06-.17c.39-.07.58-.28.58-.61a1.12,1.12,0,0,0-.41-1,1.65,1.65,0,0,0-1-.31,1.72,1.72,0,0,0-1,.3,1.25,1.25,0,0,0-.49.92l-1-.22a2,2,0,0,1,.82-1.41,3.11,3.11,0,0,1,1.79-.47,3.6,3.6,0,0,1,1,.12,2.47,2.47,0,0,1,.79.36,1.61,1.61,0,0,1,.57.71,2.6,2.6,0,0,1,.21,1.08v2.72a1.13,1.13,0,0,0,.15.69.64.64,0,0,0,.52.18h.1v.83h-.57a1.11,1.11,0,0,1-1.25-.89h0A2.52,2.52,0,0,1,912.35,124.7Zm.27-.94a1.74,1.74,0,0,0,1.41-.63,2.62,2.62,0,0,0,.54-1.74l-1.74.33a2.35,2.35,0,0,0-1,.37,1,1,0,0,0,0,1.44A1.37,1.37,0,0,0,912.62,123.76Z"/>
        <path d="M921.12,117.87a2.3,2.3,0,0,1,1.66.59,2.24,2.24,0,0,1,.62,1.68v4.43h-1.16V120.4a1.6,1.6,0,0,0-.4-1.18,1.45,1.45,0,0,0-1-.38,1.58,1.58,0,0,0-1.17.45,1.86,1.86,0,0,0-.47,1.35v3.93H918V118h1.15v.85A2.2,2.2,0,0,1,921.12,117.87Z"/>
        <path d="M928.4,124.7a3.48,3.48,0,0,1-1.68-.41,3,3,0,0,1-1.19-1.19,3.71,3.71,0,0,1-.44-1.82,3.36,3.36,0,0,1,.93-2.48,3.51,3.51,0,0,1,4.76,0,3.74,3.74,0,0,1,0,5A3.19,3.19,0,0,1,928.4,124.7Zm0-1a2,2,0,0,0,1.55-.68,2.55,2.55,0,0,0,.62-1.78,2.53,2.53,0,0,0-.62-1.77,2.11,2.11,0,0,0-3.1,0,2.52,2.52,0,0,0-.61,1.77,2.55,2.55,0,0,0,.61,1.78A2,2,0,0,0,928.4,123.74Z"/>
      </g>
      <g>
        <path d="M981.33,124.57v-9.42h3a4.46,4.46,0,0,1,2.4.61,3.73,3.73,0,0,1,1.47,1.65,5.84,5.84,0,0,1,.48,2.44,6.08,6.08,0,0,1-.28,1.91,4.21,4.21,0,0,1-.81,1.49,3.52,3.52,0,0,1-1.37,1,4.69,4.69,0,0,1-1.89.35Zm1.2-1.09h1.8a2.86,2.86,0,0,0,2.35-1,4.82,4.82,0,0,0,0-5.32,2.87,2.87,0,0,0-2.35-1h-1.8Z"/>
        <path d="M994.85,118H996v6.58h-1.11l0-.87a2.09,2.09,0,0,1-.82.74,2.53,2.53,0,0,1-1.15.26,2.29,2.29,0,0,1-1.66-.6,2.21,2.21,0,0,1-.62-1.68V118h1.16v4.17a1.6,1.6,0,0,0,.4,1.18,1.46,1.46,0,0,0,1,.39,1.55,1.55,0,0,0,1.17-.46,1.87,1.87,0,0,0,.46-1.34Z"/>
        <path d="M999.49,119.15a1.93,1.93,0,0,1,.82-.88,2.37,2.37,0,0,1,1.26-.35V119a2.15,2.15,0,0,0-1.53.49,2,2,0,0,0-.52,1.56v3.51h-1.16V118h1.13Z"/>
        <path d="M1004.37,124.7a2.21,2.21,0,0,1-1.44-.45,1.62,1.62,0,0,1-.57-1.35,1.91,1.91,0,0,1,.18-.86,1.55,1.55,0,0,1,.54-.6,2.89,2.89,0,0,1,.77-.37,7.78,7.78,0,0,1,1-.24l1.06-.17c.39-.07.59-.28.59-.61a1.12,1.12,0,0,0-.42-1,1.65,1.65,0,0,0-1-.31,1.72,1.72,0,0,0-1,.3,1.29,1.29,0,0,0-.49.92l-1-.22a2,2,0,0,1,.82-1.41,3.12,3.12,0,0,1,1.8-.47,3.53,3.53,0,0,1,.95.12,2.62,2.62,0,0,1,.8.36,1.76,1.76,0,0,1,.57.71,2.77,2.77,0,0,1,.2,1.08v2.72a1.13,1.13,0,0,0,.15.69.64.64,0,0,0,.52.18h.11v.83h-.58a1.09,1.09,0,0,1-1.24-.89h-.06A2.5,2.5,0,0,1,1004.37,124.7Zm.27-.94a1.77,1.77,0,0,0,1.41-.63,2.68,2.68,0,0,0,.53-1.74l-1.74.33a2.35,2.35,0,0,0-1,.37.83.83,0,0,0-.33.71.86.86,0,0,0,.32.73A1.41,1.41,0,0,0,1004.64,123.76Z"/>
        <path d="M1012.63,124.69a3.17,3.17,0,0,1-2.36-.94,3.75,3.75,0,0,1,0-4.94,3.16,3.16,0,0,1,2.36-.94,3.21,3.21,0,0,1,1.9.57,2.93,2.93,0,0,1,1.11,1.6l-1.09.18a2,2,0,0,0-.74-1,2,2,0,0,0-1.19-.36,1.91,1.91,0,0,0-1.52.68,2.91,2.91,0,0,0,0,3.54,1.93,1.93,0,0,0,1.52.67,2,2,0,0,0,1.93-1.38l1.09.18a2.87,2.87,0,0,1-1.12,1.59A3.14,3.14,0,0,1,1012.63,124.69Z"/>
        <path d="M1017.93,116.45a.76.76,0,0,1-.55-.23.79.79,0,0,1-.23-.56.74.74,0,0,1,.23-.54.73.73,0,0,1,.55-.23.79.79,0,0,1,.78.77.79.79,0,0,1-.78.79Zm-.59,8.12V118h1.17v6.58Z"/>
        <path d="M1023.64,124.7a3.49,3.49,0,0,1-1.69-.41,3,3,0,0,1-1.19-1.19,3.71,3.71,0,0,1-.44-1.82,3.32,3.32,0,0,1,.94-2.48,3.51,3.51,0,0,1,4.76,0,3.76,3.76,0,0,1,0,5A3.18,3.18,0,0,1,1023.64,124.7Zm0-1a2,2,0,0,0,1.55-.68,2.51,2.51,0,0,0,.62-1.78,2.48,2.48,0,0,0-.62-1.77,2,2,0,0,0-1.55-.68,2,2,0,0,0-1.54.68,2.53,2.53,0,0,0-.62,1.77,2.55,2.55,0,0,0,.62,1.78A2,2,0,0,0,1023.63,123.74Zm-.44-6.88,1.68-2.18.62.45-1.5,1.73Z"/>
        <path d="M1031.87,117.87a2.09,2.09,0,0,1,2.27,2.27v4.43H1033V120.4a1.56,1.56,0,0,0-.4-1.18,1.45,1.45,0,0,0-1-.38,1.58,1.58,0,0,0-1.17.45,1.85,1.85,0,0,0-.46,1.35v3.93h-1.16V118h1.16v.85A2.2,2.2,0,0,1,1031.87,117.87Z"/>
      </g>
    </g>
    <g>
      <g>
        <path class="cls-1" d="M437,664.76H138.37V398.58H437Zm-295.34-3.32h292V401.91h-292Z"/>
        <g>
          <rect class="cls-2" x="140.03" y="400.25" width="295.34" height="33.23"/>
          <path class="cls-1" d="M436.2,434.3h-297V399.41h297Zm-295.34-1.66H434.54V401.08H140.86Z"/>
        </g>
        <path class="cls-1" d="M436.2,663.93h-297V603.2h297Zm-295.34-1.66H434.54V604.86H140.86Z"/>
        <path class="cls-1" d="M424,595.59H151.43V440.44H424Zm-271.71-.84H423.14V441.27H152.26Z"/>
        <rect class="cls-1" x="151.84" y="632.73" width="271.71" height="1.66"/>
        <rect class="cls-1" x="151.84" y="647.5" width="271.71" height="1.66"/>
      </g>
      <g>
        <path d="M162.39,411.58h-3.83v3.08h3.37v1.08h-3.37v3.08h3.83v1.09h-5.06v-9.42h5.06Z"/>
        <path d="M166.46,420a3.08,3.08,0,0,1-1.77-.48,1.93,1.93,0,0,1-.86-1.35l1-.29a1.4,1.4,0,0,0,.54.92,1.75,1.75,0,0,0,1.08.32,2.08,2.08,0,0,0,.63-.09.91.91,0,0,0,.48-.32.87.87,0,0,0,.2-.6.76.76,0,0,0-.06-.27,1.12,1.12,0,0,0-.1-.22.83.83,0,0,0-.19-.18,2,2,0,0,0-.23-.14,1.65,1.65,0,0,0-.3-.12l-.31-.11-.37-.11-.38-.11a5.37,5.37,0,0,1-.69-.24,2.67,2.67,0,0,1-.55-.32,1.18,1.18,0,0,1-.43-.51,1.89,1.89,0,0,1,.17-1.79,1.85,1.85,0,0,1,.84-.62,3.26,3.26,0,0,1,1.17-.19,2.83,2.83,0,0,1,1.6.43,1.83,1.83,0,0,1,.8,1.28l-1,.24a1.27,1.27,0,0,0-.5-.83,1.59,1.59,0,0,0-.95-.28,1.65,1.65,0,0,0-.88.23.78.78,0,0,0-.37.71.65.65,0,0,0,.1.36.94.94,0,0,0,.2.26,1.11,1.11,0,0,0,.36.2l.39.14.48.12.1,0,.63.18a4,4,0,0,1,.57.24,1.76,1.76,0,0,1,.51.36,1.65,1.65,0,0,1,.32.5,1.8,1.8,0,0,1,.14.71,2,2,0,0,1-.2.89,1.52,1.52,0,0,1-.54.61,3,3,0,0,1-.77.33A3.8,3.8,0,0,1,166.46,420Z"/>
        <path d="M173.44,420a3.17,3.17,0,0,1-2.36-.94,3.75,3.75,0,0,1,0-4.94,3.16,3.16,0,0,1,2.36-.95,3.22,3.22,0,0,1,1.9.58,2.89,2.89,0,0,1,1.11,1.6l-1.09.17a2,2,0,0,0-1.93-1.38,1.93,1.93,0,0,0-1.52.67,2.61,2.61,0,0,0-.6,1.78,2.56,2.56,0,0,0,.6,1.77,1.93,1.93,0,0,0,1.52.67,2,2,0,0,0,1.93-1.38l1.09.18a2.87,2.87,0,0,1-1.12,1.59A3.14,3.14,0,0,1,173.44,420Z"/>
        <path d="M183.91,416.49v.32h-5.14a2.25,2.25,0,0,0,.63,1.68,2.05,2.05,0,0,0,1.49.58,2,2,0,0,0,1.1-.31,2,2,0,0,0,.74-.87l1.05.22a2.93,2.93,0,0,1-1.13,1.41,3,3,0,0,1-1.74.52,3.18,3.18,0,0,1-2.37-.92,3.92,3.92,0,0,1,0-5,3.15,3.15,0,0,1,2.33-.92,3,3,0,0,1,2.22.85A3.34,3.34,0,0,1,183.91,416.49Zm-3-2.39a2,2,0,0,0-1.36.46,2.15,2.15,0,0,0-.7,1.36h3.94a1.93,1.93,0,0,0-.57-1.36A1.85,1.85,0,0,0,180.86,414.1Z"/>
        <path d="M188.83,413.2a2.26,2.26,0,0,1,1.65.6,2.2,2.2,0,0,1,.62,1.68v4.43H190v-4.17a1.56,1.56,0,0,0-.41-1.18,1.44,1.44,0,0,0-1-.38,1.61,1.61,0,0,0-1.17.45,1.9,1.9,0,0,0-.46,1.35v3.93h-1.16v-6.58h1.16v.85A2.21,2.21,0,0,1,188.83,413.2Z"/>
        <path d="M194.86,420a2.21,2.21,0,0,1-1.44-.45,1.63,1.63,0,0,1-.57-1.35,1.91,1.91,0,0,1,.18-.86,1.48,1.48,0,0,1,.54-.6,2.89,2.89,0,0,1,.77-.37,7.78,7.78,0,0,1,1-.24l1.06-.17c.39-.08.59-.28.59-.61a1.12,1.12,0,0,0-.42-1,1.65,1.65,0,0,0-1-.31,1.72,1.72,0,0,0-1,.3,1.27,1.27,0,0,0-.49.92l-1-.22a2,2,0,0,1,.82-1.41,3.12,3.12,0,0,1,1.8-.47,3.53,3.53,0,0,1,.95.12,2.62,2.62,0,0,1,.8.36,1.76,1.76,0,0,1,.57.71,2.77,2.77,0,0,1,.2,1.08v2.72a1.13,1.13,0,0,0,.15.69.64.64,0,0,0,.52.17h.11v.84h-.58a1.09,1.09,0,0,1-1.24-.89H197A2.51,2.51,0,0,1,194.86,420Zm.27-.94a1.77,1.77,0,0,0,1.41-.63,2.68,2.68,0,0,0,.53-1.74l-1.74.33a2.49,2.49,0,0,0-1,.36,1,1,0,0,0,0,1.45A1.41,1.41,0,0,0,195.13,419.1Z"/>
      </g>
      <g>
        <path d="M157.33,623v-9.43h3a4.55,4.55,0,0,1,2.4.61,3.69,3.69,0,0,1,1.47,1.66,5.81,5.81,0,0,1,.48,2.44,6.27,6.27,0,0,1-.27,1.9,4.3,4.3,0,0,1-.82,1.49,3.47,3.47,0,0,1-1.37,1,4.86,4.86,0,0,1-1.89.35Zm1.2-1.09h1.8a2.87,2.87,0,0,0,2.36-1,4.11,4.11,0,0,0,.79-2.66,4,4,0,0,0-.8-2.65,2.87,2.87,0,0,0-2.35-1h-1.8Z"/>
        <path d="M172.51,619.54l0,.31h-5.14a2.36,2.36,0,0,0,.63,1.69,2.06,2.06,0,0,0,1.5.58,2,2,0,0,0,1.09-.31,2,2,0,0,0,.75-.87l1.05.22a3,3,0,0,1-1.13,1.41,3.07,3.07,0,0,1-1.75.51,3.16,3.16,0,0,1-2.36-.91,3.89,3.89,0,0,1,0-5,3.13,3.13,0,0,1,2.33-.92,2.93,2.93,0,0,1,2.21.85A3.3,3.3,0,0,1,172.51,619.54Zm-3-2.4a2.07,2.07,0,0,0-1.37.47,2.1,2.1,0,0,0-.69,1.35h3.94a1.92,1.92,0,0,0-.57-1.35A1.88,1.88,0,0,0,169.46,617.14Z"/>
        <path d="M176.4,623.08a3.07,3.07,0,0,1-1.77-.47,2,2,0,0,1-.87-1.35l1-.29a1.46,1.46,0,0,0,.54.91,1.74,1.74,0,0,0,1.08.33,2.11,2.11,0,0,0,.64-.09,1,1,0,0,0,.48-.32.87.87,0,0,0,.2-.6,1.07,1.07,0,0,0-.06-.27.9.9,0,0,0-.1-.22.83.83,0,0,0-.19-.18,1.58,1.58,0,0,0-.23-.14l-.3-.13-.32-.1-.36-.11-.38-.11c-.28-.08-.51-.17-.69-.24a2.88,2.88,0,0,1-.55-.32,1.27,1.27,0,0,1-.43-.52,1.67,1.67,0,0,1-.15-.73,1.75,1.75,0,0,1,.32-1.06,1.78,1.78,0,0,1,.84-.61,3.25,3.25,0,0,1,1.16-.19,2.92,2.92,0,0,1,1.61.42,1.87,1.87,0,0,1,.8,1.29l-1,.24a1.26,1.26,0,0,0-.51-.83,1.54,1.54,0,0,0-.94-.28,1.65,1.65,0,0,0-.88.23.77.77,0,0,0-.37.71.65.65,0,0,0,.1.36,1.17,1.17,0,0,0,.19.26,1.39,1.39,0,0,0,.36.2l.39.14.49.12.1,0,.63.17.57.24a2.08,2.08,0,0,1,.51.36,1.76,1.76,0,0,1,.45,1.22,1.94,1.94,0,0,1-.19.89,1.66,1.66,0,0,1-.54.6,2.53,2.53,0,0,1-.77.33A3.36,3.36,0,0,1,176.4,623.08Z"/>
        <path d="M183.37,623.08a3.16,3.16,0,0,1-2.35-1,3.75,3.75,0,0,1,0-4.93,3.42,3.42,0,0,1,4.27-.37,2.9,2.9,0,0,1,1.11,1.6l-1.09.17a2,2,0,0,0-.74-1,2,2,0,0,0-1.19-.36,2,2,0,0,0-1.53.67,3,3,0,0,0,0,3.55,2,2,0,0,0,1.53.67,2,2,0,0,0,1.93-1.39l1.09.18a3,3,0,0,1-1.12,1.6A3.15,3.15,0,0,1,183.37,623.08Z"/>
        <path d="M189.22,617.54a2.06,2.06,0,0,1,.82-.89,2.48,2.48,0,0,1,1.26-.34v1.09a2.14,2.14,0,0,0-1.52.49,2,2,0,0,0-.53,1.55V623h-1.16v-6.58h1.13Z"/>
        <path d="M193.25,614.83a.73.73,0,0,1-.55-.23.78.78,0,0,1,.55-1.33.78.78,0,0,1,.55.23.77.77,0,0,1,0,1.1A.74.74,0,0,1,193.25,614.83Zm-.59,8.13v-6.58h1.17V623Z"/>
        <path d="M199.66,616.25a3,3,0,0,1,1.19.24,2.89,2.89,0,0,1,1,.68,3.07,3.07,0,0,1,.66,1.08,3.89,3.89,0,0,1,.25,1.42,3.46,3.46,0,0,1-.89,2.48,2.88,2.88,0,0,1-2.18,1,2.6,2.6,0,0,1-1.38-.38,2.47,2.47,0,0,1-.94-1v4.56h-1.16v-9.89h1.12l0,1.28a2.38,2.38,0,0,1,.93-1A2.67,2.67,0,0,1,199.66,616.25Zm-.23,5.84a2,2,0,0,0,1.52-.66,2.49,2.49,0,0,0,.62-1.76,2.46,2.46,0,0,0-.62-1.75,2,2,0,0,0-1.52-.66,2,2,0,0,0-1.55.69,2.68,2.68,0,0,0,0,3.45A2,2,0,0,0,199.43,622.09Z"/>
        <path d="M207.29,623.08a3.18,3.18,0,0,1-2.36-1,3.73,3.73,0,0,1,0-4.93,3.4,3.4,0,0,1,4.26-.37,2.86,2.86,0,0,1,1.11,1.6l-1.09.17a2,2,0,0,0-1.93-1.38,1.93,1.93,0,0,0-1.52.67,2.93,2.93,0,0,0,0,3.55,2,2,0,0,0,1.52.67,2,2,0,0,0,1.93-1.39l1.09.18a2.94,2.94,0,0,1-1.12,1.6A3.14,3.14,0,0,1,207.29,623.08Z"/>
        <path d="M212.59,614.83a.73.73,0,0,1-.55-.23.78.78,0,0,1,.55-1.33.78.78,0,0,1,.55.23.77.77,0,0,1,0,1.1A.74.74,0,0,1,212.59,614.83ZM212,623v-6.58h1.17V623Z"/>
        <path d="M218.29,623.08a3.48,3.48,0,0,1-1.68-.4,3,3,0,0,1-1.19-1.2,3.69,3.69,0,0,1-.44-1.82,3.33,3.33,0,0,1,.93-2.47,3.5,3.5,0,0,1,4.77,0,3.76,3.76,0,0,1,0,5A3.22,3.22,0,0,1,218.29,623.08Zm0-1a2,2,0,0,0,1.55-.68,2.85,2.85,0,0,0,0-3.55,2.13,2.13,0,0,0-3.1,0,2.89,2.89,0,0,0,0,3.55A2,2,0,0,0,218.29,622.12Zm-.44-6.87,1.68-2.18.62.45-1.5,1.73Z"/>
        <path d="M226.53,616.25a2.26,2.26,0,0,1,1.65.6,2.21,2.21,0,0,1,.62,1.68V623h-1.16v-4.17a1.55,1.55,0,0,0-.4-1.18,1.45,1.45,0,0,0-1-.38,1.58,1.58,0,0,0-1.17.45,1.83,1.83,0,0,0-.46,1.34V623h-1.16v-6.58h1.16v.84A2.21,2.21,0,0,1,226.53,616.25Z"/>
      </g>
      <g>
        <path d="M165.46,464.21v-9.42h3a4.46,4.46,0,0,1,2.4.61,3.69,3.69,0,0,1,1.48,1.65,5.84,5.84,0,0,1,.48,2.44,6.38,6.38,0,0,1-.28,1.91,4.4,4.4,0,0,1-.82,1.49,3.48,3.48,0,0,1-1.36,1,4.77,4.77,0,0,1-1.9.35Zm1.19-1.09h1.8a2.89,2.89,0,0,0,2.36-1,4.85,4.85,0,0,0,0-5.32,2.87,2.87,0,0,0-2.35-1h-1.8Z"/>
        <path d="M175.46,456.09a.76.76,0,0,1-.55-.23.79.79,0,0,1-.23-.56.74.74,0,0,1,.23-.54.73.73,0,0,1,.55-.23.79.79,0,0,1,.78.77.79.79,0,0,1-.78.79Zm-.59,8.12v-6.58H176v6.58Z"/>
        <path d="M181.88,457.51a2.82,2.82,0,0,1,2.17.95,3.42,3.42,0,0,1,.89,2.47,3.48,3.48,0,0,1-.88,2.47,2.84,2.84,0,0,1-2.18,1,2.56,2.56,0,0,1-1.4-.38,2.37,2.37,0,0,1-.94-1l0,1.28h-1.12V453.93h1.15v5a2.35,2.35,0,0,1,.94-1A2.63,2.63,0,0,1,181.88,457.51Zm-.25,5.84a2,2,0,0,0,1.53-.67,2.47,2.47,0,0,0,.63-1.75,2.44,2.44,0,0,0-.63-1.75,2,2,0,0,0-3.06,0,2.72,2.72,0,0,0,0,3.46A2,2,0,0,0,181.63,463.35Z"/>
        <path d="M190.86,457.63H192v6.58h-1.11l0-.87a2,2,0,0,1-.82.74,2.53,2.53,0,0,1-1.15.26,2.26,2.26,0,0,1-1.65-.6,2.17,2.17,0,0,1-.62-1.68v-4.43h1.16v4.17a1.56,1.56,0,0,0,.4,1.18,1.42,1.42,0,0,0,1,.39,1.55,1.55,0,0,0,1.17-.46,1.83,1.83,0,0,0,.46-1.34Z"/>
        <path d="M192.86,467.29v-1a2,2,0,0,0,.95-.19,1.1,1.1,0,0,0,.44-.64,5.79,5.79,0,0,0,.12-1.36v-6.49h1.18v6.49a3.83,3.83,0,0,1-.61,2.45A2.6,2.6,0,0,1,192.86,467.29Zm2.11-11.2a.76.76,0,0,1-.55-.23.75.75,0,0,1-.23-.56.7.7,0,0,1,.23-.54.73.73,0,0,1,.55-.23.7.7,0,0,1,.54.23.71.71,0,0,1,.24.54.76.76,0,0,1-.24.56A.74.74,0,0,1,195,456.09Z"/>
        <path d="M200.68,464.34a3.49,3.49,0,0,1-1.69-.41,3,3,0,0,1-1.19-1.19,3.71,3.71,0,0,1-.43-1.82,3.36,3.36,0,0,1,.93-2.48,3.51,3.51,0,0,1,4.76,0,3.77,3.77,0,0,1,0,5A3.22,3.22,0,0,1,200.68,464.34Zm0-1a2,2,0,0,0,1.56-.67,2.55,2.55,0,0,0,.62-1.78,2.53,2.53,0,0,0-.62-1.77,2,2,0,0,0-1.56-.68,2,2,0,0,0-1.54.68,2.52,2.52,0,0,0-.61,1.77,2.55,2.55,0,0,0,.61,1.78A2,2,0,0,0,200.67,463.37Z"/>
      </g>
      <g>
        <path d="M245.07,410.49a2.8,2.8,0,0,1,1.48.39,2.63,2.63,0,0,1,1,1.05,3,3,0,0,1,.34,1.45,2.86,2.86,0,0,1-.78,2.05,2.65,2.65,0,0,1-2,.82H242.7v3.66h-1.19v-9.42Zm-.17,4.72a1.7,1.7,0,0,0,1.31-.51,2.08,2.08,0,0,0,0-2.66,1.7,1.7,0,0,0-1.31-.51h-2.2v3.68Z"/>
        <path d="M249.68,419.91V409.63h1.18v10.28Z"/>
        <path d="M254.73,420a2.25,2.25,0,0,1-1.44-.45,1.63,1.63,0,0,1-.57-1.35,1.91,1.91,0,0,1,.18-.86,1.48,1.48,0,0,1,.54-.6,3,3,0,0,1,.77-.37,7.78,7.78,0,0,1,1-.24l1.07-.17c.38-.08.58-.28.58-.61a1.15,1.15,0,0,0-.41-1,1.67,1.67,0,0,0-1-.31,1.7,1.7,0,0,0-1,.3,1.24,1.24,0,0,0-.49.92l-1-.22a2,2,0,0,1,.83-1.41,3.09,3.09,0,0,1,1.79-.47,3.48,3.48,0,0,1,1,.12,2.52,2.52,0,0,1,.8.36,1.76,1.76,0,0,1,.57.71,2.77,2.77,0,0,1,.2,1.08v2.72a1.13,1.13,0,0,0,.15.69.65.65,0,0,0,.52.17h.11v.84h-.58a1.09,1.09,0,0,1-1.24-.89h-.05A2.52,2.52,0,0,1,254.73,420Zm.27-.94a1.77,1.77,0,0,0,1.41-.63,2.62,2.62,0,0,0,.54-1.74l-1.74.33a2.61,2.61,0,0,0-1,.36,1,1,0,0,0,0,1.45A1.41,1.41,0,0,0,255,419.1Z"/>
        <path d="M263.5,413.2a2.26,2.26,0,0,1,1.65.6,2.2,2.2,0,0,1,.62,1.68v4.43h-1.16v-4.17a1.56,1.56,0,0,0-.4-1.18,1.44,1.44,0,0,0-1-.38,1.6,1.6,0,0,0-1.17.45,1.85,1.85,0,0,0-.46,1.35v3.93h-1.16v-6.58h1.16v.85A2.21,2.21,0,0,1,263.5,413.2Z"/>
        <path d="M270.78,420a3.49,3.49,0,0,1-1.69-.41,3,3,0,0,1-1.19-1.19,3.71,3.71,0,0,1-.43-1.82,3.36,3.36,0,0,1,.93-2.48,3.48,3.48,0,0,1,4.76,0,3.77,3.77,0,0,1,0,5A3.22,3.22,0,0,1,270.78,420Zm0-1a2,2,0,0,0,1.56-.67,2.87,2.87,0,0,0,0-3.56,2,2,0,0,0-1.56-.67,2,2,0,0,0-1.54.67,2.9,2.9,0,0,0,0,3.56A2,2,0,0,0,270.77,419.07Z"/>
      </g>
      <g>
        <path d="M323.71,419.91v-9.42h3a4.51,4.51,0,0,1,2.4.61,3.73,3.73,0,0,1,1.47,1.65,5.84,5.84,0,0,1,.48,2.44,6.08,6.08,0,0,1-.28,1.91,4.38,4.38,0,0,1-.81,1.49,3.59,3.59,0,0,1-1.37,1,4.93,4.93,0,0,1-1.89.35Zm1.2-1.09h1.8a2.87,2.87,0,0,0,2.35-1,4.87,4.87,0,0,0,0-5.32,2.88,2.88,0,0,0-2.35-1h-1.8Z"/>
        <path d="M337.22,413.33h1.16v6.58h-1.11l0-.87a2.06,2.06,0,0,1-.81.74,2.57,2.57,0,0,1-1.16.26,2.26,2.26,0,0,1-1.65-.6,2.17,2.17,0,0,1-.62-1.68v-4.43h1.16v4.17a1.56,1.56,0,0,0,.4,1.18,1.44,1.44,0,0,0,1,.39,1.54,1.54,0,0,0,1.16-.46,1.83,1.83,0,0,0,.46-1.34Z"/>
        <path d="M341.87,414.49a1.9,1.9,0,0,1,.81-.88,2.4,2.4,0,0,1,1.27-.35v1.09a2.15,2.15,0,0,0-1.53.49,2,2,0,0,0-.53,1.56v3.51h-1.16v-6.58h1.14Z"/>
        <path d="M346.74,420a2.25,2.25,0,0,1-1.44-.45,1.65,1.65,0,0,1-.56-1.35,1.91,1.91,0,0,1,.18-.86,1.53,1.53,0,0,1,.53-.6,3.11,3.11,0,0,1,.78-.37,7.39,7.39,0,0,1,1-.24l1.06-.17c.39-.08.58-.28.58-.61a1.12,1.12,0,0,0-.41-1,1.65,1.65,0,0,0-1-.31,1.72,1.72,0,0,0-1,.3,1.24,1.24,0,0,0-.49.92l-1-.22a2,2,0,0,1,.82-1.41,3.11,3.11,0,0,1,1.79-.47,3.6,3.6,0,0,1,1,.12,2.47,2.47,0,0,1,.79.36,1.61,1.61,0,0,1,.57.71,2.6,2.6,0,0,1,.21,1.08v2.72a1.13,1.13,0,0,0,.15.69.64.64,0,0,0,.52.17h.1v.84h-.57A1.11,1.11,0,0,1,349,419h-.05A2.52,2.52,0,0,1,346.74,420Zm.27-.94a1.74,1.74,0,0,0,1.41-.63,2.62,2.62,0,0,0,.54-1.74l-1.74.33a2.49,2.49,0,0,0-1,.36.86.86,0,0,0-.33.72.83.83,0,0,0,.32.73A1.37,1.37,0,0,0,347,419.1Z"/>
        <path d="M355,420a3.15,3.15,0,0,1-2.35-.94,3.36,3.36,0,0,1-.93-2.47,3.4,3.4,0,0,1,.92-2.47,3.18,3.18,0,0,1,2.36-.95,3.25,3.25,0,0,1,1.91.58,2.93,2.93,0,0,1,1.1,1.6l-1.08.17a2,2,0,0,0-.74-1,2,2,0,0,0-1.19-.36,2,2,0,0,0-1.53.67,2.61,2.61,0,0,0-.6,1.78,2.56,2.56,0,0,0,.6,1.77,2,2,0,0,0,1.53.67,2,2,0,0,0,1.19-.36,2,2,0,0,0,.74-1l1.08.18a2.9,2.9,0,0,1-1.11,1.59A3.17,3.17,0,0,1,355,420Z"/>
        <path d="M360.31,411.79a.76.76,0,0,1-.55-.23.78.78,0,0,1,.55-1.33.73.73,0,0,1,.54.22.76.76,0,0,1,0,1.11A.74.74,0,0,1,360.31,411.79Zm-.59,8.12v-6.58h1.17v6.58Z"/>
        <path d="M366,420a3.45,3.45,0,0,1-1.68-.41,3,3,0,0,1-1.19-1.19,3.61,3.61,0,0,1-.44-1.82,3.36,3.36,0,0,1,.93-2.48,3.48,3.48,0,0,1,4.76,0,3.77,3.77,0,0,1,0,5A3.2,3.2,0,0,1,366,420Zm0-1a2,2,0,0,0,1.56-.67,2.87,2.87,0,0,0,0-3.56,2,2,0,0,0-1.56-.67,2,2,0,0,0-1.54.67,2.9,2.9,0,0,0,0,3.56A2,2,0,0,0,366,419.07Zm-.43-6.87,1.68-2.18.62.45-1.5,1.73Z"/>
        <path d="M374.24,413.2a2.29,2.29,0,0,1,1.66.6,2.24,2.24,0,0,1,.62,1.68v4.43h-1.16v-4.17a1.56,1.56,0,0,0-.4-1.18,1.45,1.45,0,0,0-1-.38,1.58,1.58,0,0,0-1.17.45,1.81,1.81,0,0,0-.46,1.35v3.93h-1.16v-6.58h1.16v.85A2.18,2.18,0,0,1,374.24,413.2Z"/>
      </g>
    </g>
    <g>
      <g>
        <path class="cls-1" d="M765.84,664.76H467.18V398.58H765.84ZM470.5,661.44h292V401.91h-292Z"/>
        <g>
          <rect class="cls-2" x="468.84" y="400.25" width="295.34" height="33.23"/>
          <path class="cls-1" d="M765,434.3H468V399.41H765Zm-295.34-1.66H763.35V401.08H469.67Z"/>
        </g>
        <path class="cls-1" d="M765,663.93H468V603.2H765Zm-295.34-1.66H763.35V604.86H469.67Z"/>
        <path class="cls-1" d="M752.78,595.59H480.24V440.44H752.78Zm-271.71-.84H752V441.27H481.07Z"/>
        <rect class="cls-1" x="480.65" y="632.73" width="271.71" height="1.66"/>
        <rect class="cls-1" x="480.65" y="647.5" width="271.71" height="1.66"/>
      </g>
      <g>
        <path d="M491.2,411.58h-3.83v3.08h3.37v1.08h-3.37v3.08h3.83v1.09h-5.05v-9.42h5.05Z"/>
        <path d="M495.28,420a3.11,3.11,0,0,1-1.78-.48,1.93,1.93,0,0,1-.86-1.35l1-.29a1.4,1.4,0,0,0,.54.92,1.8,1.8,0,0,0,1.08.32,2.08,2.08,0,0,0,.63-.09,1,1,0,0,0,.49-.32.92.92,0,0,0,.19-.6.76.76,0,0,0-.05-.27,1.13,1.13,0,0,0-.11-.22.66.66,0,0,0-.19-.18,2,2,0,0,0-.23-.14,1.83,1.83,0,0,0-.29-.12l-.32-.11L495,417l-.38-.11a5.16,5.16,0,0,1-.68-.24,2.49,2.49,0,0,1-.56-.32,1.25,1.25,0,0,1-.43-.51,1.72,1.72,0,0,1-.14-.74,1.64,1.64,0,0,1,.32-1.05,1.78,1.78,0,0,1,.83-.62,3.26,3.26,0,0,1,1.17-.19,2.81,2.81,0,0,1,1.6.43,1.8,1.8,0,0,1,.8,1.28l-.95.24a1.27,1.27,0,0,0-.5-.83,1.59,1.59,0,0,0-1-.28,1.67,1.67,0,0,0-.88.23.8.8,0,0,0-.37.71.75.75,0,0,0,.1.36.94.94,0,0,0,.2.26,1.23,1.23,0,0,0,.36.2l.39.14.48.12.1,0,.63.18a4,4,0,0,1,.57.24,1.76,1.76,0,0,1,.51.36,1.65,1.65,0,0,1,.32.5,1.8,1.8,0,0,1,.14.71,2,2,0,0,1-.2.89,1.52,1.52,0,0,1-.54.61,3.07,3.07,0,0,1-.76.33A3.87,3.87,0,0,1,495.28,420Z"/>
        <path d="M502.25,420a3.17,3.17,0,0,1-2.36-.94,3.75,3.75,0,0,1,0-4.94,3.16,3.16,0,0,1,2.36-.95,3.22,3.22,0,0,1,1.9.58,2.89,2.89,0,0,1,1.11,1.6l-1.08.17a2,2,0,0,0-1.94-1.38,2,2,0,0,0-1.52.67,2.61,2.61,0,0,0-.6,1.78,2.56,2.56,0,0,0,.6,1.77,2,2,0,0,0,1.52.67,2,2,0,0,0,1.94-1.38l1.08.18a2.9,2.9,0,0,1-1.11,1.59A3.19,3.19,0,0,1,502.25,420Z"/>
        <path d="M512.72,416.49v.32h-5.14a2.33,2.33,0,0,0,.63,1.68,2.06,2.06,0,0,0,1.5.58,2,2,0,0,0,1.09-.31,2.13,2.13,0,0,0,.75-.87l1,.22a3,3,0,0,1-1.12,1.41,3.05,3.05,0,0,1-1.75.52,3.18,3.18,0,0,1-2.37-.92,3.92,3.92,0,0,1,0-5,3.17,3.17,0,0,1,2.34-.92,3,3,0,0,1,2.21.85A3.34,3.34,0,0,1,512.72,416.49Zm-3-2.39a2,2,0,0,0-1.37.46,2.1,2.1,0,0,0-.69,1.36h3.94a2,2,0,0,0-.58-1.36A1.85,1.85,0,0,0,509.68,414.1Z"/>
        <path d="M517.64,413.2a2.3,2.3,0,0,1,1.66.6,2.24,2.24,0,0,1,.62,1.68v4.43h-1.16v-4.17a1.6,1.6,0,0,0-.4-1.18,1.47,1.47,0,0,0-1-.38,1.62,1.62,0,0,0-1.18.45,1.9,1.9,0,0,0-.46,1.35v3.93h-1.16v-6.58h1.16v.85A2.21,2.21,0,0,1,517.64,413.2Z"/>
        <path d="M523.67,420a2.23,2.23,0,0,1-1.44-.45,1.63,1.63,0,0,1-.57-1.35,1.91,1.91,0,0,1,.18-.86,1.48,1.48,0,0,1,.54-.6,2.89,2.89,0,0,1,.77-.37,7.78,7.78,0,0,1,1-.24l1.07-.17c.38-.08.58-.28.58-.61a1.15,1.15,0,0,0-.41-1,1.91,1.91,0,0,0-2.07,0,1.24,1.24,0,0,0-.49.92l-1.05-.22a2,2,0,0,1,.83-1.41,3.09,3.09,0,0,1,1.79-.47,3.48,3.48,0,0,1,1,.12,2.52,2.52,0,0,1,.8.36,1.76,1.76,0,0,1,.57.71,2.77,2.77,0,0,1,.2,1.08v2.72a1.13,1.13,0,0,0,.15.69.65.65,0,0,0,.52.17h.11v.84h-.58a1.09,1.09,0,0,1-1.24-.89h0A2.52,2.52,0,0,1,523.67,420Zm.27-.94a1.77,1.77,0,0,0,1.41-.63,2.62,2.62,0,0,0,.54-1.74l-1.75.33a2.61,2.61,0,0,0-1,.36,1,1,0,0,0,0,1.45A1.41,1.41,0,0,0,523.94,419.1Z"/>
      </g>
      <g>
        <path d="M486.15,623v-9.43h3a4.55,4.55,0,0,1,2.4.61,3.71,3.71,0,0,1,1.48,1.66,5.81,5.81,0,0,1,.47,2.44,6.27,6.27,0,0,1-.27,1.9,4.3,4.3,0,0,1-.82,1.49,3.5,3.5,0,0,1-1.36,1,5,5,0,0,1-1.9.35Zm1.19-1.09h1.8a2.87,2.87,0,0,0,2.36-1,4.83,4.83,0,0,0,0-5.31,2.87,2.87,0,0,0-2.35-1h-1.8Z"/>
        <path d="M501.32,619.54v.31h-5.14a2.31,2.31,0,0,0,.62,1.69,2.09,2.09,0,0,0,1.5.58,2,2,0,0,0,1.09-.31,2,2,0,0,0,.75-.87l1.05.22a2.93,2.93,0,0,1-1.13,1.41,3.06,3.06,0,0,1-1.74.51,3.17,3.17,0,0,1-2.37-.91,3.89,3.89,0,0,1,0-5,3.15,3.15,0,0,1,2.33-.92,3,3,0,0,1,2.22.85A3.34,3.34,0,0,1,501.32,619.54Zm-3.05-2.4a2.07,2.07,0,0,0-1.37.47,2.19,2.19,0,0,0-.69,1.35h3.94a1.92,1.92,0,0,0-.57-1.35A1.88,1.88,0,0,0,498.27,617.14Z"/>
        <path d="M505.21,623.08a3.07,3.07,0,0,1-1.77-.47,2,2,0,0,1-.86-1.35l1-.29a1.38,1.38,0,0,0,.54.91,1.7,1.7,0,0,0,1.08.33,2.08,2.08,0,0,0,.63-.09,1,1,0,0,0,.48-.32.87.87,0,0,0,.2-.6.76.76,0,0,0-.06-.27.9.9,0,0,0-.1-.22.83.83,0,0,0-.19-.18,1.18,1.18,0,0,0-.23-.14,1.53,1.53,0,0,0-.3-.13l-.31-.1-.37-.11-.38-.11c-.28-.08-.51-.17-.69-.24a3.23,3.23,0,0,1-.55-.32,1.27,1.27,0,0,1-.43-.52,1.67,1.67,0,0,1-.15-.73,1.75,1.75,0,0,1,.32-1.06,1.83,1.83,0,0,1,.84-.61,3.26,3.26,0,0,1,1.17-.19,2.91,2.91,0,0,1,1.6.42,1.87,1.87,0,0,1,.8,1.29l-.95.24a1.25,1.25,0,0,0-.5-.83,1.59,1.59,0,0,0-1-.28,1.65,1.65,0,0,0-.88.23.77.77,0,0,0-.37.71.65.65,0,0,0,.1.36.94.94,0,0,0,.2.26,1.11,1.11,0,0,0,.36.2l.39.14.48.12.1,0c.26.06.47.12.63.17l.57.24a1.76,1.76,0,0,1,.51.36,1.59,1.59,0,0,1,.32.51,1.8,1.8,0,0,1,.14.71,2,2,0,0,1-.2.89,1.5,1.5,0,0,1-.54.6,2.42,2.42,0,0,1-.77.33A3.36,3.36,0,0,1,505.21,623.08Z"/>
        <path d="M512.19,623.08a3.18,3.18,0,0,1-2.36-1,3.73,3.73,0,0,1,0-4.93,3.4,3.4,0,0,1,4.26-.37,2.86,2.86,0,0,1,1.11,1.6l-1.09.17a2,2,0,0,0-1.93-1.38,1.93,1.93,0,0,0-1.52.67,2.93,2.93,0,0,0,0,3.55,2,2,0,0,0,1.52.67,2,2,0,0,0,1.93-1.39l1.09.18a2.89,2.89,0,0,1-1.12,1.6A3.14,3.14,0,0,1,512.19,623.08Z"/>
        <path d="M518,617.54a2.06,2.06,0,0,1,.82-.89,2.49,2.49,0,0,1,1.27-.34v1.09a2.15,2.15,0,0,0-1.53.49,2,2,0,0,0-.53,1.55V623H516.9v-6.58H518Z"/>
        <path d="M522.06,614.83a.74.74,0,0,1-.55-.23.77.77,0,0,1,0-1.1.78.78,0,0,1,.55-.23.78.78,0,0,1,.55,1.33A.73.73,0,0,1,522.06,614.83Zm-.59,8.13v-6.58h1.17V623Z"/>
        <path d="M528.47,616.25a3,3,0,0,1,2.17.92,3.4,3.4,0,0,1,.66,1.08,4.11,4.11,0,0,1,.24,1.42,3.46,3.46,0,0,1-.89,2.48,2.88,2.88,0,0,1-2.18,1,2.63,2.63,0,0,1-1.38-.38,2.47,2.47,0,0,1-.94-1v4.56H525v-9.89h1.12l0,1.28a2.34,2.34,0,0,1,.94-1A2.64,2.64,0,0,1,528.47,616.25Zm-.23,5.84a2,2,0,0,0,1.52-.66,2.44,2.44,0,0,0,.62-1.76,2.42,2.42,0,0,0-.62-1.75,2,2,0,0,0-1.52-.66,2,2,0,0,0-1.55.69,2.71,2.71,0,0,0,0,3.45A2,2,0,0,0,528.24,622.09Z"/>
        <path d="M536.1,623.08a3.18,3.18,0,0,1-2.36-1,3.73,3.73,0,0,1,0-4.93,3.4,3.4,0,0,1,4.26-.37,2.86,2.86,0,0,1,1.11,1.6l-1.09.17a2,2,0,0,0-.74-1,2,2,0,0,0-1.19-.36,1.93,1.93,0,0,0-1.52.67,2.93,2.93,0,0,0,0,3.55,2,2,0,0,0,1.52.67,2,2,0,0,0,1.19-.36,2,2,0,0,0,.74-1l1.09.18a2.89,2.89,0,0,1-1.12,1.6A3.14,3.14,0,0,1,536.1,623.08Z"/>
        <path d="M541.4,614.83a.74.74,0,0,1-.55-.23.77.77,0,0,1,0-1.1.78.78,0,0,1,.55-.23.78.78,0,0,1,.55,1.33A.73.73,0,0,1,541.4,614.83Zm-.58,8.13v-6.58H542V623Z"/>
        <path d="M547.11,623.08a3.49,3.49,0,0,1-1.69-.4,3,3,0,0,1-1.19-1.2,3.69,3.69,0,0,1-.44-1.82,3.3,3.3,0,0,1,.94-2.47,3.48,3.48,0,0,1,4.76,0,3.77,3.77,0,0,1,0,5A3.25,3.25,0,0,1,547.11,623.08Zm0-1a2,2,0,0,0,1.56-.68,2.89,2.89,0,0,0,0-3.55,2,2,0,0,0-1.56-.67,2,2,0,0,0-1.54.67,2.85,2.85,0,0,0,0,3.55A2,2,0,0,0,547.1,622.12Zm-.44-6.87,1.68-2.18.62.45-1.5,1.73Z"/>
        <path d="M555.34,616.25a2.26,2.26,0,0,1,1.65.6,2.17,2.17,0,0,1,.62,1.68V623h-1.16v-4.17a1.55,1.55,0,0,0-.4-1.18,1.44,1.44,0,0,0-1-.38,1.61,1.61,0,0,0-1.17.45,1.83,1.83,0,0,0-.46,1.34V623h-1.16v-6.58h1.16v.84A2.22,2.22,0,0,1,555.34,616.25Z"/>
      </g>
      <g>
        <path d="M494.27,464.21v-9.42h3a4.51,4.51,0,0,1,2.4.61,3.73,3.73,0,0,1,1.47,1.65,5.84,5.84,0,0,1,.48,2.44,6.38,6.38,0,0,1-.28,1.91,4.55,4.55,0,0,1-.81,1.49,3.59,3.59,0,0,1-1.37,1,4.75,4.75,0,0,1-1.89.35Zm1.2-1.09h1.8a2.87,2.87,0,0,0,2.35-1,4.87,4.87,0,0,0,0-5.32,2.9,2.9,0,0,0-2.35-1h-1.8Z"/>
        <path d="M504.27,456.09a.79.79,0,0,1-.78-.79.78.78,0,0,1,1.56,0,.79.79,0,0,1-.78.79Zm-.59,8.12v-6.58h1.17v6.58Z"/>
        <path d="M510.69,457.51a2.86,2.86,0,0,1,2.18.95,3.87,3.87,0,0,1,0,4.94,2.83,2.83,0,0,1-2.18,1,2.58,2.58,0,0,1-1.4-.38,2.37,2.37,0,0,1-.94-1l0,1.28H507.2V453.93h1.16v5a2.41,2.41,0,0,1,.94-1A2.65,2.65,0,0,1,510.69,457.51Zm-.25,5.84a2.05,2.05,0,0,0,1.54-.67,2.51,2.51,0,0,0,.62-1.75,2.48,2.48,0,0,0-.62-1.75,2,2,0,0,0-1.54-.68,2,2,0,0,0-1.53.7,2.51,2.51,0,0,0-.62,1.73,2.48,2.48,0,0,0,.62,1.73A2,2,0,0,0,510.44,463.35Z"/>
        <path d="M519.67,457.63h1.16v6.58h-1.11l0-.87a2.06,2.06,0,0,1-.81.74,2.57,2.57,0,0,1-1.16.26,2.26,2.26,0,0,1-1.65-.6,2.21,2.21,0,0,1-.62-1.68v-4.43h1.16v4.17A1.56,1.56,0,0,0,517,463a1.44,1.44,0,0,0,1,.39,1.54,1.54,0,0,0,1.16-.46,1.83,1.83,0,0,0,.46-1.34Z"/>
        <path d="M521.67,467.29v-1a2,2,0,0,0,1-.19,1.06,1.06,0,0,0,.44-.64,5.69,5.69,0,0,0,.13-1.36v-6.49h1.17v6.49a3.83,3.83,0,0,1-.61,2.45A2.6,2.6,0,0,1,521.67,467.29Zm2.11-11.2a.76.76,0,0,1-.55-.23.79.79,0,0,1-.23-.56.74.74,0,0,1,.23-.54.73.73,0,0,1,.55-.23.79.79,0,0,1,.78.77.79.79,0,0,1-.78.79Z"/>
        <path d="M529.49,464.34a3.49,3.49,0,0,1-1.69-.41,2.94,2.94,0,0,1-1.18-1.19,3.61,3.61,0,0,1-.44-1.82,3.36,3.36,0,0,1,.93-2.48,3.51,3.51,0,0,1,4.76,0,3.77,3.77,0,0,1,0,5A3.2,3.2,0,0,1,529.49,464.34Zm0-1a2,2,0,0,0,1.56-.67,2.55,2.55,0,0,0,.62-1.78,2.53,2.53,0,0,0-.62-1.77,2,2,0,0,0-1.56-.68,2,2,0,0,0-1.54.68,2.52,2.52,0,0,0-.61,1.77,2.55,2.55,0,0,0,.61,1.78A2,2,0,0,0,529.48,463.37Z"/>
      </g>
      <g>
        <path d="M573.89,410.49a2.78,2.78,0,0,1,1.47.39,2.63,2.63,0,0,1,1,1.05,3,3,0,0,1,.35,1.45,2.86,2.86,0,0,1-.78,2.05,2.67,2.67,0,0,1-2,.82h-2.37v3.66h-1.2v-9.42Zm-.18,4.72a1.69,1.69,0,0,0,1.31-.51,2.08,2.08,0,0,0,0-2.66,1.69,1.69,0,0,0-1.31-.51h-2.19v3.68Z"/>
        <path d="M578.5,419.91V409.63h1.17v10.28Z"/>
        <path d="M583.54,420a2.25,2.25,0,0,1-1.44-.45,1.63,1.63,0,0,1-.57-1.35,1.91,1.91,0,0,1,.19-.86,1.46,1.46,0,0,1,.53-.6,3,3,0,0,1,.77-.37,8.21,8.21,0,0,1,1-.24l1.07-.17c.39-.08.58-.28.58-.61a1.15,1.15,0,0,0-.41-1,1.67,1.67,0,0,0-1-.31,1.7,1.7,0,0,0-1,.3,1.24,1.24,0,0,0-.49.92l-1-.22a2,2,0,0,1,.82-1.41,3.11,3.11,0,0,1,1.79-.47,3.6,3.6,0,0,1,1,.12,2.57,2.57,0,0,1,.79.36,1.76,1.76,0,0,1,.57.71,2.6,2.6,0,0,1,.2,1.08v2.72a1.12,1.12,0,0,0,.16.69.63.63,0,0,0,.51.17h.11v.84H587a1.11,1.11,0,0,1-1.25-.89h0A2.52,2.52,0,0,1,583.54,420Zm.27-.94a1.75,1.75,0,0,0,1.41-.63,2.62,2.62,0,0,0,.54-1.74l-1.74.33a2.49,2.49,0,0,0-1,.36,1,1,0,0,0,0,1.45A1.43,1.43,0,0,0,583.81,419.1Z"/>
        <path d="M592.31,413.2a2.3,2.3,0,0,1,1.66.6,2.24,2.24,0,0,1,.61,1.68v4.43h-1.15v-4.17a1.6,1.6,0,0,0-.4-1.18,1.48,1.48,0,0,0-1-.38,1.61,1.61,0,0,0-1.17.45,1.9,1.9,0,0,0-.46,1.35v3.93H589.2v-6.58h1.16v.85A2.21,2.21,0,0,1,592.31,413.2Z"/>
        <path d="M599.59,420a3.52,3.52,0,0,1-1.69-.41,2.94,2.94,0,0,1-1.18-1.19,3.61,3.61,0,0,1-.44-1.82,3.36,3.36,0,0,1,.93-2.48,3.48,3.48,0,0,1,4.76,0,3.77,3.77,0,0,1,0,5A3.2,3.2,0,0,1,599.59,420Zm0-1a2,2,0,0,0,1.56-.67,2.87,2.87,0,0,0,0-3.56,2,2,0,0,0-1.56-.67,2,2,0,0,0-1.54.67,2.9,2.9,0,0,0,0,3.56A2,2,0,0,0,599.58,419.07Z"/>
      </g>
      <g>
        <path d="M652.52,419.91v-9.42h3a4.46,4.46,0,0,1,2.4.61,3.73,3.73,0,0,1,1.47,1.65,5.84,5.84,0,0,1,.48,2.44,6.08,6.08,0,0,1-.28,1.91,4.21,4.21,0,0,1-.81,1.49,3.52,3.52,0,0,1-1.37,1,4.93,4.93,0,0,1-1.89.35Zm1.2-1.09h1.8a2.87,2.87,0,0,0,2.35-1,4.87,4.87,0,0,0,0-5.32,2.88,2.88,0,0,0-2.35-1h-1.8Z"/>
        <path d="M666,413.33h1.16v6.58h-1.11l0-.87a2,2,0,0,1-.81.74,2.56,2.56,0,0,1-1.15.26,2.27,2.27,0,0,1-1.66-.6,2.21,2.21,0,0,1-.62-1.68v-4.43H663v4.17a1.56,1.56,0,0,0,.4,1.18,1.44,1.44,0,0,0,1,.39,1.54,1.54,0,0,0,1.16-.46,1.79,1.79,0,0,0,.46-1.34Z"/>
        <path d="M670.68,414.49a1.9,1.9,0,0,1,.81-.88,2.4,2.4,0,0,1,1.27-.35v1.09a2.15,2.15,0,0,0-1.53.49,2,2,0,0,0-.53,1.56v3.51h-1.15v-6.58h1.13Z"/>
        <path d="M675.56,420a2.26,2.26,0,0,1-1.45-.45,1.65,1.65,0,0,1-.56-1.35,1.91,1.91,0,0,1,.18-.86,1.53,1.53,0,0,1,.53-.6,3.11,3.11,0,0,1,.78-.37,7.78,7.78,0,0,1,1-.24l1.06-.17c.39-.08.58-.28.58-.61a1.12,1.12,0,0,0-.41-1,1.65,1.65,0,0,0-1-.31,1.72,1.72,0,0,0-1,.3,1.24,1.24,0,0,0-.49.92l-1-.22a2,2,0,0,1,.82-1.41,3.11,3.11,0,0,1,1.79-.47,3.6,3.6,0,0,1,1,.12,2.47,2.47,0,0,1,.79.36,1.61,1.61,0,0,1,.57.71,2.6,2.6,0,0,1,.21,1.08v2.72a1.13,1.13,0,0,0,.15.69.64.64,0,0,0,.52.17h.1v.84H679a1.11,1.11,0,0,1-1.25-.89h0A2.51,2.51,0,0,1,675.56,420Zm.26-.94a1.77,1.77,0,0,0,1.42-.63,2.68,2.68,0,0,0,.53-1.74l-1.74.33a2.49,2.49,0,0,0-1,.36.86.86,0,0,0-.33.72.83.83,0,0,0,.32.73A1.37,1.37,0,0,0,675.82,419.1Z"/>
        <path d="M683.81,420a3.15,3.15,0,0,1-2.35-.94,3.36,3.36,0,0,1-.93-2.47,3.4,3.4,0,0,1,.92-2.47,3.18,3.18,0,0,1,2.36-.95,3.23,3.23,0,0,1,1.91.58,2.94,2.94,0,0,1,1.11,1.6l-1.09.17a2,2,0,0,0-.74-1,2,2,0,0,0-1.19-.36,2,2,0,0,0-1.53.67,2.65,2.65,0,0,0-.59,1.78,2.61,2.61,0,0,0,.59,1.77,2,2,0,0,0,1.53.67,2,2,0,0,0,1.19-.36,2,2,0,0,0,.74-1l1.09.18a3,3,0,0,1-1.12,1.59A3.15,3.15,0,0,1,683.81,420Z"/>
        <path d="M689.12,411.79a.76.76,0,0,1-.55-.23.78.78,0,0,1,.55-1.33.77.77,0,0,1,.55.22.79.79,0,0,1-.55,1.34Zm-.59,8.12v-6.58h1.17v6.58Z"/>
        <path d="M694.82,420a3.48,3.48,0,0,1-1.68-.41,3,3,0,0,1-1.19-1.19,3.71,3.71,0,0,1-.44-1.82,3.36,3.36,0,0,1,.93-2.48,3.5,3.5,0,0,1,4.77,0,3.76,3.76,0,0,1,0,5A3.19,3.19,0,0,1,694.82,420Zm0-1a2,2,0,0,0,1.55-.67,2.87,2.87,0,0,0,0-3.56,2.13,2.13,0,0,0-3.1,0,2.9,2.9,0,0,0,0,3.56A2,2,0,0,0,694.82,419.07Zm-.44-6.87,1.68-2.18.62.45-1.5,1.73Z"/>
        <path d="M703.05,413.2a2.27,2.27,0,0,1,1.66.6,2.24,2.24,0,0,1,.62,1.68v4.43h-1.16v-4.17a1.56,1.56,0,0,0-.4-1.18,1.45,1.45,0,0,0-1-.38,1.58,1.58,0,0,0-1.17.45,1.81,1.81,0,0,0-.46,1.35v3.93H700v-6.58h1.16v.85A2.18,2.18,0,0,1,703.05,413.2Z"/>
      </g>
    </g>
    <g>
      <g>
        <path class="cls-1" d="M1094.65,664.76H796V398.58h298.66Zm-295.34-3.32h292V401.91h-292Z"/>
        <g>
          <rect class="cls-2" x="797.65" y="400.25" width="295.34" height="33.23"/>
          <path class="cls-1" d="M1093.82,434.3h-297V399.41h297Zm-295.34-1.66h293.68V401.08H798.48Z"/>
        </g>
        <path class="cls-1" d="M1093.82,663.93h-297V603.2h297Zm-295.34-1.66h293.68V604.86H798.48Z"/>
        <path class="cls-1" d="M1081.59,595.59H809.05V440.44h272.54Zm-271.71-.84h270.88V441.27H809.88Z"/>
        <rect class="cls-1" x="809.46" y="632.73" width="271.71" height="1.66"/>
        <rect class="cls-1" x="809.46" y="647.5" width="271.71" height="1.66"/>
      </g>
      <g>
        <path d="M820,411.58h-3.83v3.08h3.38v1.08h-3.38v3.08H820v1.09h-5v-9.42h5Z"/>
        <path d="M824.09,420a3.13,3.13,0,0,1-1.78-.48,1.93,1.93,0,0,1-.86-1.35l1-.29a1.4,1.4,0,0,0,.54.92,1.8,1.8,0,0,0,1.08.32,2.08,2.08,0,0,0,.63-.09,1,1,0,0,0,.49-.32.87.87,0,0,0,.19-.6.76.76,0,0,0,0-.27,1.13,1.13,0,0,0-.11-.22.66.66,0,0,0-.19-.18l-.22-.14a2.63,2.63,0,0,0-.3-.12l-.32-.11-.37-.11-.38-.11a5.16,5.16,0,0,1-.68-.24,2.49,2.49,0,0,1-.56-.32,1.25,1.25,0,0,1-.43-.51,1.72,1.72,0,0,1-.14-.74A1.64,1.64,0,0,1,822,414a1.78,1.78,0,0,1,.83-.62,3.26,3.26,0,0,1,1.17-.19,2.81,2.81,0,0,1,1.6.43,1.8,1.8,0,0,1,.8,1.28l-1,.24a1.27,1.27,0,0,0-.5-.83,1.56,1.56,0,0,0-.94-.28,1.68,1.68,0,0,0-.89.23.79.79,0,0,0-.36.71.74.74,0,0,0,.09.36,1.17,1.17,0,0,0,.2.26,1.39,1.39,0,0,0,.36.2l.39.14.48.12.1,0,.63.18a3.2,3.2,0,0,1,.57.24,1.76,1.76,0,0,1,.51.36,1.67,1.67,0,0,1,.33.5,1.8,1.8,0,0,1,.13.71,2,2,0,0,1-.2.89,1.52,1.52,0,0,1-.54.61,2.91,2.91,0,0,1-.76.33A3.87,3.87,0,0,1,824.09,420Z"/>
        <path d="M831.06,420a3.17,3.17,0,0,1-2.36-.94,3.75,3.75,0,0,1,0-4.94,3.4,3.4,0,0,1,4.26-.37,2.89,2.89,0,0,1,1.11,1.6l-1.08.17a2,2,0,0,0-.75-1,2,2,0,0,0-1.19-.36,2,2,0,0,0-1.52.67,2.61,2.61,0,0,0-.6,1.78,2.56,2.56,0,0,0,.6,1.77,2,2,0,0,0,1.52.67,2,2,0,0,0,1.19-.36,2,2,0,0,0,.75-1l1.08.18a2.9,2.9,0,0,1-1.11,1.59A3.17,3.17,0,0,1,831.06,420Z"/>
        <path d="M841.53,416.49v.32h-5.14a2.33,2.33,0,0,0,.63,1.68,2.06,2.06,0,0,0,1.5.58,2,2,0,0,0,1.84-1.18l1,.22a2.91,2.91,0,0,1-1.12,1.41,3,3,0,0,1-1.75.52,3.19,3.19,0,0,1-2.37-.92,3.91,3.91,0,0,1,0-5,3.13,3.13,0,0,1,2.33-.92,3,3,0,0,1,2.21.85A3.3,3.3,0,0,1,841.53,416.49Zm-3-2.39a2,2,0,0,0-1.37.46,2.1,2.1,0,0,0-.69,1.36h3.94a2,2,0,0,0-.58-1.36A1.85,1.85,0,0,0,838.49,414.1Z"/>
        <path d="M846.45,413.2a2.29,2.29,0,0,1,1.66.6,2.24,2.24,0,0,1,.62,1.68v4.43h-1.16v-4.17a1.56,1.56,0,0,0-.4-1.18,1.45,1.45,0,0,0-1-.38,1.58,1.58,0,0,0-1.17.45,1.86,1.86,0,0,0-.47,1.35v3.93h-1.15v-6.58h1.15v.85A2.21,2.21,0,0,1,846.45,413.2Z"/>
        <path d="M852.48,420a2.25,2.25,0,0,1-1.44-.45,1.63,1.63,0,0,1-.57-1.35,1.91,1.91,0,0,1,.18-.86,1.48,1.48,0,0,1,.54-.6,3,3,0,0,1,.77-.37,8.21,8.21,0,0,1,1-.24L854,416c.39-.08.58-.28.58-.61a1.15,1.15,0,0,0-.41-1,1.67,1.67,0,0,0-1-.31,1.7,1.7,0,0,0-1,.3,1.24,1.24,0,0,0-.49.92l-1-.22a2,2,0,0,1,.83-1.41,3.11,3.11,0,0,1,1.79-.47,3.48,3.48,0,0,1,.95.12,2.52,2.52,0,0,1,.8.36,1.76,1.76,0,0,1,.57.71,2.6,2.6,0,0,1,.2,1.08v2.72a1.06,1.06,0,0,0,.16.69.62.62,0,0,0,.51.17h.11v.84h-.58a1.1,1.1,0,0,1-1.24-.89h-.05A2.52,2.52,0,0,1,852.48,420Zm.27-.94a1.77,1.77,0,0,0,1.41-.63,2.62,2.62,0,0,0,.54-1.74l-1.74.33a2.49,2.49,0,0,0-1,.36,1,1,0,0,0,0,1.45A1.43,1.43,0,0,0,852.75,419.1Z"/>
      </g>
      <g>
        <path d="M815,623v-9.43h3a4.6,4.6,0,0,1,2.4.61,3.75,3.75,0,0,1,1.47,1.66,5.81,5.81,0,0,1,.48,2.44,6.27,6.27,0,0,1-.28,1.9,4.46,4.46,0,0,1-.81,1.49,3.62,3.62,0,0,1-1.37,1A4.93,4.93,0,0,1,818,623Zm1.2-1.09H818a2.85,2.85,0,0,0,2.35-1,4.86,4.86,0,0,0,0-5.31,2.9,2.9,0,0,0-2.35-1h-1.8Z"/>
        <path d="M830.13,619.54v.31H825a2.28,2.28,0,0,0,.63,1.69,2.05,2.05,0,0,0,1.49.58,2,2,0,0,0,1.1-.31,2.13,2.13,0,0,0,.75-.87l1,.22a3,3,0,0,1-1.12,1.41,3.12,3.12,0,0,1-1.75.51,3.17,3.17,0,0,1-2.37-.91,3.92,3.92,0,0,1,0-5,3.17,3.17,0,0,1,2.34-.92,3,3,0,0,1,2.21.85A3.34,3.34,0,0,1,830.13,619.54Zm-3-2.4a2,2,0,0,0-1.37.47A2.15,2.15,0,0,0,825,619h4a2,2,0,0,0-.58-1.35A1.85,1.85,0,0,0,827.09,617.14Z"/>
        <path d="M834,623.08a3.09,3.09,0,0,1-1.77-.47,2,2,0,0,1-.86-1.35l1-.29a1.38,1.38,0,0,0,.54.91,1.72,1.72,0,0,0,1.08.33,2.08,2.08,0,0,0,.63-.09,1.13,1.13,0,0,0,.49-.32.92.92,0,0,0,.19-.6.76.76,0,0,0-.05-.27.9.9,0,0,0-.11-.22.66.66,0,0,0-.19-.18,1.18,1.18,0,0,0-.23-.14,1.69,1.69,0,0,0-.29-.13l-.32-.1-.37-.11-.38-.11a7.2,7.2,0,0,1-.68-.24,3,3,0,0,1-.56-.32,1.27,1.27,0,0,1-.43-.52,1.67,1.67,0,0,1-.14-.73,1.69,1.69,0,0,1,.32-1.06,1.76,1.76,0,0,1,.83-.61,3.26,3.26,0,0,1,1.17-.19,2.89,2.89,0,0,1,1.6.42,1.84,1.84,0,0,1,.8,1.29l-.95.24a1.25,1.25,0,0,0-.5-.83,1.59,1.59,0,0,0-1-.28,1.67,1.67,0,0,0-.88.23.79.79,0,0,0-.37.71.65.65,0,0,0,.1.36.94.94,0,0,0,.2.26,1.23,1.23,0,0,0,.36.2l.39.14.48.12.1,0c.26.06.47.12.63.17l.57.24a1.76,1.76,0,0,1,.51.36,1.59,1.59,0,0,1,.32.51,1.8,1.8,0,0,1,.14.71,2,2,0,0,1-.2.89,1.5,1.5,0,0,1-.54.6,2.42,2.42,0,0,1-.77.33A3.36,3.36,0,0,1,834,623.08Z"/>
        <path d="M841,623.08a3.18,3.18,0,0,1-2.36-1,3.73,3.73,0,0,1,0-4.93,3.4,3.4,0,0,1,4.26-.37,2.86,2.86,0,0,1,1.11,1.6l-1.08.17a2,2,0,0,0-1.94-1.38,2,2,0,0,0-1.52.67,2.93,2.93,0,0,0,0,3.55,2,2,0,0,0,1.52.67,2,2,0,0,0,1.19-.36,2,2,0,0,0,.75-1l1.08.18a2.89,2.89,0,0,1-1.12,1.6A3.14,3.14,0,0,1,841,623.08Z"/>
        <path d="M846.85,617.54a2,2,0,0,1,.81-.89,2.49,2.49,0,0,1,1.27-.34v1.09a2.15,2.15,0,0,0-1.53.49,2,2,0,0,0-.53,1.55V623h-1.15v-6.58h1.13Z"/>
        <path d="M850.88,614.83a.75.75,0,0,1-.56-.23.77.77,0,0,1,0-1.1.79.79,0,0,1,.56-.23.74.74,0,0,1,.54.23.77.77,0,0,1,0,1.1A.7.7,0,0,1,850.88,614.83Zm-.59,8.13v-6.58h1.16V623Z"/>
        <path d="M857.28,616.25a3,3,0,0,1,1.19.24,2.93,2.93,0,0,1,1,.68,3.4,3.4,0,0,1,.66,1.08,4.11,4.11,0,0,1,.24,1.42,3.45,3.45,0,0,1-.88,2.48,2.9,2.9,0,0,1-2.19,1,2.65,2.65,0,0,1-1.38-.38,2.47,2.47,0,0,1-.94-1v4.56h-1.15v-9.89h1.11l0,1.28a2.34,2.34,0,0,1,.94-1A2.64,2.64,0,0,1,857.28,616.25Zm-.23,5.84a2,2,0,0,0,1.52-.66,2.44,2.44,0,0,0,.62-1.76,2.42,2.42,0,0,0-.62-1.75,2.07,2.07,0,0,0-3.06,0,2.68,2.68,0,0,0,0,3.45A2,2,0,0,0,857.05,622.09Z"/>
        <path d="M864.91,623.08a3.18,3.18,0,0,1-2.36-1,3.73,3.73,0,0,1,0-4.93,3.16,3.16,0,0,1,2.36-1,3.13,3.13,0,0,1,1.9.58,2.86,2.86,0,0,1,1.11,1.6l-1.08.17a2,2,0,0,0-1.94-1.38,2,2,0,0,0-1.52.67,2.93,2.93,0,0,0,0,3.55,2,2,0,0,0,1.52.67,2,2,0,0,0,1.19-.36,2,2,0,0,0,.75-1l1.08.18a2.93,2.93,0,0,1-1.11,1.6A3.19,3.19,0,0,1,864.91,623.08Z"/>
        <path d="M870.22,614.83a.75.75,0,0,1-.56-.23.77.77,0,0,1,0-1.1.79.79,0,0,1,.56-.23.74.74,0,0,1,.54.23.77.77,0,0,1,0,1.1A.7.7,0,0,1,870.22,614.83Zm-.59,8.13v-6.58h1.16V623Z"/>
        <path d="M875.92,623.08a3.49,3.49,0,0,1-1.69-.4,3.05,3.05,0,0,1-1.19-1.2,3.69,3.69,0,0,1-.44-1.82,3.34,3.34,0,0,1,.94-2.47,3.48,3.48,0,0,1,4.76,0,3.77,3.77,0,0,1,0,5A3.25,3.25,0,0,1,875.92,623.08Zm0-1a2,2,0,0,0,1.56-.68,2.85,2.85,0,0,0,0-3.55,2,2,0,0,0-1.56-.67,2,2,0,0,0-1.54.67,2.89,2.89,0,0,0,0,3.55A2,2,0,0,0,875.91,622.12Zm-.43-6.87,1.68-2.18.61.45-1.5,1.73Z"/>
        <path d="M884.15,616.25a2.3,2.3,0,0,1,1.66.6,2.21,2.21,0,0,1,.62,1.68V623h-1.16v-4.17a1.59,1.59,0,0,0-.4-1.18,1.48,1.48,0,0,0-1-.38,1.61,1.61,0,0,0-1.17.45,1.87,1.87,0,0,0-.46,1.34V623H881v-6.58h1.16v.84A2.22,2.22,0,0,1,884.15,616.25Z"/>
      </g>
      <g>
        <path d="M823.08,464.21v-9.42h3a4.46,4.46,0,0,1,2.4.61,3.73,3.73,0,0,1,1.47,1.65,5.84,5.84,0,0,1,.48,2.44,6.08,6.08,0,0,1-.28,1.91,4.38,4.38,0,0,1-.81,1.49,3.59,3.59,0,0,1-1.37,1,4.75,4.75,0,0,1-1.89.35Zm1.2-1.09h1.8a2.87,2.87,0,0,0,2.35-1,4.87,4.87,0,0,0,0-5.32,2.88,2.88,0,0,0-2.35-1h-1.8Z"/>
        <path d="M833.09,456.09a.79.79,0,0,1-.79-.79.79.79,0,0,1,.79-.77.79.79,0,0,1,.77.77.79.79,0,0,1-.77.79Zm-.59,8.12v-6.58h1.16v6.58Z"/>
        <path d="M839.5,457.51a2.84,2.84,0,0,1,2.18.95,3.87,3.87,0,0,1,0,4.94,2.81,2.81,0,0,1-2.18,1,2.61,2.61,0,0,1-1.4-.38,2.37,2.37,0,0,1-.94-1l0,1.28H836V453.93h1.15v5a2.41,2.41,0,0,1,.94-1A2.65,2.65,0,0,1,839.5,457.51Zm-.25,5.84a2.05,2.05,0,0,0,1.54-.67,2.51,2.51,0,0,0,.62-1.75,2.48,2.48,0,0,0-.62-1.75,2,2,0,0,0-1.54-.68,2,2,0,0,0-1.53.7,2.72,2.72,0,0,0,0,3.46A2,2,0,0,0,839.25,463.35Z"/>
        <path d="M848.48,457.63h1.16v6.58h-1.11l0-.87a2,2,0,0,1-.81.74,2.53,2.53,0,0,1-1.15.26,2.29,2.29,0,0,1-1.66-.6,2.21,2.21,0,0,1-.62-1.68v-4.43h1.16v4.17a1.56,1.56,0,0,0,.4,1.18,1.44,1.44,0,0,0,1,.39,1.57,1.57,0,0,0,1.17-.46,1.82,1.82,0,0,0,.45-1.34Z"/>
        <path d="M850.49,467.29v-1a1.94,1.94,0,0,0,.94-.19,1,1,0,0,0,.44-.64,5.21,5.21,0,0,0,.13-1.36v-6.49h1.17v6.49a3.77,3.77,0,0,1-.61,2.45A2.59,2.59,0,0,1,850.49,467.29Zm2.1-11.2a.79.79,0,0,1-.78-.79.78.78,0,0,1,1.56,0,.79.79,0,0,1-.78.79Z"/>
        <path d="M858.3,464.34a3.45,3.45,0,0,1-1.68-.41,3,3,0,0,1-1.19-1.19,3.71,3.71,0,0,1-.44-1.82,3.36,3.36,0,0,1,.93-2.48,3.51,3.51,0,0,1,4.76,0,3.77,3.77,0,0,1,0,5A3.2,3.2,0,0,1,858.3,464.34Zm0-1a2,2,0,0,0,1.55-.67,2.55,2.55,0,0,0,.62-1.78,2.53,2.53,0,0,0-.62-1.77,2.11,2.11,0,0,0-3.1,0,2.52,2.52,0,0,0-.61,1.77,2.55,2.55,0,0,0,.61,1.78A2,2,0,0,0,858.3,463.37Z"/>
      </g>
      <g>
        <path d="M902.7,410.49a2.78,2.78,0,0,1,1.47.39,2.63,2.63,0,0,1,1,1.05,3,3,0,0,1,.35,1.45,2.86,2.86,0,0,1-.78,2.05,2.67,2.67,0,0,1-2,.82h-2.37v3.66h-1.2v-9.42Zm-.18,4.72a1.73,1.73,0,0,0,1.32-.51,2.12,2.12,0,0,0,0-2.66,1.73,1.73,0,0,0-1.32-.51h-2.19v3.68Z"/>
        <path d="M907.31,419.91V409.63h1.17v10.28Z"/>
        <path d="M912.35,420a2.25,2.25,0,0,1-1.44-.45,1.65,1.65,0,0,1-.56-1.35,1.91,1.91,0,0,1,.18-.86,1.53,1.53,0,0,1,.53-.6,3.11,3.11,0,0,1,.78-.37,7.39,7.39,0,0,1,1-.24l1.06-.17c.39-.08.58-.28.58-.61a1.12,1.12,0,0,0-.41-1,1.65,1.65,0,0,0-1-.31,1.72,1.72,0,0,0-1,.3,1.24,1.24,0,0,0-.49.92l-1-.22a2,2,0,0,1,.82-1.41,3.11,3.11,0,0,1,1.79-.47,3.6,3.6,0,0,1,1,.12,2.47,2.47,0,0,1,.79.36,1.61,1.61,0,0,1,.57.71,2.6,2.6,0,0,1,.21,1.08v2.72a1.13,1.13,0,0,0,.15.69.64.64,0,0,0,.52.17h.1v.84h-.57a1.11,1.11,0,0,1-1.25-.89h0A2.52,2.52,0,0,1,912.35,420Zm.27-.94a1.74,1.74,0,0,0,1.41-.63,2.62,2.62,0,0,0,.54-1.74l-1.74.33a2.49,2.49,0,0,0-1,.36.86.86,0,0,0-.33.72.83.83,0,0,0,.32.73A1.37,1.37,0,0,0,912.62,419.1Z"/>
        <path d="M921.12,413.2a2.3,2.3,0,0,1,1.66.6,2.24,2.24,0,0,1,.62,1.68v4.43h-1.16v-4.17a1.6,1.6,0,0,0-.4-1.18,1.45,1.45,0,0,0-1-.38,1.58,1.58,0,0,0-1.17.45,1.86,1.86,0,0,0-.47,1.35v3.93H918v-6.58h1.15v.85A2.21,2.21,0,0,1,921.12,413.2Z"/>
        <path d="M928.4,420a3.48,3.48,0,0,1-1.68-.41,3,3,0,0,1-1.19-1.19,3.71,3.71,0,0,1-.44-1.82,3.36,3.36,0,0,1,.93-2.48,3.48,3.48,0,0,1,4.76,0,3.74,3.74,0,0,1,0,5A3.19,3.19,0,0,1,928.4,420Zm0-1a2,2,0,0,0,1.55-.67,2.87,2.87,0,0,0,0-3.56,2.13,2.13,0,0,0-3.1,0,2.9,2.9,0,0,0,0,3.56A2,2,0,0,0,928.4,419.07Z"/>
      </g>
      <g>
        <path d="M981.33,419.91v-9.42h3a4.46,4.46,0,0,1,2.4.61,3.73,3.73,0,0,1,1.47,1.65,5.84,5.84,0,0,1,.48,2.44,6.08,6.08,0,0,1-.28,1.91,4.21,4.21,0,0,1-.81,1.49,3.52,3.52,0,0,1-1.37,1,4.86,4.86,0,0,1-1.89.35Zm1.2-1.09h1.8a2.86,2.86,0,0,0,2.35-1,4.82,4.82,0,0,0,0-5.32,2.87,2.87,0,0,0-2.35-1h-1.8Z"/>
        <path d="M994.85,413.33H996v6.58h-1.11l0-.87a2.09,2.09,0,0,1-.82.74,2.53,2.53,0,0,1-1.15.26,2.29,2.29,0,0,1-1.66-.6,2.21,2.21,0,0,1-.62-1.68v-4.43h1.16v4.17a1.6,1.6,0,0,0,.4,1.18,1.46,1.46,0,0,0,1,.39,1.55,1.55,0,0,0,1.17-.46,1.87,1.87,0,0,0,.46-1.34Z"/>
        <path d="M999.49,414.49a1.93,1.93,0,0,1,.82-.88,2.37,2.37,0,0,1,1.26-.35v1.09a2.15,2.15,0,0,0-1.53.49,2,2,0,0,0-.52,1.56v3.51h-1.16v-6.58h1.13Z"/>
        <path d="M1004.37,420a2.21,2.21,0,0,1-1.44-.45,1.63,1.63,0,0,1-.57-1.35,1.91,1.91,0,0,1,.18-.86,1.48,1.48,0,0,1,.54-.6,2.89,2.89,0,0,1,.77-.37,7.78,7.78,0,0,1,1-.24l1.06-.17c.39-.08.59-.28.59-.61a1.12,1.12,0,0,0-.42-1,1.65,1.65,0,0,0-1-.31,1.72,1.72,0,0,0-1,.3,1.27,1.27,0,0,0-.49.92l-1-.22a2,2,0,0,1,.82-1.41,3.12,3.12,0,0,1,1.8-.47,3.53,3.53,0,0,1,.95.12,2.62,2.62,0,0,1,.8.36,1.76,1.76,0,0,1,.57.71,2.77,2.77,0,0,1,.2,1.08v2.72a1.13,1.13,0,0,0,.15.69.64.64,0,0,0,.52.17h.11v.84h-.58a1.09,1.09,0,0,1-1.24-.89h-.06A2.5,2.5,0,0,1,1004.37,420Zm.27-.94a1.77,1.77,0,0,0,1.41-.63,2.68,2.68,0,0,0,.53-1.74l-1.74.33a2.49,2.49,0,0,0-1,.36,1,1,0,0,0,0,1.45A1.41,1.41,0,0,0,1004.64,419.1Z"/>
        <path d="M1012.63,420a3.17,3.17,0,0,1-2.36-.94,3.75,3.75,0,0,1,0-4.94,3.16,3.16,0,0,1,2.36-.95,3.22,3.22,0,0,1,1.9.58,2.89,2.89,0,0,1,1.11,1.6l-1.09.17a2,2,0,0,0-1.93-1.38,1.93,1.93,0,0,0-1.52.67,2.61,2.61,0,0,0-.6,1.78,2.56,2.56,0,0,0,.6,1.77,1.93,1.93,0,0,0,1.52.67,2,2,0,0,0,1.93-1.38l1.09.18a2.87,2.87,0,0,1-1.12,1.59A3.14,3.14,0,0,1,1012.63,420Z"/>
        <path d="M1017.93,411.79a.76.76,0,0,1-.55-.23.78.78,0,0,1,0-1.11.75.75,0,0,1,.55-.22.77.77,0,0,1,.55.22.79.79,0,0,1-.55,1.34Zm-.59,8.12v-6.58h1.17v6.58Z"/>
        <path d="M1023.64,420a3.49,3.49,0,0,1-1.69-.41,3,3,0,0,1-1.19-1.19,3.71,3.71,0,0,1-.44-1.82,3.32,3.32,0,0,1,.94-2.48,3.48,3.48,0,0,1,4.76,0,3.76,3.76,0,0,1,0,5A3.18,3.18,0,0,1,1023.64,420Zm0-1a2,2,0,0,0,1.55-.67,2.87,2.87,0,0,0,0-3.56,2,2,0,0,0-1.55-.67,2,2,0,0,0-1.54.67,2.87,2.87,0,0,0,0,3.56A2,2,0,0,0,1023.63,419.07Zm-.44-6.87,1.68-2.18.62.45-1.5,1.73Z"/>
        <path d="M1031.87,413.2a2.11,2.11,0,0,1,2.27,2.28v4.43H1033v-4.17a1.56,1.56,0,0,0-.4-1.18,1.45,1.45,0,0,0-1-.38,1.58,1.58,0,0,0-1.17.45,1.85,1.85,0,0,0-.46,1.35v3.93h-1.16v-6.58h1.16v.85A2.21,2.21,0,0,1,1031.87,413.2Z"/>
      </g>
    </g>
    <line class="cls-3" x1="469.67" y1="60.34" x2="1093.82" y2="60.34"/>
    <line class="cls-3" x1="469.67" y1="74.08" x2="1093.82" y2="74.08"/>
  </g>
  <circle class="cls-4" cx="732.44" cy="39.35" r="14.84"/>
  <text class="cls-5" transform="translate(726.47 46.55)">1</text>
  <circle class="cls-4" cx="391.62" cy="167.12" r="14.84"/>
  <text class="cls-5" transform="translate(385.65 173.96)">2</text>
  <circle class="cls-4" cx="391.62" cy="330.93" r="14.84"/>
  <text class="cls-5" transform="translate(385.65 338.22)">3</text>
</svg>
