<?xml version="1.0" encoding="utf-8"?>
<!-- Generator: Adobe Illustrator 25.0.0, SVG Export Plug-In . SVG Version: 6.00 Build 0)  -->
<svg version="1.1" id="Layer_1" xmlns="http://www.w3.org/2000/svg" xmlns:xlink="http://www.w3.org/1999/xlink" x="0px" y="0px"
	 viewBox="0 0 1920 1080" style="enable-background:new 0 0 1920 1080;" xml:space="preserve">
<style type="text/css">
	.st0{fill:#313131;}
	.st1{fill:#6D6D6D;}
	.st2{enable-background:new    ;}
	.st3{fill:#FFFFFF;}
	.st4{fill:#29ABE2;}
	.st5{fill:#38261D;}
	.st6{fill:#3A3A3A;}
	.st7{fill:#DEDFE2;}
	.st8{fill:#EFC2AB;}
	.st9{fill:#B8BBBF;}
	.st10{fill:#E8EBEF;}
	.st11{fill:#252A26;}
	.st12{fill:#535B55;}
	.st13{fill:#255077;}
	.st14{fill:#453D4F;}
	.st15{fill:#585263;}
	.st16{fill:#231E1A;}
	.st17{fill:#E8E5D1;}
	.st18{fill:#99745C;}
	.st19{fill:#184972;}
	.st20{fill:#124160;}
	.st21{fill:#76909F;}
	.st22{fill:#E27830;}
	.st23{fill:#705148;}
	.st24{fill:#E5952E;}
	.st25{fill:none;}
	.st26{fill:#FAA284;}
	.st27{fill:#EF8D72;}
	.st28{opacity:0.1;enable-background:new    ;}
	.st29{fill:#110F0D;}
	.st30{fill:#49403A;}
	.st31{opacity:0.2;enable-background:new    ;}
	.st32{fill:#B7B3AB;}
	.st33{fill:#82604E;}
	.st34{fill:#D44C11;}
	.st35{fill:#DD6B43;}
	.st36{fill:#BA3E13;}
	.st37{fill:#DD6E47;}
	.st38{fill:#DB7C65;}
	.st39{fill:#C43131;}
	.st40{fill:#502F26;}
	.st41{fill:#302A28;}
	.st42{fill:url(#SVGID_1_);}
	.st43{fill:url(#SVGID_2_);}
	.st44{fill:#841819;}
	.st45{fill:#B42525;}
	.st46{fill:#1B547A;}
	.st47{fill:#493222;}
	.st48{fill:#3A271B;}
	.st49{fill:#664C3B;}
	.st50{fill:#3F464F;}
	.st51{fill:#353B42;}
	.st52{fill:#D3A13C;}
	.st53{fill:#535A66;}
	.st54{fill:#72382A;}
	.st55{fill:#89493D;}
	.st56{fill:#A0625A;}
	.st57{fill:url(#SVGID_3_);}
	.st58{fill:url(#SVGID_4_);}
	.st59{fill:#C8CED6;}
	.st60{fill:#EDF2EE;}
	.st61{fill:#4F4F4F;}
	.st62{fill:#7BCDDB;}
	.st63{fill:#D3D3D3;}
	.st64{fill:url(#SVGID_5_);}
	.st65{fill:#4EBCCE;}
	.st66{fill:#E2D5D5;}
	.st67{fill:#3AA2AD;}
	.st68{fill:#257F84;}
	.st69{fill:#BCACAC;}
	.st70{fill:#47B4BF;}
	.st71{fill:url(#SVGID_6_);}
	.st72{fill:url(#SVGID_7_);}
	.st73{fill:#B22828;}
	.st74{fill:url(#SVGID_8_);}
	.st75{fill:url(#SVGID_9_);}
</style>
<g>
	<g>
		<polygon class="st0" points="285.5,697.8 269.1,660.6 280.9,647.9 302.7,697.3 		"/>
		
			<rect x="266.6" y="664.5" transform="matrix(0.9147 -0.404 0.404 0.9147 -251.9839 168.0187)" class="st0" width="11" height="33.3"/>
		
			<rect x="256.6" y="671.7" transform="matrix(0.9147 -0.404 0.404 0.9147 -254.6282 164.3574)" class="st1" width="11" height="27.6"/>
		
			<rect x="251.6" y="671.2" transform="matrix(0.9147 -0.404 0.404 0.9147 -255.9821 162.5008)" class="st0" width="11" height="33.3"/>
		
			<rect x="188.1" y="676.8" transform="matrix(0.9147 -0.404 0.404 0.9147 -265.3807 149.4661)" class="st0" width="66.8" height="53.6"/>
		<g class="st2">
			<path class="st3" d="M215,713.2l3.5-3.3l-3.7-8.4L210,702l-1.9-4.2l23.1-1.5l2.2,5.1l-16.7,16.1L215,713.2z M218.7,701.3l2.6,5.9
				l7.1-6.7L218.7,701.3z"/>
		</g>
	</g>
	<g>
		<polygon class="st0" points="524.8,829.5 484.2,829.5 477.3,813.6 531.3,813.6 		"/>
		<rect x="487.7" y="829.5" class="st0" width="33.3" height="11"/>
		<rect x="490.5" y="840.5" class="st1" width="27.6" height="11"/>
		<rect x="487.7" y="846" class="st0" width="33.3" height="11"/>
		<rect x="477.5" y="856.9" class="st0" width="53.6" height="66.8"/>
		<g class="st2">
			<path class="st3" d="M507.6,888.8c2.7,0.8,4.1,2.5,4.1,5.4c0,1.9-0.6,3.4-1.7,4.5c-1.2,1.1-2.9,1.6-5.1,1.6h-9v-21.8h7
				c2.3,0,4.1,0.5,5.3,1.6s1.8,2.5,1.8,4.4c0,1-0.2,1.8-0.6,2.6C509.1,887.8,508.4,888.4,507.6,888.8z M503,882.3h-2.7v5.1h2.9
				c0.9,0,1.6-0.2,2.1-0.7c0.5-0.5,0.7-1.1,0.7-1.9c0-0.8-0.3-1.4-0.8-1.8C504.7,882.5,504,882.3,503,882.3z M504,896.4
				c1.1,0,2-0.3,2.5-0.8s0.8-1.2,0.8-2c0-0.8-0.3-1.5-0.8-2c-0.5-0.5-1.4-0.8-2.6-0.8h-3.7v5.5H504z"/>
		</g>
	</g>
	<g>
		<polygon class="st0" points="694.2,738.7 664,765.9 648.2,758.7 688.3,722.5 		"/>
		
			<rect x="666" y="751" transform="matrix(0.7428 -0.6695 0.6695 0.7428 -330.8848 651.6141)" class="st0" width="33.3" height="11"/>
		
			<rect x="676.2" y="759.1" transform="matrix(0.7428 -0.6695 0.6695 0.7428 -334.4304 658.6001)" class="st1" width="27.6" height="11"/>
		
			<rect x="677" y="763.2" transform="matrix(0.7428 -0.6695 0.6695 0.7428 -336.2367 662.1172)" class="st0" width="33.3" height="11"/>
		
			<rect x="691.3" y="761.6" transform="matrix(0.7413 -0.6712 0.6712 0.7413 -347.7737 687.607)" class="st0" width="53.5" height="66.7"/>
		<g class="st2">
			<path class="st3" d="M727.4,804.4c-1.2,1.1-2.4,1.9-3.8,2.4c-1.4,0.5-2.7,0.8-4.1,0.7s-2.7-0.4-4.1-1.1s-2.6-1.6-3.7-2.9
				c-1.5-1.7-2.5-3.4-2.9-5.3c-0.4-1.9-0.3-3.8,0.3-5.5c0.6-1.8,1.7-3.4,3.3-4.8c1.8-1.6,3.8-2.6,5.9-3c2.1-0.4,4.2,0,6.1,1l-2.1,4
				c-1.2-0.6-2.4-0.8-3.7-0.6c-1.3,0.2-2.4,0.8-3.5,1.7c-1.4,1.3-2.2,2.8-2.2,4.6c-0.1,1.8,0.6,3.4,2,5c1.4,1.6,3,2.4,4.8,2.5
				c1.8,0.1,3.4-0.5,4.8-1.8c1-0.9,1.7-2,2-3.3c0.3-1.2,0.2-2.5-0.2-3.7l4.1-1.7c0.8,2,0.9,4.1,0.4,6.2
				C730.4,800.9,729.2,802.7,727.4,804.4z"/>
		</g>
	</g>
	<g>
		<polygon class="st0" points="316,294.4 350.8,273.6 365,283.7 318.6,311.5 		"/>
		
			<rect x="314.5" y="271.7" transform="matrix(0.8601 -0.5101 0.5101 0.8601 -95.0658 207.7142)" class="st0" width="33.3" height="11"/>
		
			<rect x="311.3" y="264.3" transform="matrix(0.8576 -0.5143 0.5143 0.8576 -92.472 205.6178)" class="st1" width="27.6" height="11"/>
		
			<rect x="305.7" y="259.6" transform="matrix(0.8576 -0.5143 0.5143 0.8576 -90.4301 203.5235)" class="st0" width="33.3" height="11"/>
		
			<rect x="275.5" y="198.3" transform="matrix(0.8576 -0.5143 0.5143 0.8576 -76.1276 188.4526)" class="st0" width="53.6" height="66.8"/>
		<g class="st2">
			<path class="st3" d="M299.1,242.7L287.9,224l6.8-4c1.5-0.9,2.9-1.4,4.3-1.7c1.4-0.2,2.7-0.2,3.9,0.2c1.2,0.4,2.4,1,3.4,1.9
				c1.1,0.9,2,2.1,2.8,3.5c0.8,1.4,1.4,2.8,1.7,4.2c0.3,1.4,0.3,2.7,0.1,3.9c-0.2,1.3-0.8,2.4-1.6,3.6c-0.9,1.1-2,2.1-3.5,3
				L299.1,242.7z M300.9,237l2.7-1.6c1.7-1,2.6-2.3,2.9-3.8c0.2-1.5-0.2-3.2-1.4-5.1c-1.2-1.9-2.4-3.1-3.9-3.7
				c-1.4-0.5-3-0.3-4.7,0.7l-2.7,1.6L300.9,237z"/>
		</g>
	</g>
	<path class="st4" d="M504.3,973.2c-115.8,0-224.7-45.1-306.6-127s-127-190.8-127-306.6s45.1-224.7,127-306.6s190.8-127,306.6-127
		S729,151.1,810.9,233s127,190.8,127,306.6s-45.1,224.7-127,306.6S620.1,973.2,504.3,973.2z M504.3,110.8
		c-236.4,0-428.8,192.4-428.8,428.8s192.4,428.8,428.8,428.8S933.1,776,933.1,539.6S740.8,110.8,504.3,110.8L504.3,110.8z"/>
	<g>
		<rect x="73.2" y="537.2" class="st4" width="9.5" height="4.8"/>
		<path class="st4" d="M907.2,542h-18.7v-4.8h18.7V542z M869.7,542H851v-4.8h18.7V542z M832.3,542h-18.7v-4.8h18.7V542z M794.8,542
			H776v-4.8h18.7L794.8,542z M757.3,542h-18.7v-4.8h18.7V542z M719.8,542h-18.7v-4.8h18.7V542z M682.4,542h-18.7v-4.8h18.7V542z
			 M644.9,542h-18.7v-4.8h18.7V542z M607.4,542h-18.7v-4.8h18.7V542z M569.9,542h-18.7v-4.8h18.7V542z M532.4,542h-18.7v-4.8h18.7
			V542z M495,542h-18.8v-4.8H495V542z M457.5,542h-18.8v-4.8h18.7L457.5,542z M420,542h-18.7v-4.8H420V542z M382.5,542h-18.7v-4.8
			h18.7V542z M345,542h-18.7v-4.8H345V542z M307.5,542h-18.7v-4.8h18.7V542z M270,542h-18.7v-4.8H270V542z M232.6,542h-18.7v-4.8
			h18.7V542z M195.1,542h-18.7v-4.8h18.7V542z M157.6,542h-18.7v-4.8h18.7V542z M120.1,542h-18.7v-4.8h18.7L120.1,542z"/>
		<rect x="926" y="537.2" class="st4" width="9.5" height="4.8"/>
	</g>
	<g>
		<path class="st5" d="M515.5,524.5c0.1-0.7,0.4-1.3,0.7-1.8l4.5-6.2c0.4-0.5,1-0.7,1.6-0.7l23.4,2.5c0.5,0,0.9,0.5,0.8,1v0.1
			l-3.4,16.4c-0.1,0.5-0.6,0.8-1.1,0.7h-0.1l-26-7.8c-0.6-0.2-0.9-0.7-0.8-1.3L515.5,524.5z"/>
		<path class="st5" d="M516.7,560.6c0.1,0.7,0.4,1.3,0.8,1.8l4.9,6.2c0.4,0.5,1,0.7,1.6,0.7l23.1-3.3c0.5-0.1,0.9-0.5,0.8-1v-0.1
			l-3.9-16.2c-0.1-0.5-0.6-0.8-1.1-0.7h-0.1l-25.5,8.4c-0.6,0.2-0.9,0.7-0.8,1.3L516.7,560.6z"/>
		<path class="st6" d="M579,578l-36.6-9.9c-5.8-1.5-9.3-7.4-7.8-13.2c0-0.1,0-0.1,0.1-0.2c1.4-4.7,5.7-7.9,10.6-8l43.7-1.1
			c11.1-0.2,8,8.4,8.2,19.2s3.2,14.5-7.9,14.7C585.8,579.3,582.4,578.8,579,578z"/>
		<path class="st6" d="M589,533l-44.5,5.1c-6.7,0.7-10.6-3.2-11.3-9.8c-0.5-5.4,2.7-10.5,7.9-12.3l29.3-8.6
			c10.1-3.6,22.2-1.8,25.9,8c3.7,9.8,3.3,13-6.7,16.6C588.1,532.5,590.5,532.9,589,533z"/>
		<path class="st7" d="M619.8,587.2c-2-0.1-54.7-9.7-54.6-12.1l-9.5-31.4l14.8-1.9l-15.1-1.4l8.6-32c0.1-2.4,45.6-6.1,47.6-6.1
			l11.8-12.2c2,0.1,17.8,27.4,17.7,29.8l-1.5,45.4C634.5,576.8,619.8,587.2,619.8,587.2z"/>
		<path class="st8" d="M555.1,574.9c-0.1,0.3-0.1,0.6,0,0.9l-0.5-0.1h-0.1l-1.8-0.4c-0.7-0.2-1.3,0.2-1.5,0.9
			c-0.2,0.6,0.2,1.3,0.9,1.4l0,0l1,0.2c-0.6,0-1.1,0.4-1.3,1c-0.2,0.8,0.2,1.6,1,1.8l0,0l0.6,0.2c-0.6,0.3-0.8,1-0.5,1.6
			c0.1,0.3,0.4,0.5,0.7,0.6l0.8,0.3l0,0c-0.3,0.6-0.2,1.3,0.4,1.6l0,0l3.5,2c0.3,0.1,0.6,0.2,0.9,0.2l2.2-0.4
			c1.1,0.1,2.8-0.3,5.1-0.2h0.3l0.6,0.1c0.2,0,0.5,0,0.7-0.1l5.6,0.3l-0.8-7.3c0,0-3.8,0.5-5.5-0.2c-0.6-0.3-1.3-0.6-2-1
			c-1.4-1.1-2.9-2.1-4.5-3l-0.5-0.3h-0.3h-0.2h-1c-0.5,0-0.9,0-1.4-0.1c-1-0.1-2.3-0.2-2.3-0.2L555.1,574.9z"/>
		<path class="st8" d="M577.2,496.5c0,0-5.1-1.9-7.1-1.9c-0.7,0-1.7,0-2.9,0.1l-2.3-0.3c-0.1,0-0.2,0-0.4,0l-5.9,1.1l0,0
			c-0.6,0.1-1,0.7-0.8,1.3c0,0.1,0,0.2,0.1,0.2l-1.8,0.1c-0.7,0-1.3,0.7-1.3,1.4l0,0c0.1,0.8,0.8,1.3,1.5,1.2l3.8-0.3l0,0l-3,0.4
			l-2.6,0.1c-0.9,0-1.6,0.7-1.6,1.6l0,0c0,0.9,0.8,1.6,1.8,1.6l2.7-0.1h0.2l2.5-0.3l-2.4,0.6l-3.1-0.1c-0.8-0.1-1.4,0.4-1.5,1.2
			c-0.1,0.8,0.4,1.4,1.2,1.5c0.1,0,0.1,0,0.2,0l3.3,0.1c-0.1,0.2-0.1,0.3-0.2,0.5l0,0c0,0.2,0,0.3,0,0.5l0.1,0.2c0,0,1.9,0,3.4-0.2
			c0.8-0.1,1.6-0.1,2.4-0.1h0.6c0.1,0,0.3,0,0.4,0l0.4-0.1c0.3-0.1,0.7-0.2,1-0.4c0.3-0.1,0.8-0.4,1.4-0.7c0.6-0.4,1.3-0.7,2-1
			c0.3-0.1,0.7-0.2,1-0.2s0.5-0.1,0.8-0.1l3.5-0.4L577.2,496.5z"/>
		<g>
			<path class="st9" d="M565,588.9l10.6,2.3c3.2,0.6,19.3,3.7,20.6,3.8s30.5-8,30.8-11.1c0.4-2.7-0.2-5.5-1.5-7.9
				c-0.6-1-1.4-1.8-2.4-2.3c-0.9-0.6-2-0.8-3.1-0.7l-3.3,0.3l-1.8,0.2l-1,0.1l-1,0.2l-4.7,0.7c-3.3,0.5-11.2,3.5-12,3.6l-2.6,0.1
				l-1.3,0.1h-1.5c-2.1-0.1,0-0.1-2-0.2c-3.9-0.2-7.6-0.4-10.7-0.5l-10.5-0.8c-1.9-0.1-3.5,2.8-4.1,5.8S563.1,588.5,565,588.9z"/>
			<path class="st10" d="M627,583.7v0.2c-0.3,3.1,0.7,7.6,0,8.1c-3.2,2.4-29.5,3.1-30.8,3s-17.4-3.2-20.6-3.8L565,589
				c-1.9-0.4-2.2-3.7-1.5-6.7c0,0,1.2,0.2,3.3,0.5l8.8,1.3c1.8,0.3,3.8,0.5,5.9,0.7s4.3,0.5,6.6,0.8s14.1-0.2,16.4-0.5
				s2.4-0.5,4.5-0.7l5.9-0.5l5-0.2h1.1h1l1.8,0.1L627,583.7z"/>
			<g>
				<path class="st11" d="M568.9,578.4c-0.3-0.4-0.9-0.5-1.3-0.2c-0.4,0.2-0.5,0.6-0.4,1c0,0,0,0.1,0.1,0.1c0.3,0.4,0.9,0.5,1.3,0.2
					C569,579.3,569.2,578.9,568.9,578.4C569,578.5,569,578.4,568.9,578.4z"/>
				<path class="st12" d="M568.9,578.6c-0.3-0.3-0.8-0.4-1.1-0.2c-0.3,0.1-0.5,0.5-0.4,0.8c0,0,0,0.1,0.1,0.1
					c0.3,0.3,0.8,0.4,1.1,0.2C568.9,579.4,569.1,579,568.9,578.6L568.9,578.6z"/>
			</g>
		</g>
		<g>
			<path class="st9" d="M569,494l3.1-0.3l7.9-0.6c1.6-0.1,29.9-3.2,33.1-3.3l10.8-0.5c1.9-0.1,3.6,1.1,4.8,3
				c1.3,2.4,1.9,5.1,1.7,7.9c0,2.8-0.8,5.4-2.3,7.8c-1.3,1.9-3,3-4.9,2.8l-10.6-0.9c-3.2-0.3-17.1-1.9-19.1-2l-3-0.1l-3.2-0.1
				c-1,0,2,0,1-0.1l-2.9-0.1c-1.9-0.1-3.7-0.2-5.3-0.3l-7.6-0.5l-2.7-0.1c-0.9,0-1.6-0.8-2.2-2c-0.6-1.3-0.9-2.7-1.1-4.1
				C566.2,497.4,567,494.2,569,494z"/>
			<path class="st10" d="M628.5,504.3c0.1-3.1,1.6-10,0.4-12s-2.9-3.1-4.8-3l-10.8,0.5c-3.2,0.1-31.5,3.2-33.1,3.3l-7.9,0.6L569,494
				c-2.1,0.2-2.8,3.5-2.5,6.5l0.9-0.1l2.5-0.1c1.1,0,2.4-0.1,3.9-0.1h5c1.8,0,3.8,0,5.9,0h3.2c1.1,0-1.8-0.1-0.7-0.1
				c2.3-0.1,27.4,0,31.1,0C625.7,500.2,628.5,504.3,628.5,504.3z"/>
			<g>
				<path class="st11" d="M570.2,504.4c0-0.4,0.2-0.8,0.7-0.8h0.1c0.5-0.1,0.9,0.3,1,0.8c0,0.4-0.2,0.8-0.7,0.8h-0.1
					C570.8,505.1,570.3,504.8,570.2,504.4z"/>
				<path class="st12" d="M570.4,504.5c-0.1-0.4,0.3-0.7,0.7-0.7c0.4-0.1,0.8,0.2,0.9,0.6c0,0.4-0.3,0.7-0.6,0.7c0,0,0,0-0.1,0
					C570.9,505.1,570.5,504.9,570.4,504.5z"/>
			</g>
		</g>
		<path class="st10" d="M653,542.2c-0.3-15.3-4.2-31.1-10.1-40.9c-4.9-8.2-15-11.8-18.2-11.8c-5.5,0.1-2.8,8.1-2,8.7
			c3.7,3,21.2,21,19,44.7s-12.6,38.5-29.1,40.9c-0.6,0.1,7.6,9.4,12.9,8.7c2.8-0.4,13.9-3.2,18.5-12.3S653.3,556.4,653,542.2z"/>
		<polygon class="st13" points="600.5,545.6 603.5,543 603.5,542.5 603.6,542.5 603.5,540.7 603.6,539 603.5,539 603.5,538.4 
			600.5,535.9 599,538.6 578.9,536.3 575.2,538.8 575.2,540.7 575.2,542.7 578.9,545.2 599,542.8 		"/>
		<g>
			<path class="st8" d="M628.6,561.9c-4.4,0-8.9-3.4-13-5.9c-4.3-2.6-10.6-9.3-10.3-16.4c0.4-8.8,5.8-12.8,9.8-16.4
				c3.8-3.2,8.5-5,13.4-5.2c8.8,0,13.3,9.8,13.4,21.9S637.4,561.9,628.6,561.9z"/>
			<path class="st8" d="M629.5,565.6c-3.4-0.4-5.9-2.2-5.6-4.2s3.2-3.2,6.6-2.9s5.9,2.2,5.6,4.2S632.8,566,629.5,565.6z"/>
			<path class="st8" d="M629,520.9c-3.3,0.8-6.3-0.1-6.7-2.1s1.9-4.1,5.1-4.9s6.3,0.1,6.7,2.1S632.3,520.1,629,520.9z"/>
			<g>
				<path class="st14" d="M616.7,532.8c0-0.8,0.1-1.5,0.2-2.3c0.2-1.2,0.7-2.4,1.5-3.4c0.3-0.3,0.7-0.3,1,0l0,0
					c0.3,0.3,0.3,0.8,0,1.2c-0.6,0.8-0.9,1.7-1.1,2.6c-0.2,1.1-0.2,2.3-0.1,3.4c0.1,0.4-0.2,0.8-0.6,0.9c-0.4,0.1-0.8-0.2-0.8-0.6
					c0,0,0,0,0-0.1C616.6,534,616.6,533.4,616.7,532.8z"/>
				<path class="st14" d="M616.7,544.6c0-0.6,0-1.3,0.2-1.9c0.1-0.4,0.4-0.7,0.8-0.6c0,0,0,0,0.1,0c0.4,0.1,0.7,0.6,0.5,1
					c-0.2,1.2-0.2,2.5,0.1,3.7c0.2,1.1,0.6,2.2,1.2,3.1c0.2,0.4,0.2,0.9-0.2,1.2c-0.3,0.2-0.8,0.2-1-0.2l0,0
					c-0.7-1.2-1.1-2.4-1.4-3.7C616.8,546.3,616.7,545.5,616.7,544.6z"/>
			</g>
			<path class="st14" d="M629.6,560.8c-6.7-3.6-1.7-3.6-6.9-8.8c-5.7-5.6-2.5-8.1-2.1-14.1c0.3-6.2-2.8-14.3,6.7-19
				c7.5-3.7,11.8-3.7,14.9-3.7c15.4,0,22,5.9,24.7,16.6c1,4.7,0,14.9-0.3,16.3c-2.2,11.1-11.1,16.4-23,15.9
				C636.8,563.7,634.2,563.2,629.6,560.8z"/>
			<path class="st15" d="M646.9,557.5c-10.3,0-14.7-8.8-14.7-19.1s4.4-18.1,14.7-18.1s18.6,8.3,18.6,18.6S657.2,557.5,646.9,557.5z"
				/>
			<ellipse class="st8" cx="611.6" cy="538.9" rx="3.5" ry="2.5"/>
		</g>
	</g>
	<g>
		<g>
			<path class="st16" d="M478,549.2c8.4-0.3,16.3,0.6,16.4,5s-7.5,10.8-15.9,11s-15.4-3.1-15.5-7.5S469.6,549.5,478,549.2z"/>
			<path class="st17" d="M473,551.7c5.5-0.2,10.7,0.5,10.8,3.7s-4.9,8-10.4,8.1s-10.1-2.3-10.2-5.6S467.5,551.8,473,551.7z"/>
		</g>
		<g>
			<path class="st16" d="M472.6,530.9c8.2-0.3,15.8-1.7,15.6-6.1s-8-10.2-16.2-9.9s-14.7,4.1-14.6,8.5S464.4,531.2,472.6,530.9z"/>
			<path class="st17" d="M467.3,529c5.3-0.2,10.2-1.2,10.1-4.5s-5.2-7.6-10.5-7.4s-9.5,3-9.4,6.3S462,529.2,467.3,529z"/>
		</g>
		<path class="st18" d="M410.1,499.8l56.3,14c5.9,1.3,9.6,7.1,8.3,12.9c0,0.1,0,0.1,0,0.2c-1.2,4.7-5.4,8.1-10.3,8.3l-57.9,3.1
			c-11.1,0.6-20.6-7.7-21.1-18.5s8-20,19.1-20.6C406.3,499.1,408.2,499.3,410.1,499.8z"/>
		<path class="st18" d="M406.7,546.8l61.8-0.1c6.7-0.9,10.7,2.9,11.6,9.3c0.7,5.4-2.4,10.6-7.5,12.6l-56,14.3
			c-9.8,4-21.1-0.6-25.3-10.3c-3.9-9.6,0.7-20.5,10.3-24.5c0.1-0.1,0.3-0.1,0.4-0.2C403.6,547.5,405.1,547.1,406.7,546.8z"/>
		<path class="st19" d="M394.4,496.8c0,0,40.1,4,40.1,6.8l5.6,23l-6.3,16.4l8.5,16.8l-6.4,20.6c0,2.8-33.6,3.4-35.8,3.4l-34.3,6.1
			c-2.2,0-21.4-25.6-21.4-28.4l-0.9-47.5c5-13.1,15.7-27.7,17.9-27.7L394.4,496.8z"/>
		<path class="st8" d="M388.9,456.3c-0.6,0.1-1.3,0.2-1.9,0.4s-1.2,0.5-1.9,0.8l-0.9,0.5l-0.9,0.6c-0.6,0.4-1.2,0.8-1.8,1.2
			c-1.2,0.9-2.4,1.8-3.5,2.7l-2.6,2.2c-2.7,2.3-5.2,4.5-7.3,6.5c-4.2,3.9-7,6.6-7,6.6l13.3,12.9c0,0,1.9-2.1,5.2-5.5
			c1.6-1.7,3.6-3.7,5.9-6l1.7-1.7l0.9-0.8l0.2-0.2c0.3-0.4,0.6-0.7,1-1.1c0.2-0.2,0.4-0.4,0.7-0.5c0.6,0,1.1,0.2,1.6,0.6
			c0.3,0.2,0.5,0.3,0.8,0.5c0.2,0.1,0.3,0.2,0.5,0.3c0.3,0.3,0.6,0.6,1,0.9c2.5,2.5,4.9,5,7,7.3l10.3,11.2c-0.1,0.3,1.3,1.9,3,3.6
			c1.1,2.3,3.2,7.1,3.9,8c0.5,0.8,2.5,1.9,4.2,2.7l0.2,0.2l0.1,0.1l0.1,0.1l0,0l-0.1-0.1l0,0l0,0l0,0l0.2,0.2l0.4,0.5l0.9,1l1.7,1.9
			l1.1,3.2c0.2,0.6,0.8,1,1.4,0.8s1-0.8,0.8-1.4c0-0.1,0-0.1-0.1-0.2l-1.2-3.3c0-0.1-0.1-0.1-0.1-0.2v-0.1l-1.5-2.2l-0.4-0.6
			c0.2-0.1,0.3-0.2,0.5-0.4l1.3,1.4c1.2,1.3,2.6,5.4,3.1,6.9c0.2,0.6,0.8,0.9,1.4,0.7c0.5-0.1,0.8-0.6,0.8-1.1c0-0.1,0-0.2,0-0.3
			l-0.4-1.2l0.4,0.8c0.3,0.6,0.9,0.8,1.5,0.5c0.4-0.2,0.7-0.6,0.7-1.1c0-0.2,0-0.3-0.1-0.4c-0.2-0.5-2.4-5.3-3.1-6.4
			c-1-1.4-2.1-2.7-3.2-4l0.2,0.1l0.3,0.2h0.1l0.1,0.1h0.1l0.2,0.1c0.3,0.1,0.6,0.3,0.9,0.4c0.5,0.1,1.1,0.4,1.6,0.5
			c1,0.2,2,0.4,2.8,0.6s1.5,0.2,1.9,0.3l0.7,0.1c0.5,0.1,1-0.3,1.1-0.8s-0.3-1-0.8-1.1l0,0l-0.7-0.1c-0.5-0.1-1.1-0.2-1.9-0.4
			s-1.6-0.4-2.5-0.7c-0.5-0.1-0.9-0.3-1.3-0.5l-0.6-0.3l-0.1-0.1l0,0l-0.1-0.1l-0.3-0.2c-0.4-0.3-0.8-0.6-1.2-0.9
			c-0.4-0.3-0.7-0.6-1.1-1c-0.7-0.6-1.4-1.3-2-1.8s-1-1-1.4-1.3l-0.5-0.5l0,0l-0.1-0.1l-0.3-0.2l-2.5-4.4c-0.6-1-1.1-2-1.8-3
			c-0.6-1-1.3-1.9-2-2.8c-2.1-4-4.2-8.1-7.1-13c-1.7-2.8-3.5-5.4-5.4-8l-0.5-0.7c-0.2-0.3-0.4-0.5-0.7-0.8l-1.5-1.6
			c-0.5-0.6-1-1.1-1.5-1.6s-1.1-1.1-1.7-1.5l-0.9-0.8c-0.3-0.2-0.6-0.5-0.9-0.7l-1-0.6l-1-0.5C393.2,456.2,391,455.8,388.9,456.3
			L388.9,456.3z"/>
		<g>
			<path class="st20" d="M363.8,470.8c0,0-3.1,3.1-6.1,6.2s-6,6.4-6,6.4c-3.8,4.1-3.9,10.1,1.6,14.5c2.5,2,5.5,3.3,8.7,3.7
				c2.6,0.4,5.2-0.5,7.1-2.3c0,0,2.7-3,5.5-5.9s5.7-5.8,5.7-5.8C381.5,486.3,365.5,469.1,363.8,470.8z"/>
			<path class="st19" d="M353.4,498l-0.1-0.1c-5.5-4.4-5.4-10.4-1.6-14.5c0,0,3-3.2,6-6.4s6.1-6.2,6.1-6.2c1.1-0.9,4.3,2,8.8,6.7
				c0,0-5,4.9-9.8,10c-2.4,2.5-4.8,5.1-6.5,7.1S353.4,498,353.4,498z"/>
		</g>
		<path class="st8" d="M444.3,577.7c0,0-1.9,0.4-3.3,0.8c-0.7,0.2-1.6,0.4-2.3,0.5l-0.6,0.1c-0.1,0-0.2,0.1-0.4,0.1l-0.4,0.2
			c-0.3,0.2-0.6,0.3-0.9,0.6c-0.2,0.2-0.7,0.5-1.3,1s-1.1,0.8-1.5,1.2l-0.8,0.4l-0.1,0.1l-0.3,0.1l-0.8,0.3l-2.5,0.8l-2.2-0.3
			l-5.8-0.7c-6.2-0.8-12.5-1.2-18.7-1.2c-5,0-10.5-0.5-14.7-0.8l-6.9-0.6l-1.8,17.8l7.4-0.2c4.4-0.2,10.1-0.3,16.1-0.9l1.2-0.1
			l1.1-0.1l2.1-0.2c1.4-0.2,2.7-0.4,4.1-0.5l7.6-0.9c2.3-0.3,4.6-0.7,6.5-1s3.7-0.8,5-1.2c0.4,0,0.8-0.1,1.2-0.2c1,0.1,2,0.1,3,0.1
			c0.6-0.1,1.7-0.3,2.8-0.6l2.4-0.1c0.1,0,0.2,0,0.4-0.1l5.6-2.1l0,0c0.6-0.2,0.8-0.8,0.6-1.4c0-0.1-0.1-0.2-0.1-0.2l1.8-0.5
			c0.7-0.2,1.2-0.9,1-1.7l0,0c-0.2-0.7-1-1.2-1.7-1l-3.7,1l0,0l2.9-0.9l2.6-0.5c0.9-0.2,1.5-1,1.3-1.9l0,0c-0.2-0.9-1.1-1.5-2-1.3
			l-2.6,0.6h-0.1l-2.4,0.7l2.2-1l3.1-0.4c0.7-0.1,1.3-0.7,1.2-1.5l0,0c-0.1-0.8-0.8-1.3-1.6-1.2l-3.2,0.4c0.1-0.2,0.1-0.4,0.1-0.5
			h0.1h-0.1c0-0.2,0-0.4-0.1-0.5L444.3,577.7z"/>
		<path class="st20" d="M385.8,601.7l-6.3-0.2l-6.2-0.2c-3.8-0.1-6.5-4.8-6.6-11.9c-0.1-3.1,0.7-6.3,2.2-9c1.5-2.3,3.2-3.7,5.2-3.6
			l6.1,0.2l6,0.2C387.5,577.3,387.5,601.8,385.8,601.7z"/>
		<path class="st19" d="M366.6,589.3v0.2c0.1,7,2.8,11.8,6.6,11.9l6.2,0.2l6.3,0.2c1-0.1,1.3-5.5,1.4-11.9l-3.2-0.1l-7-0.2l-7-0.2
			L366.6,589.3z"/>
		<path class="st19" d="M339.7,549.2c3.9,30.8,17.4,52.7,32.7,52c7.7-0.3,3-11.6,1.9-11.8c-11.8-2.2-25.4-16.2-28.7-42.2
			s0.9-42.7,11.6-54.2c0.4-0.4-2.2-13.1-6.2-9.5C343.6,490.4,335.8,518.4,339.7,549.2z"/>
		<path class="st21" d="M354.9,517c-16.1,0-25.8,5.2-25.8,25.2s12,26.6,28,26.6c2.2,0,18.2-0.5,24.6-1.8c9.9-2,19.3-10.9,21.4-18.3
			c1-3.8,0.6-13.2-1.2-16.6c-5.8-11.2-14.4-15-24.8-15.8C370.2,515.9,356.9,517,354.9,517z"/>
		<g>
			<path class="st8" d="M364.3,518.9c5.8-0.2,11.6,3.2,16.5,6.3c5.1,3.3,12.9,9.2,12.7,16.8c-0.2,9.5-6.5,13.2-11.5,17.3
				c-4.2,3.4-10.4,6.7-15.9,6.9c-11.5,0.3-17.9-10-18.4-23S352.8,519.2,364.3,518.9z"/>
			<path class="st8" d="M360.1,515c3.6,0.3,6.4,2.2,6.2,4.3s-3.3,3.6-7,3.3s-6.4-2.2-6.2-4.3S356.4,514.7,360.1,515z"/>
			<path class="st8" d="M362.3,563.2c3.5-1,6.8-0.1,7.3,2s-1.9,4.5-5.4,5.5s-6.8,0.1-7.3-2S358.8,564.2,362.3,563.2z"/>
			<path class="st22" d="M362.5,518.4c4.3,7-4.2,6.9,1.6,12.2c6.3,5.9,8,5.6,7.8,12c-0.1,6.7-0.5,7.7-7.9,14.8
				c-2.2,2.1,2.9,6.4,1,8.1c-3.5,3.4-13.5,5.5-13.5,5.5c-16.4,0.9-29.9-6.8-30.6-18.1c-0.3-2.7,0.3-5.5,1.6-7.9
				c-0.7-1.9-1.3-3.9-1.8-5.9c-1.5-10.2,11.4-20.5,24.2-21.8C352.3,516.5,360.8,515.6,362.5,518.4z"/>
			<path class="st23" d="M379.4,558.6c-0.8,0-1.4-0.6-1.4-1.4c0-0.5,0.3-1,0.7-1.2c1.1-0.8,2-1.8,2.6-3c0.2-0.4,1-2.9,1.6-5.1
				c0.2-0.8,0.9-1.3,1.7-1.1c0.8,0.2,1.3,0.9,1.1,1.7c0,0.1,0,0.1-0.1,0.2c-0.4,1.4-1.5,4.8-1.8,5.5c-0.8,1.7-2.1,3.2-3.8,4.3
				C379.9,558.5,379.6,558.6,379.4,558.6z"/>
			<path class="st23" d="M383.5,539.5c-0.7,0-1.3-0.5-1.4-1.1c-0.4-1.9-0.9-4.2-1-4.5c-0.8-1.5-1.9-2.7-3.2-3.6
				c-0.7-0.5-0.8-1.3-0.4-2s1.3-0.8,2-0.4l0,0c1.8,1.3,3.3,3,4.3,5c0.2,0.5,0.8,3.3,1.2,5c0.2,0.8-0.3,1.5-1.1,1.7
				C383.7,539.5,383.6,539.5,383.5,539.5z"/>
			<path class="st24" d="M335.3,525.6c-11.1,3.1-12.5,9.7-11.6,14.7c0.2,2.6,0.3,5.2,0.3,7.8c-0.2,8.3,12.2,18.7,23.9,15.4
				c18-5,18.6-21.2,11.5-31.4C358.5,530.9,349.8,521.5,335.3,525.6z"/>
		</g>
	</g>
	<g>
		<line class="st25" x1="688.3" y1="722.5" x2="670.7" y2="552.7"/>
		
			<rect x="678.7" y="552.2" transform="matrix(0.9947 -0.1031 0.1031 0.9947 -62.1191 73.4523)" class="st4" width="1.6" height="170.8"/>
	</g>
	<g>
		<line class="st25" x1="648.2" y1="758.7" x2="272.2" y2="551.2"/>
		
			<rect x="459.4" y="440.3" transform="matrix(0.4831 -0.8755 0.8755 0.4831 -335.6371 741.5034)" class="st4" width="1.6" height="429.5"/>
	</g>
	<g>
		<line class="st25" x1="477.3" y1="813.6" x2="302.7" y2="548.2"/>
		
			<rect x="389.2" y="522" transform="matrix(0.8353 -0.5498 0.5498 0.8353 -310.0815 326.5654)" class="st4" width="1.6" height="317.7"/>
	</g>
	<g>
		<line class="st25" x1="531.3" y1="813.6" x2="701.3" y2="548.2"/>
		
			<rect x="458.7" y="680" transform="matrix(0.5392 -0.8422 0.8422 0.5392 -289.3965 832.7446)" class="st4" width="315.1" height="1.6"/>
	</g>
	<g>
		<line class="st25" x1="285.9" y1="643.1" x2="329" y2="569.3"/>
		
			<rect x="264.8" y="605.4" transform="matrix(0.5041 -0.8637 0.8637 0.5041 -371.0536 566.2227)" class="st4" width="85.5" height="1.6"/>
	</g>
	<g>
		<line class="st25" x1="307.5" y1="697.8" x2="839.8" y2="561.9"/>
		
			<rect x="298.9" y="629" transform="matrix(0.969 -0.2472 0.2472 0.969 -137.8786 161.3557)" class="st4" width="549.5" height="1.6"/>
	</g>
	<g>
		<line class="st25" x1="316" y1="317.7" x2="302.7" y2="524.5"/>
		
			<rect x="205.7" y="420.3" transform="matrix(6.435990e-02 -0.9979 0.9979 6.435990e-02 -130.811 702.6475)" class="st4" width="207.3" height="1.6"/>
	</g>
	<g>
		<line class="st25" x1="372.5" y1="292.5" x2="730" y2="531.1"/>
		
			<rect x="550.5" y="196.9" transform="matrix(0.5551 -0.8318 0.8318 0.5551 -97.2421 641.736)" class="st4" width="1.6" height="429.8"/>
	</g>
</g>
<g>
	<g>
		<g>
			<g>
				<path class="st26" d="M1208.6,334.4c4.2-1.6,5.7,3.2,5.7,3.2s3.1,7.1,3.6,9.9s-1.6,8.8-3,10c0,0-3.6,2.7-4.4,3.5
					c0,0-1.6,0.1-0.7-2.7c0,0-2.8,1.7-2.6-0.9c-1.2-1-2-2.4-2.1-4c0.3-1.7,0.8-3.4,1.5-5c0,0-2.1-5-1.1-8.2
					C1204.9,337.8,1206.3,335.3,1208.6,334.4z"/>
				<path class="st27" d="M1209,340.4c0.5,2.6,1.1,5.2,1.8,7.8c0,0-2.4,3.8-0.9,5.4c1.6-1.3,3.1-2.8,4.4-4.5c0,0-1.3,5-1.6,5.8
					s-2,2-3,3.5c0,0-1.9-0.6-2.1-1.6c0,0-1.7-1.8-1.7-3.1c0.2-1.7,0.6-3.3,1.1-4.9c0,0-2.7-4.9-1.5-8.4
					C1205.8,340,1208.9,340.5,1209,340.4z"/>
			</g>
			<path class="st26" d="M1202.5,282.5c-4.5,0.5-7.8,1-12.6,4.4c0.3,5,1.6,12,2.2,15.7c0,0,3.4,19.5,13.4,37.5c0,0,5.2-0.5,8.3-3.8
				c0,0-5.7-29.2-8-36.6C1204.4,294.1,1203.3,288.3,1202.5,282.5z"/>
			<path class="st20" d="M1200.8,262.2c-2.6-12.6-7.4-14.6-7.4-14.6l-4,24c0,0,0.2,8.5,0.8,17.3c4.8-1.2,9.5-2.8,14-4.7
				C1203.2,276.6,1202,268,1200.8,262.2z"/>
		</g>
		<ellipse class="st28" cx="1168.6" cy="483.5" rx="57.5" ry="6.2"/>
		<g>
			<path class="st16" d="M1151,480.2h-21c0,0-1.2-5.6,3.2-12.9l14.1,0.2C1149.8,471.2,1151.1,475.7,1151,480.2z"/>
			<rect x="1130.1" y="480.2" class="st29" width="20.9" height="3.3"/>
			<path class="st30" d="M1132.7,474.4c0,1.4,3.5,2.6,7.9,2.6s7.9-1.2,7.9-2.6s-3.5-2.6-7.9-2.6S1132.7,472.9,1132.7,474.4z"/>
		</g>
		<g>
			<path class="st16" d="M1171.8,466c0,0-1.5,8.3-0.3,14.2h39.2c0,0,1.4-8.5-15.7-8.5l-11-7.4L1171.8,466z"/>
			<path class="st29" d="M1171.5,483.5h12.8l0.2-2.3c4.2,1.5,8.6,2.2,13,2.2c3.6,0,13.2,0.1,13.2,0.1v-3.4h-39.2V483.5z"/>
			<path class="st30" d="M1196.1,471.7c0,0,0.6,6.1,14.2,5.8C1210.3,477.5,1208.4,472,1196.1,471.7z"/>
		</g>
		<g>
			<path class="st18" d="M1191.3,324.4l0.7,142.9c0,0-10.7,5.4-20.8,1.2l-3.8-113.8l-3-0.1l-14.6,113.9c0,0-7.7,3.5-19.1-0.7
				l11.5-143.4H1191.3z"/>
			<path class="st31" d="M1191.8,414.8l0.3,52.5c0,0-10.7,5.4-20.8,1.2l-2.4-70.3C1174.6,420.7,1186.8,417.3,1191.8,414.8z"/>
			<path class="st31" d="M1136,406.5c7.6,20.5,17.5,7.3,21.8,0l-7.9,62c0,0-7.7,3.5-19.1-0.7L1136,406.5z"/>
			<path class="st16" d="M1192,325.3c0,0-18,5.2-49.9,0l-0.2,6.3c0,0,26.3,4.9,50.1,0.1V325.3z"/>
			<rect x="1163.4" y="327.3" class="st32" width="9.2" height="7"/>
			
				<rect x="1178.6" y="326.6" transform="matrix(0.999 -4.466565e-02 4.466565e-02 0.999 -13.5735 53.0214)" class="st33" width="2.2" height="7.3"/>
			
				<rect x="1150.3" y="329" transform="matrix(6.801424e-02 -0.9977 0.9977 6.801424e-02 746.1819 1458.9033)" class="st33" width="7.3" height="2.2"/>
		</g>
		<g>
			<path class="st19" d="M1133.4,248.4c6-2.5,12.3-4.4,18.6-5.8c11.1-1.9,14.4-1.6,23,0.2c4.8,0.7,13.6,2.7,18.3,4.9
				c0,0,1.2,26.5,0,77.7c0,0-18.4,6.5-52.4,0c0,0-0.4-29.5-4.8-47.4C1136.2,277.9,1134.8,259.6,1133.4,248.4z"/>
			<path class="st31" d="M1171.2,256.7l-6-7.2l-4.3,8.6c0,0-9.4-5.7-10.7-15.1c0.6-0.1,1.2-0.3,1.9-0.4c11.1-1.9,14.4-1.6,23,0.2
				l1.1,0.2C1176.2,242.9,1177.1,248.9,1171.2,256.7z"/>
			<g>
				<path class="st26" d="M1170.6,238.9l0.2,9.1l-15,0.4l-0.3-11.8C1160.3,238.7,1165.5,239.5,1170.6,238.9z"/>
				<path class="st27" d="M1155.5,236.6l-0.2-9.1l15-0.4l0.3,11.8C1165.4,239.5,1160.2,238.7,1155.5,236.6z"/>
			</g>
			<path class="st19" d="M1170.6,238.9c0,0-0.7,6.2-5.5,8.3c0,0-8.9-2.5-9.6-8.3l-5.1,4c0,0,3.3,9.8,10.2,12.4l4.3-6.6l5.9,5.4
				c0,0,5.7-6.9,5.2-11.2L1170.6,238.9z"/>
		</g>
		<g>
			<path class="st34" d="M1143.7,197c-2.6-3.9-0.2-9.1,0.6-10.2c3.3-5.4,11.9-6.7,17.6-6.6c3.5,0.2,7,0.2,10.5,0
				c1,0.1,2-0.3,2.6-1.1c0.3-0.8,0.2-1.6-0.2-2.4c-0.1-0.2-0.1-0.4-0.2-0.6c1.7,0.6,3.1,2,3.5,3.8c0.4-0.8,0.5-1.7,0.5-2.6
				c8.3,5.5,3.7,16.8,3.7,16.8c0.8,4.6-0.4,11.4-0.4,11.4l-17.1,15l-20.2-8.4C1143.8,207.1,1143.6,202,1143.7,197z"/>
			<path class="st35" d="M1171.5,186.3c-13.9,0.6-14.3,0.7-18,2.4c0,0,2.5-3.9,12.4-6.2c4.3-1,6.3-1.8,7.3-2.5
				c0.7-0.1,1.2-0.4,1.6-1c0.3-0.8,0.2-1.6-0.2-2.4c-0.1-0.2-0.1-0.4-0.2-0.6c1.7,0.6,3.1,2,3.5,3.8c0.4-0.8,0.5-1.7,0.5-2.6
				c0.7,0.4,1.3,1,1.9,1.5C1181.2,181.6,1180.8,185.9,1171.5,186.3z"/>
			<path class="st36" d="M1182.1,181.1c3.1,5.7,0.1,12.9,0.1,12.9c0.8,4.6-0.4,11.4-0.4,11.4l-17.1,15l-20.2-8.4
				c-0.6-5-0.8-10-0.7-15.1c8.9-9.2,29.8-6.4,35-7.8C1182.3,188.2,1182.3,183.7,1182.1,181.1z"/>
			<path class="st37" d="M1178,192.9c1.4,0.5,2.8,0.9,4.2,1.1c0.8,4.6-0.4,11.4-0.4,11.4l-17.1,15l-20.2-8.4c-0.6-5-0.8-10-0.7-15.1
				c4.7-3.5,11-4.1,11-4.1S1176.7,192.3,1178,192.9z"/>
			<path class="st26" d="M1146.4,210.6l2.6,3c0.5-1.2,2.2-6.6,2.1-7.8c-1.2-11.5,4-13,4-13c12.8-2.3,18.4-1.5,22.7,0
				c3.6,1.1,2.2,8.9,4,12.7c0.1,6.4,0,18.4-4.2,24.6c-1.9,2.8-4.2,5.1-8.2,5.7c-17.3,2.7-21.7-14.2-21.7-14.2s-5.4,1.4-6.5-6.5
				C1140.2,208.4,1146.4,210.6,1146.4,210.6z"/>
			<path class="st27" d="M1153.7,193.6c0.4-0.4,0.9-0.7,1.4-0.9c12.8-2.3,18.4-1.5,22.7,0c0.4,0.1,0.8,0.4,1.1,0.6
				C1170.5,192.2,1162,192.3,1153.7,193.6z"/>
			<path class="st38" d="M1167,221.1c3.3,1.4,5.1-0.2,5.3-1.8c0.1-1-0.5-2-1.5-2.3c-2-0.8-3.5-3.9-3.5-4l0,0
				c0.3,2.1,1.5,3.9,3.3,4.9c0.6,0.3,0.9,0.7,0.9,1.2C1171.4,220,1170.1,221.3,1167,221.1L1167,221.1z"/>
			<path class="st34" d="M1179.1,205l0.2-1c-2.5-0.6-5.1-0.8-7.7-0.6v1.6C1174.1,204.7,1176.6,204.7,1179.1,205z"/>
			<path class="st34" d="M1155.4,205.9c2.7-1,7.7-1.2,7.8-1.2l-0.3-1.4c-0.2,0-4.7,0.2-7.8,1.8L1155.4,205.9z"/>
			<path class="st27" d="M1149,219.5c1.5,4.3,6.9,14.8,18.7,14.2c6.4-0.4,9.6-4.6,11.7-7.5c-0.5,1.3-1.1,2.6-1.9,3.8
				c-1.9,2.8-4.2,5.1-8.2,5.7c-17.3,2.7-21.7-14.2-21.7-14.2s-4.2,1.1-6-4.1C1144.9,222.8,1149,219.5,1149,219.5z"/>
			<g>
				<path class="st39" d="M1161.2,223.4c4,0.7,8.1,0.7,12.1,0c0,0-1,5.4-6.1,5.4C1164.2,228.8,1161.6,226.5,1161.2,223.4z"/>
				<path class="st3" d="M1167.4,226c3.9,0,5-1.6,5.5-2.5c-3.8,0.7-7.6,0.7-11.4,0C1161.8,224.5,1163.8,226,1167.4,226z"/>
			</g>
			<path class="st40" d="M1173.4,212.2c0-1.5,0.9-2.8,2-2.8s2,1.2,2,2.8s-0.9,2.8-2,2.8S1173.4,213.7,1173.4,212.2z"/>
			<path class="st40" d="M1157.3,212.2c0-1.5,0.9-2.8,2-2.8s2,1.2,2,2.8s-0.9,2.8-2,2.8S1157.3,213.7,1157.3,212.2z"/>
			<g>
				<path class="st41" d="M1151.3,206.9c-2.6,0.4-5.1,1.6-7.1,3.4c0.8-0.1,1.5,0.1,2.2,0.4c1.6-0.7,3.2-1.3,4.8-1.7
					C1151.2,208.9,1152.3,207.5,1151.3,206.9z"/>
				<g>
					
						<linearGradient id="SVGID_1_" gradientUnits="userSpaceOnUse" x1="-304.1555" y1="215.62" x2="-304.1555" y2="201.36" gradientTransform="matrix(-1 0 0 1 872.07 0)">
						<stop  offset="0" style="stop-color:#FFFFFF"/>
						<stop  offset="1" style="stop-color:#FFFFFF"/>
					</linearGradient>
					<path class="st42" d="M1182.8,207.5c0,0-9.5-0.2-13.2,1.6c0,0,0.8,7.4,4,8.3S1183.5,218,1182.8,207.5z"/>
				</g>
				<g>
					
						<linearGradient id="SVGID_2_" gradientUnits="userSpaceOnUse" x1="-286.6045" y1="215.62" x2="-286.6045" y2="201.36" gradientTransform="matrix(-1 0 0 1 872.07 0)">
						<stop  offset="0" style="stop-color:#FFFFFF"/>
						<stop  offset="1" style="stop-color:#FFFFFF"/>
					</linearGradient>
					<path class="st43" d="M1152.1,207.5c0,0,9.5-0.2,13.2,1.6c0,0-0.8,7.4-4,8.3S1151.4,218,1152.1,207.5z"/>
				</g>
				<path class="st41" d="M1156,217.7c1.3,0.1,2.7,0.2,3.8,0.2l0,0c1.6,0,2.9-0.2,3.8-1.3c1.5-1.7,2.2-4.9,2.4-6.6
					c1-0.2,2.1-0.2,3.1,0c0.2,1.7,0.9,4.9,2.4,6.6c0.9,1.1,2.2,1.3,3.8,1.3l0,0c1.1,0,2.4-0.1,3.8-0.2c5.1-0.4,4.7-9.8,4.7-10.2
					v-0.7h-0.7c-0.9-0.1-1.8-0.1-2.7-0.1c-3.6-0.1-7.3,0.4-10.8,1.4h-0.1c-1.1-0.2-2.3-0.2-3.5,0.1l-0.3-0.1
					c-3.5-1-7.2-1.4-10.8-1.4c-0.9,0-1.8,0-2.7,0.1h-0.7v0.7C1151.2,207.9,1150.9,217.3,1156,217.7z M1170.6,209.4
					c3.2-0.8,6.4-1.1,9.7-1.1c0.6,0,1.2,0,1.9,0c0,2.6-0.6,7.6-3.3,7.9c-1.8,0.2-2.8,0.2-3.6,0.2c-1.6,0-2.2-0.3-2.6-0.7
					C1171.3,214.2,1170.7,211,1170.6,209.4L1170.6,209.4z M1152.9,208.3c0.6,0,1.3,0,1.9,0c3.3,0,6.5,0.3,9.7,1.1
					c-0.2,1.7-0.8,4.8-2.1,6.3c-0.4,0.5-1,0.7-2.6,0.7c-0.8,0-1.9-0.1-3.6-0.2C1153.4,216,1152.8,210.9,1152.9,208.3L1152.9,208.3z"
					/>
			</g>
		</g>
		<g>
			<path class="st44" d="M1188.3,311.5h-1.9c-4,0-7.2-3.8-7.2-8.4s3.2-8.5,7.2-8.5h1.9v2.3h-1.9c-2.7,0-4.9,2.7-4.9,6.1
				s2.2,6.1,4.9,6.1h1.9V311.5z"/>
			<rect x="1186.2" y="293.7" class="st45" width="14.6" height="18.8"/>
		</g>
		<path class="st26" d="M1179.5,299.1c0.5-0.5,0.7-1.3,0.5-2c-16.4,1.1-13.8,12.3-13.8,12.3c1.7,6.6,8.3,5.3,13.6,3.8
			s3.1-9.6,3.1-9.6C1186.8,299.8,1183,299.1,1179.5,299.1z"/>
		<path class="st26" d="M1168,302.1l-24.8-5l-1.1-11.8c-8.7-1.5-12.2-1.7-16.4,0.7c0.4,5.4,1.6,13.7,2.9,20.6c0,0,0.2,10.5,39.4,5.9
			C1168,312.5,1171.2,304.9,1168,302.1z"/>
		<path class="st46" d="M1143.2,288.9l-0.3-15.1c0,0,0.9-21-9.5-25.4c0,0-13.7,8-10,41.6C1127.1,290.7,1136.9,291.2,1143.2,288.9z"
			/>
	</g>
	<g>
		<ellipse class="st28" cx="1274.4" cy="458" rx="50.5" ry="5.5"/>
		<path class="st7" d="M1252.7,250.9c0,0-9.1,2.4-26.3,33.5c0,0-7.2,12.7,22.5,34.5c0,0,4.1-3,4.2-9.4l-12.6-18.6l11.2-11.9
			C1251.7,279,1258.4,259.1,1252.7,250.9z"/>
		<g>
			<path class="st47" d="M1289.9,455.1h18.3c0,0,1.1-4.9-2.8-11.3l-12.4,0.1C1290.9,447.2,1289.8,451.1,1289.9,455.1z"/>
			<rect x="1289.7" y="455.1" class="st48" width="18.3" height="2.9"/>
			<path class="st49" d="M1306,450c0,1.2-3.1,2.3-6.9,2.3s-6.9-1-6.9-2.3s3.1-2.3,6.9-2.3S1306,448.7,1306,450z"/>
		</g>
		<g>
			<path class="st47" d="M1271.6,442.6c0,0,1.4,7.3,0.3,12.4h-34.5c0,0-1.2-7.5,13.8-7.5l9.6-6.5L1271.6,442.6z"/>
			<path class="st48" d="M1271.7,458h-11.4l-0.1-2c-3.6,1.3-7.5,2-11.4,1.9c-3.2,0-11.5,0.1-11.5,0.1v-3h34.4V458z"/>
			<path class="st49" d="M1250.3,447.6c0,0-0.5,5.3-12.4,5.1C1237.9,452.7,1239.5,447.9,1250.3,447.6z"/>
		</g>
		<g>
			<path class="st50" d="M1254.5,318.3l-0.7,125.5c0,0,9.4,4.7,18.2,1l3.4-99.9l2.6-0.1l12.8,100c0,0,6.8,3,16.7-0.6l-10.1-125.8
				L1254.5,318.3L1254.5,318.3z"/>
			<path class="st51" d="M1254.1,397.7l-0.2,46.1c0,0,9.4,4.7,18.2,1l2.1-61.7C1269.2,402.8,1258.4,399.8,1254.1,397.7z"/>
			<path class="st51" d="M1303.1,390.4c-6.6,18-15.4,6.4-19.2,0l6.9,54.4c0,0,6.8,3.1,16.7-0.6L1303.1,390.4z"/>
			<path class="st47" d="M1254,319.1c0,0,15.7,4.6,43.8,0l0.2,5.5c0,0-23,4.3-44,0.1V319.1z"/>
			<rect x="1271.1" y="320.9" class="st52" width="8.1" height="6.1"/>
			
				<rect x="1261.7" y="322.7" transform="matrix(4.466561e-02 -0.999 0.999 4.466561e-02 885.0403 1572.7974)" class="st53" width="6.4" height="1.9"/>
			
				<rect x="1286.3" y="320" transform="matrix(0.9977 -6.836085e-02 6.836085e-02 0.9977 -19.0837 88.7568)" class="st53" width="1.9" height="6.4"/>
		</g>
		<g>
			<path class="st10" d="M1305.3,251.6c-5.3-2.2-10.8-3.9-16.3-5.1c-9.8-1.7-12.7-1.4-20.2,0.2c-4.2,0.7-11.9,2.3-16,4.3
				c0,0-2.5,11,0,68.2c0,0,16.2,5.7,46,0c0,0,0.3-25.9,4.2-41.6C1303,277.5,1304.1,261.4,1305.3,251.6z"/>
			<path class="st9" d="M1272.2,258.9l2.4-1.5l1.6,2.1l-6.2,46.4l4.2,4.8l5.7-7.1l-0.8-43l2-1.9l1,1.2c0,0,7.4-4.8,8.5-13.1
				l-1.6-0.4c-9.8-1.7-12.7-1.4-20.2,0.2l-1,0.2C1267.7,246.8,1267,252,1272.2,258.9z"/>
			<g>
				<path class="st26" d="M1272.7,243.3l-0.2,8l13.2,0.4l0.3-10.4C1281.8,243.1,1277.2,243.8,1272.7,243.3z"/>
				<path class="st27" d="M1286,241.3l0.2-8l-13.2-0.4l-0.3,10.4C1277.3,243.8,1281.8,243.1,1286,241.3z"/>
			</g>
			<path class="st13" d="M1272.2,255.2l2.8,4.6c-2,6.1-3.4,12.5-4.2,18.9c-0.9,8.2-1.4,16.4-1.4,24.6l4.5,5.1l4.4-5.2L1278,260
				l3.9-3.9l-4.3-5.6L1272.2,255.2z"/>
			<path class="st10" d="M1272.7,243.3c0,0,0.6,5.4,4.8,7.3c0,0,7.8-2.2,8.4-7.3l4.4,3.5c0,0-2.9,8.6-9,10.8l-3.8-5.8l-5.2,4.8
				c0,0-5-6.1-4.6-9.8L1272.7,243.3z"/>
		</g>
		<g>
			<g>
				<path class="st54" d="M1300.8,205.9c-0.7-1.7-1.3-2.9-1.7-3.8c-0.9-2.2-5.3-6.9-16-11.7c-15.5-7-18.3,3.5-18.3,3.5
					c0.2-1.3,0.6-2.5,1.1-3.7c-5.4,3.6-2.1,24.2-2.1,24.2c15.3,10.5,32.6,6.8,32.6,6.8c0.8-4.3,1.9-10.2,2.5-14
					c0.7,0.6,1.4,1.2,1.9,1.9c-0.3-1.4-0.7-2.8-1.2-4.1L1300.8,205.9z"/>
				<path class="st55" d="M1287.9,197.5c-5.8-4.2-13.6-7-19-8.5c-2,1-3.5,2.7-4.2,4.9c0.2-1.3,0.6-2.5,1.1-3.7
					c-1.4,0.9-2.2,3-2.7,5.6C1277.7,193.8,1287.9,197.5,1287.9,197.5z"/>
				<path class="st55" d="M1276.5,207.6l-11.5-2c-0.7,0.1-1.5,0.3-2.2,0.5c0.3,4.6,0.9,8.3,0.9,8.3c15.3,10.5,32.6,6.8,32.6,6.8
					c0.8-3.8,1.7-8.9,2.3-12.7c-2.5-1.6-9-2.6-9-2.6L1276.5,207.6z"/>
				<path class="st56" d="M1268.8,203.8c0,0-3.5-14.1,8-14.8C1276.8,189,1268,190.1,1268.8,203.8z"/>
				<path class="st56" d="M1272.1,203.3c0,0,1.2-10.3,7.9-12.7C1276.3,194,1273.5,198.4,1272.1,203.3z"/>
				<path class="st56" d="M1276.5,201.9c0,0,3.2-8.3,14.6-5.8C1291.1,196.1,1282,195.3,1276.5,201.9z"/>
				<path class="st56" d="M1282.1,202.5c0,0,5.2-7.2,15.6-2C1297.7,200.5,1289,197.5,1282.1,202.5z"/>
			</g>
			<g>
				<path class="st26" d="M1294.8,218.4l-2.1,1.8c-0.4-1-0.8-2.1-1.1-3.2c-1-3.6-1.6-7.3-2-11c-8.2-1.1-16.5-1.2-24.7-0.2
					c0.2,2.1-1.3,8.7-1.3,8.7c0,5.7-0.1,15.3,3.8,21c1.6,2.4,3.7,4.4,7.2,5c15.2,2.4,19-12.4,19-12.4s4.8,1.3,5.7-5.7
					C1300.3,216.4,1294.8,218.4,1294.8,218.4z"/>
				<path class="st27" d="M1292.6,226.2c-1.3,3.8-6.1,13-16.4,12.4c-5.6-0.3-8.4-4-10.3-6.6c0.4,1.2,1,2.3,1.7,3.3
					c1.6,2.4,3.7,4.4,7.2,5c15.2,2.4,19-12.4,19-12.4s3.6,1,5.2-3.6C1296.2,229,1292.6,226.2,1292.6,226.2z"/>
			</g>
			<path class="st40" d="M1272.1,220.2c0,1.3-0.8,2.3-1.8,2.2c-1.1-0.3-1.9-1.4-1.7-2.5c0-1.3,0.8-2.3,1.8-2.2
				C1271.5,218,1272.2,219,1272.1,220.2z"/>
			<path class="st40" d="M1285.3,219.8c0,1.3-0.8,2.3-1.8,2.2c-1.1-0.3-1.9-1.4-1.7-2.5c0-1.3,0.8-2.3,1.8-2.2
				C1284.7,217.6,1285.4,218.7,1285.3,219.8z"/>
			<path class="st38" d="M1276.8,227.6c-2.9,1.2-4.5-0.2-4.6-1.6c-0.1-0.9,0.5-1.7,1.3-2.1c1.8-0.7,3-3.4,3.1-3.5l0,0
				c-0.2,1.8-1.3,3.4-2.9,4.3c-0.5,0.3-0.8,0.6-0.8,1C1272.9,226.6,1274,227.7,1276.8,227.6L1276.8,227.6z"/>
			<path class="st54" d="M1266.1,213.5l-0.1-0.9c2.2-0.5,4.5-0.7,6.8-0.5v1.4C1270.5,213.2,1268.3,213.2,1266.1,213.5z"/>
			<path class="st54" d="M1287.6,213.9c-2.2-0.6-4.5-1-6.8-1.1l0.3-1.3c2.4,0.1,4.7,0.6,6.8,1.6L1287.6,213.9z"/>
			<path class="st3" d="M1281.8,229.6c-3.5,0.6-7.1,0.6-10.6,0c0,0,0.9,4.7,5.3,4.7C1279.2,234.3,1281.5,232.3,1281.8,229.6z"/>
		</g>
		<path class="st26" d="M1304.1,312.3l-2.9-2l-2.2,0.4c-2-0.7-3-2-4-2.2c-0.9-0.3-1.8-0.7-2.6-1.2c-0.9,1.4,0.9,3,0.9,3l-0.4-0.1
			l-1.1-0.2c-0.4-0.1-0.9-0.2-1.3-0.3l-1.3-0.3c-0.3-0.1-0.7-0.1-1-0.1c-0.4,0-0.7,0-1.1,0.1s-2.7,0.9-3.1,1l-0.6,0.1
			c-0.2,0.4-0.2,0.9,0,1.3c0.4,0.7,1.4,0.7,2,0.6c0.4-0.1,0.9-0.2,1.3-0.4c0.2-0.2,0.5-0.2,0.8-0.1s0.7,0.1,1,0.2l2.1,0.5l0.5,0.1
			c0,0-3.4,0.6-4.5,0.9c-1.1,0.7-2.1,1.5-3.1,2.4c-1.6,1.6,0.9,2.2,0.9,2.2c-0.2,0.2-0.3,0.4-0.3,0.6s0.1,0.3,0.2,0.4
			c0.2,0.2,0.4,0.3,0.7,0.4c0.5,0.2,0.9,0.2,1.4,0.1l0.4-0.1l0.4-0.2l0.5-0.2c0.5-0.3,0.9-0.5,1.4-0.9c0.1,0,0.2-0.2,0.2-0.2
			l2.7-0.2c-0.9,0.5-1.8,2.1-3.1,2.9c-0.2,0.1-0.4,0.3-0.5,0.4c-0.2,0.2-0.3,0.4-0.3,0.6s0.2,0.3,0.4,0.4c0.5,0.2,1.1,0.2,1.6,0.1
			c0.3-0.1,0.6-0.2,0.8-0.3c0.2-0.1,0.4-0.2,0.6-0.4c0.1-0.1,0.2-0.1,0.2-0.2c1.6-1.8,3.4-2.7,5.8-1.5c3.3,1.7,6-3.3,6-3.3
			L1304.1,312.3z"/>
		<path class="st10" d="M1305.3,251.6c0,0,6.2,0.4,22.8,31.9c0,0,6.9,12.9-23.2,34c-3.5-1.2-5.9-4.5-5.9-8.2l14.9-19.6l-11-12.1
			C1302.9,277.5,1299.5,259.6,1305.3,251.6z"/>
		<path class="st26" d="M1263.2,313.3c0,0-6.5-3.6-6.6-3.7l4.5,0.5c0.8,0.2,1.6-0.2,2-0.9c0.3-0.3,0.4-0.7,0.3-1.1l-8.3-1.6
			c-0.9,0-1.8,0.5-2.2,1.3c0,0.1-0.8-0.9-4.2,8.3c-1,2.7,2,4.1,2,4.1c2.5,1.2,3.5-0.1,3.9-1l2.5,1.5c1,0.5,1.4,0.5,1.8,0.4
			s0.9-0.4,1.2-0.7l-4.5-4.2c0-0.1,0.1-0.3,0.2-0.4l3.4,2.1c0.7,0.5,1.6,0.6,2.3,0.3c0.4-0.2,0.7-0.5,1-0.9l-4-3.3l2.1,1
			c0.7,0.2,1.4,0,1.8-0.5C1262.9,314.1,1263.1,313.7,1263.2,313.3z"/>
	</g>
	<g>
		<ellipse class="st28" cx="1705.9" cy="475.3" rx="48.6" ry="5.3"/>
		<g>
			<path class="st26" d="M1622.5,288.6c0.2-0.7,1-1.1,1.8-0.9l-2.4-0.5c-0.8-0.2-1.4-0.7-1.3-1.5c0.2-0.7,1-1.2,1.7-1c0,0,0,0,0.1,0
				l-2.1-0.4c-0.8-0.1-1.3-0.8-1.3-1.5c0.1-0.8,0.8-1.3,1.5-1.3c0.1,0,0.2,0,0.2,0l1.8,0.3c-0.8-0.1-1.3-0.8-1.3-1.5
				c0.1-0.8,0.8-1.3,1.5-1.3c0.1,0,0.2,0,0.2,0l11.4,2.1l-2.1-3.2c-0.5-0.7-0.4-1.7,0.3-2.2l0,0l0,0c0.8-0.4,1.8-0.1,2.2,0.7
				l4.9,5.7c1.6,1.5,3.2,3.3,2.6,6.1c-0.5,2.8-3.3,4.7-6.1,4.1l0,0l-2.7-0.5l-2-0.4l-7.8-1.5C1623,290.1,1622.4,289.4,1622.5,288.6
				L1622.5,288.6z"/>
			<path class="st7" d="M1684.3,301.1c0,0-9.9,13.2-17.2,15.5c0,0-9.2,3.9-29.8-22.6c0,0,0.3-5.2,6.9-7.8l20.5,14.6
				c16.9-25,20.3-25.1,20.3-25.1S1688.8,290.8,1684.3,301.1z"/>
		</g>
		<g>
			<path class="st26" d="M1795.7,289.2c-0.2-0.7-1-1.1-1.8-0.9l2.4-0.5c0.8-0.2,1.4-0.7,1.3-1.5c-0.2-0.7-1-1.2-1.7-1c0,0,0,0-0.1,0
				l2.1-0.4c0.8-0.1,1.3-0.7,1.3-1.5c-0.1-0.8-0.7-1.3-1.5-1.3c-0.1,0-0.2,0-0.3,0l-1.8,0.4c0.8,0,1.4-0.7,1.3-1.5s-0.7-1.4-1.5-1.3
				c-0.1,0-0.2,0-0.3,0.1l-11.4,2.1l2.1-3.2c0.5-0.7,0.4-1.7-0.3-2.2l0,0l0,0c-0.8-0.4-1.8-0.1-2.2,0.7l-4.9,5.7
				c-1.6,1.5-3.2,3.3-2.6,6.1c0.5,2.8,3.3,4.7,6.1,4.1c0,0,0,0,0.1,0l2.7-0.5l2-0.4l7.8-1.5C1795.2,290.7,1795.8,290,1795.7,289.2z"
				/>
			<path class="st10" d="M1733.5,300.6c0,0,10.4,14.4,17.6,16.7c0,0,9.2,3.9,29.8-22.6c0,0-0.3-5.2-6.9-7.8l-20.5,14.6
				c-16.9-25-17.8-25-17.8-25S1729,290.2,1733.5,300.6z"/>
		</g>
		<g>
			<path class="st47" d="M1720.8,472.7h17.7c0,0,1-4.8-2.7-11l-11.9,0.2C1721.9,465.1,1720.8,468.9,1720.8,472.7z"/>
			<rect x="1720.8" y="472.7" class="st48" width="17.7" height="2.8"/>
			<ellipse class="st49" cx="1729.7" cy="467.6" rx="6.7" ry="2.2"/>
		</g>
		<g>
			<path class="st47" d="M1703.2,460.6c0,0,1.4,7.1,0.3,12.1h-33.3c0,0-1.1-7.3,13.3-7.3l9.3-6.3L1703.2,460.6z"/>
			<path class="st48" d="M1703.4,475.5h-11.1l-0.1-2c-3.5,1.2-7.2,1.8-10.9,1.8c-3.1,0-11.1,0.1-11.1,0.1v-2.6h33.2V475.5z"/>
			<path class="st49" d="M1682.7,465.3c0,0-0.5,5.1-12,4.9C1670.7,470.2,1672.3,465.5,1682.7,465.3z"/>
		</g>
		<g>
			<path class="st50" d="M1686.7,340.9l-0.6,120.8c0,0,9,4.5,17.6,0.9l3.2-96.3l2.5-0.1l12.3,96.4c0,0,6.5,3,16.1-0.5l-9.8-121.2
				L1686.7,340.9L1686.7,340.9z"/>
			<path class="st51" d="M1686.3,417.2l-0.2,44.4c0,0,9,4.5,17.6,1l2-59.5C1700.9,422.1,1690.6,419.3,1686.3,417.2z"/>
			<path class="st51" d="M1733.5,410.1c-6.4,17.3-14.8,6.2-18.5,0l6.7,52.4c0,0,6.5,3,16.1-0.6L1733.5,410.1z"/>
			<path class="st47" d="M1686.4,341.5c0,0,15.1,4.4,42.1,0l0.2,5.3c0,0-22.2,4.1-42.3,0.1L1686.4,341.5L1686.4,341.5z"/>
			<rect x="1702.8" y="343.4" class="st52" width="7.8" height="5.9"/>
			
				<rect x="1693.5" y="344.7" transform="matrix(4.466565e-02 -0.999 0.999 4.466565e-02 1275.53 2025.1765)" class="st53" width="6.2" height="1.9"/>
			
				<rect x="1717.4" y="342.4" transform="matrix(0.9977 -6.818760e-02 6.818760e-02 0.9977 -19.5597 117.9776)" class="st53" width="1.9" height="6.2"/>
		</g>
		<g>
			<path class="st10" d="M1735.7,276.4c-5.1-2.1-10.4-3.8-15.8-5c-9.4-1.6-12.2-1.4-19.5,0.2c-4,0.6-11.4,2.2-15.4,4.1
				c0,0-2.4,10.6,0,65.7c0,0,15.6,5.5,44.3,0c0,0,0.3-25,4.1-40C1733.4,301.4,1734.6,285.9,1735.7,276.4z"/>
			<path class="st9" d="M1703.8,283.5l2.3-1.5l1.6,2l-5.9,44.8l4,4.7l5.5-6.8l-0.8-41.4l1.9-1.9l1,1.2c0,0,7.1-4.6,8.2-12.6
				l-1.6-0.4c-9.4-1.6-12.2-1.4-19.5,0.2l-0.9,0.2C1699.5,271.8,1698.8,276.8,1703.8,283.5z"/>
			<g>
				<path class="st26" d="M1704.3,268.4l-0.2,7.7l12.7,0.4l0.3-10C1713,268.2,1708.6,268.9,1704.3,268.4z"/>
				<path class="st27" d="M1717,266.5l0.2-7.7l-12.7-0.4l-0.3,10C1708.6,268.9,1713,268.2,1717,266.5z"/>
			</g>
			<path class="st13" d="M1703.8,279.9l2.7,4.5c-1.9,5.9-3.3,12-4,18.2c-0.9,7.9-1.3,15.8-1.4,23.7l4.4,4.9l4.3-5l-0.4-41.6l3.7-3.8
				l-4.2-5.3L1703.8,279.9z"/>
			<path class="st10" d="M1704.3,268.4c0,0,0.6,5.2,4.6,7c0,0,7.6-2.1,8.1-7l4.3,3.4c0,0-2.8,8.2-8.7,10.4l-3.7-5.6l-5,4.6
				c0,0-4.8-5.8-4.4-9.4L1704.3,268.4z"/>
		</g>
		<g>
			<g>
				<path class="st54" d="M1731.4,232.3c-0.7-1.6-1.2-2.8-1.6-3.7c-0.9-2.2-5.1-6.6-15.5-11.3c-15-6.8-17.7,3.4-17.7,3.4
					c0.2-1.2,0.5-2.4,1-3.6c-5.2,3.5-2,23.4-2,23.4c14.8,10.1,31.4,6.5,31.4,6.5c0.8-4.1,1.8-9.9,2.4-13.5c0.7,0.6,1.3,1.2,1.9,1.9
					c-0.3-1.3-0.7-2.7-1.2-3.9L1731.4,232.3z"/>
				<path class="st55" d="M1718.9,224.3c-5.6-4.1-13.1-6.7-18.3-8.2c-1.9,1-3.3,2.7-4,4.7c0.2-1.2,0.5-2.4,1-3.6
					c-1.3,0.9-2.1,2.9-2.6,5.4C1709.1,220.7,1718.9,224.3,1718.9,224.3z"/>
				<path class="st55" d="M1708,234.1l-11.1-1.9c-0.7,0.1-1.4,0.3-2.1,0.4c0.3,4.4,0.8,8,0.8,8c14.8,10.1,31.4,6.5,31.4,6.5
					c0.7-3.7,1.6-8.6,2.2-12.2c-2.4-1.6-8.7-2.5-8.7-2.5L1708,234.1z"/>
				<path class="st56" d="M1700.5,230.4c0,0-3.4-13.6,7.7-14.3C1708.2,216.1,1699.7,217.2,1700.5,230.4z"/>
				<path class="st56" d="M1703.7,229.9c0,0,1.2-9.9,7.6-12.2C1707.7,220.9,1705.1,225.2,1703.7,229.9z"/>
				<path class="st56" d="M1708,228.5c0,0,3.1-8,14.1-5.6C1722,222.9,1713.2,222.1,1708,228.5z"/>
				<path class="st56" d="M1713.3,229.1c0,0,5-7,15-1.9C1728.3,227.2,1720,224.3,1713.3,229.1z"/>
			</g>
			<g>
				<path class="st26" d="M1725.6,244.4l-2,1.7c-0.4-1-0.7-2-1-3.1c-0.9-3.5-1.6-7-1.9-10.6c-7.9-1.1-15.9-1.2-23.8-0.2
					c0.2,2-1.2,8.4-1.2,8.4c0,5.4-0.1,14.7,3.6,20.2c1.6,2.3,3.6,4.3,6.9,4.8c14.6,2.3,18.4-12,18.4-12s4.6,1.2,5.5-5.5
					C1730.8,242.5,1725.6,244.4,1725.6,244.4z"/>
				<path class="st27" d="M1723.4,251.9c-1.2,3.6-5.9,12.5-15.8,12c-5.4-0.3-8.1-3.9-9.9-6.3c0.4,1.1,0.9,2.2,1.6,3.2
					c1.6,2.3,3.6,4.3,6.9,4.8c14.6,2.3,18.4-12,18.4-12s3.5,1,5-3.5C1726.9,254.6,1723.4,251.9,1723.4,251.9z"/>
			</g>
			<path class="st40" d="M1703.7,246.1c0,1.3-0.8,2.2-1.7,2.1c-1.1-0.3-1.8-1.3-1.7-2.4c0-1.2,0.8-2.2,1.7-2.1
				C1703.1,244,1703.8,245,1703.7,246.1z"/>
			<path class="st40" d="M1716.4,245.8c0,1.3-0.8,2.2-1.7,2.1c-1.1-0.3-1.8-1.3-1.7-2.4c0-1.2,0.8-2.2,1.7-2.1
				C1715.8,243.6,1716.5,244.7,1716.4,245.8z"/>
			<path class="st38" d="M1708.2,253.3c-2.8,1.1-4.3-0.2-4.5-1.5c-0.1-0.9,0.4-1.7,1.3-2c1.7-0.7,2.9-3.3,2.9-3.3l0,0
				c-0.2,1.7-1.3,3.3-2.8,4.2c-0.5,0.3-0.8,0.6-0.7,1C1704.5,252.3,1705.5,253.4,1708.2,253.3L1708.2,253.3z"/>
			<path class="st54" d="M1697.9,239.7l-0.1-0.9c2.1-0.5,4.3-0.7,6.5-0.5v1.3C1702.2,239.4,1700,239.4,1697.9,239.7z"/>
			<path class="st54" d="M1718.6,240.1c-2.1-0.6-4.3-1-6.6-1.1l0.3-1.2c0.2,0,4,0.2,6.6,1.5L1718.6,240.1z"/>
			<path class="st39" d="M1712.3,258.4c-0.1,0-0.1,0-0.2,0c-5-3-7.1-0.2-7.2-0.1c-0.1,0.2-0.3,0.2-0.5,0.1c0,0,0,0-0.1-0.1
				c-0.1-0.2-0.1-0.5,0-0.6s2.6-3.4,8.1-0.1c0.2,0.1,0.3,0.4,0.2,0.6C1712.6,258.3,1712.5,258.4,1712.3,258.4z"/>
		</g>
	</g>
	<g>
		<path class="st27" d="M1535.2,226L1535.2,226c0.9,0.1,1.5,0.8,1.4,1.7l-0.8,9.7h0.3l3.7-11.6c0.2-0.9,1.1-1.3,2-1.1l0,0h0.1
			c0.8,0.3,1.3,1.2,1,2l-3.7,11.9l0.3,0.2l7.1-11.2c0.4-0.7,1.2-0.9,1.8-0.6c0.1,0,0.1,0.1,0.2,0.1h0.1c0.8,0.4,1.2,1.4,0.8,2.2
			l-7.3,11.5h-0.1l8.5-7.9c0.6-0.6,1.7-0.6,2.3,0.1l0,0l0,0c0.6,0.7,0.6,1.7-0.1,2.3l0,0l-8,7.5c-0.7,1-1.3,2-1.9,3.1l-0.5,0.8
			l5-0.4c1.1-0.3,2.2,0.3,2.5,1.3c0,0,0,0,0,0.1v0.1c0.2,1-0.7,1.6-1.9,1.9l-8.7,2c-2.4,1.4-5,2.8-8.2,0.7c-3-1.9-3.9-5.8-2-8.8l0,0
			c0,0,2.7-4.9,3.3-5.9l1.2-10.4C1533.8,226.5,1534.5,225.9,1535.2,226z"/>
		<g>
			<path class="st27" d="M1525.6,275.7c-0.4-0.1-3.4-0.6-3.6-0.7c3.4-5.5,7.7-12.8,13.6-21.7l-7.4-6c-4,5.1-20.8,19.5-23.9,26.2
				c-1.2,2.5-1.4,6.9,0,9.2c2.1,3.6,4.5,5.4,18.7,9.7C1526.2,285.2,1526.5,278.2,1525.6,275.7z"/>
			<path class="st7" d="M1544.5,297L1544.5,297z"/>
			<path class="st20" d="M1541.2,276c-0.1,0-12.4-0.3-16.7-0.9c-0.9,1.8-4,11.2-3.2,19.7c1.2,0.4,2.7,0.5,4.2,0.9
				c6.3,1.8,12.8,3.1,19.3,3.9C1544.4,299.5,1550.5,283.4,1541.2,276z"/>
		</g>
		<ellipse class="st28" cx="1567.3" cy="472.7" rx="56.3" ry="5.7"/>
		<g>
			<path class="st16" d="M1594.6,470h19c0,0,1.1-5.2-2.8-11.9l-12.8,0.2C1595.7,461.8,1594.5,465.9,1594.6,470z"/>
			<rect x="1594.7" y="470" class="st29" width="19" height="3"/>
			<ellipse class="st30" cx="1604.1" cy="464.4" rx="7.2" ry="2.4"/>
		</g>
		<g>
			<path class="st16" d="M1556,456.9c0,0,1.5,7.7,0.4,13h-35.8c0,0-1.2-7.9,14.3-7.9l10-6.8L1556,456.9z"/>
			<path class="st29" d="M1556.3,473h-11.7l-0.2-2.2c-3.8,1.3-7.8,1.9-11.8,1.9c-3.3,0-12,0-12,0V470h35.7V473z"/>
			<path class="st30" d="M1533.9,461.9c0,0-0.5,5.5-12.9,5.2C1521.1,467.2,1522.8,462.2,1533.9,461.9z"/>
		</g>
		<g>
			<path class="st18" d="M1540,457.3c0,0,8.4,5.5,17.3,0.7l-6-47.9c3.5-9.2,16.9-28.2,23.8-42.7c0,0-9.3,41.7-7.3,46.6
				c6.5,15.6,19.2,32.4,26.9,45.5c3.3,0.8,6.8,1.2,10.2,1c5-0.4,7-3.5,7-3.5c-6.5-16.2-14.4-31.7-23.7-46.5
				c9.7-46.9,13.2-48.1,13.2-66.7l-42.7-0.3c-4.1,7.1-27.9,56.7-27,65.8C1533.1,422,1536.8,436.5,1540,457.3z"/>
			<path class="st31" d="M1588.3,410.5c9.3,14.8,17.2,30.3,23.7,46.5c0,0-2,3.1-7,3.5c-3.4,0.2-6.9-0.2-10.2-1
				c-5.9-10-14.8-22.3-21.5-34.5C1583.8,423.9,1588.3,410.5,1588.3,410.5z"/>
			<path class="st31" d="M1551.3,410.1l6,47.9c-9,4.8-17.3-0.7-17.3-0.7c-2.4-16-5.2-28.2-6.9-38.8
				C1542.9,422.5,1551.3,410.1,1551.3,410.1z"/>
			<path class="st31" d="M1575.1,367.4c0,0-10.6-5.7-11.1-9.6c2.3,19.1,3.1,22.5,3.4,23.6L1575.1,367.4z"/>
			<path class="st16" d="M1555.8,342.5c0,0,8.5,5,45.8,0.5l0.3,6.1c0,0-32,4.4-46.2-0.5L1555.8,342.5z"/>
			
				<rect x="1569.8" y="343.7" transform="matrix(2.163965e-02 -0.9998 0.9998 2.163965e-02 1191.1744 1912.9153)" class="st32" width="6.3" height="8.3"/>
			
				<rect x="1555.9" y="340.3" transform="matrix(6.982627e-02 -0.9976 0.9976 6.982627e-02 1109.8774 1872.9792)" class="st33" width="6.7" height="2"/>
			
				<rect x="1586.5" y="344" transform="matrix(0.9989 -4.658407e-02 4.658407e-02 0.9989 -14.4574 74.3282)" class="st33" width="2" height="6.7"/>
		</g>
		<g>
			<path class="st19" d="M1595,270.3c-5.8-1.1-11.7-1.8-17.6-1.9c-10.3,0.3-13.2,1.1-20.5,4.3c-5.1,1.8-10.3,2.9-15.7,3.3
				c0,0,1.6,22.2,14,67.2c0,0,11.4,6.1,46.9,0.8c0,0-4.8-36.5-4-53.2C1596.6,284,1595.6,277.2,1595,270.3z"/>
			<path class="st31" d="M1562.8,284.4l4.1-7.5l5.4,6.9c0,0,7.3-6.8,6.8-15.4h-1.7c-10.3,0.3-13.2,1.1-20.5,4.3l-1,0.4
				C1555.8,273,1556.2,278.5,1562.8,284.4z"/>
			<g>
				<path class="st26" d="M1560.1,268.5l1.4,8.1l13.5-2.3l-1.8-10.6C1569.3,266.4,1564.8,268,1560.1,268.5z"/>
				<path class="st27" d="M1573.2,263.7l-1.4-8.2l-13.5,2.3l1.8,10.6C1564.8,268,1569.3,266.4,1573.2,263.7z"/>
			</g>
			<path class="st19" d="M1560.1,268.5c0,0,1.7,5.4,6.4,6.4c0,0,7.5-3.8,7-9.1l5.2,2.6c0,0-1.2,9.3-6.9,12.8l-5-5.1l-4.3,5.9
				c0,0-6.3-5.1-6.6-9L1560.1,268.5z"/>
		</g>
		<g>
			<path class="st34" d="M1573.9,226.8c1.8-3.9-1.2-8.2-2-9.1c-3.8-4.3-11.7-4.3-16.8-3.3c-3.1,0.7-6.2,1.2-9.4,1.5
				c-0.9,0.2-1.8,0-2.5-0.6c-0.3-0.7-0.4-1.4-0.2-2.2c0-0.2,0.1-0.4,0.1-0.6c-1.5,0.8-2.4,2.3-2.6,3.9c-0.4-0.7-0.7-1.4-0.8-2.2
				c-6.6,6.1-0.8,15.6-0.8,15.6c0,4.3,2.1,10.1,2.1,10.1l17.6,11l16.9-10.5C1575.3,235.9,1574.7,231.3,1573.9,226.8z"/>
			<path class="st35" d="M1547.3,221.3c12.6-1.5,12.9-1.5,16.5-0.5c0,0-2.8-3.1-12-3.7c-4-0.3-6-0.7-7-1.1c-0.6,0-1.2-0.2-1.6-0.7
				c-0.3-0.7-0.4-1.4-0.2-2.2c0-0.2,0.1-0.4,0.1-0.6c-1.5,0.8-2.4,2.3-2.6,3.9c-0.4-0.7-0.7-1.4-0.8-2.2c-0.5,0.5-1,1.1-1.4,1.6
				C1538,218.6,1538.9,222.4,1547.3,221.3z"/>
			<path class="st36" d="M1537.1,218.3c-1.9,5.6,1.8,11.6,1.8,11.6c0,4.3,2.1,10.1,2.1,10.1l17.6,11l16.9-10.5
				c-0.2-4.6-0.8-9.1-1.6-13.6c-9.3-6.9-27.7-1.3-32.5-1.8C1537.9,224.6,1537.2,220.6,1537.1,218.3z"/>
			<path class="st37" d="M1542.5,228.2c-1.1,0.6-2.3,1.2-3.6,1.6c0,4.3,2.1,10.1,2.1,10.1l17.6,11l16.9-10.5
				c-0.2-4.6-0.8-9.1-1.6-13.6c-3.3-1.5-6.9-2.2-10.5-2C1563.4,224.9,1543.6,227.5,1542.5,228.2z"/>
			<path class="st26" d="M1573.5,239.4l-1.9,3.1c-0.6-1-3-5.6-3-6.7c-0.6-10.5-5.5-11.1-5.5-11.1c-11.8-0.2-16.8,1.4-20.4,3.3
				c-3.1,1.6-0.7,8.3-1.7,12c0.9,5.7,2.8,16.5,7.4,21.4c2.1,2.2,4.6,3.9,8.2,3.9c15.9-0.1,17.4-16,17.4-16s5.1,0.5,4.9-6.8
				C1578.7,236.5,1573.5,239.4,1573.5,239.4z"/>
			<path class="st27" d="M1564.4,225.3c-0.4-0.3-0.9-0.5-1.4-0.6c-11.8-0.2-16.8,1.4-20.4,3.3c-0.3,0.2-0.6,0.4-0.9,0.7
				C1549.1,226.4,1556.8,225.3,1564.4,225.3z"/>
			<path class="st38" d="M1556.6,251.9c-2.8,1.7-4.6,0.6-5-0.8c-0.2-0.9,0.2-1.9,1-2.3c1.7-1,2.5-4,2.5-4.1l0,0
				c0.1,1.9-0.8,3.7-2.2,4.9c-0.4,0.4-0.7,0.7-0.6,1.2C1552.5,251.6,1553.8,252.6,1556.6,251.9L1556.6,251.9z"/>
			<path class="st34" d="M1543.1,238.7l-0.1-0.9c2.3-0.5,4.7-0.7,7-0.5v1.4C1547.7,238.4,1545.4,238.4,1543.1,238.7z"/>
			<path class="st34" d="M1564.7,235.2c-2.3,0.6-4.6,1.5-6.7,2.6l-0.4-1.3c0.2-0.1,3.8-2,6.9-2.1L1564.7,235.2z"/>
			<path class="st27" d="M1572.5,247.8c-0.7,4.1-4,14.3-14.7,15.5c-5.8,0.6-9.3-2.7-11.6-5c0.6,1.1,1.4,2.2,2.3,3.2
				c2.1,2.2,4.6,3.9,8.2,3.9c15.9-0.1,17.4-16,17.4-16s3.9,0.4,4.7-4.6C1576.6,250.1,1572.5,247.8,1572.5,247.8z"/>
			<g>
				<path class="st41" d="M1568.5,236.8c2.4,0,4.8,0.7,6.9,2c-0.7,0.1-1.3,0.3-1.9,0.7c-1.5-0.4-3-0.7-4.6-0.8
					C1568.9,238.6,1567.7,237.5,1568.5,236.8z"/>
				<g>
					
						<linearGradient id="SVGID_3_" gradientUnits="userSpaceOnUse" x1="7894.4756" y1="1417.4464" x2="7894.4756" y2="1404.4764" gradientTransform="matrix(0.99 -0.16 0.16 0.99 -6489.1392 144.2401)">
						<stop  offset="0" style="stop-color:#FFFFFF"/>
						<stop  offset="1" style="stop-color:#FFFFFF"/>
					</linearGradient>
					<path class="st57" d="M1540.3,242c0,0,8.5-1.6,12-0.6c0,0,0.4,6.8-2.3,8.1S1541.3,251.6,1540.3,242z"/>
				</g>
				<g>
					
						<linearGradient id="SVGID_4_" gradientUnits="userSpaceOnUse" x1="7910.4785" y1="1417.4464" x2="7910.4785" y2="1404.4764" gradientTransform="matrix(0.99 -0.16 0.16 0.99 -6489.1392 144.2401)">
						<stop  offset="0" style="stop-color:#FFFFFF"/>
						<stop  offset="1" style="stop-color:#FFFFFF"/>
					</linearGradient>
					<path class="st58" d="M1567.9,237.4c0,0-8.6,1.2-11.6,3.4c0,0,1.8,6.5,4.8,6.9S1570,246.8,1567.9,237.4z"/>
				</g>
				<path class="st41" d="M1568.6,237.4l-0.1-0.6l-0.7,0.1c-0.8,0.1-1.6,0.2-2.4,0.3c-3.3,0.5-6.5,1.4-9.5,2.8l-0.3,0.1
					c-1.1-0.1-2.1,0.1-3.1,0.4h-0.1c-3.3-0.3-6.6-0.2-9.9,0.4c-0.8,0.1-1.6,0.3-2.4,0.5l-0.6,0.1l0.1,0.6c0,0.4,1.1,8.8,5.7,8.4
					c1.2-0.1,2.5-0.2,3.4-0.4l0,0c1.3-0.1,2.5-0.7,3.2-1.7c1.1-1.8,1.2-4.7,1.2-6.3c0.9-0.3,1.8-0.5,2.8-0.5
					c0.5,1.5,1.5,4.2,3.1,5.6c1,0.7,2.4,1,3.6,0.6l0,0c1-0.2,2.2-0.5,3.3-0.8C1570.4,246,1568.7,237.7,1568.6,237.4z M1550.7,247.8
					c-0.3,0.5-0.8,0.8-2.2,1c-0.7,0.1-1.7,0.2-3.3,0.4c-2.5,0.2-3.7-4.2-4.1-6.6c0.6-0.1,1.1-0.2,1.7-0.3c2.9-0.5,5.9-0.7,8.9-0.4
					C1551.7,243.4,1551.7,246.3,1550.7,247.8z M1565.6,245.8c-1.6,0.4-2.5,0.6-3.2,0.7c-1.5,0.2-2,0.1-2.4-0.3
					c-1.4-1.1-2.4-3.9-2.8-5.3c2.7-1.2,5.6-2,8.5-2.4c0.6-0.1,1.1-0.2,1.7-0.2C1567.7,240.6,1568,245.2,1565.6,245.8L1565.6,245.8z"
					/>
			</g>
			<path class="st3" d="M1563,255.9l-0.1-0.9c-0.2-1-1.1-1.7-2.2-1.6l-6.1,1c-1,0.2-1.7,1.1-1.6,2.2l0.1,0.9c0.2,1,1.1,1.7,2.2,1.6
				l6.1-1C1562.4,257.9,1563.1,256.9,1563,255.9z"/>
			<path class="st40" d="M1549.7,245.7c-1.3-0.9-3-0.8-4.2,0.1l-0.8-1.1c1.6-1.3,3.9-1.4,5.6-0.2L1549.7,245.7z"/>
			<path class="st40" d="M1560.6,243.9c1.1-1.3,2.8-1.8,4.4-1.3l0.4-1.3c-2.1-0.7-4.5,0-5.9,1.7L1560.6,243.9z"/>
		</g>
		<path class="st28" d="M1574.6,238.9c0-0.5,0.3-8.8,0.3-9l-2.8,10.7l-0.3-0.1l0.5-12.9c0.1-0.9-0.6-1.7-1.6-1.8h-0.1
			c-0.9,0-1.7,0.7-1.7,1.6l0,0l-0.5,12.7h-0.3l-1.9-10c-0.1-0.9-0.9-1.4-1.8-1.3l0,0c-0.9,0.2-1.4,1-1.2,1.9l1.6,10.7
			c-0.3,1.2-1.7,6.9-1.7,6.9c-0.4,1.3-0.4,2.8,0.1,4.1l-0.9-0.3c-1,1.5-3.3,6.8-5.4,13.1c0.9,0,1.9-0.1,2.8-0.2l0.6,3.4l-4.2,4.5
			c-0.4,0.1-1.1,0.4-1.6,0.5c-0.5,1.7-0.9,3.3-1.2,4.9c-0.7,3.2-0.3,12.3,1.2,15c2.9,5.5,8.4,9,27.8,6c10.1-1.6,13.5-2.8,13.9-2.9
			c0.7-0.1,1.4-0.4,2-0.6c0-1.3,0-3.9,0.1-5c-1.8-14.6-2.3-11.4-2.9-18.5c-0.7-0.2-1.6,0.5-2.3,0.5c-0.1,0-8.5,0.9-21.3,5.5
			c0.8-6.6,1.1-10.9,1.4-15.4l-1.1-6.4c1.1-2.3,1.9-4.7,2.2-7.2c1.2,0.2,2.5-0.4,3.2-1.4l0.3-0.9c0.2-0.8,0.7-2.1,1.4-4.1v-0.3
			c-0.1-2.4-0.9-3.1-1.4-3.5l-0.2-0.1l-1.8,2.8l0.9-3C1575.7,238.6,1575.1,238.7,1574.6,238.9z"/>
		<g>
			<path class="st26" d="M1567.4,228.2L1567.4,228.2c0.8-0.1,1.6,0.4,1.7,1.3l1.8,9.6h0.3l0.5-12.2c0-0.9,0.7-1.6,1.6-1.6h0.1
				c0.9,0.1,1.6,0.8,1.5,1.7l-0.4,12.4c0.1,0,0.2,0,0.3,0.1l3.9-12.7c0.1-0.7,0.8-1.2,1.6-1.1c0.1,0,0.2,0,0.3,0.1h0.1
				c0.9,0.2,1.5,1,1.3,1.9l-4,13h-0.1l6.1-9.8c0.5-0.8,1.5-1,2.2-0.5l0,0l0,0c0.8,0.5,1,1.5,0.5,2.3l-5.8,9.4
				c-0.7,1.9-0.8,2.8-1,3.5l-0.3,0.9l4.8-1.7c0.9-0.6,2.2-0.3,2.8,0.6l0,0l0,0c0.4,0.9-0.2,1.8-1.4,2.3l-7.8,4.3
				c-2,1.9-4.1,4-7.8,2.8c-3.4-1-5.2-4.6-4.2-7.9l1.6-6.6l-1.5-10.3C1566,229.1,1566.6,228.3,1567.4,228.2z"/>
			<g>
				<path class="st26" d="M1579.1,276.6c-2,0.7-4,1.3-6,1.8c1.1-9.4,0.9-16.2,1.7-23.7l-8.4-3.6c-1.7,2.4-7.2,16.3-9.3,25.8
					c-0.7,3.1-0.8,11.3,0,14.1c2.6,8.5,17.7,6.3,26.9,2.7C1583.1,279.7,1580,277.4,1579.1,276.6z"/>
				<path class="st19" d="M1603.8,281.4c0.9-6-4.4-11.5-9-11c-6.5,1-12.9,2.6-19.1,4.8c0.4,7.1,2.5,14.1,6.1,20.3
					c0.8,0,13.3-3.6,13.7-3.7C1599,291,1602.8,288.2,1603.8,281.4z"/>
			</g>
		</g>
	</g>
	<g>
		<ellipse class="st28" cx="1309.9" cy="873" rx="42.9" ry="4.7"/>
		<path class="st27" d="M1286.5,657.7c-1.3,2.4-1.6,6.3,0.7,7.5l0,0c2.3,1.2,6.2-0.8,7.5-3.2l2.2-4.2c1.3-2.4-0.3-3.9-2.6-5.1l0,0
			c-2.3-1.2-4.5-1.4-5.8,1L1286.5,657.7z"/>
		<path class="st7" d="M1291.4,692.1c0,0-5.2-1.5-11.4-7.5c0,0,6.3-12,11.9-18.1c-1.2-3.3-3.9-5.7-7.3-6.6c0,0-14.3,14.2-18.2,21.6
			c-4.1,7.8,1.1,12.8,24.1,29.9C1290.6,711.5,1293.8,700.8,1291.4,692.1z"/>
		<g>
			<path class="st47" d="M1323.1,870.7h15.6c0,0,0.9-4.3-2.3-9.7l-10.5,0.2C1324,864,1323,867.4,1323.1,870.7z"/>
			<rect x="1323" y="870.7" class="st48" width="15.6" height="2.5"/>
			<ellipse class="st49" cx="1330.9" cy="866.2" rx="5.9" ry="1.9"/>
		</g>
		<g>
			<path class="st47" d="M1307.5,860c0,0,1.2,6.3,0.3,10.7h-29.4c0,0-1-6.5,11.8-6.5l8.2-5.5L1307.5,860z"/>
			<path class="st48" d="M1307.7,873.2h-9.8l-0.1-1.8c-3.1,1.1-6.3,1.6-9.6,1.6c-2.7,0-9.8,0-9.8,0v-2.3h29.3V873.2z"/>
			<path class="st49" d="M1289.4,864.2c0,0-0.4,4.5-10.6,4.3C1278.8,868.5,1280.2,864.4,1289.4,864.2z"/>
		</g>
		<g>
			<path class="st50" d="M1293,754.4l-0.6,106.6c0,0,8,4,15.5,0.8l2.9-85l2.2-0.1l10.9,85c0,0,5.8,2.7,14.2-0.4l-8.6-106.9
				L1293,754.4z"/>
			<path class="st51" d="M1292.6,821.7l-0.2,39.2c0,0,8,4,15.5,0.9l1.8-52.5C1305.5,826.1,1296.3,823.5,1292.6,821.7z"/>
			<path class="st51" d="M1334.3,815.5c-5.6,15.3-13.1,5.5-16.3,0l5.9,46.3c0,0,5.8,2.6,14.2-0.5L1334.3,815.5z"/>
			<path class="st47" d="M1292.6,754.8c0,0,13.3,3.9,37.2,0l0.2,4.7c0,0-19.6,3.6-37.4,0.1L1292.6,754.8L1292.6,754.8z"/>
			<rect x="1307.1" y="756.6" class="st52" width="6.8" height="5.2"/>
			
				<rect x="1299" y="757.9" transform="matrix(4.449169e-02 -0.999 0.999 4.449169e-02 485.8305 2025.3928)" class="st53" width="5.5" height="1.6"/>
			
				<rect x="1320" y="755.7" transform="matrix(0.9977 -6.801423e-02 6.801423e-02 0.9977 -48.5277 91.5911)" class="st53" width="1.6" height="5.5"/>
		</g>
		<g>
			<path class="st10" d="M1336.2,697.4c-4.5-1.9-9.1-3.3-13.9-4.4c-8.3-1.4-10.8-1.2-17.2,0.1c-3.6,0.6-7.7-0.2-13.7-1.1
				c0,0-2.1,14.1,0,62.7c0,0,13.8,4.8,39.1,0c0,0,0.3-22,3.6-35.3C1334.2,719.5,1335.2,705.8,1336.2,697.4z"/>
			<path class="st9" d="M1308,703.7l2-1.3l1.4,1.8l-5.2,39.5l3.6,4.1l4.8-6l-0.7-36.6l1.7-1.6l0.9,1c0,0,6.3-4.1,7.2-11.1l-1.4-0.3
				c-8.3-1.4-10.8-1.2-17.2,0.1l-0.8,0.1C1304.3,693.4,1303.6,697.8,1308,703.7z"/>
			<g>
				<path class="st26" d="M1308.4,690.4l-0.2,6.8l11.2,0.3l0.2-8.8C1316.2,690.2,1312.3,690.8,1308.4,690.4z"/>
				<path class="st27" d="M1319.7,688.7l0.2-6.8l-11.2-0.3l-0.2,8.8C1312.3,690.8,1316.2,690.2,1319.7,688.7z"/>
			</g>
			<path class="st13" d="M1308.1,700.5l2.4,3.9c-1.7,5.2-2.9,10.6-3.6,16.1c-0.8,7-1.2,14-1.2,21l3.8,4.4l3.8-4.4l-0.4-36.8l3.3-3.3
				l-3.7-4.7L1308.1,700.5z"/>
			<path class="st10" d="M1308.4,690.4c0,0,0.5,4.6,4.1,6.2c0,0,6.7-1.8,7.1-6.2l3.8,3c0,0-2.5,7.3-7.6,9.2l-3.2-4.9l-4.4,4.1
				c0,0-4.2-5.2-3.9-8.3L1308.4,690.4z"/>
		</g>
		<g>
			<g>
				<path class="st54" d="M1330.4,657.3c-0.7-1.4-1.3-2.4-1.7-3.1c-0.9-1.8-5-5.5-14.4-8.8c-13.6-4.9-15.3,4.2-15.3,4.2
					c0.1-1.1,0.3-2.2,0.7-3.2c-4.4,3.5-0.2,20.7-0.2,20.7c13.7,7.9,28.1,3.5,28.1,3.5c0.4-3.7,0.9-8.8,1.2-12c0.6,0.4,1.2,1,1.8,1.5
					c-0.4-1.2-0.8-2.3-1.3-3.4L1330.4,657.3z"/>
				<path class="st55" d="M1318.9,651.1c-5.2-3.2-12-5-16.7-6c-1.6,1-2.8,2.6-3.2,4.4c0.1-1.1,0.3-2.2,0.7-3.2
					c-1.1,0.9-1.7,2.7-1.9,4.9C1310,648.6,1318.9,651.1,1318.9,651.1z"/>
				<path class="st55" d="M1309.9,660.4l-9.9-0.9c-0.6,0.1-1.2,0.3-1.8,0.5c0.5,3.8,1.3,7,1.3,7c13.7,7.9,28.1,3.5,28.1,3.5
					c0.4-3.3,0.8-7.7,1.1-10.9c-2.2-1.2-7.8-1.6-7.8-1.6L1309.9,660.4z"/>
				<path class="st56" d="M1303.1,657.7c0,0-3.9-11.7,5.7-13.1C1308.8,644.6,1301.5,646.2,1303.1,657.7z"/>
				<path class="st56" d="M1305.9,657c0,0,0.3-8.8,5.8-11.3C1308.8,648.9,1306.8,652.8,1305.9,657z"/>
				<path class="st56" d="M1309.5,655.5c0,0,2.2-7.2,12-5.9C1321.5,649.6,1313.7,649.6,1309.5,655.5z"/>
				<path class="st56" d="M1314.3,655.7c0,0,3.9-6.5,13.1-2.7C1327.4,653,1319.8,651,1314.3,655.7z"/>
			</g>
			<g>
				<path class="st26" d="M1326.2,668.3l-1.6,1.6c-0.4-0.9-0.8-1.7-1.1-2.7c-1.1-3-1.9-6.1-2.4-9.2c-7-0.4-14.1,0.1-20.9,1.4
					c0.3,1.8-0.5,7.5-0.5,7.5c0.4,4.8,0.9,13,4.6,17.6c1.5,2.1,3.8,3.5,6.4,3.8c13,1,15.3-11.8,15.3-11.8s4.1,0.8,4.5-5.2
					C1330.6,666.3,1326.2,668.3,1326.2,668.3z"/>
				<path class="st27" d="M1324.8,675.1c-0.8,3.3-4.3,11.4-13.1,11.7c-4.8,0.1-7.4-2.8-9.2-4.9c0.4,1,1,1.9,1.6,2.7
					c1.5,2.1,3.8,3.5,6.4,3.8c13,1,15.3-11.8,15.3-11.8s3.2,0.6,4.2-3.4C1328,677.2,1324.8,675.1,1324.8,675.1z"/>
			</g>
			<path class="st40" d="M1307,671.4c0.1,1.1-0.5,2-1.3,2s-1.6-0.9-1.6-2s0.5-2,1.3-2C1306.3,669.5,1307,670.4,1307,671.4z"/>
			<path class="st40" d="M1318.2,670.2c0.1,1.1-0.5,2-1.3,2s-1.6-0.9-1.6-2s0.5-2,1.3-2S1318.1,669,1318.2,670.2z"/>
			<path class="st38" d="M1311.4,677.3c-2.4,1.2-3.8,0.1-4-1c-0.1-0.8,0.3-1.5,1-1.8c1.5-0.7,2.3-3.1,2.4-3.2l0,0
				c-0.1,1.6-0.9,3-2.2,3.9c-0.4,0.3-0.6,0.5-0.6,0.9C1308.2,676.8,1309.2,677.7,1311.4,677.3L1311.4,677.3z"/>
			<path class="st54" d="M1301.6,666.4l-0.3-0.7c1.8-0.8,3.6-1.3,5.6-1.6l0.3,1.2C1305.2,665.4,1303.4,665.8,1301.6,666.4z"/>
			<path class="st54" d="M1319.7,665c-1.9-0.4-3.9-0.6-5.8-0.5l0.2-1.1c2-0.1,4,0.2,5.9,0.9L1319.7,665z"/>
			<path class="st39" d="M1315,681.5c-0.1,0-0.1,0-0.2,0c-4.4-2.6-6.3-0.2-6.3-0.1c-0.1,0.1-0.3,0.2-0.4,0.1c0,0,0,0-0.1-0.1
				c-0.1-0.2-0.1-0.4,0-0.6c0.1-0.1,2.3-3,7.2-0.1c0.2,0.1,0.2,0.4,0.2,0.5C1315.3,681.4,1315.1,681.5,1315,681.5z"/>
		</g>
		<g>
			<path class="st27" d="M1291.2,654c0.2,0.1,0.5,0.1,0.7,0c2.6-0.5,7.7,1.7,9.5,2.6c0.6,0.3,1.3,0.2,1.6-0.4c0.3-0.6,0-1.2-0.5-1.5
				l0,0c-0.7-0.4-7.3-3.7-11.3-2.9c-0.5,0.1-0.9,0.6-0.8,1.1c0,0.1,0,0.1,0,0.2C1290.5,653.6,1290.8,653.9,1291.2,654z"/>
			<path class="st27" d="M1290.8,655.9c0.2,0.1,0.4,0.1,0.6,0.2c4.2,0,9.8,4.1,9.8,4.1c0.5,0.4,1.3,0.3,1.7-0.2
				c0.4-0.5,0.3-1.3-0.3-1.7l0,0c-0.2-0.2-6.3-4.7-11.3-4.6c-0.6,0-1.2,0.5-1.2,1.1c0,0,0,0,0,0.1
				C1290.2,655.3,1290.4,655.7,1290.8,655.9z"/>
			<path class="st27" d="M1292.3,658.2c0.1,0.1,0.3,0.1,0.4,0.2c2.4,0.6,4.6,1.6,6.6,3c0.5,0.4,1.2,0.3,1.7-0.1
				c0.3-0.5,0.2-1.2-0.3-1.5l0,0c-2.3-1.6-5-2.8-7.7-3.5c-0.5-0.2-1.1,0.1-1.3,0.7c0,0.1,0,0.1,0,0.2
				C1291.6,657.6,1291.9,658,1292.3,658.2z"/>
			<path class="st27" d="M1291.6,660.3c0.1,0.1,0.2,0.1,0.3,0.1c1.8,0.4,3.6,1.2,5.2,2.2c0.5,0.4,1.3,0.3,1.7-0.2
				c0.4-0.5,0.2-1.3-0.3-1.6l0,0c-1.9-1.2-3.9-2.1-6.1-2.6c-0.6-0.2-1.2,0.2-1.4,0.8c0,0,0,0,0,0.1
				C1290.9,659.5,1291.2,660,1291.6,660.3z"/>
		</g>
		<path class="st28" d="M1335.1,708.6l-5,2.2l-6.6,15.3l-20.8,6.7l-0.7,0.9l-11.3-5.5l0,0c0.1,6.7,0.3,14.9,0.8,24.6l11,4l0,0
			l-0.7-9.1c0,0,19.6-0.6,29.4-4.6c0.5-7.3,1.4-16.7,3.1-23.7C1334.2,719.5,1334.5,714.4,1335.1,708.6z"/>
		<g>
			<polygon class="st59" points="1301.9,758.4 1302.6,757.6 1293.6,720 1271.3,720.4 1270.3,721.4 			"/>
			<polygon class="st60" points="1292.6,721.2 1301.9,758.4 1280.1,758.4 1270.3,721.4 			"/>
		</g>
		<path class="st26" d="M1307.2,739.6l-3.4-2.8c0,0-3.2-1.2-4.8-1.8c-0.8-0.2-1.5-0.7-2.1-1.3l0.7,2.8c0,0-9.4-1.3-9.8,0
			c-0.1,0.4,0,0.8,0.1,1.2c0,0-1.4,0-1.1,1.6c0,0,0,0.1,0.9,0.3c-0.4,0.6-0.3,1.4,0.3,1.8c0.1,0.1,0.2,0.1,0.3,0.2
			c-0.2,0.6,0.1,1.3,0.7,1.5c0,0,0,0,0.1,0c1.2,0.6,7.6,2.1,7.6,2.1s5.6,0.2,7.8-1.2L1307.2,739.6z"/>
		<path class="st10" d="M1303,735.6c7.6-1.5,15-4.1,21.9-7.7c5.7-22.6,11.3-30.4,11.3-30.4c13.9,6.5,1.3,38.2-4.5,41.1
			c-3.1,1.6-17,6.3-26.9,6.1C1302.9,742,1302.2,738.7,1303,735.6z"/>
	</g>
	<g>
		<g>
			<g>
				<path class="st27" d="M1214.2,664.8c-3.7,3.4-7-0.2-7-0.2s-9.8-1.1-15.2-11.7s2.2-16.1,4.4-15.8c3.7,0.5,9.8,2,18.8,21.8
					C1215.2,659,1218,661.5,1214.2,664.8z"/>
				<g>
					<path class="st61" d="M1208.3,651.8c0.6,0.8,0.5,1.9-0.3,2.5c0,0-0.1,0-0.1,0.1l-9,7.3c-0.8,0.7-2.2,0.9-2.9,0.1l-14.8-18.3
						c-0.6-1-0.4-2.3,0.5-3l9-7.3c0.9-0.7,2.1-0.5,2.8,0.3L1208.3,651.8z"/>
					
						<rect x="1186.9" y="637.3" transform="matrix(0.7765 -0.6301 0.6301 0.7765 -141.0023 897.1817)" class="st62" width="14.7" height="20.2"/>
					<path class="st63" d="M1203.5,655.9c-0.5-0.6-1.4-0.7-2-0.2s-0.7,1.4-0.2,2l0,0c0.5,0.6,1.4,0.7,2,0.2
						C1203.9,657.3,1204,656.5,1203.5,655.9L1203.5,655.9z"/>
					<path class="st63" d="M1185,638.9l2.3-1.9c0.1-0.1,0.3-0.1,0.4,0l0.1,0.1c0.1,0.1,0.1,0.3,0,0.4l-2.3,1.9
						c-0.1,0.1-0.3,0.1-0.4,0l-0.1-0.1C1184.8,639.2,1184.8,639,1185,638.9z"/>
				</g>
			</g>
			<path class="st27" d="M1213.8,655.9c-10.8,0.5-7,8.7-7,8.7c2.8,2.2,9.4,20.5,10.8,26.1l-4.6-1.6c-6.1,10.3-6.7,13.4-6.7,18.6
				c17.7,7.1,23.3,1.4,23.3,1.4C1247.5,691,1213.8,655.9,1213.8,655.9z"/>
			<path class="st20" d="M1215.6,689.2c-8.9-5.7-19-11-19-11c-6.3,10.3-5.3,29-5.3,29c8.4,2.1,13.1,3,18.6,4.1
				C1212.1,707.6,1216.2,698.7,1215.6,689.2z"/>
		</g>
		<path class="st28" d="M1051.5,916.7c0,3.7,49.5,6.7,104.1,6.7s98.9-3,98.9-6.7s-44.3-6.7-98.9-6.7S1051.5,913,1051.5,916.7z"/>
		<g>
			<path class="st16" d="M1204.9,900.4c0,0,3.2,8.7,7.6,13.4l36.3-22.1c0,0-3.6-8.7-19.4,0.9l-14.3-0.7L1204.9,900.4z"/>
			<path class="st29" d="M1214.6,916.7l12.1-7.3l-1.2-2.3c4.6-1,9.1-2.7,13.1-5.2c3.3-2,12.1-7.3,12.1-7.3l-1.8-3l-36.2,22
				L1214.6,916.7z"/>
			<path class="st30" d="M1230.5,891.9c0,0,3.9,5.3,16.3-2.6C1246.8,889.3,1241.9,885.3,1230.5,891.9z"/>
		</g>
		<g>
			<path class="st16" d="M1074.4,827c0,0-8.9-2.3-15.3-1.4l-2.6,42.4c0,0,9.2,2,10.3-16.4l8.7-11.3L1074.4,827z"/>
			<path class="st29" d="M1055.5,825.6l-0.9,14.1l2.5,0.3c-1.8,4.4-2.9,9-3.2,13.7c-0.2,3.9-1,14.1-1,14.1l3.5,0.2l2.6-42.3
				L1055.5,825.6z"/>
			<path class="st30" d="M1066.7,852.8c0,0-6.6,0.2-7.2,14.9C1059.5,867.7,1065.6,866.1,1066.7,852.8z"/>
		</g>
		<g>
			
				<linearGradient id="SVGID_5_" gradientUnits="userSpaceOnUse" x1="-1921.6465" y1="771.3558" x2="-1924.2164" y2="764.0359" gradientTransform="matrix(-1 0 0 1 -789.75 0)">
				<stop  offset="0" style="stop-color:#7C5A47"/>
				<stop  offset="1" style="stop-color:#99745C"/>
			</linearGradient>
			<path class="st64" d="M1072.8,825.4c0,0,26.8-5.2,45.7-5.8l21.9-56.9l32.2,7c-4.1,11.7-29.2,60.9-29.2,60.9
				c-2.4,6.1-9.7,11.1-17.1,11.3c-21,0.5-53.3,2.3-53.3,2.3L1072.8,825.4z"/>
			<path class="st18" d="M1130.9,747.2c12.5,6.8,45.8,10.7,45.8,10.7l-4.1,11.7c-1.8,2.1-12.3,8.9-12.3,8.9l61.7,112.3l-18.5,12.3
				c0,0-73.4-107.1-77.7-122.1C1122.4,769.6,1124.3,757.2,1130.9,747.2z"/>
			<path class="st16" d="M1177.1,759.8c0,0-12.2,2.4-49.2-10.7l-2,7.1c0,0,38.9,12.6,48.8,10.5L1177.1,759.8z"/>
			
				<rect x="1158.9" y="757.5" transform="matrix(0.1609 -0.987 0.987 0.1609 223.0772 1787.1971)" class="st32" width="7.5" height="9.9"/>
			<polygon class="st33" points="1170.1,767.3 1172.5,767.6 1174.6,759.7 1172.2,759.4 			"/>
			
				<rect x="1144.9" y="758.6" transform="matrix(0.2278 -0.9737 0.9737 0.2278 147.3119 1705.4059)" class="st33" width="7.9" height="2.4"/>
		</g>
		<g>
			<path class="st19" d="M1133,666.2c6.9-1.3,13.9-2.1,21-2.2c12.2,0.4,15.6,1.4,24.3,5.2c4.9,1.8,13.8,5.7,18.3,9.1
				c0,0-4.4,28.3-16.8,82.2c0,0-20.9,2.9-55.5-11.3c0,0,6.1-34.6,5.3-54.5C1129.6,694.7,1132.1,678.3,1133,666.2z"/>
			<path class="st31" d="M1171.2,683.1l-4.8-8.9l-6.4,8.1c0,0-8.7-8.1-8-18.3h2.1c12.2,0.4,15.6,1.4,24.3,5.2l1.1,0.4
				C1179.5,669.6,1179.1,676.1,1171.2,683.1z"/>
			<g>
				<path class="st26" d="M1174.4,664.2l-1.7,9.7l-16-2.8l2.2-12.6C1163.5,661.7,1168.8,663.7,1174.4,664.2z"/>
				<path class="st27" d="M1158.9,658.5l1.7-9.7l16,2.8l-2.2,12.6C1168.8,663.7,1163.5,661.7,1158.9,658.5z"/>
			</g>
			<path class="st19" d="M1174.4,664.2c0,0-2.1,6.4-7.6,7.6c0,0-8.9-4.5-8.3-10.9l-6.2,3.1c0,0,1.4,11,8.2,15.3l6-6.1l5.1,7
				c0,0,7.5-6.1,7.9-10.7L1174.4,664.2z"/>
		</g>
		<g>
			<g>
				
					<rect x="1073.9" y="709.5" transform="matrix(0.9838 -0.1791 0.1791 0.9838 -113.3326 210.1608)" class="st65" width="66.6" height="46.4"/>
				
					<rect x="1122.2" y="712.6" transform="matrix(0.9838 -0.1791 0.1791 0.9838 -111.1102 213.184)" class="st66" width="5.7" height="18.6"/>
				
					<rect x="1076.8" y="741.9" transform="matrix(0.9838 -0.1791 0.1791 0.9838 -116.1702 210.942)" class="st67" width="66.6" height="13.8"/>
				
					<rect x="1102.7" y="742.2" transform="matrix(0.9838 -0.1791 0.1791 0.9838 -115.6387 212.9234)" class="st66" width="37.3" height="9.3"/>
				<path class="st68" d="M1086,749.3c2.6-0.5,5.1,1,5.5,3.2s-1.4,4.5-4.1,4.9s-5.1-0.9-5.5-3.2S1083.3,749.8,1086,749.3z"/>
				
					<rect x="1135.3" y="740.4" transform="matrix(0.9838 -0.1791 0.1791 0.9838 -114.9583 215.4539)" class="st69" width="0.8" height="7.9"/>
				
					<rect x="1131.5" y="741" transform="matrix(0.9838 -0.1793 0.1793 0.9838 -115.2297 215.0214)" class="st69" width="0.8" height="7.9"/>
				
					<rect x="1129.4" y="741.4" transform="matrix(0.9838 -0.1791 0.1791 0.9838 -115.2312 214.4145)" class="st69" width="0.8" height="7.9"/>
				
					<rect x="1127.4" y="741.7" transform="matrix(0.9838 -0.1791 0.1791 0.9838 -115.3179 214.0592)" class="st69" width="0.8" height="7.9"/>
				
					<rect x="1125" y="742.2" transform="matrix(0.9838 -0.1791 0.1791 0.9838 -115.4459 213.6387)" class="st69" width="0.8" height="7.9"/>
				
					<rect x="1122.5" y="742.7" transform="matrix(0.9838 -0.1791 0.1791 0.9838 -115.578 213.1977)" class="st69" width="0.8" height="7.9"/>
				
					<rect x="1120.1" y="743.1" transform="matrix(0.9838 -0.1791 0.1791 0.9838 -115.6892 212.775)" class="st69" width="0.8" height="7.9"/>
				
					<rect x="1075.3" y="738.6" transform="matrix(0.9838 -0.1791 0.1791 0.9838 -114.6709 210.5344)" class="st70" width="66.6" height="3.4"/>
			</g>
			<g>
				<path class="st26" d="M1111.6,738.6l-6.8-26l9.6-10.2c-5.1-8.1-7.5-11.1-12.5-12.7c-4,4.2-9.9,11.2-14.4,17.2
					c0,0-5.4,13,13.8,35.2C1101.3,742.2,1108,744.2,1111.6,738.6z"/>
				<path class="st19" d="M1113.6,706.7l16-12c0,0,7.4-17,3.4-28.5c0,0-15.7,2.2-35.9,24.6C1099.1,694.2,1107.1,703.3,1113.6,706.7z
					"/>
				<path class="st26" d="M1119.2,749c0.7,0.3,1.6,0.2,2.2-0.2c-7.6-16-17.9-9-17.9-9c-6,4.3-1.3,10,1.6,15.1
					c3.6,6.4,12.9,2.7,12.9,2.7C1123.5,760,1120.7,752.4,1119.2,749z"/>
			</g>
		</g>
		<g>
			<path class="st34" d="M1150.9,618.2c-2.8-4.2-0.2-9.8,0.6-11.1c3.6-5.8,12.8-7.3,19-7.1c3.8,0.2,7.6,0.2,11.3,0
				c1-0.1,2.2-0.2,2.8-1.2c0.3-0.8,0.2-1.8-0.2-2.6c-0.1-0.2-0.1-0.5-0.2-0.7c1.9,0.6,3.3,2.2,3.8,4.1c0.4-0.9,0.6-1.8,0.5-2.8
				c9,5.9,4,18.1,4,18.1c0.8,5-0.4,12.3-0.4,12.3l-18.5,16.2l-21.9-9C1151.1,629.1,1150.9,623.6,1150.9,618.2z"/>
			<path class="st35" d="M1181,606.6c-15,0.7-15.4,0.8-19.4,2.6c0,0,2.7-4.2,13.4-6.7c4.6-1.1,6.8-1.9,7.9-2.7
				c0.7-0.1,1.3-0.5,1.7-1.1c0.3-0.8,0.2-1.8-0.2-2.6c-0.1-0.2-0.1-0.5-0.2-0.7c1.9,0.6,3.3,2.2,3.8,4.1c0.4-0.9,0.6-1.8,0.5-2.8
				c0.7,0.5,1.4,1,2,1.7C1191.4,601.5,1191.1,606.2,1181,606.6z"/>
			<path class="st36" d="M1192.4,601c3.3,6.2,0.1,14,0.1,14c0.8,5-0.4,12.3-0.4,12.3l-18.5,16.2l-21.9-9c-0.6-5.4-0.9-10.8-0.8-16.3
				c9.6-9.9,32.2-6.9,37.8-8.4C1192.6,608.7,1192.7,603.8,1192.4,601z"/>
			<path class="st37" d="M1188,613.7c1.5,0.5,3,0.9,4.5,1.2c0.8,5-0.4,12.3-0.4,12.3l-18.5,16.2l-21.9-9c-0.6-5.4-0.9-10.8-0.8-16.3
				c5-3.8,11.9-4.4,11.9-4.4S1186.6,613.1,1188,613.7z"/>
			<path class="st26" d="M1153.9,632.8l2.8,3.2c0.5-1.3,2.4-7.1,2.2-8.5c-1.3-12.4,4.3-14,4.3-14c13.8-2.5,19.9-1.6,24.5,0
				c3.9,1.2,2.4,9.6,4.4,13.7c0.1,6.9,0,19.9-4.6,26.6c-2,3-4.6,5.5-8.8,6.1c-18.6,2.9-23.4-15.3-23.4-15.3s-5.8,1.6-7-7
				C1147.2,630.4,1153.9,632.8,1153.9,632.8z"/>
			<path class="st27" d="M1161.7,614.5c0.4-0.4,0.9-0.7,1.5-1c13.8-2.5,19.9-1.6,24.5,0c0.4,0.1,0.8,0.4,1.2,0.7
				C1179.8,613,1170.7,613,1161.7,614.5z"/>
			<path class="st38" d="M1176.1,644.2c3.6,1.5,5.6-0.2,5.7-1.9c0.1-1.1-0.6-2.1-1.6-2.5c-2.2-0.9-3.7-4.2-3.8-4.3l0,0
				c0.3,2.2,1.6,4.2,3.6,5.3c0.6,0.3,1,0.7,0.9,1.3C1180.9,643.1,1179.5,644.4,1176.1,644.2z"/>
			<path class="st34" d="M1189.2,626.8l0.2-1.1c-2.7-0.6-5.5-0.9-8.3-0.7v1.7C1183.8,626.5,1186.5,626.5,1189.2,626.8z"/>
			<path class="st34" d="M1163.6,627.8c2.9-1.1,8.3-1.3,8.4-1.4l-0.3-1.5c-0.2,0-5.1,0.2-8.4,2L1163.6,627.8z"/>
			<path class="st27" d="M1156.6,642.5c1.6,4.6,7.5,16,20.2,15.3c6.9-0.4,10.4-5,12.7-8.1c-0.5,1.5-1.2,2.8-2,4.1
				c-2,3-4.6,5.5-8.8,6.1c-18.6,2.9-23.4-15.3-23.4-15.3s-4.5,1.2-6.4-4.5C1152.2,646,1156.6,642.5,1156.6,642.5z"/>
			<path class="st40" d="M1183.1,634.5c0-1.7,1-3,2.2-3s2.1,1.3,2.1,3s-1,3-2.1,3S1183.1,636.2,1183.1,634.5z"/>
			<path class="st40" d="M1165.7,634.5c0-1.7,1-3,2.1-3s2.2,1.3,2.2,3s-1,3-2.2,3S1165.7,636.2,1165.7,634.5z"/>
			<g>
				<path class="st41" d="M1159.2,628.8c-2.9,0.5-5.5,1.7-7.7,3.7c0.8,0,1.6,0.1,2.4,0.4c1.7-0.8,3.4-1.4,5.2-1.9
					C1159.1,631,1160.2,629.5,1159.2,628.8z"/>
				<g>
					
						<linearGradient id="SVGID_6_" gradientUnits="userSpaceOnUse" x1="8959.9463" y1="638.26" x2="8959.9463" y2="622.87" gradientTransform="matrix(-1 0 0 1 10146.0703 0)">
						<stop  offset="0" style="stop-color:#FFFFFF"/>
						<stop  offset="1" style="stop-color:#FFFFFF"/>
					</linearGradient>
					<path class="st71" d="M1193.2,629.5c0,0-10.3-0.2-14.2,1.7c0,0,0.9,8,4.3,9S1193.9,640.9,1193.2,629.5z"/>
				</g>
				<g>
					
						<linearGradient id="SVGID_7_" gradientUnits="userSpaceOnUse" x1="8978.9941" y1="638.26" x2="8978.9941" y2="622.87" gradientTransform="matrix(-1 0 0 1 10146.0703 0)">
						<stop  offset="0" style="stop-color:#FFFFFF"/>
						<stop  offset="1" style="stop-color:#FFFFFF"/>
					</linearGradient>
					<path class="st72" d="M1160,629.5c0,0,10.3-0.2,14.2,1.7c0,0-0.9,8-4.3,9S1159.3,640.9,1160,629.5z"/>
				</g>
				<path class="st41" d="M1164.2,640.5c1.4,0.1,2.9,0.2,4.1,0.2l0,0c1.7,0,3.1-0.2,4.1-1.4c1.7-1.9,2.3-5.3,2.6-7.1
					c1.1-0.2,2.2-0.2,3.3,0c0.2,1.9,0.9,5.2,2.6,7.1c1,1.2,2.4,1.4,4.1,1.4l0,0c1.2,0,2.6-0.1,4.1-0.2c5.5-0.5,5.1-10.6,5.1-11v-0.7
					h-0.8c-1,0-2-0.1-2.9-0.1c-3.9-0.1-7.9,0.4-11.7,1.5h-0.1c-1.2-0.3-2.5-0.2-3.7,0.1l-0.4-0.1c-3.8-1-7.7-1.5-11.7-1.5
					c-1,0-1.9,0-2.9,0.1h-0.8v0.7C1159.1,630,1158.7,640,1164.2,640.5z M1179.9,631.5c3.4-0.8,6.9-1.2,10.5-1.2c0.7,0,1.3,0,2,0
					c0,2.8-0.6,8.3-3.5,8.5c-1.9,0.2-3,0.2-3.9,0.2c-1.8,0-2.4-0.3-2.8-0.8C1180.8,636.7,1180.1,633.3,1179.9,631.5L1179.9,631.5z
					 M1160.8,630.4c0.7,0,1.3,0,2,0c3.5,0,7,0.4,10.5,1.2c-0.2,1.8-0.8,5.2-2.2,6.8c-0.4,0.5-1,0.8-2.8,0.8c-0.9,0-2-0.1-3.9-0.2
					C1161.4,638.6,1160.8,633.2,1160.8,630.4L1160.8,630.4z"/>
			</g>
			<path class="st39" d="M1172.2,649.9c0,2.5,1.6,4.4,3.6,4.4s3.6-2,3.6-4.4s-1.6-4.4-3.6-4.4S1172.2,647.5,1172.2,649.9z"/>
		</g>
	</g>
	<g>
		<ellipse class="st28" cx="1564.5" cy="900.6" rx="52.3" ry="5.7"/>
		<g>
			<path class="st26" d="M1625.1,628.1c-0.8,0.1-1.4,0.8-1.3,1.7v-2.7c0-0.9-0.5-1.7-1.3-1.7s-1.3,0.8-1.3,1.7v-2.3
				c0.1-0.8-0.5-1.6-1.3-1.7c-0.8-0.1-1.6,0.5-1.7,1.3c0,0.1,0,0.2,0,0.3v2c0.1-0.8-0.5-1.6-1.3-1.7c-0.8-0.1-1.6,0.5-1.7,1.3
				c0,0.1,0,0.2,0,0.3v12.5l-3-2.9c-0.7-0.7-1.8-0.7-2.5-0.1l0,0l0,0c-0.6,0.8-0.5,1.9,0.3,2.5l0,0l5.1,6.4c1.2,2,2.9,4,5.9,4
				c3.1,0,5.6-2.5,5.6-5.6l0,0v-13.6C1626.6,628.9,1625.9,628.2,1625.1,628.1L1625.1,628.1z"/>
			<path class="st7" d="M1587.1,682.1c0,0,14.3-2.6,25.9-5.5c0,0,2.3-22.7,2.7-28.8c3.5-1.8,7.6-2.1,11.4-0.8c0,0,7,33-4.7,42.8
				c0,0-4.9,4.2-34.1,15.8C1588.2,705.5,1584.2,693.5,1587.1,682.1z"/>
		</g>
		<g>
			<path class="st47" d="M1548.5,897.5h-19c0,0-1.1-5.1,2.9-11.7l12.8,0.2C1547.4,889.4,1548.6,893.4,1548.5,897.5z"/>
			<rect x="1529.6" y="897.5" class="st48" width="19" height="3"/>
			<path class="st49" d="M1531.8,892.2c0,1.3,3.2,2.4,7.2,2.4s7.2-1.1,7.2-2.4s-3.2-2.3-7.2-2.3S1531.8,891,1531.8,892.2z"/>
		</g>
		<g>
			<path class="st47" d="M1567.5,884.7c0,0-1.5,7.6-0.4,12.9h35.8c0,0,1.2-7.8-14.4-7.8l-10-6.8L1567.5,884.7z"/>
			<path class="st48" d="M1567.3,900.6h11.8l0.2-2.1c3.8,1.3,7.8,2,11.8,2c3.3,0,12,0.1,12,0.1v-3.1h-35.7L1567.3,900.6z"/>
			<path class="st49" d="M1589.6,889.8c0,0,0.5,5.5,12.9,5.3C1602.5,895.1,1600.8,890.1,1589.6,889.8z"/>
		</g>
		<g>
			<path class="st50" d="M1585.2,755.7l0.7,130.2c0,0-9.7,4.9-18.9,1.1l-3.5-103.6l-2.7-0.1l-13.3,103.8c0,0-7,3.2-17.4-0.7
				l10.5-130.6h44.6V755.7z"/>
			<path class="st51" d="M1585.7,838l0.3,47.8c0,0-9.7,4.9-18.9,1.1l-2.2-64C1570,843.3,1581.1,840.2,1585.7,838z"/>
			<path class="st51" d="M1534.8,830.4c6.9,18.7,16,6.7,19.9,0l-7.2,56.5c0,0-7,3.2-17.4-0.6L1534.8,830.4z"/>
			<path class="st47" d="M1585.7,756.5c0,0-16.3,4.8-45.4,0l-0.2,5.8c0,0,23.9,4.4,45.6,0.1V756.5z"/>
			<rect x="1559.7" y="758.3" class="st52" width="8.3" height="6.3"/>
			
				<rect x="1573.7" y="757.7" transform="matrix(0.999 -4.466565e-02 4.466565e-02 0.999 -32.4211 71.0944)" class="st53" width="2" height="6.7"/>
			
				<rect x="1552.2" y="757.4" transform="matrix(6.982627e-02 -0.9976 0.9976 6.982627e-02 690.4451 2257.1792)" class="st53" width="6.7" height="2"/>
		</g>
		<g>
			<path class="st10" d="M1532.5,686.4c5.5-2.3,11.2-4,17-5.3c10.1-1.8,14.2-1.3,22,0.3c4.3,0.7,11.5,0.2,15.6,0.6
				c0,0,2.6,15.1,0,74.4c0,0-16.8,5.9-47.8,0c0,0-0.3-26.9-4.4-43.1C1535,713.3,1533.8,696.7,1532.5,686.4z"/>
			<path class="st9" d="M1566.9,694l-2.4-1.6l-1.7,2.2l6.4,48.2l-4.3,5l-5.9-7.4l0.8-44.6l-2.1-2l-1.1,1.2c0,0-7.6-5-8.8-13.6
				c0.6-0.1,1.1-0.3,1.7-0.4c10.1-1.8,13.2-1.5,21,0.2l1,0.2C1571.4,681.4,1572.2,686.9,1566.9,694z"/>
			<g>
				<path class="st26" d="M1566.3,677.8l0.2,8.3l-13.7,0.4l-0.3-10.8C1556.9,677.6,1561.7,678.3,1566.3,677.8z"/>
				<path class="st27" d="M1552.6,675.7l-0.2-8.3l13.7-0.4l0.3,10.8C1561.7,678.3,1556.9,677.6,1552.6,675.7z"/>
			</g>
			<path class="st13" d="M1566.8,690.2l-2.9,4.8c2.1,6.4,3.5,12.9,4.3,19.6c0.9,8.5,1.4,17,1.5,25.6l-4.7,5.3l-4.6-5.4l0.5-44.8
				l-4-4l4.5-5.8L1566.8,690.2z"/>
			<path class="st10" d="M1566.3,677.8c0,0-0.6,5.6-5,7.6c0,0-8.1-2.2-8.7-7.6l-4.6,3.6c0,0,3,8.9,9.3,11.2l4-6l5.4,5
				c0,0,5.2-6.3,4.8-10.2L1566.3,677.8z"/>
		</g>
		<path class="st26" d="M1533.8,749.4l3-2.1l2.2,0.5c2.1-0.7,3.1-2.1,4.1-2.2c1-0.3,1.9-0.7,2.7-1.3c1,1.5-0.9,3.1-0.9,3.1
			s0.3-0.1,0.4-0.1l1.1-0.2l1.4-0.3c0.4-0.1,0.9-0.2,1.3-0.3c0.3-0.1,0.7-0.1,1.1-0.1s0.7,0,1.1,0.1s2.8,0.9,3.2,1l0.6,0.1
			c0.2,0.4,0.2,0.9,0,1.4c-0.4,0.7-1.5,0.7-2,0.6c-0.5-0.1-0.9-0.2-1.4-0.4c-0.3-0.2-0.6-0.2-0.8-0.1c-0.3,0-0.7,0.2-1,0.2l-2.2,0.5
			l-0.5,0.1c0,0,3.6,0.7,4.7,1c0.8,0.2,3.2,2.5,3.2,2.5c1.7,1.6-1,2.2-1,2.2c0.2,0.2,0.3,0.4,0.3,0.6c0,0.2-0.1,0.3-0.2,0.5
			c-0.2,0.2-0.5,0.3-0.7,0.4c-0.5,0.2-1,0.2-1.5,0.1l-0.4-0.1l-0.4-0.2c-0.2-0.1-0.3-0.2-0.5-0.2c-0.5-0.3-1-0.6-1.4-0.9
			c-0.1,0-0.2-0.2-0.2-0.2l-2.8-0.2c0.9,0.5,1.9,2.2,3.2,3c0.2,0.1,0.4,0.3,0.5,0.4c0.2,0.2,0.3,0.4,0.3,0.7c0,0.2-0.2,0.3-0.4,0.4
			c-0.5,0.2-1.1,0.2-1.7,0.1c-0.3-0.1-0.6-0.2-0.8-0.3c-0.2-0.1-0.4-0.2-0.6-0.4c-0.1-0.1-0.2-0.1-0.2-0.2c-1.7-1.9-3.6-2.8-6-1.6
			c-3.5,1.8-6.2-3.4-6.2-3.4L1533.8,749.4z"/>
		<path class="st10" d="M1532.5,686.4c0,0-6.4,0.4-23.7,33.1c0,0-7.1,13.4,24.1,35.3c3.7-1.2,6.1-4.7,6.1-8.5l-15.4-20.3l11.5-12.6
			C1535,713.3,1538.5,694.8,1532.5,686.4z"/>
		<g>
			<g>
				<path class="st54" d="M1537.9,638.3c0.7-1.8,1.3-3,1.8-3.9c0.9-2.3,5.5-7.1,16.6-12.1c16.1-7.3,19,3.6,19,3.6
					c-0.2-1.3-0.6-2.6-1.1-3.8c5.7,3.8,2.2,25.2,2.2,25.2c-15.9,10.9-33.9,7-33.9,7c-0.9-4.5-2-10.6-2.6-14.5c-0.7,0.6-1.4,1.3-2,2
					c0.3-1.4,0.8-2.9,1.3-4.3L1537.9,638.3z"/>
				<path class="st55" d="M1551.3,629.7c6-4.4,14.1-7.3,19.7-8.9c2.1,1,3.6,2.9,4.4,5c-0.2-1.3-0.6-2.6-1.1-3.8
					c1.5,1,2.3,3.1,2.8,5.8C1561.9,625.8,1551.3,629.7,1551.3,629.7z"/>
				<path class="st55" d="M1563.1,640.2l12-2.1c0.8,0.1,1.5,0.3,2.2,0.5c-0.3,4.7-0.9,8.6-0.9,8.6c-15.9,10.9-33.9,7-33.9,7
					c-0.8-4-1.7-9.3-2.4-13.2c2.6-1.7,9.3-2.7,9.3-2.7L1563.1,640.2z"/>
				<path class="st56" d="M1571.1,636.2c0,0,3.7-14.6-8.2-15.4C1562.9,620.8,1572,622,1571.1,636.2z"/>
				<path class="st56" d="M1567.7,635.7c0,0-1.3-10.7-8.2-13.2C1563.4,626.1,1566.2,630.6,1567.7,635.7z"/>
				<path class="st56" d="M1563.1,634.2c0,0-3.4-8.6-15.1-6C1548,628.2,1557.5,627.3,1563.1,634.2z"/>
				<path class="st56" d="M1557.3,634.9c0,0-5.4-7.5-16.2-2C1541.2,632.8,1550.2,629.6,1557.3,634.9z"/>
			</g>
			<g>
				<path class="st26" d="M1544.1,651.3l2.2,1.8c0.4-1.1,0.8-2.2,1.1-3.3c1-3.7,1.7-7.6,2.1-11.4c8.5-1.2,17.1-1.3,25.6-0.2
					c-0.2,2.2,1.3,9.1,1.3,9.1c0,5.9,0.1,15.8-3.9,21.8c-1.7,2.5-3.8,4.6-7.5,5.2c-15.7,2.5-19.8-12.9-19.8-12.9s-4.9,1.3-5.9-6
					C1538.5,649.3,1544.1,651.3,1544.1,651.3z"/>
				<path class="st27" d="M1546.5,659.4c1.3,3.9,6.3,13.5,17.1,12.9c5.8-0.3,8.8-4.2,10.7-6.8c-0.4,1.2-1,2.4-1.7,3.5
					c-1.7,2.5-3.8,4.6-7.5,5.2c-15.7,2.5-19.8-12.9-19.8-12.9s-3.8,1.1-5.4-3.8C1542.8,662.3,1546.5,659.4,1546.5,659.4z"/>
			</g>
			<path class="st38" d="M1562.9,660.9c3,1.2,4.7-0.2,4.8-1.6c0.1-0.9-0.5-1.8-1.3-2.1c-1.9-0.7-3.2-3.6-3.2-3.6l0,0
				c0.3,1.9,1.4,3.5,3,4.5c0.5,0.3,0.8,0.6,0.8,1.1C1566.9,659.9,1565.7,661,1562.9,660.9z"/>
			<path class="st54" d="M1573.9,646.2l0.1-0.9c-2.3-0.5-4.7-0.7-7-0.6v1.4C1569.4,645.9,1571.7,645.9,1573.9,646.2z"/>
			<path class="st54" d="M1551.6,646.7c2.3-0.7,4.7-1.1,7.1-1.2l-0.3-1.3c-0.2,0-4.3,0.2-7.1,1.7L1551.6,646.7z"/>
			<g>
				<path class="st73" d="M1557.6,663c3.6,0.7,7.4,0.7,11,0c0,0-0.9,4.9-5.5,4.9C1560.3,667.9,1557.9,665.8,1557.6,663z"/>
				<path class="st3" d="M1563.2,665.3c3.5,0,4.6-1.5,5-2.2c-3.4,0.6-6.9,0.6-10.4,0C1558.2,663.9,1559.9,665.3,1563.2,665.3z"/>
			</g>
			<path class="st40" d="M1568.3,653.6c0.5-0.8,1.4-1.3,2.3-1.5c0.8,0,1.6,0.2,2.2,0.8l0.7-0.7c-0.8-0.7-1.9-1.1-3-1
				c-1.2,0.2-2.3,0.8-3,1.8L1568.3,653.6z"/>
			<path class="st40" d="M1558.1,653.6l0.8-0.6c-0.7-1-1.8-1.7-3-1.8c-1.1-0.1-2.2,0.3-3,1l0.7,0.7l-0.3-0.4l0.3,0.4
				c0.6-0.5,1.4-0.8,2.2-0.8C1556.7,652.3,1557.6,652.8,1558.1,653.6z"/>
		</g>
	</g>
	<g>
		<g>
			<path class="st26" d="M1643.1,670.2c0.7-3.6,2.1-6.3,5.7-5.6l3,0.6c-0.6-1.5-1-3-1.4-4.5c-0.5-2.9,0.8-4,1.5-4.2s2.4-0.2,2.2,2.4
				s3.8,7.8,3.8,7.8c1.6,1.1,3,3.5,2.3,7.1s-4.2,5.8-7.8,5.1c0,0,0,0-0.1,0l-5.9-1.2C1643,676.9,1642.4,673.8,1643.1,670.2z"/>
			<path class="st26" d="M1678.3,698.4c0,0-13-17.7-17.7-25.5c-3.2,0.7-5.8,3-6.9,6.1c0,0,3.6,19.8,13.6,31.8c0,0,8.5,10.9,25.1-1.8
				c-1.2-7.8-5.7-12.8-9.3-15C1681.6,695.6,1680,697.1,1678.3,698.4z"/>
			<path class="st20" d="M1703.7,701.8c0,0,2.7-15.2-1.5-28.1c0,0-6.2,4.5-21.4,20.4c1.6,3.5,7.1,11.7,11.8,17.3
				C1695.9,708.8,1699.8,706.5,1703.7,701.8z"/>
		</g>
		<ellipse class="st28" cx="1726.3" cy="904.6" rx="56.3" ry="6.1"/>
		<g>
			<path class="st16" d="M1743.5,901.3h20.5c0,0,1.2-5.4-3.1-12.6l-13.8,0.2C1744.7,892.5,1743.4,896.9,1743.5,901.3z"/>
			<rect x="1743.5" y="901.3" class="st29" width="20.4" height="3.2"/>
			<path class="st30" d="M1761.5,895.6c0,1.4-3.5,2.5-7.7,2.5s-7.7-1.1-7.7-2.5s3.4-2.5,7.7-2.5S1761.5,894.2,1761.5,895.6z"/>
		</g>
		<g>
			<path class="st16" d="M1723.2,887.4c0,0,1.5,8.1,0.3,13.9h-38.4c0,0-1.4-8.4,15.4-8.3l10.7-7.3L1723.2,887.4z"/>
			<path class="st29" d="M1723.4,904.5h-12.5l-0.2-2.2c-4.1,1.4-8.4,2.2-12.8,2.2c-3.6,0-13,0.1-13,0.1v-3.3h38.4L1723.4,904.5z"/>
			<path class="st30" d="M1699.4,893c0,0-0.6,5.9-13.8,5.7C1685.5,898.7,1687.4,893.2,1699.4,893z"/>
		</g>
		<g>
			<path class="st18" d="M1704.1,748.8l-0.7,139.9c0,0,10.5,5.2,20.3,1.2l3.8-111.3l2.9-0.1l14.2,111.5c0,0,7.5,3.4,18.7-0.7
				L1752,748.8H1704.1z"/>
			<path class="st31" d="M1703.6,837.3l-0.3,51.4c0,0,10.5,5.2,20.3,1.1l2.3-68.8C1720.5,843,1708.5,839.7,1703.6,837.3z"/>
			<path class="st31" d="M1758.2,829.2c-7.4,20-17.2,7.2-21.4,0l7.8,60.7c0,0,7.5,3.4,18.7-0.7L1758.2,829.2z"/>
			<path class="st16" d="M1703.3,749.7c0,0,17.6,5.1,48.9,0l0.2,6.2c0,0-25.8,4.8-49.1,0.1V749.7z"/>
			<rect x="1722.3" y="751.7" class="st32" width="9" height="6.8"/>
			
				<rect x="1712" y="753.7" transform="matrix(4.466561e-02 -0.999 0.999 4.466561e-02 884.9943 2434.9497)" class="st33" width="7.2" height="2.2"/>
			
				<rect x="1745.1" y="749.1" transform="matrix(0.9976 -6.982627e-02 6.982627e-02 0.9976 -48.2983 123.766)" class="st33" width="2.2" height="7.2"/>
		</g>
		<g>
			<path class="st19" d="M1761.1,674.5c-5.9-2.4-12-4.4-18.2-5.7c-10.9-1.9-14.1-1.6-22.5,0.2c-4.7,0.7-13.3,2.6-17.9,4.8
				c0,0-1.2,26,0,76c0,0,18,6.3,51.3,0c0,0,0.4-28.9,4.7-46.3C1758.4,703.4,1759.7,685.4,1761.1,674.5z"/>
			<path class="st31" d="M1724.1,682.6l5.9-7l4.2,8.4c0,0,9.2-5.6,10.5-14.8l-1.8-0.4c-10.9-1.9-14.1-1.6-22.5,0.2l-1.1,0.2
				C1719.3,669.1,1718.4,675,1724.1,682.6z"/>
			<g>
				<path class="st26" d="M1724.7,665.2l-0.2,8.9l14.7,0.4l0.3-11.5C1734.8,665,1729.8,665.8,1724.7,665.2z"/>
				<path class="st27" d="M1739.5,662.9l0.2-8.9l-14.7-0.4l-0.3,11.6C1729.8,665.8,1734.8,665,1739.5,662.9z"/>
			</g>
			<path class="st19" d="M1724.7,665.2c0,0,0.7,6.1,5.4,8.1c0,0,8.7-2.4,9.4-8.1l5,3.9c0,0-3.2,9.5-10,12.1l-4.2-6.5l-5.8,5.3
				c0,0-5.6-6.8-5.1-10.9L1724.7,665.2z"/>
		</g>
		<g>
			<path class="st26" d="M1759.6,742.1c-0.7-1.2-1.9-2-3.2-2.2l-2.4,0.5c-2.3-0.7-3.3-2.2-4.4-2.4c-1-0.3-2-0.8-2.9-1.4
				c-1.1,1.6,1,3.3,1,3.3l-0.5-0.1l-1.2-0.2c-0.5-0.1-1-0.2-1.5-0.3s-1-0.2-1.4-0.3s-0.7-0.1-1.1-0.2c-0.4,0-0.8,0-1.2,0.1
				c-0.5,0.1-3,1-3.5,1.1l-0.6,0.1c-0.2,0.5-0.2,1,0,1.5c0.4,0.8,1.6,0.8,2.2,0.7c0.5-0.1,1-0.3,1.5-0.4c0.3-0.2,0.6-0.2,0.9-0.1
				c0.4,0.1,0.7,0.1,1.1,0.2l2.4,0.5l0.6,0.1c0,0-3.8,0.7-5,1c-0.9,0.2-3.4,2.7-3.4,2.7c-1.8,1.7,1,2.4,1,2.4
				c-0.2,0.2-0.3,0.4-0.3,0.7c0,0.2,0.1,0.4,0.3,0.5c0.2,0.2,0.5,0.3,0.8,0.4c0.5,0.2,1,0.2,1.6,0.1c0.1,0,0.3-0.1,0.4-0.2l0.4-0.2
				l0.5-0.3c0.5-0.3,1-0.6,1.5-1c0.1,0,0.2-0.2,0.3-0.2l3-0.2c-1,0.5-2,2.4-3.4,3.2c-0.2,0.1-0.4,0.3-0.6,0.5s-0.3,0.4-0.3,0.7
				s0.3,0.3,0.5,0.4c0.6,0.2,1.2,0.2,1.8,0.1c0.3-0.1,0.6-0.2,0.9-0.3c0.2-0.1,0.4-0.3,0.6-0.4c0.1-0.1,0.2-0.1,0.3-0.2
				c1.8-2,3.8-3,6.4-1.7c3.7,1.9,6.7-3.6,6.7-3.6S1760.8,744.1,1759.6,742.1z"/>
			<path class="st26" d="M1780.4,701.8c1.2,2.1,4.1,6.8,5.3,9.2c0,0,6.9,12.4-26.7,36c0,0-4-2-2.7-7.2l14.2-23l-3.5-6
				C1770.6,706.6,1775.2,703.5,1780.4,701.8z"/>
			<path class="st19" d="M1761,674.5c0,0,6,0.4,21.8,28.8c-4.3,4.5-9.6,8-15.5,10l-8.9-9.8C1758.3,703.4,1754.5,683.4,1761,674.5z"
				/>
		</g>
		<g>
			<path class="st34" d="M1751,623.8c2.6-3.8,0.2-8.9-0.5-10c-3.2-5.3-11.7-6.6-17.2-6.4c-3.4,0.1-6.9,0.2-10.3,0
				c-0.9-0.1-2-0.2-2.5-1.1c-0.3-0.8-0.2-1.6,0.1-2.3c0.1-0.2,0.1-0.4,0.2-0.6c-1.7,0.6-3,2-3.4,3.7c-0.4-0.8-0.5-1.6-0.5-2.5
				c-8.1,5.3-3.6,16.4-3.6,16.4c-0.8,4.5,0.4,11.1,0.4,11.1l16.7,14.7l19.8-8.2C1750.8,633.7,1751.1,628.8,1751,623.8z"/>
			<path class="st35" d="M1723.7,613.3c13.6,0.6,14,0.7,17.6,2.4c0,0-2.4-3.8-12.1-6c-4.2-1-6.2-1.8-7.2-2.4c-0.6-0.1-1.2-0.4-1.6-1
				c-0.3-0.8-0.2-1.6,0.1-2.3c0.1-0.2,0.1-0.4,0.2-0.6c-1.7,0.6-3,2-3.4,3.7c-0.4-0.8-0.5-1.6-0.5-2.5c-0.7,0.4-1.3,0.9-1.8,1.5
				C1714.3,608.8,1714.6,612.9,1723.7,613.3z"/>
			<path class="st36" d="M1713.4,608.3c-3,5.6-0.1,12.6-0.1,12.6c-0.8,4.5,0.4,11.1,0.4,11.1l16.7,14.7l19.8-8.2
				c0.6-4.9,0.8-9.8,0.7-14.8c-8.7-9-29.2-6.2-34.2-7.6C1713.2,615.2,1713.2,610.8,1713.4,608.3z"/>
			<path class="st37" d="M1717.4,619.8c-1.3,0.5-2.7,0.9-4.1,1.1c-0.8,4.5,0.4,11.1,0.4,11.1l16.7,14.7l19.8-8.2
				c0.6-4.9,0.8-9.8,0.7-14.8c-4.6-3.4-10.8-4-10.8-4S1718.7,619.2,1717.4,619.8z"/>
			<path class="st26" d="M1748.3,637.1l-2.6,2.9c-0.5-1.2-2.2-6.4-2-7.7c1.2-11.3-3.9-12.7-3.9-12.7c-12.5-2.2-18-1.4-22.2,0
				c-3.6,1.1-2.2,8.7-4,12.4c-0.1,6.2,0,18,4.1,24.1c1.8,2.7,4.1,5,8,5.6c16.9,2.6,21.2-13.9,21.2-13.9s5.3,1.4,6.4-6.4
				C1754.4,634.9,1748.3,637.1,1748.3,637.1z"/>
			<path class="st27" d="M1741.2,620.5c-0.4-0.4-0.8-0.7-1.3-0.8c-12.5-2.2-18-1.4-22.2,0c-0.4,0.1-0.7,0.3-1,0.6
				C1724.8,619.1,1733.1,619.2,1741.2,620.5z"/>
			<path class="st38" d="M1728.2,647.4c-3.3,1.3-5-0.2-5.2-1.8c-0.1-1,0.5-1.9,1.4-2.3c2-0.8,3.4-3.8,3.4-3.9l0,0
				c-0.3,2-1.5,3.8-3.2,4.8c-0.5,0.3-0.9,0.7-0.8,1.2C1723.9,646.3,1725.1,647.6,1728.2,647.4L1728.2,647.4z"/>
			<path class="st34" d="M1716.3,631.7l-0.1-1c2.5-0.6,5-0.8,7.5-0.6v1.5C1721.2,631.3,1718.8,631.4,1716.3,631.7z"/>
			<path class="st34" d="M1739.6,632.5c-2.6-1-7.5-1.2-7.6-1.2l0.3-1.4c0.2,0,4.6,0.2,7.6,1.8L1739.6,632.5z"/>
			<path class="st27" d="M1745.8,645.8c-1.4,4.2-6.8,14.5-18.3,13.9c-6.2-0.3-9.4-4.5-11.5-7.4c0.5,1.3,1.1,2.6,1.8,3.8
				c1.8,2.7,4.1,5,8,5.6c16.9,2.6,21.2-13.9,21.2-13.9s4.1,1.1,5.8-4C1749.8,649,1745.8,645.8,1745.8,645.8z"/>
			<g>
				<path class="st39" d="M1733.9,649.7c-3.9,0.7-7.9,0.7-11.9,0c0,0,1,5.3,5.9,5.2C1730.9,654.9,1733.5,652.7,1733.9,649.7z"/>
				<path class="st3" d="M1727.8,652.2c-3.8,0-4.9-1.6-5.4-2.4c3.7,0.6,7.4,0.6,11.1,0C1733.2,650.7,1731.4,652.2,1727.8,652.2z"/>
			</g>
			<path class="st40" d="M1721.6,639.6c-1.2-1.2-3-1.4-4.4-0.6l-0.6-1.3c1.9-1.1,4.4-0.8,6,0.8L1721.6,639.6z"/>
			<path class="st40" d="M1733.5,639.6c1.4-1.2,3.3-1.4,4.9-0.6l0.7-1.3c-2.1-1.1-4.7-0.8-6.6,0.8L1733.5,639.6z"/>
			<g>
				<path class="st41" d="M1743.6,633.4c2.6,0.4,5,1.6,6.9,3.3c-0.7,0-1.5,0.1-2.2,0.3c-1.5-0.7-3.1-1.3-4.7-1.7
					C1743.6,635.4,1742.6,634.1,1743.6,633.4z"/>
				<g>
					<linearGradient id="SVGID_8_" gradientUnits="userSpaceOnUse" x1="1719.1305" y1="642.03" x2="1719.1305" y2="628.08">
						<stop  offset="0" style="stop-color:#FFFFFF"/>
						<stop  offset="1" style="stop-color:#FFFFFF"/>
					</linearGradient>
					<path class="st74" d="M1712.7,634c0,0,9.3-0.2,12.9,1.5c0,0-0.8,7.2-3.9,8.1S1712.1,644.4,1712.7,634z"/>
				</g>
				<g>
					<linearGradient id="SVGID_9_" gradientUnits="userSpaceOnUse" x1="1736.3695" y1="642.03" x2="1736.3695" y2="628.08">
						<stop  offset="0" style="stop-color:#FFFFFF"/>
						<stop  offset="1" style="stop-color:#FFFFFF"/>
					</linearGradient>
					<path class="st75" d="M1742.8,634c0,0-9.3-0.2-12.9,1.5c0,0,0.8,7.2,3.9,8.1S1743.4,644.4,1742.8,634z"/>
				</g>
				<path class="st41" d="M1743.6,634.1v-0.7h-0.7c-0.9,0-1.8-0.1-2.6-0.1c-3.6-0.1-7.1,0.4-10.6,1.3l-0.3,0.1
					c-1.1-0.3-2.3-0.3-3.4-0.1h-0.1c-3.4-0.9-7-1.4-10.6-1.3c-0.9,0-1.8,0-2.6,0.1h-0.7v0.7c0,0.4-0.4,9.5,4.6,10
					c1.3,0.1,2.6,0.2,3.7,0.2l0,0c1.6,0,2.8-0.2,3.7-1.2c1.5-1.7,2.1-4.8,2.3-6.5c1-0.2,2-0.2,3,0c0.2,1.7,0.8,4.8,2.3,6.5
					c0.9,1,2.2,1.2,3.7,1.2l0,0c1,0,2.4-0.1,3.7-0.2C1744,643.6,1743.6,634.5,1743.6,634.1z M1722.7,642.1c-0.4,0.5-1,0.7-2.5,0.7
					c-0.8,0-1.8-0.1-3.5-0.2c-2.7-0.2-3.2-5.1-3.2-7.7h1.8c3.2,0,6.4,0.3,9.5,1.1C1724.6,637.5,1724,640.6,1722.7,642.1
					L1722.7,642.1z M1738.8,642.6c-1.7,0.2-2.8,0.2-3.5,0.2c-1.6,0-2.1-0.3-2.5-0.7c-1.3-1.5-1.9-4.5-2-6.2c3.1-0.7,6.3-1.1,9.5-1.1
					h1.8C1742,637.4,1741.5,642.3,1738.8,642.6L1738.8,642.6z"/>
			</g>
		</g>
	</g>
	<path class="st4" d="M1415.4,529.2h-408.7V120.5h408.7V529.2z M1011.4,524.4h399.2V125.2h-399.2L1011.4,524.4L1011.4,524.4z"/>
	<path class="st4" d="M1415.4,957.3h-408.7V548.6h408.7V957.3z M1011.4,952.5h399.2V553.3h-399.2L1011.4,952.5L1011.4,952.5z"/>
	<path class="st4" d="M1849,529.2h-408.7V120.5H1849V529.2z M1445.1,524.4h399.2V125.2h-399.2L1445.1,524.4L1445.1,524.4z"/>
	<path class="st4" d="M1849,958.8h-408.7V550.1H1849V958.8z M1445.1,954h399.2V554.8h-399.2L1445.1,954L1445.1,954z"/>
	<g class="st2">
		<path d="M1065.2,188l-3.1-8.9H1044l-3.1,8.9h-9.2l15.9-43.1h11l15.9,43.1H1065.2z M1046.6,171.6h12.9l-6.4-18.3L1046.6,171.6z"/>
	</g>
	<g class="st2">
		<path d="M1055.5,618.9c-3.1,0-6.1-0.5-8.8-1.6s-5.1-2.5-7-4.4s-3.5-4.2-4.6-7c-1.1-2.8-1.7-5.8-1.7-9.2c0-4.4,1-8.3,2.9-11.7
			s4.5-6,7.9-7.7s7.1-2.7,11.3-2.7c4.8,0,9,1.2,12.7,3.5c3.6,2.3,6.2,5.5,7.7,9.6l-8.4,3c-1-2.5-2.5-4.4-4.6-5.8
			c-2.1-1.4-4.6-2.1-7.4-2.1c-3.8,0-7,1.3-9.4,3.8s-3.7,5.9-3.7,10.2c0,4.3,1.2,7.6,3.7,10.2c2.5,2.5,5.6,3.8,9.4,3.8
			c2.8,0,5.2-0.7,7.4-2.1c2.1-1.4,3.7-3.3,4.6-5.8l8.4,3c-1.5,4.1-4.1,7.3-7.7,9.6C1064.5,617.7,1060.3,618.9,1055.5,618.9z"/>
	</g>
	<g class="st2">
		<path d="M1499.7,165.2c5.4,1.5,8.1,5.1,8.1,10.7c0,3.7-1.1,6.7-3.4,8.9c-2.3,2.2-5.7,3.2-10.1,3.2h-17.8v-43.1h14
			c4.6,0,8.1,1,10.6,3.1c2.4,2.1,3.7,5,3.7,8.7c0,1.9-0.4,3.6-1.3,5.1S1501.4,164.4,1499.7,165.2z M1490.6,152.2h-5.4v10.2h5.8
			c1.8,0,3.2-0.5,4.1-1.4c0.9-1,1.4-2.2,1.4-3.8c0-1.5-0.5-2.7-1.5-3.6C1494,152.7,1492.5,152.2,1490.6,152.2z M1492.6,180.3
			c2.2,0,3.9-0.5,4.9-1.5c1-1,1.6-2.3,1.6-3.9c0-1.6-0.5-2.9-1.6-4c-1.1-1.1-2.8-1.6-5.1-1.6h-7.3v11H1492.6z"/>
	</g>
	<g class="st2">
		<path d="M1476.5,622.5v-43.1h15.6c3.4,0,6.4,0.5,9,1.6c2.6,1,4.8,2.5,6.4,4.4c1.7,1.9,3,4.2,3.8,6.8c0.9,2.6,1.3,5.6,1.3,8.8
			c0,3.3-0.4,6.2-1.3,8.8c-0.9,2.6-2.1,4.9-3.8,6.8c-1.7,1.9-3.8,3.4-6.4,4.4c-2.6,1-5.6,1.6-9,1.6H1476.5z M1485.5,614.6h6.2
			c3.9,0,6.8-1.2,8.7-3.5c1.9-2.3,2.9-5.7,2.9-10.2s-1-7.8-2.9-10.2c-1.9-2.3-4.8-3.5-8.7-3.5h-6.2V614.6z"/>
	</g>
</g>
</svg>
